<svg xmlns="http://www.w3.org/2000/svg" viewBox="0 0 100 100" xml:space="preserve"><g fill="#FFF"><path d="M14.7 100h70.6c8.1 0 14.6-6.6 14.6-14.6V14.8C99.9 6.7 93.3.2 85.3.2H14.7C6.6.1.1 6.7.1 14.8v70.6c0 8 6.5 14.6 14.6 14.6zM5.9 14.8c0-4.9 4-8.8 8.8-8.8h70.6c4.8 0 8.8 3.9 8.8 8.8v70.6c0 4.8-3.9 8.8-8.8 8.8H14.7c-4.8 0-8.8-3.9-8.8-8.8V14.8z"/><path d="M50 76.4c14.5 0 26.3-11.8 26.3-26.3S64.5 23.8 50 23.8 23.7 35.6 23.7 50.1 35.5 76.4 50 76.4zm0-46.8c11.3 0 20.5 9.2 20.5 20.5S61.3 70.5 50 70.5 29.5 61.3 29.5 50 38.7 29.6 50 29.6zM79.3 29.6c4.8 0 8.8-3.9 8.8-8.8 0-4.8-3.9-8.8-8.8-8.8-4.8 0-8.8 3.9-8.8 8.8 0 4.8 3.9 8.8 8.8 8.8zm0-11.7c1.6 0 2.9 1.3 2.9 2.9 0 1.6-1.3 2.9-2.9 2.9-1.6 0-2.9-1.3-2.9-2.9-.1-1.6 1.2-2.9 2.9-2.9z"/></g></svg>