<svg xmlns="http://www.w3.org/2000/svg" xml:space="preserve" viewBox="104.1 0 592.3 600"><path fill="#FFF" d="M610 90.4C554.1 34.9 480.3 4.1 401.2 4.1c-162.6 0-294.7 132.2-294.7 294.7 0 51.9 13.4 102.6 39.3 147.6L104 599.2l156.5-40.9c43 23.5 91.6 35.7 141.1 36.1 162.6 0 294.7-132.2 294.7-294.7-.4-79.6-30.8-153.3-86.3-209.3zM401.2 544.1c-44.2 0-87.2-11.8-124.9-34.1l-8.9-5.3-92.8 24.3 24.7-90.4-5.7-9.3c-24.7-38.9-37.3-83.9-37.3-130.5 0-135 109.9-244.9 245.3-244.9 65.3 0 126.9 25.5 173.1 71.8 46.2 46.2 71.8 107.8 71.8 173.5-.4 135-110.3 244.9-245.3 244.9z"/><path fill="#FFF" d="M535.8 360.8c-7.7-4.1-43.8-21.9-50.7-24.3-6.9-2.4-11.8-3.6-16.6 3.6-4.9 7.3-19.1 23.9-23.5 28.8-4.5 4.9-8.5 5.7-15.8 2-7.3-3.6-31.2-11.4-59.2-36.5-10.9-9.7-20.3-20.7-28.8-32.4-4.1-5.7-16.2-19.1-13.8-26.8.8-2 2-4.1 3.6-5.7 4.9-5.7 19.5-18.2 19.5-26.8 2.4-4.9 1.2-9.3-.8-13-2-3.6-16.6-40.1-22.7-54.7-2.8-7.3-6.5-12.2-15-12.6-13-.8-25.9-1.2-35.3 8.9-6.9 7.3-25.9 25.1-25.9 61.6s26.4 71.4 30 76.2c3.6 4.9 51.9 79.5 125.7 111.1 17.4 7.7 31.2 12.2 42.2 15.4 17.8 5.7 33.6 4.9 46.2 2.8 14.2-2 43.8-17.8 49.9-34.9 6.1-17 6.1-32 4.5-34.9-1.3-2.5-6.2-4.1-13.5-7.8z"/></svg>