<svg xmlns="http://www.w3.org/2000/svg" xml:space="preserve" viewBox="-8 0 32 32"><path fill="#D07100" d="M22.4 16.7c-.3-.3-.8-.3-1.9-.3h-25c-1 0-1.6 0-1.9.3-.3.3-.3.8-.3 1.9v3.7c0 4.2 0 6.2 1.3 7.5 1.3 1.3 3.4 1.3 7.5 1.3h11.8c4.2 0 6.2 0 7.5-1.3 1.3-1.3 1.3-3.4 1.3-7.5v-3.7c0-1.1 0-1.6-.3-1.9zM4.7 27.4H.3c-.6 0-1.1-.5-1.1-1.1 0-.6.5-1.1 1.1-1.1h4.4c.6 0 1.1.5 1.1 1.1 0 .6-.5 1.1-1.1 1.1zm0-6.6H.3c-.6 0-1.1-.5-1.1-1.1 0-.6.5-1.1 1.1-1.1h4.4c.6 0 1.1.5 1.1 1.1 0 .6-.5 1.1-1.1 1.1zm11 6.6h-4.4c-.6 0-1.1-.5-1.1-1.1 0-.6.5-1.1 1.1-1.1h4.4c.6 0 1.1.5 1.1 1.1 0 .6-.5 1.1-1.1 1.1zm0-6.6h-4.4c-.6 0-1.1-.5-1.1-1.1 0-.6.5-1.1 1.1-1.1h4.4c.6 0 1.1.5 1.1 1.1 0 .6-.5 1.1-1.1 1.1zM22.6 9.3c-.4-1.5-1.6-2.7-3.1-3.1-.4-.1-1-.1-1.9-.1v-3c0-1.2-1-2.2-2.2-2.2s-2.2 1-2.2 2.2V6H2.9V3.1C2.9 1.9 1.9.9.7.9s-2.2 1-2.2 2.2V6c-.9 0-1.4 0-1.9.1-1.6.5-2.8 1.7-3.2 3.2-.2.6-.2 1.2-.2 2.6v.7c.1.4.4.7.8.8h27.9c.4-.1.7-.4.8-.8v-.7c0-1.3 0-2-.1-2.6z"/></svg>