<svg xmlns="http://www.w3.org/2000/svg" xml:space="preserve" viewBox="-8 0 32 32"><path fill="#D07100" d="M8 31.8c-1.2 0-2.3-1-2.3-2.3v-3c0-1.2 1-2.3 2.3-2.3s2.3 1 2.3 2.3v3c0 1.3-1.1 2.3-2.3 2.3zM17.6 27.8c-.6 0-1.2-.2-1.6-.7L13.8 25c-.9-.9-.9-2.3 0-3.2s2.3-.9 3.2 0l2.1 2.1c.9.9.9 2.3 0 3.2-.4.5-1 .7-1.5.7zM-1.6 27.8c-.6 0-1.2-.2-1.6-.7-.8-.8-.8-2.2 0-3.1l2.1-2.1c.9-.9 2.3-.9 3.2 0s.9 2.3 0 3.2L0 27.2c-.4.4-1 .6-1.6.6zM21.5 18.3h-3c-1.2 0-2.3-1-2.3-2.3s1-2.3 2.3-2.3h3c1.2 0 2.3 1 2.3 2.3s-1 2.3-2.3 2.3zM-2.5 18.3h-3c-1.2 0-2.3-1-2.3-2.3s1-2.3 2.3-2.3h3c1.2 0 2.3 1 2.3 2.3s-1.1 2.3-2.3 2.3z"/><circle cx="8" cy="16" r="4.5" fill="#D07100"/><path fill="#D07100" d="M15.4 10.8c-.6 0-1.2-.2-1.6-.7-.8-.8-.8-2.3 0-3.1L16 4.8c.9-.9 2.3-.9 3.2 0s.9 2.3 0 3.2L17 10.2c-.4.4-1 .6-1.6.6zM.6 10.8c-.6 0-1.2-.2-1.6-.7L-3.2 8c-.8-.9-.8-2.3 0-3.2.9-.8 2.3-.8 3.2 0L2.2 7c.8.8.8 2.3 0 3.1-.5.5-1.1.7-1.6.7zM8 7.7c-1.2 0-2.3-1-2.3-2.3v-3C5.7 1.2 6.7.1 8 .1s2.3 1 2.3 2.3v3c0 1.3-1.1 2.3-2.3 2.3z"/></svg>