<svg xmlns="http://www.w3.org/2000/svg" xml:space="preserve" viewBox="0 0 166 44"><path fill="#F79444" d="M47.3 14.4h1L54.9 29h-1.2l-1.8-4h-8.4l-1.8 4h-1.1l6.7-14.6zm4.2 9.6-3.7-8.4L44 24h7.5zM62.3 29.3c-.7 0-1.4-.1-2.1-.4-1.3-.6-2.3-1.6-2.8-2.9-.5-1.3-.5-2.9 0-4.3.3-.7.6-1.3 1.1-1.8.5-.5 1-.9 1.7-1.2 2.2-1 4.6-.2 6.2 1.5l-.7.7c-.4-.5-.9-.9-1.5-1.2-1.1-.7-2.5-.7-3.6-.2-.5.2-.9.6-1.3 1s-.7.9-.9 1.4c-.4 1.1-.4 2.5 0 3.6s1.2 1.9 2.3 2.4c1.1.5 2.6.5 3.6-.2.6-.3 1.1-.8 1.5-1.3l.7.6c-.5.6-1.1 1.1-1.8 1.5-.7.6-1.5.8-2.4.8zM72.8 29.2c-.4 0-.8-.1-1.1-.2-.4-.1-.7-.3-.9-.5-.3-.2-.5-.5-.6-.9-.5-1.2-.2-3.1-.2-4.4v-3.9h-1.5v-.9H70V15h1v3.4h3.6v.9H71v6.8c0 .8.2 1.3.6 1.6.9.7 2.1.5 3 .1v1c-.7.3-1.3.4-1.8.4zM77.5 14.3h1.2v1.4h-1.2v-1.4zm.1 4.2h1V29h-1V18.5zM81.4 18.5h1.2l3.9 9.4 4-9.4h1.1l-4.7 10.7H86l-4.6-10.7zM98.7 29.3c-.7 0-1.3-.1-1.9-.4-1.3-.5-2.2-1.6-2.7-2.9-.8-2-.4-4.6 1-6.2.4-.5 1-.9 1.6-1.2 1.2-.6 2.7-.6 3.9 0 .6.3 1.1.7 1.5 1.2.9 1.1 1.6 2.9 1.3 4.4h-8.6c.1 1.1.5 2.2 1.3 3.1.4.4.8.6 1.3.8 1.1.4 2.5.4 3.5-.2.6-.3 1.1-.7 1.5-1.2l.7.6c-.5.6-1.1 1.1-1.8 1.4-.8.4-1.6.6-2.6.6zm3.5-6c-.1-1-.4-2-1-2.9-.3-.4-.7-.7-1.1-.9-.9-.5-2.1-.5-3 0-.4.2-.8.5-1.2.9-.7.8-1.1 1.9-1.2 2.9h7.5z"/><path fill="#8DC63F" d="M106.4 14.5h3.8c1.8 0 3.7 0 5.1 1.2.5.4.8.8 1.1 1.4.6 1.2.5 2.8-.1 3.9-.3.6-.7 1.1-1.2 1.5-2.1 1.6-5.2 1.2-7.7 1.2V29h-1.1l.1-14.5zm5 8.2c1.1 0 2.3-.3 3.2-1 .4-.3.7-.7.9-1.1.4-.9.5-2.1 0-3.1-.2-.4-.5-.8-.9-1.1-1.8-1.4-5-.9-7.1-.9v7.2h3.9zM119.9 13.9h1V29h-1V13.9zM128 29.3c-1 0-1.9-.3-2.7-.8-.4-.3-.7-.6-.9-1-.5-.9-.5-2.1 0-3 .2-.4.5-.8.9-1.1 1.8-1.4 4.6-1 6.7-.4v-.5c0-3.7-4.2-3.7-6.7-2.4l-.4-.9c2-1 5.2-1.6 7 .2 1.3 1.3 1.1 3.4 1.1 5.1V29h-1v-1.8c-.9 1.4-2.5 2.1-4 2.1zm0-1c1 0 2-.3 2.8-.9.4-.3.6-.6.9-1 .4-.8.3-1.7.3-2.5-1.8-.5-4.4-1-6.1.2-.6.4-.9 1-.9 1.8 0 .4.1.7.2 1.1.2.3.4.5.7.8.6.3 1.4.5 2.1.5zM136.5 18.5h1v2c1.1-1.9 3.4-2.8 5.5-1.9.5.2 1 .5 1.3.9.4.4.6.8.8 1.4.5 1.4.3 3.1.3 4.5v3.7h-1V25c0-1.6.3-3.5-.9-4.8-.9-1.1-2.6-1.2-3.9-.7-.9.4-1.6 1.1-1.9 2-.5 1.2-.3 2.7-.3 4v3.7h-1l.1-10.7zM153.3 29.3c-.7 0-1.3-.1-1.9-.4-.6-.3-1.2-.6-1.6-1.1-.5-.5-.8-1.1-1.1-1.7-.8-2-.4-4.6 1-6.2.4-.5 1-.9 1.6-1.2 1.2-.6 2.7-.6 3.9 0 .6.3 1.1.7 1.5 1.2.9 1.1 1.6 2.9 1.3 4.4h-8.6c.1 1.1.5 2.2 1.3 3.1.4.4.8.6 1.3.8 1.1.4 2.5.4 3.5-.2.6-.3 1.1-.7 1.5-1.2l.7.6c-.5.6-1.1 1.1-1.8 1.4-.7.3-1.6.5-2.6.5zm3.6-6c-.1-1-.4-2-1-2.9-.3-.4-.7-.7-1.1-.9-.9-.5-2.1-.5-3 0-.4.2-.8.5-1.2.9-.7.8-1.1 1.9-1.2 2.9h7.5zM164.3 29.2c-.4 0-.8-.1-1.1-.2-.4-.1-.7-.3-.9-.5-.3-.2-.5-.5-.6-.9-.5-1.2-.2-3.1-.2-4.4v-3.9H160v-.9h1.5V15h1v3.4h3.6v.9h-3.6v6.8c0 .8.2 1.3.6 1.6.9.7 2.1.5 3 .1v1c-.7.3-1.2.4-1.8.4z"/><path fill="#95C03D" d="M3.5 8.1V6.8C1.3 9.8 0 13.5 0 17.5c0 2.4.5 4.7 1.4 6.8 2.2-1.5 4.7-2.5 7.4-2.9-3.3-3.5-5.3-8.2-5.3-13.3z"/><path fill="#F39540" d="M17.1 0c-2.5 0-4.8.5-6.9 1.5-.1 0-.2.1-.2.3C8.9 3.9 8.4 6.4 8.6 9c.5 7.2 6.3 13 13.4 13.2 5.1.2 9.6-2.4 12.2-6.4.1-.1.1-.2.1-.3C33.2 6.8 26 0 17.1 0z"/><path fill="#8DC63F" d="M24.4 27.4c1.1 1.3 2.1 2.8 2.8 4.4 0 0 .1.1.1 0 2.3-2.3 4.4-4.5 5.6-7.6 0-.1 0-.1-.1-.1-2.5 1.7-5.3 2.8-8.4 3.1v.2c1.2 1.3 0-.1 0 0z"/><path fill="#5CBCE4" d="M11.2 26.3c-2.7 0-5.2.9-7.2 2.3v.1c2.1 2.5 4.6 4.7 6.8 7 2.1 2.1 4.2 4.3 6.3 6.4l6.2-6.4c-1.3-5.3-6.2-9.4-12.1-9.4z"/><path fill="#D8D9D8" d="m17.1 43.5-.5-.5-2-2c-2.3.2-3.9.8-3.9 1.5 0 .9 2.9 1.6 6.4 1.6s6.4-.7 6.4-1.6c0-.7-1.6-1.2-3.9-1.5l-2 2-.5.5z" opacity=".83"/></svg>