<svg width="870" height="177" fill="none" xmlns="http://www.w3.org/2000/svg"><path d="M14.197 32.385c0-1.69.07-3.358.187-5.025C5.371 39.243 0 54.126 0 70.32c0 9.715 1.961 18.979 5.44 27.385 8.757-6.097 18.915-10.216 29.866-11.764a78.205 78.205 0 0 1-21.109-53.556Z" fill="#95C03D"/><path d="M68.932 0a67.348 67.348 0 0 0-27.695 5.93 2.394 2.394 0 0 0-1.167 1.143c-4.227 8.691-6.375 18.645-5.674 29.17 1.891 28.958 25.312 52.128 53.777 53.2 20.502.761 38.622-9.716 48.967-25.886.233-.38.35-.833.304-1.285C133.521 27.242 104.355 0 68.932 0Z" fill="#F39540"/><path d="M98.284 109.898c4.553 5.311 8.336 11.312 11.232 17.813.07.166.303.214.42.071l5.371-5.477a71.225 71.225 0 0 0 4.577-4.667l.023-.024a70.305 70.305 0 0 0 12.656-20.265c.094-.238-.187-.477-.397-.334-9.877 6.692-21.366 11.073-33.719 12.431-.21.047-.303.309-.163.452Z" fill="#8DC63F"/><path d="M45.115 105.66c-10.812 0-20.806 3.476-29.026 9.358a.272.272 0 0 0-.046.381c.63.762 1.26 1.501 1.915 2.239l.023.024a71.42 71.42 0 0 0 4.577 4.667l46.375 47.245 25.055-25.551c-5.697-22.075-25.406-38.363-48.873-38.363Z" fill="#5CBCE4"/><path opacity=".83" d="m68.932 174.956-2.265-2.31-7.94-8.097c-9.223.977-15.714 3.239-15.714 5.858 0 3.525 11.605 6.382 25.896 6.382 14.29 0 25.896-2.857 25.896-6.382 0-2.643-6.468-4.881-15.715-5.858l-7.94 8.097-2.218 2.31Z" fill="#D8D9D8"/><path d="M226.532 70.83c3.818.714 6.719 2.215 8.704 4.506 2.036 2.29 3.054 5.268 3.054 8.933 0 4.53-1.654 8.017-4.963 10.46-3.308 2.444-8.22 3.665-14.736 3.665h-23.822V44.947h22.295c5.803 0 10.308 1.196 13.515 3.589 3.257 2.341 4.886 5.7 4.886 10.078 0 3.055-.814 5.625-2.443 7.712-1.578 2.087-3.741 3.589-6.49 4.505Zm-27.869-22.523v21.302h18.248c4.683 0 8.272-.89 10.766-2.672 2.545-1.833 3.818-4.505 3.818-8.017 0-3.462-1.273-6.083-3.818-7.865-2.494-1.832-6.083-2.748-10.766-2.748h-18.248Zm19.928 46.728c5.192 0 9.112-.89 11.759-2.672 2.697-1.833 4.046-4.632 4.046-8.4 0-3.766-1.349-6.54-4.046-8.322-2.647-1.781-6.567-2.672-11.759-2.672h-19.928v22.066h19.928Zm66.042-15.653h-34.282c.101 3.106.89 5.88 2.367 8.323a15.3 15.3 0 0 0 5.955 5.574c2.545 1.323 5.396 1.985 8.552 1.985 2.596 0 4.988-.458 7.177-1.374 2.24-.968 4.098-2.367 5.574-4.2l2.214 2.52c-1.731 2.087-3.919 3.69-6.566 4.81-2.596 1.12-5.421 1.68-8.476 1.68-3.97 0-7.508-.865-10.613-2.596-3.105-1.73-5.548-4.123-7.33-7.177-1.73-3.054-2.596-6.541-2.596-10.46 0-3.87.815-7.33 2.444-10.385 1.679-3.105 3.97-5.523 6.871-7.253 2.902-1.731 6.16-2.596 9.774-2.596 3.614 0 6.846.865 9.697 2.596 2.901 1.68 5.166 4.046 6.795 7.1 1.68 3.055 2.52 6.516 2.52 10.385l-.077 1.069Zm-18.935-17.79c-2.8 0-5.32.636-7.559 1.909-2.24 1.222-4.047 2.978-5.421 5.268-1.324 2.24-2.087 4.785-2.291 7.636h30.541c-.152-2.85-.916-5.396-2.29-7.636-1.375-2.24-3.182-3.996-5.421-5.268-2.24-1.273-4.76-1.909-7.559-1.909ZM306.599 98.7c-3.207 0-6.261-.484-9.163-1.45-2.901-.968-5.166-2.19-6.795-3.666l1.756-3.054c1.629 1.374 3.716 2.52 6.261 3.436a24.138 24.138 0 0 0 8.093 1.374c4.022 0 6.974-.661 8.857-1.985 1.935-1.323 2.902-3.156 2.902-5.497 0-1.68-.535-3.004-1.604-3.97-1.018-.968-2.29-1.68-3.817-2.139-1.527-.458-3.64-.941-6.338-1.45-3.156-.56-5.701-1.171-7.635-1.833a11.966 11.966 0 0 1-4.963-3.207c-1.374-1.476-2.061-3.512-2.061-6.108 0-3.156 1.298-5.752 3.894-7.788 2.646-2.087 6.388-3.13 11.224-3.13 2.545 0 5.064.356 7.559 1.069 2.494.712 4.53 1.654 6.108 2.825l-1.756 3.054c-1.629-1.171-3.487-2.062-5.574-2.673a22.719 22.719 0 0 0-6.414-.916c-3.716 0-6.515.687-8.399 2.062-1.883 1.374-2.825 3.181-2.825 5.42 0 1.782.535 3.182 1.604 4.2 1.069.967 2.367 1.706 3.894 2.215 1.578.458 3.766.967 6.566 1.527 3.105.56 5.599 1.17 7.483 1.832 1.934.61 3.563 1.629 4.886 3.054 1.324 1.425 1.986 3.385 1.986 5.88 0 3.308-1.375 5.955-4.124 7.94-2.748 1.985-6.617 2.978-11.605 2.978Zm46.158-2.825c-.967.916-2.188 1.629-3.665 2.138a14.63 14.63 0 0 1-4.504.687c-3.462 0-6.134-.942-8.018-2.825-1.883-1.934-2.825-4.607-2.825-8.017V61.82h-7.33v-3.283h7.33v-8.704h3.818v8.704h12.675v3.283h-12.675v25.655c0 2.596.611 4.581 1.832 5.956 1.273 1.323 3.131 1.985 5.574 1.985 2.495 0 4.556-.738 6.185-2.215l1.603 2.673Z" fill="#D07100"/><path d="M398.285 98.776c-3.92 0-7.661-.661-11.224-1.985-3.512-1.374-6.261-3.13-8.246-5.268l1.756-2.902c1.883 1.986 4.403 3.614 7.559 4.887 3.207 1.222 6.566 1.832 10.079 1.832 5.09 0 8.933-.967 11.529-2.901 2.596-1.934 3.894-4.454 3.894-7.559 0-2.392-.687-4.301-2.062-5.727-1.374-1.425-3.079-2.52-5.115-3.283-2.036-.763-4.785-1.552-8.246-2.367-3.92-.967-7.076-1.909-9.468-2.825a15.584 15.584 0 0 1-6.032-4.2c-1.629-1.933-2.444-4.504-2.444-7.71 0-2.597.688-4.964 2.062-7.102 1.374-2.189 3.461-3.92 6.261-5.192 2.851-1.272 6.388-1.909 10.613-1.909 2.952 0 5.854.433 8.704 1.298 2.851.866 5.32 2.036 7.407 3.513l-1.451 3.13c-2.138-1.476-4.505-2.596-7.101-3.36-2.545-.763-5.065-1.145-7.559-1.145-4.937 0-8.679.993-11.224 2.978-2.545 1.985-3.817 4.556-3.817 7.712 0 2.392.687 4.301 2.061 5.726 1.374 1.425 3.08 2.52 5.116 3.283 2.036.764 4.81 1.578 8.322 2.444 3.92.967 7.05 1.909 9.392 2.825a14.966 14.966 0 0 1 5.955 4.2c1.68 1.832 2.52 4.326 2.52 7.482 0 2.596-.713 4.963-2.138 7.1-1.374 2.139-3.512 3.844-6.414 5.117-2.901 1.272-6.464 1.908-10.689 1.908Zm51.262-40.543c3.716 0 7.075.865 10.078 2.596 3.004 1.73 5.345 4.123 7.025 7.177 1.731 3.054 2.596 6.54 2.596 10.46 0 3.92-.865 7.432-2.596 10.537-1.68 3.054-4.021 5.447-7.025 7.177-3.003 1.68-6.362 2.52-10.078 2.52-3.513 0-6.694-.815-9.544-2.443-2.851-1.68-5.065-3.996-6.643-6.949v23.899h-3.818V58.538h3.665v9.392c1.578-3.055 3.792-5.422 6.643-7.101 2.901-1.731 6.134-2.596 9.697-2.596Zm-.229 37.031c3.054 0 5.803-.713 8.246-2.138 2.443-1.425 4.352-3.41 5.726-5.955 1.426-2.546 2.138-5.447 2.138-8.705 0-3.257-.712-6.159-2.138-8.704-1.374-2.545-3.283-4.53-5.726-5.956-2.443-1.425-5.192-2.137-8.246-2.137-3.054 0-5.803.712-8.247 2.137-2.392 1.426-4.301 3.41-5.726 5.956-1.374 2.545-2.062 5.447-2.062 8.704 0 3.258.688 6.16 2.062 8.705 1.425 2.545 3.334 4.53 5.726 5.955 2.444 1.425 5.193 2.138 8.247 2.138Zm47.324 3.436c-3.767 0-7.177-.865-10.231-2.596-3.004-1.73-5.371-4.123-7.101-7.177-1.731-3.105-2.596-6.592-2.596-10.46 0-3.87.865-7.33 2.596-10.385 1.73-3.105 4.097-5.523 7.101-7.253 3.054-1.731 6.464-2.596 10.231-2.596 3.767 0 7.152.865 10.155 2.596 3.054 1.73 5.446 4.148 7.177 7.253 1.731 3.054 2.596 6.516 2.596 10.384 0 3.869-.865 7.356-2.596 10.46-1.731 3.055-4.123 5.447-7.177 7.178-3.003 1.73-6.388 2.596-10.155 2.596Zm0-3.436c3.054 0 5.777-.713 8.17-2.138 2.443-1.425 4.352-3.41 5.726-5.955 1.426-2.546 2.138-5.447 2.138-8.705 0-3.257-.712-6.159-2.138-8.704-1.374-2.545-3.283-4.53-5.726-5.956-2.393-1.425-5.116-2.137-8.17-2.137-3.054 0-5.803.712-8.246 2.137-2.393 1.426-4.302 3.41-5.727 5.956-1.374 2.545-2.061 5.447-2.061 8.704 0 3.258.687 6.16 2.061 8.705 1.425 2.545 3.334 4.53 5.727 5.955 2.443 1.425 5.192 2.138 8.246 2.138Zm35.437-28.022c1.222-2.901 3.13-5.115 5.726-6.642 2.596-1.578 5.752-2.367 9.468-2.367v3.74l-.916-.075c-4.429 0-7.89 1.4-10.384 4.199-2.494 2.749-3.741 6.592-3.741 11.53v20.767h-3.818V58.538h3.665v8.704Zm47.278 28.633c-.967.916-2.189 1.629-3.665 2.138a14.632 14.632 0 0 1-4.505.687c-3.461 0-6.133-.942-8.017-2.825-1.883-1.934-2.825-4.607-2.825-8.017V61.82h-7.33v-3.283h7.33v-8.704h3.818v8.704h12.675v3.283h-12.675v25.655c0 2.596.611 4.581 1.832 5.956 1.273 1.323 3.131 1.985 5.574 1.985 2.494 0 4.556-.738 6.185-2.215l1.603 2.673Z" fill="#A1BC51"/><path d="M633.436 98.776c-5.243 0-9.977-1.17-14.201-3.512-4.174-2.341-7.483-5.574-9.926-9.697-2.393-4.123-3.589-8.755-3.589-13.896s1.196-9.773 3.589-13.897c2.443-4.123 5.752-7.355 9.926-9.696 4.224-2.342 8.958-3.513 14.201-3.513 3.869 0 7.432.637 10.69 1.91 3.258 1.22 6.032 3.053 8.322 5.497l-2.443 2.52c-4.276-4.226-9.748-6.338-16.416-6.338-4.479 0-8.552 1.018-12.217 3.054-3.664 2.036-6.54 4.861-8.627 8.475-2.087 3.563-3.131 7.56-3.131 11.988s1.044 8.45 3.131 12.064c2.087 3.563 4.963 6.362 8.627 8.398 3.665 2.037 7.738 3.055 12.217 3.055 6.617 0 12.089-2.138 16.416-6.414l2.443 2.52c-2.29 2.443-5.09 4.3-8.399 5.574-3.257 1.272-6.795 1.908-10.613 1.908Zm43.601-40.543c4.937 0 8.729 1.272 11.376 3.817 2.647 2.495 3.971 6.185 3.971 11.072v25.272h-3.665v-7.1c-1.273 2.341-3.131 4.174-5.574 5.497-2.443 1.273-5.37 1.909-8.781 1.909-4.428 0-7.941-1.044-10.537-3.13-2.545-2.087-3.817-4.836-3.817-8.247 0-3.308 1.17-5.98 3.512-8.017 2.392-2.087 6.185-3.13 11.377-3.13h13.667v-3.207c0-3.716-1.018-6.541-3.054-8.475-1.985-1.935-4.912-2.902-8.781-2.902-2.647 0-5.192.458-7.635 1.375-2.393.916-4.429 2.137-6.108 3.665l-1.909-2.75c1.985-1.78 4.377-3.155 7.177-4.122a25.492 25.492 0 0 1 8.781-1.527Zm-2.138 37.337c3.308 0 6.108-.764 8.399-2.291 2.341-1.527 4.097-3.742 5.268-6.643v-7.483h-13.591c-3.919 0-6.77.713-8.552 2.138-1.73 1.426-2.596 3.385-2.596 5.88 0 2.596.968 4.657 2.902 6.184 1.934 1.476 4.657 2.215 8.17 2.215Zm82.844-37.337c4.937 0 8.806 1.45 11.605 4.352 2.851 2.901 4.276 7.075 4.276 12.522v23.287h-3.817V75.412c0-4.48-1.095-7.89-3.284-10.231-2.188-2.342-5.243-3.512-9.162-3.512-4.479 0-8.043 1.4-10.689 4.199-2.597 2.8-3.895 6.566-3.895 11.3v21.226h-3.817V75.412c0-4.48-1.095-7.89-3.283-10.231-2.189-2.342-5.243-3.512-9.163-3.512-4.479 0-8.042 1.4-10.689 4.199-2.596 2.8-3.894 6.566-3.894 11.3v21.226h-3.818V58.538h3.665v8.552c1.323-2.8 3.283-4.963 5.879-6.49 2.647-1.578 5.778-2.367 9.392-2.367s6.668.814 9.162 2.443c2.545 1.629 4.352 4.021 5.421 7.177 1.324-2.952 3.385-5.294 6.185-7.024 2.85-1.731 6.159-2.596 9.926-2.596Zm51.649 0c3.716 0 7.076.865 10.079 2.596 3.003 1.73 5.345 4.123 7.025 7.177 1.73 3.054 2.596 6.54 2.596 10.46 0 3.92-.866 7.432-2.596 10.537-1.68 3.054-4.022 5.447-7.025 7.177-3.003 1.68-6.363 2.52-10.079 2.52-3.512 0-6.693-.815-9.544-2.443-2.85-1.68-5.065-3.996-6.643-6.949v23.899h-3.817V58.538h3.665v9.392c1.578-3.055 3.792-5.422 6.642-7.101 2.902-1.731 6.134-2.596 9.697-2.596Zm-.229 37.031c3.054 0 5.803-.713 8.246-2.138 2.444-1.425 4.353-3.41 5.727-5.955 1.425-2.546 2.138-5.447 2.138-8.705 0-3.257-.713-6.159-2.138-8.704-1.374-2.545-3.283-4.53-5.727-5.956-2.443-1.425-5.192-2.137-8.246-2.137-3.054 0-5.803.712-8.246 2.137-2.392 1.426-4.301 3.41-5.726 5.956-1.375 2.545-2.062 5.447-2.062 8.704 0 3.258.687 6.16 2.062 8.705 1.425 2.545 3.334 4.53 5.726 5.955 2.443 1.425 5.192 2.138 8.246 2.138ZM850.99 98.7c-3.207 0-6.261-.484-9.162-1.45-2.902-.968-5.167-2.19-6.796-3.666l1.756-3.054c1.629 1.374 3.716 2.52 6.261 3.436a24.14 24.14 0 0 0 8.094 1.374c4.021 0 6.973-.661 8.857-1.985 1.934-1.323 2.901-3.156 2.901-5.497 0-1.68-.534-3.004-1.603-3.97-1.018-.968-2.291-1.68-3.818-2.139-1.527-.458-3.639-.941-6.337-1.45-3.156-.56-5.701-1.171-7.636-1.833a11.972 11.972 0 0 1-4.963-3.207c-1.374-1.476-2.061-3.512-2.061-6.108 0-3.156 1.298-5.752 3.894-7.788 2.647-2.087 6.388-3.13 11.224-3.13 2.545 0 5.065.356 7.559 1.069 2.494.712 4.53 1.654 6.108 2.825l-1.756 3.054c-1.629-1.171-3.487-2.062-5.574-2.673a22.717 22.717 0 0 0-6.413-.916c-3.716 0-6.516.687-8.399 2.062-1.884 1.374-2.825 3.181-2.825 5.42 0 1.782.534 3.182 1.603 4.2 1.069.967 2.367 1.706 3.894 2.215 1.578.458 3.767.967 6.566 1.527 3.105.56 5.6 1.17 7.483 1.832 1.934.61 3.563 1.629 4.887 3.054 1.323 1.425 1.985 3.385 1.985 5.88 0 3.308-1.374 5.955-4.123 7.94-2.749 1.985-6.618 2.978-11.606 2.978Z" fill="#35AFD4"/><path d="M188.75 145.395h-1.993l7.575-20.824h2.034l7.575 20.824h-1.993l-6.528-18.353h-.142l-6.528 18.353Zm1.434-7.982h10.33v1.708h-10.33v-1.708Zm52.412-6.335h-1.911a5.924 5.924 0 0 0-.773-1.972 6.116 6.116 0 0 0-1.383-1.597 6.294 6.294 0 0 0-1.891-1.057 6.771 6.771 0 0 0-2.288-.376 6.604 6.604 0 0 0-3.599 1.027c-1.078.684-1.942 1.691-2.593 3.019-.644 1.322-.966 2.942-.966 4.861 0 1.932.322 3.558.966 4.88.651 1.322 1.515 2.325 2.593 3.01a6.655 6.655 0 0 0 3.599 1.017c.821 0 1.583-.126 2.288-.377a6.379 6.379 0 0 0 1.891-1.047 6.095 6.095 0 0 0 1.383-1.596c.373-.61.631-1.271.773-1.983h1.911a8.354 8.354 0 0 1-.955 2.674 7.979 7.979 0 0 1-1.769 2.156 7.963 7.963 0 0 1-2.461 1.444c-.929.345-1.949.518-3.061.518-1.748 0-3.301-.437-4.656-1.311-1.356-.882-2.42-2.122-3.193-3.722-.766-1.6-1.149-3.487-1.149-5.663s.383-4.064 1.149-5.664c.773-1.6 1.837-2.837 3.193-3.711 1.355-.881 2.908-1.322 4.656-1.322 1.112 0 2.132.173 3.061.519.929.339 1.749.82 2.461 1.444a7.96 7.96 0 0 1 1.769 2.155c.467.82.786 1.712.955 2.674Zm22.962-4.799v-1.708h15.1v1.708h-6.599v19.116h-1.902v-19.116h-6.599Zm41.038-1.708v20.824h-1.901v-20.824h1.901Zm25.323 0 6.508 18.353h.183l6.507-18.353h1.993l-7.575 20.824h-2.033l-7.576-20.824h1.993Zm38.516 20.824v-20.824h12.08v1.708h-10.178v7.839h9.537v1.709h-9.537v7.859h10.381v1.709h-12.283Zm64.567 0v-20.824h6.721c1.478 0 2.711.285 3.701.854.996.563 1.745 1.329 2.247 2.298.508.969.763 2.061.763 3.274s-.251 2.308-.753 3.284c-.501.969-1.247 1.739-2.237 2.308-.989.563-2.22.844-3.691.844h-5.287v-1.708h5.236c1.092 0 1.997-.203 2.715-.61a3.935 3.935 0 0 0 1.607-1.688c.359-.712.539-1.522.539-2.43 0-.908-.18-1.718-.539-2.43a3.864 3.864 0 0 0-1.617-1.678c-.718-.407-1.63-.61-2.735-.61h-4.769v19.116h-1.901Zm37.652 0v-20.824h1.901v19.115h9.924v1.709h-11.825Zm37.207 0h-1.993l7.575-20.824h2.033l7.575 20.824h-1.993l-6.527-18.353h-.143l-6.527 18.353Zm1.433-7.982h10.331v1.708h-10.331v-1.708Zm53.3-12.842v20.824h-1.85l-12.303-17.438h-.163v17.438h-1.901v-20.824h1.84l12.344 17.458h.163v-17.458h1.87Zm25.293 20.824v-20.824h12.08v1.708h-10.178v7.839h9.537v1.709h-9.537v7.859h10.381v1.709h-12.283Zm35.496-19.116v-1.708h15.1v1.708h-6.599v19.116h-1.902v-19.116h-6.599Zm81.354 4.799a7.616 7.616 0 0 0-.834-1.942 6.285 6.285 0 0 0-1.362-1.596 5.97 5.97 0 0 0-1.861-1.078c-.698-.258-1.478-.386-2.339-.386-1.355 0-2.569.352-3.64 1.057-1.071.705-1.918 1.722-2.542 3.05-.616 1.329-.925 2.929-.925 4.8 0 1.864.312 3.46.936 4.789.623 1.328 1.477 2.348 2.562 3.06 1.091.705 2.338 1.058 3.742 1.058 1.281 0 2.413-.285 3.396-.854.983-.57 1.748-1.383 2.298-2.441.555-1.057.827-2.315.813-3.772l.61.193h-6.67v-1.708h7.911v1.708c0 1.776-.36 3.312-1.078 4.606-.719 1.295-1.705 2.295-2.959 3-1.254.705-2.695 1.057-4.321 1.057-1.817 0-3.407-.437-4.769-1.311-1.363-.882-2.423-2.122-3.183-3.722-.752-1.606-1.128-3.494-1.128-5.663 0-1.634.217-3.108.65-4.423.434-1.315 1.048-2.441 1.841-3.376a8.086 8.086 0 0 1 2.837-2.145c1.091-.502 2.298-.753 3.619-.753 1.139 0 2.18.18 3.122.539a8.08 8.08 0 0 1 2.501 1.485 8.02 8.02 0 0 1 1.78 2.165c.467.814.782 1.681.945 2.603h-1.952Zm26.571 14.317v-20.824h6.721c1.478 0 2.712.268 3.701.803.997.529 1.746 1.264 2.247 2.207.509.935.763 2.009.763 3.223 0 1.213-.254 2.284-.763 3.213-.501.928-1.247 1.654-2.236 2.176-.99.522-2.217.783-3.681.783h-5.725v-1.739h5.674c1.085 0 1.986-.18 2.705-.539.725-.359 1.264-.871 1.616-1.535.36-.665.539-1.451.539-2.359 0-.909-.179-1.702-.539-2.38-.359-.684-.901-1.213-1.627-1.586-.718-.373-1.626-.559-2.725-.559h-4.768v19.116h-1.902Zm9.182-9.396 5.124 9.396h-2.196l-5.074-9.396h2.146Zm45.71-1.016c0 2.169-.387 4.057-1.159 5.663-.773 1.6-1.837 2.84-3.193 3.722-1.349.874-2.901 1.311-4.657 1.311-1.756 0-3.311-.437-4.667-1.311-1.349-.882-2.41-2.122-3.183-3.722-.766-1.606-1.148-3.494-1.148-5.663s.382-4.054 1.148-5.654c.773-1.606 1.837-2.847 3.193-3.721 1.356-.881 2.908-1.322 4.657-1.322 1.756 0 3.308.441 4.657 1.322 1.356.874 2.42 2.115 3.193 3.721.772 1.6 1.159 3.485 1.159 5.654Zm-1.851 0c0-1.864-.312-3.461-.935-4.789-.624-1.336-1.475-2.356-2.552-3.061-1.078-.705-2.302-1.057-3.671-1.057-1.362 0-2.583.352-3.66 1.057-1.078.705-1.932 1.722-2.563 3.05-.623 1.329-.935 2.929-.935 4.8 0 1.864.312 3.46.935 4.789.624 1.328 1.475 2.348 2.552 3.06 1.078.705 2.302 1.058 3.671 1.058 1.369 0 2.593-.353 3.671-1.058 1.084-.705 1.938-1.722 2.562-3.05.624-1.335.932-2.935.925-4.799Zm40.085-10.412h1.901v13.787c0 1.417-.332 2.685-.996 3.803-.665 1.112-1.59 1.99-2.776 2.634-1.18.637-2.552.955-4.118.955-1.559 0-2.932-.322-4.118-.966-1.186-.643-2.112-1.521-2.776-2.633-.664-1.112-.996-2.376-.996-3.793v-13.787h1.901v13.655c0 1.105.247 2.091.742 2.959a5.326 5.326 0 0 0 2.085 2.034c.901.494 1.955.742 3.162.742 1.206 0 2.26-.248 3.162-.742a5.232 5.232 0 0 0 2.084-2.034c.495-.868.743-1.854.743-2.959v-13.655Zm27.184 20.824v-20.824h6.721c1.477 0 2.711.285 3.701.854.996.563 1.745 1.329 2.247 2.298.508.969.762 2.061.762 3.274s-.25 2.308-.752 3.284c-.502.969-1.247 1.739-2.237 2.308-.99.563-2.22.844-3.691.844h-5.287v-1.708h5.236c1.092 0 1.997-.203 2.715-.61a3.935 3.935 0 0 0 1.607-1.688c.359-.712.538-1.522.538-2.43 0-.908-.179-1.718-.538-2.43a3.864 3.864 0 0 0-1.617-1.678c-.719-.407-1.63-.61-2.735-.61h-4.769v19.116h-1.901Z" fill="#000"/></svg>