<svg width="282" height="74" viewBox="0 0 282 74" fill="none" xmlns="http://www.w3.org/2000/svg">
<path d="M80.3083 24.261H82.0346L93.2901 48.8511H91.3271L88.2493 42.0133H73.985L70.9171 48.8511H69.0527L80.3083 24.261ZM87.4897 40.3786L81.1369 26.2445L74.7446 40.3786H87.4897Z" fill="#F79444"/>
<path d="M105.759 49.2706C104.496 49.2706 103.312 49.0214 102.217 48.523C101.122 48.0247 100.175 47.3568 99.3763 46.5195C98.5773 45.6823 97.946 44.7054 97.4922 43.5891C97.0384 42.4727 96.8115 41.2865 96.8115 40.0306V39.9608C96.8115 38.7049 97.0384 37.5188 97.4922 36.4024C97.946 35.286 98.5674 34.2992 99.3763 33.4321C100.175 32.5748 101.122 31.8871 102.217 31.3887C103.312 30.8903 104.486 30.6411 105.759 30.6411C106.587 30.6411 107.337 30.7308 108.018 30.9102C108.698 31.0897 109.32 31.3289 109.902 31.6379C110.474 31.9469 110.997 32.2957 111.47 32.6945C111.944 33.0932 112.388 33.5118 112.802 33.9504L111.589 35.2063C110.829 34.4188 109.991 33.7311 109.073 33.143C108.156 32.5649 107.041 32.2658 105.719 32.2658C104.703 32.2658 103.766 32.4652 102.908 32.8539C102.04 33.2526 101.3 33.7909 100.669 34.4687C100.037 35.1565 99.5342 35.9539 99.1692 36.8809C98.8042 37.8078 98.6167 38.8046 98.6167 39.8711V39.9409C98.6167 41.0075 98.8042 42.0042 99.1889 42.9412C99.5638 43.8781 100.087 44.6955 100.738 45.3932C101.389 46.0909 102.158 46.6292 103.036 47.0279C103.914 47.4266 104.851 47.616 105.867 47.616C107.11 47.616 108.225 47.3269 109.201 46.7588C110.178 46.1906 111.036 45.4829 111.776 44.6456L112.95 45.6922C112.052 46.7189 111.036 47.5661 109.892 48.234C108.738 48.9417 107.367 49.2706 105.759 49.2706Z" fill="#F79444"/>
<path d="M123.604 49.1709C122.914 49.1709 122.272 49.0812 121.671 48.8918C121.069 48.7024 120.546 48.4133 120.102 48.0047C119.658 47.596 119.303 47.0876 119.047 46.4696C118.79 45.8517 118.672 45.124 118.672 44.2867V32.6346H116.107V31.0597H118.662V25.3682H120.349V31.0597H126.534V32.6346H120.349V44.0874C120.349 45.3632 120.674 46.2603 121.335 46.7687C121.996 47.277 122.835 47.5362 123.87 47.5362C124.304 47.5362 124.719 47.4963 125.113 47.4066C125.508 47.3169 125.952 47.1674 126.455 46.9481V48.5529C125.991 48.7622 125.538 48.9217 125.094 49.0214C124.66 49.121 124.156 49.1709 123.604 49.1709Z" fill="#F79444"/>
<path d="M131.575 24.0818H133.676V26.4242H131.575V24.0818ZM131.782 31.0591H133.469V48.8513H131.782V31.0591Z" fill="#F79444"/>
<path d="M138.341 31.0593H140.314L146.973 46.9378L153.701 31.0593H155.604L147.693 48.9911H146.243L138.341 31.0593Z" fill="#F79444"/>
<path d="M167.679 49.2706C166.524 49.2706 165.42 49.0513 164.374 48.6028C163.328 48.1642 162.401 47.5362 161.602 46.7189C160.803 45.9016 160.182 44.9247 159.718 43.7884C159.254 42.6521 159.027 41.3763 159.027 39.9908V39.921C159.027 38.6451 159.244 37.439 159.669 36.3127C160.093 35.1864 160.685 34.1996 161.434 33.3623C162.184 32.525 163.062 31.8671 164.078 31.3688C165.094 30.8803 166.199 30.6411 167.393 30.6411C168.635 30.6411 169.75 30.8803 170.747 31.3588C171.733 31.8372 172.581 32.4951 173.282 33.3324C173.982 34.1697 174.525 35.1565 174.9 36.2828C175.284 37.4091 175.472 38.6352 175.472 39.9608C175.472 40.1203 175.472 40.2499 175.472 40.3296C175.472 40.4094 175.462 40.519 175.432 40.6586H160.833C160.902 41.765 161.148 42.7518 161.563 43.609C161.977 44.4662 162.5 45.1939 163.121 45.7919C163.743 46.39 164.453 46.8485 165.252 47.1674C166.051 47.4764 166.88 47.6359 167.758 47.6359C169.139 47.6359 170.312 47.3668 171.269 46.8385C172.226 46.3003 173.075 45.6424 173.814 44.845L174.988 45.8916C174.091 46.8684 173.075 47.6758 171.93 48.3137C170.776 48.9517 169.365 49.2706 167.679 49.2706ZM173.666 39.1236C173.597 38.2165 173.42 37.3493 173.134 36.522C172.848 35.6947 172.443 34.9671 171.92 34.3192C171.398 33.6812 170.756 33.1729 169.997 32.7842C169.237 32.4054 168.349 32.206 167.333 32.206C166.455 32.206 165.637 32.3755 164.877 32.7244C164.117 33.0732 163.457 33.5517 162.884 34.1697C162.322 34.7876 161.849 35.5153 161.484 36.3625C161.119 37.2098 160.892 38.1268 160.823 39.1036H173.666V39.1236Z" fill="#F79444"/>
<path d="M180.779 24.4304H189.549C190.88 24.4304 192.094 24.5999 193.189 24.9388C194.284 25.2777 195.221 25.7661 196.02 26.404C196.819 27.0419 197.43 27.8194 197.864 28.7364C198.298 29.6535 198.516 30.71 198.516 31.8962V31.9659C198.516 33.2418 198.259 34.3781 197.756 35.345C197.253 36.3218 196.562 37.1391 195.704 37.787C194.836 38.4349 193.84 38.9233 192.705 39.2523C191.561 39.5812 190.357 39.7407 189.095 39.7407H182.564V48.8411H180.769V24.4304H180.779ZM189.203 38.106C190.328 38.106 191.354 37.9665 192.281 37.6874C193.198 37.4083 193.988 36.9996 194.649 36.4813C195.309 35.953 195.813 35.3151 196.187 34.5675C196.552 33.8199 196.74 32.9926 196.74 32.0756V32.0058C196.74 31.019 196.562 30.1618 196.207 29.4242C195.852 28.6866 195.349 28.0686 194.708 27.5802C194.067 27.0918 193.287 26.713 192.39 26.4538C191.492 26.1947 190.505 26.0651 189.42 26.0651H182.584V38.106H189.203Z" fill="#8DC63F"/>
<path d="M203.704 23.384H205.391V48.8513H203.704V23.384Z" fill="#8DC63F"/>
<path d="M217.407 49.2702C216.578 49.2702 215.759 49.1506 214.95 48.9213C214.141 48.6921 213.421 48.3432 212.78 47.8747C212.139 47.4062 211.616 46.8281 211.212 46.1304C210.807 45.4326 210.61 44.6153 210.61 43.6883V43.6185C210.61 42.6915 210.797 41.8642 211.182 41.1466C211.557 40.4289 212.08 39.8209 212.75 39.3325C213.421 38.844 214.22 38.4752 215.167 38.2161C216.114 37.9569 217.16 37.8273 218.314 37.8273C219.557 37.8273 220.622 37.8971 221.52 38.0367C222.418 38.1762 223.296 38.3656 224.144 38.5949V37.8273C224.144 36.0232 223.631 34.6676 222.605 33.7705C221.579 32.8734 220.159 32.4149 218.344 32.4149C217.259 32.4149 216.272 32.5445 215.374 32.8136C214.477 33.0827 213.628 33.4216 212.82 33.8403L212.198 32.3352C213.165 31.8567 214.141 31.478 215.138 31.1989C216.124 30.9098 217.229 30.7703 218.452 30.7703C220.869 30.7703 222.724 31.4182 224.016 32.7239C225.21 33.93 225.811 35.6046 225.811 37.7476V48.8416H224.154V45.8712C223.858 46.2899 223.493 46.6985 223.069 47.1072C222.645 47.5159 222.151 47.8747 221.599 48.1837C221.047 48.4927 220.415 48.7519 219.715 48.9512C219.005 49.1705 218.235 49.2702 217.407 49.2702ZM217.515 47.6355C218.413 47.6355 219.261 47.5059 220.07 47.2368C220.879 46.9677 221.579 46.5989 222.191 46.1304C222.803 45.6519 223.286 45.0838 223.641 44.406C223.996 43.7381 224.174 42.9906 224.174 42.1832V40.1697C223.434 39.9804 222.576 39.8009 221.579 39.6315C220.593 39.462 219.458 39.3723 218.196 39.3723C216.331 39.3723 214.901 39.7511 213.895 40.4987C212.898 41.2462 212.395 42.253 212.395 43.4989V43.5687C212.395 44.2166 212.533 44.7947 212.81 45.2931C213.086 45.7915 213.461 46.2101 213.934 46.559C214.408 46.9079 214.95 47.177 215.572 47.3564C216.203 47.5458 216.844 47.6355 217.515 47.6355Z" fill="#8DC63F"/>
<path d="M231.878 31.0596H233.565V34.3788C234.167 33.3322 234.966 32.4451 235.982 31.7274C236.998 31.0097 238.31 30.6509 239.918 30.6509C241.022 30.6509 242.009 30.8303 242.887 31.1891C243.765 31.548 244.505 32.0563 245.116 32.7042C245.728 33.3521 246.192 34.1296 246.497 35.0267C246.813 35.9238 246.961 36.9006 246.961 37.9771V48.8617H245.274V38.296C245.274 36.462 244.791 34.9868 243.824 33.8804C242.857 32.774 241.476 32.2258 239.681 32.2258C238.803 32.2258 238.004 32.3852 237.264 32.6942C236.524 33.0032 235.883 33.4418 235.331 34C234.778 34.5582 234.344 35.226 234.038 36.0035C233.723 36.781 233.575 37.6382 233.575 38.5652V48.8617H231.888V31.0596H231.878Z" fill="#8DC63F"/>
<path d="M260.485 49.2706C259.331 49.2706 258.226 49.0513 257.181 48.6028C256.135 48.1642 255.208 47.5362 254.409 46.7189C253.61 45.9016 252.988 44.9247 252.525 43.7884C252.061 42.6521 251.834 41.3763 251.834 39.9908V39.921C251.834 38.6451 252.051 37.439 252.475 36.3127C252.899 35.1864 253.491 34.1996 254.241 33.3623C254.991 32.525 255.869 31.8671 256.885 31.3688C257.901 30.8803 259.006 30.6411 260.199 30.6411C261.442 30.6411 262.557 30.8803 263.553 31.3588C264.54 31.8372 265.388 32.4951 266.088 33.3324C266.789 34.1697 267.331 35.1565 267.706 36.2828C268.091 37.4091 268.278 38.6352 268.278 39.9608C268.278 40.1203 268.278 40.2499 268.278 40.3296C268.278 40.4094 268.268 40.519 268.239 40.6586H253.639C253.708 41.765 253.955 42.7518 254.369 43.609C254.784 44.4662 255.306 45.1939 255.928 45.7919C256.549 46.39 257.26 46.8485 258.059 47.1674C258.858 47.4764 259.686 47.6359 260.564 47.6359C261.945 47.6359 263.119 47.3668 264.076 46.8385C265.033 46.3003 265.881 45.6424 266.621 44.845L267.795 45.8916C266.897 46.8684 265.881 47.6758 264.737 48.3137C263.583 48.9517 262.172 49.2706 260.485 49.2706ZM266.473 39.1236C266.404 38.2165 266.226 37.3493 265.94 36.522C265.654 35.6947 265.25 34.9671 264.727 34.3192C264.204 33.6812 263.563 33.1729 262.803 32.7842C262.044 32.4054 261.156 32.206 260.14 32.206C259.262 32.206 258.443 32.3755 257.684 32.7244C256.924 33.0732 256.263 33.5517 255.691 34.1697C255.129 34.7876 254.655 35.5153 254.29 36.3625C253.925 37.2098 253.698 38.1268 253.629 39.1036H266.473V39.1236Z" fill="#8DC63F"/>
<path d="M279.071 49.1709C278.38 49.1709 277.739 49.0812 277.137 48.8918C276.536 48.7024 276.013 48.4133 275.569 48.0047C275.115 47.596 274.77 47.0876 274.513 46.4696C274.257 45.8517 274.138 45.124 274.138 44.2867V32.6346H271.583V31.0597H274.138V25.3682H275.825V31.0597H282.001V32.6346H275.825V44.0874C275.825 45.3632 276.151 46.2603 276.812 46.7687C277.473 47.277 278.311 47.5362 279.347 47.5362C279.781 47.5362 280.195 47.4963 280.59 47.4066C280.984 47.3169 281.428 47.1674 281.931 46.9481V48.5529C281.468 48.7622 281.014 48.9217 280.57 49.0214C280.126 49.121 279.623 49.1709 279.071 49.1709Z" fill="#8DC63F"/>
<path d="M5.99769 13.5561C5.99769 12.8483 6.02728 12.1506 6.0766 11.4529C2.26886 16.4267 0 22.6565 0 29.4345C0 33.5013 0.828623 37.3787 2.29845 40.8973C5.99769 38.3455 10.2888 36.6211 14.9153 35.9732C9.40098 30.1322 5.99769 22.2379 5.99769 13.5561Z" fill="#95C03D"/>
<path d="M29.1203 0C24.9574 0 21.0017 0.887119 17.4209 2.48194C17.2039 2.58162 17.0263 2.75107 16.9276 2.96039C15.1421 6.59857 14.2346 10.765 14.5305 15.1707C15.3296 27.2914 25.2238 36.9899 37.2488 37.4384C45.9099 37.7574 53.5649 33.3716 57.9349 26.6036C58.0335 26.4441 58.0829 26.2547 58.0631 26.0654C56.4059 11.403 44.085 0 29.1203 0Z" fill="#F39540"/>
<path d="M41.5198 46.0011C43.4434 48.2239 45.0415 50.7357 46.2647 53.4569C46.2943 53.5267 46.393 53.5466 46.4423 53.4868L48.7112 51.1943C49.3819 50.5763 50.033 49.9184 50.6446 49.2406L50.6545 49.2306C52.8839 46.7587 54.7088 43.888 56.0011 40.7482C56.0406 40.6485 55.9222 40.5488 55.8334 40.6086C51.6607 43.4095 46.8073 45.2436 41.5889 45.8117C41.5001 45.8317 41.4607 45.9413 41.5198 46.0011Z" fill="#8DC63F"/>
<path d="M19.0587 44.2268C14.4914 44.2268 10.2694 45.6821 6.79701 48.1441C6.74769 48.184 6.73782 48.2537 6.77728 48.3036C7.04362 48.6225 7.30997 48.9315 7.58617 49.2405L7.59604 49.2505C8.20765 49.9283 8.85871 50.5862 9.52951 51.2041L29.1207 70.9799L39.7054 60.2847C37.2984 51.0447 28.9727 44.2268 19.0587 44.2268Z" fill="#5CBCE4"/>
<g opacity="0.83">
<path opacity="0.83" d="M29.1206 73.2326L28.1638 72.2657L24.8098 68.8767C20.9133 69.2854 18.1709 70.2323 18.1709 71.3287C18.1709 72.804 23.0736 74.0001 29.1108 74.0001C35.1479 74.0001 40.0506 72.804 40.0506 71.3287C40.0506 70.2223 37.3181 69.2854 33.4117 68.8767L30.0578 72.2657L29.1206 73.2326Z" fill="#D8D9D8"/>
</g>
</svg>
