<svg width="202" height="39" viewBox="0 0 202 39" fill="none" xmlns="http://www.w3.org/2000/svg">
<path d="M146.616 19.7127C144.844 19.7127 143.373 19.0982 142.203 17.8691C141.034 16.64 140.449 15.1273 140.449 13.3309V13.2954C140.449 11.5227 141.04 10.01 142.221 8.75726C143.402 7.50454 144.879 6.87817 146.651 6.87817C147.679 6.87817 148.559 7.04954 149.291 7.39226C150.035 7.72317 150.762 8.21363 151.471 8.86363L150.815 9.53726C149.563 8.31999 148.169 7.71136 146.633 7.71136C145.145 7.71136 143.899 8.24908 142.894 9.32454C141.902 10.3882 141.406 11.7 141.406 13.26V13.2954C141.406 14.8554 141.908 16.1791 142.912 17.2664C143.928 18.3418 145.174 18.8795 146.651 18.8795C147.513 18.8795 148.275 18.7259 148.937 18.4186C149.598 18.0995 150.26 17.6091 150.921 16.9473L151.542 17.55C150.809 18.2591 150.059 18.7968 149.291 19.1632C148.535 19.5295 147.643 19.7127 146.616 19.7127Z" fill="#5CBCE4"/>
<path d="M157.073 19.7127C156.151 19.7127 155.336 19.4645 154.628 18.9682C153.931 18.46 153.582 17.7627 153.582 16.8764V16.8409C153.582 15.9073 153.942 15.1864 154.663 14.6782C155.384 14.1582 156.34 13.8982 157.534 13.8982C158.549 13.8982 159.548 14.0282 160.528 14.2882V13.8982C160.528 12.9882 160.268 12.3027 159.748 11.8418C159.229 11.3691 158.496 11.1327 157.551 11.1327C156.606 11.1327 155.661 11.375 154.716 11.8595L154.397 11.0973C155.472 10.5773 156.541 10.3173 157.604 10.3173C158.845 10.3173 159.796 10.6482 160.457 11.31C161.071 11.9245 161.379 12.7754 161.379 13.8627V19.5H160.528V17.9932C159.689 19.1395 158.538 19.7127 157.073 19.7127ZM157.126 18.8973C158.071 18.8973 158.874 18.6373 159.536 18.1173C160.209 17.5854 160.546 16.9177 160.546 16.1141V15.0859C159.483 14.8141 158.461 14.6782 157.48 14.6782C156.535 14.6782 155.803 14.8673 155.283 15.2454C154.763 15.6236 154.504 16.1377 154.504 16.7877V16.8232C154.504 17.4495 154.758 17.9518 155.265 18.33C155.785 18.7082 156.405 18.8973 157.126 18.8973Z" fill="#5CBCE4"/>
<path d="M164.855 19.5V10.4591H165.724V12.0723C166.456 10.855 167.46 10.2464 168.736 10.2464C170.13 10.2464 171.146 10.8964 171.784 12.1964C172.54 10.8964 173.627 10.2464 175.044 10.2464C176.107 10.2464 176.952 10.5891 177.578 11.2745C178.204 11.96 178.517 12.8759 178.517 14.0223V19.5H177.649V14.1286C177.649 13.1477 177.413 12.3914 176.94 11.8595C176.468 11.3159 175.812 11.0441 174.973 11.0441C174.17 11.0441 173.491 11.3336 172.935 11.9127C172.392 12.48 172.12 13.2541 172.12 14.235V19.5H171.252V14.0754C171.252 13.13 171.016 12.3914 170.543 11.8595C170.071 11.3159 169.427 11.0441 168.612 11.0441C167.797 11.0441 167.112 11.3573 166.557 11.9836C166.001 12.61 165.724 13.3782 165.724 14.2882V19.5H164.855Z" fill="#5CBCE4"/>
<path d="M181.995 22.3364V10.4591H182.863V12.48C183.82 10.9909 185.06 10.2464 186.584 10.2464C187.742 10.2464 188.764 10.6777 189.649 11.5404C190.535 12.4032 190.978 13.5377 190.978 14.9441V14.9795C190.978 16.3741 190.535 17.5145 189.649 18.4009C188.764 19.2754 187.742 19.7127 186.584 19.7127C185.072 19.7127 183.832 18.9918 182.863 17.55V22.3364H181.995ZM186.495 18.8795C187.511 18.8795 188.356 18.5309 189.029 17.8336C189.703 17.1364 190.039 16.1968 190.039 15.015V14.9795C190.039 13.8214 189.691 12.8818 188.994 12.1609C188.309 11.44 187.476 11.0795 186.495 11.0795C185.515 11.0795 184.653 11.4459 183.908 12.1786C183.176 12.9114 182.81 13.8391 182.81 14.9618V14.9973C182.81 16.12 183.176 17.0477 183.908 17.7804C184.653 18.5132 185.515 18.8795 186.495 18.8795Z" fill="#5CBCE4"/>
<path d="M196.97 19.6773C195.6 19.6773 194.366 19.24 193.267 18.3654L193.781 17.6741C194.809 18.4659 195.889 18.8618 197.023 18.8618C197.65 18.8618 198.169 18.7082 198.583 18.4009C198.996 18.0818 199.203 17.6623 199.203 17.1423V17.1068C199.203 16.8468 199.144 16.6223 199.026 16.4332C198.908 16.2441 198.719 16.0786 198.459 15.9368C198.199 15.795 197.957 15.6827 197.732 15.6C197.508 15.5173 197.201 15.4168 196.811 15.2986C196.386 15.1804 196.078 15.0918 195.889 15.0327C195.712 14.9736 195.446 14.8673 195.092 14.7136C194.75 14.56 194.501 14.4123 194.348 14.2704C194.194 14.1168 194.047 13.9159 193.905 13.6677C193.775 13.4195 193.71 13.1359 193.71 12.8168V12.7814C193.71 12.0486 193.988 11.4518 194.543 10.9909C195.098 10.5182 195.813 10.2818 196.687 10.2818C197.856 10.2818 198.925 10.6127 199.894 11.2745L199.433 12.0014C198.524 11.3986 197.596 11.0973 196.651 11.0973C196.037 11.0973 195.541 11.245 195.163 11.5404C194.785 11.8359 194.596 12.2141 194.596 12.675V12.7104C194.596 12.9468 194.655 13.1595 194.773 13.3486C194.903 13.5259 195.11 13.6854 195.393 13.8273C195.689 13.9691 195.937 14.0814 196.138 14.1641C196.35 14.235 196.675 14.3354 197.112 14.4654C197.573 14.5954 197.939 14.7195 198.211 14.8377C198.494 14.9441 198.795 15.0977 199.114 15.2986C199.445 15.4877 199.687 15.7241 199.841 16.0077C200.006 16.2914 200.089 16.6223 200.089 17.0004V17.0359C200.089 17.8277 199.794 18.4659 199.203 18.9504C198.612 19.435 197.868 19.6773 196.97 19.6773Z" fill="#5CBCE4"/>
<path d="M89.2019 19.6772C87.3473 19.6772 85.6817 19.0154 84.2051 17.6918L84.8075 17.0004C85.5045 17.6504 86.1955 18.1231 86.8807 18.4186C87.5658 18.7022 88.3573 18.844 89.2551 18.844C90.1765 18.844 90.9266 18.6136 91.5054 18.1527C92.0961 17.6799 92.3914 17.089 92.3914 16.3799V16.3445C92.3914 15.659 92.1433 15.1154 91.6472 14.7136C91.1629 14.3118 90.2415 13.9749 88.883 13.7031C87.3827 13.3958 86.3078 12.9763 85.6581 12.4445C85.0202 11.9008 84.7012 11.1563 84.7012 10.2108V10.1754C84.7012 9.25357 85.0792 8.47948 85.8353 7.85312C86.5913 7.22676 87.5422 6.91357 88.6881 6.91357C89.5622 6.91357 90.3241 7.03767 90.9739 7.28585C91.6354 7.52221 92.291 7.90039 92.9407 8.42039L92.356 9.14721C91.2574 8.21357 90.0229 7.74676 88.6526 7.74676C87.7548 7.74676 87.0224 7.97721 86.4554 8.43812C85.9002 8.88721 85.6226 9.43676 85.6226 10.0868V10.1222C85.6226 10.8195 85.8707 11.3749 86.3668 11.7886C86.8748 12.1904 87.8316 12.539 89.2374 12.8345C90.6785 13.1299 91.7181 13.5495 92.356 14.0931C92.9938 14.6249 93.3128 15.3458 93.3128 16.2558V16.2913C93.3128 17.284 92.9289 18.0995 92.161 18.7377C91.3932 19.364 90.4068 19.6772 89.2019 19.6772Z" fill="#95C03D"/>
<path d="M96.496 22.3363V10.459H97.3643V12.4799C98.3211 10.9908 99.5615 10.2463 101.085 10.2463C102.243 10.2463 103.265 10.6777 104.151 11.5404C105.037 12.4031 105.48 13.5377 105.48 14.944V14.9795C105.48 16.374 105.037 17.5145 104.151 18.4008C103.265 19.2754 102.243 19.7127 101.085 19.7127C99.5733 19.7127 98.3329 18.9918 97.3643 17.5499V22.3363H96.496ZM100.997 18.8795C102.013 18.8795 102.857 18.5308 103.531 17.8336C104.204 17.1363 104.541 16.1968 104.541 15.0149V14.9795C104.541 13.8213 104.192 12.8818 103.495 12.1608C102.81 11.4399 101.977 11.0795 100.997 11.0795C100.016 11.0795 99.1539 11.4458 98.4097 12.1786C97.6773 12.9113 97.3111 13.839 97.3111 14.9618V14.9972C97.3111 16.1199 97.6773 17.0477 98.4097 17.7804C99.1539 18.5131 100.016 18.8795 100.997 18.8795Z" fill="#95C03D"/>
<path d="M115.866 18.3122C114.98 19.2458 113.876 19.7127 112.552 19.7127C111.229 19.7127 110.125 19.2518 109.239 18.3299C108.365 17.4081 107.928 16.3031 107.928 15.0149V14.9795C107.928 13.6913 108.371 12.5804 109.257 11.6468C110.154 10.7131 111.265 10.2463 112.588 10.2463C113.911 10.2463 115.01 10.7072 115.884 11.629C116.77 12.5508 117.213 13.6558 117.213 14.944V14.9795C117.213 16.2677 116.764 17.3786 115.866 18.3122ZM112.588 18.8972C113.651 18.8972 114.531 18.519 115.228 17.7627C115.925 17.0063 116.274 16.0904 116.274 15.0149V14.9795C116.274 13.8804 115.913 12.9527 115.193 12.1963C114.472 11.4399 113.592 11.0618 112.552 11.0618C111.489 11.0618 110.609 11.4399 109.912 12.1963C109.215 12.9527 108.867 13.8686 108.867 14.944V14.9795C108.867 16.0786 109.227 17.0063 109.948 17.7627C110.668 18.519 111.548 18.8972 112.588 18.8972Z" fill="#95C03D"/>
<path d="M120.236 19.4999V10.459H121.105V13.0295C121.483 12.1904 122.02 11.5227 122.717 11.0263C123.426 10.5299 124.223 10.2936 125.109 10.3172V11.2745H125.021C123.922 11.2745 122.995 11.6763 122.239 12.4799C121.483 13.2836 121.105 14.3886 121.105 15.7949V19.4999H120.236Z" fill="#95C03D"/>
<path d="M130.698 19.6595C129.942 19.6595 129.327 19.4527 128.855 19.039C128.394 18.6254 128.164 18.0049 128.164 17.1777V11.2568H126.853V10.459H128.164V7.56948H129.032V10.459H132.204V11.2568H129.032V17.089C129.032 18.259 129.635 18.844 130.84 18.844C131.253 18.844 131.696 18.7377 132.168 18.5249V19.3404C131.696 19.5531 131.206 19.6595 130.698 19.6595Z" fill="#95C03D"/>
<path d="M39.0547 19.4999V7.09082H44.1756C45.5931 7.09082 46.6681 7.45718 47.4005 8.18991C47.9321 8.72173 48.1978 9.37173 48.1978 10.1399V10.1754C48.1978 11.5463 47.495 12.5272 46.0892 13.1181C46.9162 13.3308 47.5895 13.6795 48.1092 14.164C48.629 14.6485 48.8889 15.2867 48.8889 16.0785V16.114C48.8889 17.1422 48.4814 17.9635 47.6663 18.5781C46.863 19.1926 45.788 19.4999 44.4414 19.4999H39.0547ZM47.2587 10.264V10.2285C47.2587 9.53128 46.987 8.97582 46.4436 8.56218C45.9002 8.14855 45.1383 7.94173 44.1578 7.94173H39.9761V12.8167H44.0692C45.0143 12.8167 45.7821 12.5922 46.3728 12.1431C46.9634 11.694 47.2587 11.0676 47.2587 10.264ZM47.9498 16.114V16.0785C47.9498 15.2985 47.6249 14.7017 46.9752 14.2881C46.3373 13.8745 45.4041 13.6676 44.1756 13.6676H39.9761V18.649H44.4768C45.54 18.649 46.3846 18.4245 47.0107 17.9754C47.6367 17.5145 47.9498 16.894 47.9498 16.114Z" fill="#F39540"/>
<path d="M55.8115 19.7126C54.5947 19.7126 53.5493 19.2754 52.6752 18.4008C51.8128 17.5145 51.3816 16.3799 51.3816 14.9972V14.9617C51.3816 13.6499 51.7892 12.539 52.6043 11.629C53.4312 10.7072 54.453 10.2463 55.6697 10.2463C56.9101 10.2463 57.9083 10.6954 58.6643 11.5935C59.4321 12.4917 59.816 13.6204 59.816 14.9795C59.816 15.1213 59.8101 15.2395 59.7983 15.334H52.303C52.3739 16.4213 52.7519 17.2899 53.4371 17.9399C54.1222 18.5781 54.9255 18.8972 55.8469 18.8972C57.0164 18.8972 58.05 18.4245 58.9478 17.479L59.5502 18.0108C58.4989 19.1454 57.2526 19.7126 55.8115 19.7126ZM52.303 14.554H58.8769C58.7942 13.5613 58.4753 12.7281 57.9201 12.0545C57.3767 11.3808 56.6147 11.044 55.6343 11.044C54.7483 11.044 53.9864 11.3808 53.3485 12.0545C52.7224 12.7163 52.3739 13.5495 52.303 14.554Z" fill="#F39540"/>
<path d="M65.6277 19.6772C64.2574 19.6772 63.0229 19.2399 61.9243 18.3654L62.4382 17.674C63.4659 18.4658 64.5468 18.8617 65.6808 18.8617C66.3069 18.8617 66.8267 18.7081 67.2401 18.4008C67.6536 18.0817 67.8603 17.6622 67.8603 17.1422V17.1067C67.8603 16.8467 67.8012 16.6222 67.6831 16.4331C67.565 16.244 67.376 16.0785 67.1161 15.9367C66.8562 15.7949 66.6141 15.6826 66.3896 15.5999C66.1652 15.5172 65.858 15.4167 65.4682 15.2985C65.0429 15.1804 64.7358 15.0917 64.5468 15.0326C64.3696 14.9735 64.1038 14.8672 63.7494 14.7135C63.4069 14.5599 63.1588 14.4122 63.0052 14.2704C62.8517 14.1167 62.704 13.9158 62.5622 13.6676C62.4323 13.4195 62.3673 13.1358 62.3673 12.8167V12.7813C62.3673 12.0485 62.6449 11.4517 63.2001 10.9908C63.7553 10.5181 64.47 10.2817 65.3442 10.2817C66.5136 10.2817 67.5827 10.6126 68.5514 11.2745L68.0907 12.0013C67.1811 11.3985 66.2538 11.0972 65.3087 11.0972C64.6945 11.0972 64.1983 11.2449 63.8203 11.5404C63.4423 11.8358 63.2533 12.214 63.2533 12.6749V12.7104C63.2533 12.9467 63.3124 13.1595 63.4305 13.3485C63.5604 13.5258 63.7672 13.6854 64.0507 13.8272C64.346 13.969 64.5941 14.0813 64.7949 14.164C65.0075 14.2349 65.3324 14.3354 65.7694 14.4654C66.2301 14.5954 66.5963 14.7195 66.868 14.8376C67.1515 14.944 67.4528 15.0976 67.7717 15.2985C68.1025 15.4876 68.3446 15.724 68.4982 16.0076C68.6636 16.2913 68.7463 16.6222 68.7463 17.0004V17.0358C68.7463 17.8276 68.451 18.4658 67.8603 18.9504C67.2697 19.4349 66.5255 19.6772 65.6277 19.6772Z" fill="#F39540"/>
<path d="M74.7054 19.6595C73.9493 19.6595 73.3351 19.4526 72.8626 19.039C72.4019 18.6254 72.1715 18.0049 72.1715 17.1776V11.2567H70.8603V10.459H72.1715V7.56946H73.0397V10.459H76.2115V11.2567H73.0397V17.089C73.0397 18.259 73.6422 18.844 74.8471 18.844C75.2606 18.844 75.7035 18.7376 76.1761 18.5249V19.3404C75.7035 19.5531 75.2133 19.6595 74.7054 19.6595Z" fill="#F39540"/>
<path d="M37.6367 34.5682L41.1664 27.0696H41.5066L45.0363 34.5682H44.6429L43.6329 32.3984H39.0295L38.0088 34.5682H37.6367ZM39.1889 32.0687H43.4735L41.3259 27.495L39.1889 32.0687Z" fill="black"/>
<path d="M51.3557 34.6958C50.3138 34.6958 49.442 34.3271 48.7403 33.5897C48.0457 32.8451 47.6984 31.9375 47.6984 30.8668V30.8455C47.6984 29.7889 48.0493 28.8848 48.751 28.1332C49.4526 27.3745 50.328 26.9951 51.377 26.9951C52.0148 26.9951 52.5464 27.0944 52.9717 27.2929C53.397 27.4915 53.8187 27.7858 54.2368 28.1758L53.9817 28.4417C53.6202 28.0942 53.2339 27.8212 52.8228 27.6227C52.4188 27.4241 51.9333 27.3248 51.3663 27.3248C50.4307 27.3248 49.6476 27.6688 49.0167 28.3566C48.3859 29.0373 48.0705 29.8634 48.0705 30.8348V30.8561C48.0705 31.8276 48.3859 32.6572 49.0167 33.345C49.6546 34.0258 50.4414 34.3661 51.377 34.3661C52.3621 34.3661 53.2446 33.969 54.0242 33.1748L54.2794 33.4195C53.4288 34.2704 52.4543 34.6958 51.3557 34.6958Z" fill="black"/>
<path d="M59.6632 34.5682V27.4525H57.0159V27.1228H62.6826V27.4525H60.0247V34.5682H59.6632Z" fill="black"/>
<path d="M66.1433 34.5682V27.1228H66.5048V34.5682H66.1433Z" fill="black"/>
<path d="M73.3606 34.6214L70.0223 27.1228H70.4157L73.5201 34.164L76.6245 27.1228H76.9967L73.6583 34.6214H73.3606Z" fill="black"/>
<path d="M80.4448 34.5682V27.1228H85.6861V27.4525H80.8062V30.654H85.2183V30.9838H80.8062V34.2385H85.7393V34.5682H80.4448Z" fill="black"/>
<path d="M94.5299 34.5682V27.1228H97.1772C98.0561 27.1228 98.7471 27.3248 99.2504 27.729C99.7536 28.1261 100.005 28.6757 100.005 29.3777V29.3989C100.005 30.1293 99.7359 30.6966 99.1972 31.1008C98.6656 31.5049 97.9675 31.707 97.1028 31.707H94.8914V34.5682H94.5299ZM94.8914 31.3667H97.1134C97.8931 31.3667 98.5097 31.1965 98.9633 30.8561C99.4169 30.5087 99.6437 30.0265 99.6437 29.4096V29.3883C99.6437 28.7785 99.4205 28.3034 98.9739 27.963C98.5345 27.6227 97.925 27.4525 97.1453 27.4525H94.8914V31.3667Z" fill="black"/>
<path d="M103.556 34.5682V27.1228H103.917V34.2385H108.404V34.5682H103.556Z" fill="black"/>
<path d="M111.122 34.5682L114.652 27.0696H114.992L118.522 34.5682H118.128L117.118 32.3984H112.515L111.494 34.5682H111.122ZM112.674 32.0687H116.959L114.811 27.495L112.674 32.0687Z" fill="black"/>
<path d="M121.97 34.5682V27.1228H122.3L127.743 33.9513V27.1228H128.094V34.5682H127.807L122.321 27.6865V34.5682H121.97Z" fill="black"/>
<path d="M132.221 34.5682V27.1228H137.462V27.4525H132.582V30.654H136.995V30.9838H132.582V34.2385H137.516V34.5682H132.221Z" fill="black"/>
<path d="M143.109 34.5682V27.4525H140.461V27.1228H146.128V27.4525H143.47V34.5682H143.109Z" fill="black"/>
<path d="M157.986 34.6958C156.852 34.6958 155.951 34.3307 155.285 33.6003C154.619 32.8628 154.286 31.9517 154.286 30.8668V30.8455C154.286 29.8031 154.626 28.9026 155.306 28.1438C155.994 27.378 156.88 26.9951 157.964 26.9951C158.524 26.9951 159.006 27.0767 159.41 27.2398C159.821 27.3958 160.218 27.6368 160.601 27.963L160.367 28.2396C160.006 27.9418 159.637 27.7148 159.261 27.5588C158.893 27.4028 158.453 27.3248 157.943 27.3248C156.979 27.3248 156.189 27.6723 155.572 28.3672C154.963 29.0621 154.658 29.8847 154.658 30.8348V30.8561C154.658 31.8488 154.959 32.6856 155.562 33.3663C156.171 34.0399 156.983 34.3768 157.996 34.3768C158.946 34.3768 159.793 34.0577 160.537 33.4195V31.1327H157.89V30.7817H160.888V33.5578C160.066 34.3165 159.098 34.6958 157.986 34.6958Z" fill="black"/>
<path d="M164.835 34.5682V27.1228H167.908C168.85 27.1228 169.559 27.3603 170.034 27.8354C170.395 28.2112 170.576 28.6721 170.576 29.2181V29.2394C170.576 29.8492 170.36 30.3385 169.928 30.7072C169.502 31.0759 168.939 31.2887 168.237 31.3454L170.714 34.5682H170.257L167.833 31.3879H165.196V34.5682H164.835ZM165.196 31.0582H167.812C168.563 31.0582 169.151 30.8951 169.577 30.5689C170.002 30.2357 170.215 29.7996 170.215 29.2607V29.2394C170.215 28.6792 170.009 28.2431 169.598 27.9311C169.194 27.612 168.623 27.4525 167.886 27.4525H165.196V31.0582Z" fill="black"/>
<path d="M180.409 33.5684C179.714 34.32 178.821 34.6958 177.729 34.6958C176.638 34.6958 175.745 34.32 175.05 33.5684C174.363 32.8097 174.019 31.9056 174.019 30.8561V30.8348C174.019 29.7854 174.366 28.8848 175.061 28.1332C175.756 27.3745 176.649 26.9951 177.74 26.9951C178.832 26.9951 179.721 27.3745 180.409 28.1332C181.103 28.8848 181.45 29.7854 181.45 30.8348V30.8561C181.45 31.9056 181.103 32.8097 180.409 33.5684ZM177.751 34.3661C178.715 34.3661 179.508 34.0258 180.132 33.345C180.763 32.6572 181.078 31.8311 181.078 30.8668V30.8455C181.078 29.8811 180.763 29.055 180.132 28.3672C179.501 27.6723 178.7 27.3248 177.729 27.3248C176.758 27.3248 175.958 27.6688 175.327 28.3566C174.703 29.0373 174.391 29.8598 174.391 30.8242V30.8455C174.391 31.8098 174.707 32.6395 175.337 33.3344C175.975 34.0222 176.78 34.3661 177.751 34.3661Z" fill="black"/>
<path d="M190.357 33.8237C189.811 34.398 189.078 34.6852 188.156 34.6852C187.235 34.6852 186.498 34.398 185.945 33.8237C185.399 33.2493 185.126 32.4268 185.126 31.356V27.1228H185.488V31.3348C185.488 32.3062 185.725 33.0543 186.2 33.579C186.682 34.0967 187.337 34.3555 188.167 34.3555C188.996 34.3555 189.645 34.1002 190.112 33.5897C190.58 33.0791 190.814 32.3346 190.814 31.356V27.1228H191.175V31.3241C191.175 32.409 190.903 33.2422 190.357 33.8237Z" fill="black"/>
<path d="M195.182 34.5682V27.1228H197.83C198.708 27.1228 199.4 27.3248 199.903 27.729C200.406 28.1261 200.658 28.6757 200.658 29.3777V29.3989C200.658 30.1293 200.388 30.6966 199.85 31.1008C199.318 31.5049 198.62 31.707 197.755 31.707H195.544V34.5682H195.182ZM195.544 31.3667H197.766C198.545 31.3667 199.162 31.1965 199.616 30.8561C200.069 30.5087 200.296 30.0265 200.296 29.4096V29.3883C200.296 28.7785 200.073 28.3034 199.626 27.963C199.187 27.6227 198.577 27.4525 197.798 27.4525H195.544V31.3667Z" fill="black"/>
<path d="M3.12795 7.14432C3.12795 6.77134 3.14338 6.40361 3.1691 6.03589C1.18327 8.65725 0 11.9405 0 15.5127C0 17.656 0.432148 19.6995 1.1987 21.5539C3.12795 20.2091 5.36587 19.3003 7.77871 18.9588C4.90285 15.8804 3.12795 11.7199 3.12795 7.14432Z" fill="#95C03D"/>
<path d="M15.1866 0C13.0155 0 10.9525 0.467538 9.085 1.30806C8.97182 1.36059 8.87921 1.44989 8.82777 1.56021C7.89658 3.47764 7.42328 5.67349 7.57762 7.99542C7.99433 14.3834 13.1544 19.4947 19.4257 19.7311C23.9428 19.8992 27.935 17.5878 30.2141 14.0209C30.2655 13.9368 30.2913 13.837 30.281 13.7372C29.4167 6.0097 22.991 0 15.1866 0Z" fill="#F39540"/>
<path d="M21.6533 24.2436C22.6566 25.4151 23.49 26.7389 24.1279 28.173C24.1434 28.2098 24.1948 28.2203 24.2205 28.1888L25.4038 26.9805C25.7536 26.6548 26.0932 26.3081 26.4122 25.9509L26.4173 25.9457C27.58 24.6428 28.5317 23.1299 29.2057 21.4752C29.2263 21.4226 29.1645 21.3701 29.1182 21.4016C26.9421 22.8778 24.4109 23.8444 21.6894 24.1438C21.6431 24.1543 21.6225 24.2121 21.6533 24.2436Z" fill="#8DC63F"/>
<path d="M9.93928 23.3088C7.5573 23.3088 5.35539 24.0758 3.54447 25.3734C3.51875 25.3944 3.5136 25.4311 3.53418 25.4574C3.67309 25.6255 3.81199 25.7884 3.95604 25.9512L3.96119 25.9565C4.28016 26.3137 4.6197 26.6604 4.96954 26.9861L15.1868 37.4085L20.707 31.7718C19.4517 26.902 15.1097 23.3088 9.93928 23.3088Z" fill="#5CBCE4"/>
<path opacity="0.83" d="M15.1871 38.5957L14.6881 38.0861L12.9389 36.3C10.9068 36.5154 9.47656 37.0145 9.47656 37.5923C9.47656 38.3698 12.0335 39.0002 15.182 39.0002C18.3305 39.0002 20.8874 38.3698 20.8874 37.5923C20.8874 37.0092 19.4623 36.5154 17.425 36.3L15.6759 38.0861L15.1871 38.5957Z" fill="#D8D9D8"/>
</svg>
