<svg width="166" height="44" viewBox="0 0 166 44" fill="none" xmlns="http://www.w3.org/2000/svg">
<path d="M47.2735 14.4255H48.2897L54.9153 29.0468H53.7598L51.9481 24.981H43.5514L41.7454 29.0468H40.6479L47.2735 14.4255ZM51.5009 24.0091L47.7613 15.605L43.9985 24.0091H51.5009Z" fill="#F79444"/>
<path d="M62.2551 29.296C61.5118 29.296 60.815 29.1479 60.1704 28.8515C59.5259 28.5552 58.9684 28.1581 58.4981 27.6603C58.0277 27.1624 57.6561 26.5816 57.389 25.9178C57.1218 25.254 56.9883 24.5487 56.9883 23.802V23.7605C56.9883 23.0137 57.1218 22.3084 57.389 21.6446C57.6561 20.9808 58.0219 20.3941 58.4981 19.8785C58.9684 19.3688 59.5259 18.9598 60.1704 18.6635C60.815 18.3672 61.506 18.219 62.2551 18.219C62.7429 18.219 63.1842 18.2723 63.5848 18.379C63.9855 18.4857 64.3513 18.6279 64.694 18.8117C65.0307 18.9954 65.3385 19.2028 65.6172 19.4399C65.896 19.677 66.1573 19.9259 66.4012 20.1867L65.6869 20.9334C65.2398 20.4652 64.7462 20.0563 64.2062 19.7066C63.6661 19.3629 63.01 19.1851 62.2319 19.1851C61.6337 19.1851 61.0821 19.3036 60.5769 19.5347C60.0659 19.7718 59.6304 20.0918 59.2588 20.4949C58.8871 20.9038 58.591 21.3779 58.3761 21.9291C58.1613 22.4803 58.0509 23.073 58.0509 23.7071V23.7486C58.0509 24.3828 58.1613 24.9755 58.3877 25.5326C58.6084 26.0897 58.9162 26.5757 59.2994 26.9905C59.6827 27.4054 60.1356 27.7255 60.6524 27.9625C61.1692 28.1996 61.7209 28.3122 62.319 28.3122C63.0506 28.3122 63.7068 28.1403 64.2817 27.8025C64.8565 27.4647 65.3617 27.0439 65.7973 26.546L66.4883 27.1683C65.9598 27.7788 65.3617 28.2826 64.6881 28.6797C64.0087 29.1005 63.2016 29.296 62.2551 29.296Z" fill="#F79444"/>
<path d="M72.7599 29.2368C72.3534 29.2368 71.976 29.1834 71.6217 29.0708C71.2675 28.9582 70.9598 28.7863 70.6984 28.5433C70.4371 28.3003 70.2281 27.9981 70.0771 27.6306C69.9261 27.2632 69.8565 26.8305 69.8565 26.3327V19.4043H68.3467V18.4679H69.8507V15.0837H70.8436V18.4679H74.4845V19.4043H70.8436V26.2141C70.8436 26.9728 71.0352 27.5062 71.4243 27.8084C71.8134 28.1107 72.3069 28.2648 72.9167 28.2648C73.1722 28.2648 73.416 28.2411 73.6483 28.1877C73.8806 28.1344 74.1419 28.0455 74.438 27.9151V28.8693C74.1651 28.9938 73.898 29.0886 73.6367 29.1479C73.3812 29.2071 73.0851 29.2368 72.7599 29.2368Z" fill="#F79444"/>
<path d="M77.4517 14.3188H78.6885V15.7116H77.4517V14.3188ZM77.5736 18.4676H78.5666V29.0468H77.5736V18.4676Z" fill="#F79444"/>
<path d="M81.4351 18.4678H82.5964L86.516 27.909L90.4763 18.4678H91.597L86.9399 29.1299H86.0863L81.4351 18.4678Z" fill="#F79444"/>
<path d="M98.7044 29.296C98.025 29.296 97.3746 29.1657 96.7591 28.899C96.1436 28.6382 95.5978 28.2648 95.1274 27.7788C94.657 27.2928 94.2912 26.712 94.0183 26.0363C93.7454 25.3607 93.6118 24.6021 93.6118 23.7783V23.7368C93.6118 22.9782 93.7396 22.261 93.9893 21.5913C94.239 20.9216 94.5874 20.3348 95.0287 19.837C95.47 19.3391 95.9868 18.948 96.5849 18.6516C97.183 18.3612 97.8334 18.219 98.536 18.219C99.2677 18.219 99.9238 18.3612 100.51 18.6457C101.091 18.9302 101.59 19.3214 102.003 19.8192C102.415 20.3171 102.734 20.9038 102.955 21.5735C103.181 22.2432 103.292 22.9722 103.292 23.7605C103.292 23.8553 103.292 23.9324 103.292 23.9798C103.292 24.0272 103.286 24.0924 103.269 24.1754H94.6745C94.7151 24.8332 94.8603 25.42 95.1042 25.9297C95.3481 26.4394 95.6558 26.872 96.0217 27.2276C96.3875 27.5832 96.8056 27.8558 97.2759 28.0455C97.7463 28.2292 98.2341 28.3241 98.7509 28.3241C99.5638 28.3241 100.255 28.164 100.818 27.8499C101.381 27.5299 101.881 27.1387 102.316 26.6646L103.007 27.2869C102.479 27.8677 101.881 28.3478 101.207 28.7271C100.528 29.1064 99.6974 29.296 98.7044 29.296ZM102.229 23.2626C102.189 22.7233 102.084 22.2077 101.916 21.7158C101.747 21.2238 101.509 20.7912 101.201 20.406C100.894 20.0266 100.516 19.7244 100.069 19.4932C99.6219 19.268 99.0993 19.1495 98.5012 19.1495C97.9844 19.1495 97.5024 19.2502 97.0553 19.4577C96.6081 19.6651 96.2191 19.9496 95.8823 20.3171C95.5513 20.6845 95.2726 21.1172 95.0577 21.6209C94.8429 22.1247 94.7093 22.67 94.6687 23.2508H102.229V23.2626Z" fill="#F79444"/>
<path d="M106.416 14.5264H111.578C112.362 14.5264 113.076 14.6271 113.721 14.8286C114.366 15.0301 114.917 15.3205 115.388 15.6999C115.858 16.0792 116.218 16.5415 116.473 17.0867C116.729 17.632 116.857 18.2602 116.857 18.9655V19.007C116.857 19.7656 116.706 20.4412 116.41 21.0161C116.113 21.5969 115.707 22.0829 115.202 22.4682C114.691 22.8534 114.104 23.1438 113.436 23.3394C112.763 23.535 112.054 23.6298 111.311 23.6298H107.467V29.0409H106.41V14.5264H106.416ZM111.375 22.6578C112.037 22.6578 112.641 22.5749 113.187 22.4089C113.727 22.243 114.191 22 114.58 21.6918C114.969 21.3777 115.266 20.9983 115.486 20.5538C115.701 20.1093 115.811 19.6174 115.811 19.0722V19.0307C115.811 18.4439 115.707 17.9342 115.498 17.4957C115.289 17.0571 114.993 16.6896 114.615 16.3992C114.238 16.1088 113.779 15.8836 113.251 15.7295C112.722 15.5754 112.142 15.4983 111.503 15.4983H107.479V22.6578H111.375Z" fill="#8DC63F"/>
<path d="M119.911 13.9041H120.904V29.0468H119.911V13.9041Z" fill="#8DC63F"/>
<path d="M127.977 29.2959C127.489 29.2959 127.007 29.2248 126.531 29.0885C126.055 28.9521 125.631 28.7447 125.254 28.4662C124.876 28.1876 124.568 27.8438 124.33 27.429C124.092 27.0141 123.976 26.5281 123.976 25.9769V25.9354C123.976 25.3843 124.086 24.8923 124.313 24.4656C124.534 24.0389 124.841 23.6774 125.236 23.387C125.631 23.0965 126.101 22.8773 126.659 22.7232C127.216 22.5691 127.832 22.492 128.511 22.492C129.243 22.492 129.87 22.5335 130.398 22.6165C130.927 22.6995 131.444 22.8121 131.943 22.9484V22.492C131.943 21.4193 131.641 20.6132 131.037 20.0798C130.433 19.5464 129.597 19.2738 128.529 19.2738C127.89 19.2738 127.309 19.3509 126.781 19.5109C126.252 19.6709 125.753 19.8724 125.277 20.1213L124.911 19.2264C125.48 18.9419 126.055 18.7167 126.641 18.5507C127.222 18.3789 127.872 18.2959 128.593 18.2959C130.015 18.2959 131.107 18.6811 131.868 19.4575C132.57 20.1747 132.924 21.1704 132.924 22.4446V29.041H131.949V27.2749C131.775 27.5238 131.56 27.7668 131.31 28.0098C131.06 28.2528 130.77 28.4662 130.445 28.6499C130.12 28.8336 129.748 28.9877 129.336 29.1062C128.918 29.2366 128.465 29.2959 127.977 29.2959ZM128.041 28.3239C128.569 28.3239 129.069 28.2469 129.545 28.0868C130.021 27.9268 130.433 27.7075 130.793 27.429C131.153 27.1445 131.438 26.8067 131.647 26.4037C131.856 26.0066 131.96 25.5621 131.96 25.082V23.8848C131.525 23.7722 131.02 23.6655 130.433 23.5648C129.853 23.464 129.185 23.4107 128.442 23.4107C127.344 23.4107 126.502 23.6359 125.91 24.0804C125.323 24.5249 125.027 25.1235 125.027 25.8643V25.9058C125.027 26.291 125.108 26.6348 125.271 26.9311C125.434 27.2275 125.654 27.4764 125.933 27.6838C126.212 27.8913 126.531 28.0513 126.897 28.158C127.269 28.2706 127.646 28.3239 128.041 28.3239Z" fill="#8DC63F"/>
<path d="M136.496 18.4679H137.489V20.4414C137.843 19.8191 138.313 19.2917 138.911 18.8649C139.509 18.4382 140.282 18.2249 141.228 18.2249C141.879 18.2249 142.459 18.3315 142.976 18.5449C143.493 18.7583 143.928 19.0605 144.288 19.4458C144.648 19.831 144.921 20.2933 145.101 20.8267C145.287 21.3601 145.374 21.9409 145.374 22.581V29.053H144.381V22.7706C144.381 21.6801 144.097 20.803 143.528 20.1451C142.959 19.4872 142.146 19.1613 141.089 19.1613C140.572 19.1613 140.102 19.2561 139.666 19.4398C139.231 19.6236 138.853 19.8843 138.528 20.2162C138.203 20.5481 137.947 20.9452 137.767 21.4075C137.581 21.8698 137.494 22.3795 137.494 22.9307V29.053H136.501V18.4679H136.496Z" fill="#8DC63F"/>
<path d="M153.335 29.296C152.656 29.296 152.006 29.1657 151.39 28.899C150.774 28.6382 150.229 28.2648 149.758 27.7788C149.288 27.2928 148.922 26.712 148.649 26.0363C148.376 25.3607 148.243 24.6021 148.243 23.7783V23.7368C148.243 22.9782 148.37 22.261 148.62 21.5913C148.87 20.9216 149.218 20.3348 149.66 19.837C150.101 19.3391 150.618 18.948 151.216 18.6516C151.814 18.3612 152.464 18.219 153.167 18.219C153.899 18.219 154.555 18.3612 155.141 18.6457C155.722 18.9302 156.221 19.3214 156.634 19.8192C157.046 20.3171 157.365 20.9038 157.586 21.5735C157.812 22.2432 157.923 22.9722 157.923 23.7605C157.923 23.8553 157.923 23.9324 157.923 23.9798C157.923 24.0272 157.917 24.0924 157.899 24.1754H149.305C149.346 24.8332 149.491 25.42 149.735 25.9297C149.979 26.4394 150.287 26.872 150.653 27.2276C151.018 27.5832 151.436 27.8558 151.907 28.0455C152.377 28.2292 152.865 28.3241 153.382 28.3241C154.195 28.3241 154.886 28.164 155.449 27.8499C156.012 27.5299 156.512 27.1387 156.947 26.6646L157.638 27.2869C157.11 27.8677 156.512 28.3478 155.838 28.7271C155.159 29.1064 154.328 29.296 153.335 29.296ZM156.86 23.2626C156.819 22.7233 156.715 22.2077 156.546 21.7158C156.378 21.2238 156.14 20.7912 155.832 20.406C155.524 20.0266 155.147 19.7244 154.7 19.4932C154.253 19.268 153.73 19.1495 153.132 19.1495C152.615 19.1495 152.133 19.2502 151.686 19.4577C151.239 19.6651 150.85 19.9496 150.513 20.3171C150.182 20.6845 149.903 21.1172 149.689 21.6209C149.474 22.1247 149.34 22.67 149.3 23.2508H156.86V23.2626Z" fill="#8DC63F"/>
<path d="M164.276 29.2368C163.869 29.2368 163.492 29.1834 163.137 29.0708C162.783 28.9582 162.475 28.7863 162.214 28.5433C161.947 28.3003 161.744 27.9981 161.593 27.6306C161.442 27.2632 161.372 26.8305 161.372 26.3327V19.4043H159.868V18.4679H161.372V15.0837H162.365V18.4679H166V19.4043H162.365V26.2141C162.365 26.9728 162.557 27.5062 162.946 27.8084C163.335 28.1107 163.828 28.2648 164.438 28.2648C164.694 28.2648 164.938 28.2411 165.17 28.1877C165.402 28.1344 165.663 28.0455 165.96 27.9151V28.8693C165.687 28.9938 165.419 29.0886 165.158 29.1479C164.897 29.2071 164.601 29.2368 164.276 29.2368Z" fill="#8DC63F"/>
<path d="M3.53055 8.06035C3.53055 7.63956 3.54797 7.22469 3.57701 6.80981C1.33557 9.76725 0 13.4715 0 17.5016C0 19.9197 0.487771 22.2252 1.35299 24.3174C3.53055 22.8001 6.05653 21.7748 8.77993 21.3896C5.53391 17.9165 3.53055 13.2225 3.53055 8.06035Z" fill="#95C03D"/>
<path d="M17.1417 0C14.6912 0 12.3627 0.527479 10.2548 1.47575C10.127 1.53502 10.0225 1.63578 9.96443 1.76024C8.91339 3.92349 8.37916 6.40086 8.55337 9.02048C9.02372 16.2274 14.848 21.9941 21.9265 22.2608C27.0249 22.4504 31.531 19.8427 34.1034 15.8184C34.1615 15.7236 34.1905 15.611 34.1789 15.4984C33.2034 6.78017 25.9506 0 17.1417 0Z" fill="#F39540"/>
<path d="M24.4409 27.3521C25.5732 28.6738 26.5139 30.1673 27.234 31.7853C27.2514 31.8268 27.3095 31.8386 27.3385 31.8031L28.6741 30.4399C29.0689 30.0725 29.4522 29.6813 29.8122 29.2783L29.818 29.2724C31.1304 27.8025 32.2046 26.0956 32.9653 24.2287C32.9885 24.1695 32.9189 24.1102 32.8666 24.1457C30.4103 25.8112 27.5533 26.9017 24.4815 27.2395C24.4293 27.2513 24.406 27.3165 24.4409 27.3521Z" fill="#8DC63F"/>
<path d="M11.2189 26.2971C8.53038 26.2971 6.04505 27.1624 4.00105 28.6263C3.97201 28.65 3.9662 28.6915 3.98943 28.7211C4.14621 28.9108 4.303 29.0945 4.46559 29.2783L4.4714 29.2842C4.83142 29.6872 5.21467 30.0784 5.60954 30.4458L17.1419 42.2044L23.3726 35.8451C21.9558 30.351 17.0548 26.2971 11.2189 26.2971Z" fill="#5CBCE4"/>
<g opacity="0.83">
<path opacity="0.83" d="M17.1419 43.5438L16.5786 42.9689L14.6043 40.9539C12.3106 41.1969 10.6963 41.7599 10.6963 42.4118C10.6963 43.289 13.5823 44.0002 17.1361 44.0002C20.6899 44.0002 23.5758 43.289 23.5758 42.4118C23.5758 41.754 21.9674 41.1969 19.6678 40.9539L17.6935 42.9689L17.1419 43.5438Z" fill="#D8D9D8"/>
</g>
</svg>
