<svg width="352" height="91" viewBox="0 0 352 91" fill="none" xmlns="http://www.w3.org/2000/svg">
<g clip-path="url(#clip0_889_5468)">
<path d="M238.948 72.2804C240.145 72.614 241.087 73.2223 241.774 74.1054C242.461 74.9688 242.804 76.0677 242.804 77.4021C242.804 79.1879 242.127 80.5616 240.773 81.5231C239.439 82.4847 237.486 82.9655 234.915 82.9655H225.084V62.3606H234.327C236.681 62.3606 238.497 62.8315 239.772 63.7735C241.067 64.7154 241.715 66.0204 241.715 67.6884C241.715 68.7677 241.46 69.6998 240.95 70.4848C240.459 71.2697 239.792 71.8683 238.948 72.2804ZM228.027 64.7449V71.3384H234.062C235.573 71.3384 236.73 71.0637 237.535 70.5142C238.359 69.9451 238.771 69.1209 238.771 68.0416C238.771 66.9623 238.359 66.1479 237.535 65.5985C236.73 65.0294 235.573 64.7449 234.062 64.7449H228.027ZM234.798 80.5812C236.466 80.5812 237.721 80.3064 238.565 79.757C239.409 79.2075 239.831 78.3441 239.831 77.1667C239.831 74.8707 238.153 73.7227 234.798 73.7227H228.027V80.5812H234.798ZM254.22 83.1421C252.67 83.1421 251.277 82.7987 250.04 82.1118C248.804 81.425 247.833 80.4831 247.126 79.286C246.439 78.0693 246.096 76.6957 246.096 75.165C246.096 73.6344 246.439 72.2705 247.126 71.0735C247.833 69.8568 248.804 68.9149 250.04 68.2477C251.277 67.5609 252.67 67.2174 254.22 67.2174C255.77 67.2174 257.154 67.5609 258.371 68.2477C259.607 68.9149 260.568 69.8568 261.255 71.0735C261.962 72.2705 262.315 73.6344 262.315 75.165C262.315 76.6957 261.962 78.0693 261.255 79.286C260.568 80.4831 259.607 81.425 258.371 82.1118C257.154 82.7987 255.77 83.1421 254.22 83.1421ZM254.22 80.6695C255.221 80.6695 256.114 80.4438 256.899 79.9925C257.703 79.5215 258.331 78.8739 258.783 78.0497C259.234 77.2059 259.46 76.2443 259.46 75.165C259.46 74.0857 259.234 73.134 258.783 72.3098C258.331 71.466 257.703 70.8184 256.899 70.367C256.114 69.9157 255.221 69.69 254.22 69.69C253.219 69.69 252.317 69.9157 251.512 70.367C250.727 70.8184 250.099 71.466 249.628 72.3098C249.177 73.134 248.951 74.0857 248.951 75.165C248.951 76.2443 249.177 77.2059 249.628 78.0497C250.099 78.8739 250.727 79.5215 251.512 79.9925C252.317 80.4438 253.219 80.6695 254.22 80.6695ZM273.494 83.1421C271.943 83.1421 270.55 82.7987 269.314 82.1118C268.077 81.425 267.106 80.4831 266.4 79.286C265.713 78.0693 265.369 76.6957 265.369 75.165C265.369 73.6344 265.713 72.2705 266.4 71.0735C267.106 69.8568 268.077 68.9149 269.314 68.2477C270.55 67.5609 271.943 67.2174 273.494 67.2174C275.044 67.2174 276.427 67.5609 277.644 68.2477C278.88 68.9149 279.842 69.8568 280.529 71.0735C281.235 72.2705 281.588 73.6344 281.588 75.165C281.588 76.6957 281.235 78.0693 280.529 79.286C279.842 80.4831 278.88 81.425 277.644 82.1118C276.427 82.7987 275.044 83.1421 273.494 83.1421ZM273.494 80.6695C274.494 80.6695 275.387 80.4438 276.172 79.9925C276.977 79.5215 277.605 78.8739 278.056 78.0497C278.507 77.2059 278.733 76.2443 278.733 75.165C278.733 74.0857 278.507 73.134 278.056 72.3098C277.605 71.466 276.977 70.8184 276.172 70.367C275.387 69.9157 274.494 69.69 273.494 69.69C272.493 69.69 271.59 69.9157 270.785 70.367C270.001 70.8184 269.373 71.466 268.902 72.3098C268.45 73.134 268.225 74.0857 268.225 75.165C268.225 76.2443 268.45 77.2059 268.902 78.0497C269.373 78.8739 270.001 79.5215 270.785 79.9925C271.59 80.4438 272.493 80.6695 273.494 80.6695ZM292.149 75.6949L288.911 78.6973V82.9655H286.085V61.1243H288.911V75.1356L297.418 67.3646H300.832L294.268 73.811L301.48 82.9655H298.006L292.149 75.6949ZM304.611 67.3646H307.437V82.9655H304.611V67.3646ZM306.024 64.3622C305.474 64.3622 305.013 64.1856 304.64 63.8323C304.287 63.4791 304.111 63.0474 304.111 62.5372C304.111 62.027 304.287 61.5952 304.64 61.242C305.013 60.8692 305.474 60.6827 306.024 60.6827C306.573 60.6827 307.025 60.8594 307.378 61.2126C307.751 61.5462 307.937 61.9681 307.937 62.4783C307.937 63.0082 307.751 63.4595 307.378 63.8323C307.025 64.1856 306.573 64.3622 306.024 64.3622ZM321.751 67.2174C323.733 67.2174 325.303 67.7963 326.461 68.9541C327.638 70.0923 328.227 71.7701 328.227 73.9876V82.9655H325.401V74.3114C325.401 72.8004 325.038 71.6622 324.312 70.8969C323.586 70.1316 322.546 69.7489 321.192 69.7489C319.661 69.7489 318.454 70.2002 317.571 71.1029C316.688 71.986 316.247 73.2615 316.247 74.9296V82.9655H313.421V67.3646H316.129V69.7195C316.698 68.9149 317.464 68.2967 318.425 67.865C319.406 67.4333 320.515 67.2174 321.751 67.2174ZM349.056 67.3646V80.8461C349.056 83.5738 348.378 85.5852 347.024 86.8804C345.67 88.1952 343.649 88.8526 340.961 88.8526C339.489 88.8526 338.086 88.6465 336.751 88.2344C335.417 87.8419 334.338 87.2729 333.514 86.5272L334.868 84.3489C335.594 84.9769 336.487 85.4675 337.546 85.8207C338.626 86.1936 339.734 86.38 340.872 86.38C342.697 86.38 344.042 85.9483 344.905 85.0848C345.788 84.2214 346.23 82.9066 346.23 81.1405V79.9042C345.562 80.7087 344.738 81.3171 343.757 81.7292C342.796 82.1216 341.746 82.3179 340.608 82.3179C339.116 82.3179 337.762 82.0039 336.545 81.3759C335.348 80.7284 334.406 79.8355 333.72 78.6973C333.033 77.5395 332.689 76.2247 332.689 74.7529C332.689 73.2812 333.033 71.9762 333.72 70.838C334.406 69.6802 335.348 68.7873 336.545 68.1594C337.762 67.5314 339.116 67.2174 340.608 67.2174C341.785 67.2174 342.874 67.4333 343.875 67.865C344.895 68.2967 345.729 68.9345 346.377 69.7783V67.3646H349.056ZM340.931 79.8453C341.952 79.8453 342.864 79.6294 343.669 79.1977C344.493 78.766 345.131 78.1675 345.582 77.4021C346.053 76.6172 346.289 75.7341 346.289 74.7529C346.289 73.2419 345.788 72.0252 344.787 71.1029C343.787 70.161 342.501 69.69 340.931 69.69C339.342 69.69 338.047 70.161 337.046 71.1029C336.045 72.0252 335.545 73.2419 335.545 74.7529C335.545 75.7341 335.77 76.6172 336.222 77.4021C336.693 78.1675 337.33 78.766 338.135 79.1977C338.959 79.6294 339.891 79.8453 340.931 79.8453Z" fill="#5CBCE4"/>
<path d="M7.35605 16.6264C7.35605 15.7584 7.39234 14.9026 7.45284 14.0469C2.78271 20.1472 0 27.7879 0 36.101C0 41.0888 1.01629 45.8444 2.81901 50.1598C7.35605 47.0302 12.619 44.9153 18.2933 44.1206C11.5301 36.9567 7.35605 27.2744 7.35605 16.6264Z" fill="#95C03D"/>
<path d="M35.7154 0C30.6098 0 25.7582 1.08803 21.3663 3.04405C21.1001 3.1663 20.8824 3.37413 20.7614 3.63086C18.5715 8.09302 17.4584 13.2031 17.8214 18.6066C18.8014 33.4723 30.9364 45.3674 45.6848 45.9175C56.3076 46.3087 65.6962 40.9297 71.056 32.6288C71.177 32.4332 71.2374 32.2009 71.2132 31.9687C69.1806 13.9855 54.0693 0 35.7154 0Z" fill="#F39540"/>
<path d="M50.9232 56.4196C53.2824 59.1458 55.2425 62.2265 56.7427 65.564C56.779 65.6496 56.9 65.674 56.9605 65.6007L59.7432 62.7889C60.5659 62.0309 61.3644 61.2241 62.1146 60.3928L62.1267 60.3806C64.861 57.3487 67.0992 53.8279 68.6842 49.977C68.7326 49.8547 68.5874 49.7325 68.4785 49.8058C63.3607 53.2411 57.4081 55.4905 51.0079 56.1873C50.899 56.2118 50.8506 56.3463 50.9232 56.4196Z" fill="#8DC63F"/>
<path d="M23.3752 54.2433C17.7735 54.2433 12.5952 56.0282 8.33641 59.0478C8.27592 59.0967 8.26381 59.1822 8.31221 59.2434C8.63888 59.6346 8.96554 60.0135 9.30431 60.3925L9.31641 60.4047C10.0665 61.236 10.8651 62.0429 11.6878 62.8009L35.7159 87.0555L48.6979 73.9379C45.7458 62.6053 35.5345 54.2433 23.3752 54.2433Z" fill="#5CBCE4"/>
<g opacity="0.83">
<path opacity="0.83" d="M35.716 89.8184L34.5424 88.6326L30.4288 84.4761C25.6498 84.9773 22.2863 86.1387 22.2863 87.4834C22.2863 89.2928 28.2994 90.7598 35.7038 90.7598C43.1083 90.7598 49.1214 89.2928 49.1214 87.4834C49.1214 86.1265 45.77 84.9773 40.9789 84.4761L36.8653 88.6326L35.716 89.8184Z" fill="#D8D9D8"/>
</g>
<path d="M97.3875 43.8881C95.2469 43.8881 93.2036 43.5267 91.2576 42.8039C89.3393 42.0533 87.8381 41.0941 86.7539 39.9265L87.713 38.3419C88.7416 39.4261 90.1177 40.3157 91.8414 41.0107C93.5928 41.6779 95.4276 42.0116 97.3458 42.0116C100.126 42.0116 102.225 41.4833 103.643 40.4269C105.06 39.3705 105.769 37.9944 105.769 36.2986C105.769 34.992 105.394 33.9495 104.643 33.1711C103.893 32.3927 102.961 31.795 101.849 31.378C100.737 30.961 99.2362 30.5301 97.3458 30.0853C95.2052 29.557 93.4816 29.0427 92.175 28.5423C90.8961 28.0419 89.798 27.2774 88.8806 26.2488C87.991 25.1924 87.5462 23.7885 87.5462 22.0371C87.5462 20.6193 87.9215 19.3266 88.6721 18.159C89.4227 16.9635 90.5625 16.0183 92.0916 15.3233C93.6484 14.6283 95.5805 14.2808 97.8879 14.2808C99.5003 14.2808 101.085 14.5171 102.642 14.9897C104.199 15.4623 105.547 16.1017 106.687 16.9079L105.894 18.6177C104.727 17.8114 103.434 17.1998 102.016 16.7828C100.626 16.3658 99.2501 16.1573 97.8879 16.1573C95.1913 16.1573 93.148 16.6994 91.758 17.7836C90.3679 18.8679 89.6729 20.2718 89.6729 21.9954C89.6729 23.302 90.0482 24.3445 90.7988 25.1229C91.5495 25.9013 92.4808 26.499 93.5928 26.916C94.7048 27.333 96.2199 27.7778 98.1381 28.2504C100.279 28.7786 101.988 29.2929 103.267 29.7933C104.546 30.2938 105.63 31.0583 106.52 32.0869C107.437 33.0877 107.896 34.4499 107.896 36.1735C107.896 37.5913 107.507 38.884 106.728 40.0516C105.978 41.2192 104.81 42.1506 103.226 42.8456C101.641 43.5406 99.6949 43.8881 97.3875 43.8881ZM126.218 21.7452C128.248 21.7452 130.082 22.2178 131.723 23.163C133.363 24.1082 134.642 25.4148 135.559 27.0828C136.504 28.7508 136.977 30.6552 136.977 32.7958C136.977 34.9364 136.504 36.8546 135.559 38.5504C134.642 40.2184 133.363 41.525 131.723 42.4703C130.082 43.3877 128.248 43.8464 126.218 43.8464C124.3 43.8464 122.562 43.4016 121.006 42.512C119.449 41.5945 118.239 40.3296 117.378 38.7172V51.7694H115.293V21.912H117.294V27.0411C118.156 25.3731 119.365 24.0804 120.922 23.163C122.507 22.2178 124.272 21.7452 126.218 21.7452ZM126.093 41.9699C127.761 41.9699 129.262 41.5806 130.597 40.8022C131.931 40.0238 132.974 38.9396 133.724 37.5496C134.503 36.1596 134.892 34.575 134.892 32.7958C134.892 31.0166 134.503 29.4319 133.724 28.0419C132.974 26.6519 131.931 25.5677 130.597 24.7893C129.262 24.0109 127.761 23.6217 126.093 23.6217C124.425 23.6217 122.924 24.0109 121.589 24.7893C120.283 25.5677 119.24 26.6519 118.462 28.0419C117.711 29.4319 117.336 31.0166 117.336 32.7958C117.336 34.575 117.711 36.1596 118.462 37.5496C119.24 38.9396 120.283 40.0238 121.589 40.8022C122.924 41.5806 124.425 41.9699 126.093 41.9699ZM152.773 43.8464C150.716 43.8464 148.853 43.3738 147.185 42.4286C145.545 41.4833 144.252 40.1767 143.307 38.5087C142.362 36.8129 141.889 34.9086 141.889 32.7958C141.889 30.683 142.362 28.7925 143.307 27.1245C144.252 25.4287 145.545 24.1082 147.185 23.163C148.853 22.2178 150.716 21.7452 152.773 21.7452C154.83 21.7452 156.679 22.2178 158.319 23.163C159.987 24.1082 161.294 25.4287 162.239 27.1245C163.184 28.7925 163.657 30.683 163.657 32.7958C163.657 34.9086 163.184 36.8129 162.239 38.5087C161.294 40.1767 159.987 41.4833 158.319 42.4286C156.679 43.3738 154.83 43.8464 152.773 43.8464ZM152.773 41.9699C154.441 41.9699 155.928 41.5806 157.235 40.8022C158.569 40.0238 159.612 38.9396 160.363 37.5496C161.141 36.1596 161.53 34.575 161.53 32.7958C161.53 31.0166 161.141 29.4319 160.363 28.0419C159.612 26.6519 158.569 25.5677 157.235 24.7893C155.928 24.0109 154.441 23.6217 152.773 23.6217C151.105 23.6217 149.604 24.0109 148.269 24.7893C146.963 25.5677 145.92 26.6519 145.142 28.0419C144.391 29.4319 144.016 31.0166 144.016 32.7958C144.016 34.575 144.391 36.1596 145.142 37.5496C145.92 38.9396 146.963 40.0238 148.269 40.8022C149.604 41.5806 151.105 41.9699 152.773 41.9699ZM172.961 26.6658C173.628 25.0812 174.671 23.8719 176.088 23.0379C177.506 22.1761 179.23 21.7452 181.259 21.7452V23.7885L180.759 23.7468C178.34 23.7468 176.45 24.5113 175.088 26.0403C173.725 27.5415 173.044 29.6404 173.044 32.3371V43.6796H170.959V21.912H172.961V26.6658ZM199.616 42.3035C199.088 42.8039 198.42 43.1931 197.614 43.4711C196.836 43.7213 196.016 43.8464 195.154 43.8464C193.264 43.8464 191.804 43.3321 190.775 42.3035C189.747 41.247 189.233 39.7875 189.233 37.9249V23.7051H185.229V21.912H189.233V17.1581H191.318V21.912H198.24V23.7051H191.318V37.7164C191.318 39.1342 191.651 40.2184 192.318 40.969C193.013 41.6918 194.028 42.0533 195.362 42.0533C196.725 42.0533 197.851 41.6501 198.74 40.8439L199.616 42.3035Z" fill="#F79444"/>
<path d="M219.275 43.8881C216.412 43.8881 213.826 43.2487 211.519 41.9699C209.239 40.691 207.432 38.9257 206.098 36.6739C204.791 34.4221 204.138 31.8923 204.138 29.0844C204.138 26.2766 204.791 23.7468 206.098 21.495C207.432 19.2432 209.239 17.4778 211.519 16.199C213.826 14.9202 216.412 14.2808 219.275 14.2808C221.388 14.2808 223.334 14.6283 225.113 15.3233C226.892 15.9905 228.407 16.9913 229.658 18.3258L228.324 19.7019C225.989 17.3944 223 16.2407 219.358 16.2407C216.912 16.2407 214.688 16.7967 212.686 17.9087C210.685 19.0208 209.114 20.5637 207.974 22.5375C206.834 24.4835 206.265 26.6658 206.265 29.0844C206.265 31.5031 206.834 33.6993 207.974 35.6731C209.114 37.6191 210.685 39.1481 212.686 40.2601C214.688 41.3721 216.912 41.9282 219.358 41.9282C222.972 41.9282 225.961 40.7605 228.324 38.4253L229.658 39.8014C228.407 41.1358 226.878 42.1506 225.071 42.8456C223.292 43.5406 221.36 43.8881 219.275 43.8881ZM243.921 21.7452C246.618 21.7452 248.689 22.4402 250.135 23.8302C251.58 25.1924 252.303 27.2079 252.303 29.8767V43.6796H250.301V39.8014C249.606 41.0802 248.592 42.0811 247.257 42.8039C245.923 43.4989 244.324 43.8464 242.462 43.8464C240.043 43.8464 238.125 43.2765 236.707 42.1367C235.317 40.9968 234.622 39.4956 234.622 37.633C234.622 35.826 235.261 34.3665 236.54 33.2545C237.847 32.1147 239.918 31.5448 242.754 31.5448H250.218V29.7933C250.218 27.7639 249.662 26.221 248.55 25.1646C247.466 24.1082 245.867 23.58 243.754 23.58C242.309 23.58 240.919 23.8302 239.584 24.3306C238.278 24.831 237.166 25.4982 236.248 26.3322L235.206 24.831C236.29 23.858 237.597 23.1074 239.126 22.5792C240.655 22.0232 242.253 21.7452 243.921 21.7452ZM242.754 42.1367C244.561 42.1367 246.09 41.7196 247.341 40.8856C248.619 40.0516 249.579 38.8423 250.218 37.2577V33.1711H242.795C240.655 33.1711 239.098 33.5603 238.125 34.3387C237.18 35.1171 236.707 36.1874 236.707 37.5496C236.707 38.9674 237.235 40.0933 238.292 40.9273C239.348 41.7335 240.835 42.1367 242.754 42.1367ZM288.833 21.7452C291.529 21.7452 293.642 22.5375 295.171 24.1221C296.728 25.7067 297.506 27.9863 297.506 30.961V43.6796H295.421V31.1278C295.421 28.6813 294.824 26.8187 293.628 25.5399C292.433 24.2611 290.765 23.6217 288.624 23.6217C286.178 23.6217 284.232 24.3862 282.786 25.9152C281.368 27.4442 280.66 29.5014 280.66 32.0869V43.6796H278.575V31.1278C278.575 28.6813 277.977 26.8187 276.781 25.5399C275.586 24.2611 273.918 23.6217 271.777 23.6217C269.331 23.6217 267.385 24.3862 265.939 25.9152C264.522 27.4442 263.813 29.5014 263.813 32.0869V43.6796H261.728V21.912H263.729V26.5824C264.452 25.0534 265.522 23.8719 266.94 23.0379C268.386 22.1761 270.095 21.7452 272.069 21.7452C274.043 21.7452 275.711 22.19 277.073 23.0796C278.463 23.9692 279.45 25.2758 280.034 26.9994C280.757 25.387 281.883 24.1082 283.412 23.163C284.969 22.2178 286.776 21.7452 288.833 21.7452ZM317.875 21.7452C319.905 21.7452 321.739 22.2178 323.38 23.163C325.02 24.1082 326.299 25.4148 327.216 27.0828C328.161 28.7508 328.634 30.6552 328.634 32.7958C328.634 34.9364 328.161 36.8546 327.216 38.5504C326.299 40.2184 325.02 41.525 323.38 42.4703C321.739 43.3877 319.905 43.8464 317.875 43.8464C315.957 43.8464 314.219 43.4016 312.663 42.512C311.106 41.5945 309.896 40.3296 309.035 38.7172V51.7694H306.95V21.912H308.951V27.0411C309.813 25.3731 311.022 24.0804 312.579 23.163C314.164 22.2178 315.929 21.7452 317.875 21.7452ZM317.75 41.9699C319.418 41.9699 320.919 41.5806 322.254 40.8022C323.588 40.0238 324.631 38.9396 325.381 37.5496C326.16 36.1596 326.549 34.575 326.549 32.7958C326.549 31.0166 326.16 29.4319 325.381 28.0419C324.631 26.6519 323.588 25.5677 322.254 24.7893C320.919 24.0109 319.418 23.6217 317.75 23.6217C316.082 23.6217 314.581 24.0109 313.246 24.7893C311.94 25.5677 310.897 26.6519 310.119 28.0419C309.368 29.4319 308.993 31.0166 308.993 32.7958C308.993 34.575 309.368 36.1596 310.119 37.5496C310.897 38.9396 311.94 40.0238 313.246 40.8022C314.581 41.5806 316.082 41.9699 317.75 41.9699ZM341.428 43.8464C339.676 43.8464 338.008 43.5823 336.424 43.0541C334.839 42.5259 333.602 41.8587 332.712 41.0524L333.671 39.3844C334.561 40.135 335.701 40.7605 337.091 41.2609C338.509 41.7613 339.982 42.0116 341.511 42.0116C343.707 42.0116 345.32 41.6501 346.348 40.9273C347.405 40.2045 347.933 39.2037 347.933 37.9249C347.933 37.0075 347.641 36.2847 347.057 35.7565C346.501 35.2283 345.806 34.8391 344.972 34.5889C344.138 34.3387 342.985 34.0746 341.511 33.7966C339.788 33.4908 338.397 33.1572 337.341 32.7958C336.285 32.4344 335.381 31.8506 334.631 31.0444C333.88 30.2382 333.505 29.1261 333.505 27.7083C333.505 25.9847 334.214 24.5669 335.631 23.4549C337.077 22.3151 339.12 21.7452 341.761 21.7452C343.151 21.7452 344.527 21.9398 345.89 22.329C347.252 22.7182 348.364 23.2325 349.226 23.8719L348.267 25.5399C347.377 24.9005 346.362 24.414 345.222 24.0804C344.083 23.7468 342.915 23.58 341.72 23.58C339.69 23.58 338.161 23.9553 337.133 24.7059C336.104 25.4565 335.59 26.4434 335.59 27.6666C335.59 28.6396 335.882 29.4041 336.465 29.9601C337.049 30.4884 337.758 30.8915 338.592 31.1695C339.454 31.4197 340.649 31.6977 342.178 32.0035C343.874 32.3093 345.236 32.6429 346.265 33.0043C347.321 33.3379 348.211 33.8939 348.934 34.6723C349.657 35.4507 350.018 36.521 350.018 37.8832C350.018 39.6902 349.267 41.1358 347.766 42.2201C346.265 43.3043 344.152 43.8464 341.428 43.8464Z" fill="#8DC63F"/>
</g>
<defs>
<clipPath id="clip0_889_5468">
<rect width="352" height="90.7596" fill="white"/>
</clipPath>
</defs>
</svg>
