<svg version="1.1" id="Layer_1" xmlns="http://www.w3.org/2000/svg" x="0" y="0" viewBox="0 0 1510 390" style="enable-background:new 0 0 1510 390" xml:space="preserve"><style>.st0{fill:#5cbce4}.st3{fill:#8dc63f}.st5{fill:#f79444}</style><path class="st0" d="M1025 308.1c17.8 3.6 22.6 29.7 7.8 39.7-11.7 10-51.9 5.1-67.3 6.2v-88.4c14.7 1.1 51.8-3.7 63 6.1 12.8 8.4 10.4 30.3-3.5 36.4zm-46.8-32.4V304c13.3-1.6 45.8 6.5 46.1-14.1-.4-20.5-32.9-12.6-46.1-14.2zm29 68c11.9-.2 21.3-2.5 21.6-14.6 1.3-20.9-36.7-13.5-50.6-14.8v29.4h29zM1090.6 354.6c-27.4.9-43.4-28.7-30.4-51.8 12-21.9 48.7-22.1 60.6 0 13.1 22.9-3 52.7-30.2 51.8zm0-10.6c29.8.4 29.9-47.6 0-47.1-30.1-.5-30.1 47.6 0 47.1zM1173.2 354.6c-27.4.9-43.4-28.7-30.4-51.8 12-21.9 48.7-22.1 60.6 0 13.2 22.7-3.1 52.9-30.2 51.8zm0-10.6c29.8.4 29.9-47.6 0-47.1-30-.5-30 47.6 0 47.1zM1253.2 322.7l-13.8 12.9v18.3h-12.2v-93.7h12.2v60.1l36.4-33.3h14.7l-28.2 27.6 31 39.3h-14.9zM1306.7 287h12.1v66.9h-12.1zM1312.8 274.1c-10.8.3-10.7-15.9 0-15.8 10.8-.2 10.7 15.9 0 15.8zM1380.2 286.3c17.6 0 28 10.9 27.8 29v38.5h-12.1v-37.1c.1-12.3-5.9-19.5-18.1-19.6-13.5 0-21.3 8.5-21.2 22.2v34.5h-12.1V287h11.6v10.1c5.4-7.7 14.6-10.8 24.1-10.8zM1497.4 287v57.8c0 11.7-2.9 20.3-8.7 25.9-12.8 12.6-44 10.6-58-1.5l5.8-9.3c10.3 9 33.1 12.7 43.1 3.2 5.1-4.2 6.1-14.4 5.7-22.2-18.9 21.6-59.3 7.8-58.1-22.1-1.2-30.4 40.3-43.6 58.7-21.3V287h11.5zm-34.9 53.5c30.4.2 30.7-44 0-43.6-30.8-.5-30.6 44.1 0 43.6z"/><path d="M31.6 71.7c0-3.7.2-7.4.4-11.1-20 26.2-32 58.9-32 94.6 0 21.4 4.4 41.8 12.1 60.3 19.5-13.4 42-22.5 66.4-25.9-29-30.7-46.9-72.2-46.9-117.9z" style="fill:#95c03d"/><path d="M153.2.4c-21.9 0-42.7 4.7-61.6 13.1-1.1.5-2.1 1.4-2.6 2.5-9.3 19.1-14.1 41-12.6 64.2C80.7 144 132.7 195 196 197.4c45.6 1.7 85.8-21.4 108.8-57 .5-.8.8-1.8.7-2.8C296.8 60.4 231.9.4 153.2.4z" style="fill:#f39540"/><path class="st3" d="M218.4 242.4c10.1 11.7 18.5 24.9 25 39.2.2.4.7.5.9.2l11.9-12.1c3.5-3.3 7-6.7 10.2-10.3l.1-.1c11.7-13 21.3-28.1 28.1-44.6.2-.5-.4-1-.9-.7-22 14.7-47.5 24.4-74.9 27.4-.5.1-.7.7-.4 1z"/><path class="st0" d="M100.3 233.1c-24 0-46.2 7.7-64.5 20.6-.3.2-.3.6-.1.8 1.4 1.7 2.8 3.3 4.3 4.9l.1.1c3.2 3.6 6.6 7 10.2 10.3l103.1 104 55.7-56.3c-12.9-48.5-56.7-84.4-108.8-84.4z"/><path d="m153.2 385.7-22.7-22.9c-20.5 2.2-34.9 7.1-34.9 12.9 0 7.8 25.8 14.1 57.6 14.1s57.6-6.3 57.6-14.1c0-5.8-14.4-10.8-34.9-12.9l-22.7 22.9z" style="fill:#e6e6e6;enable-background:new"/><path class="st5" d="M417.8 190.1c-16.1.2-35.2-5.7-45.6-17l4.1-6.8c14.9 16.5 51.1 21.2 68.3 8.9 10.1-6.7 12.3-22.7 4.3-31.1-17.3-16.7-51.6-11-67.6-29.7-7.3-8.4-7.6-25-.9-34.7 15.8-22.9 55.9-20.1 77.3-5.4l-3.4 7.3C444.6 74.8 431.7 71 420 71c-11.6 0-20.3 2.3-26.3 7-15.3 11.5-9.9 34.2 7.9 39.2 16.6 6.9 43.4 7.7 55.5 22.2 7.7 8.1 7.7 24.7.9 34.2-8.6 12.4-23.9 16.4-40.2 16.5zM541.4 95.1c37.6-.8 57.1 41 40.1 72.1-14.8 29.3-63.1 30.8-78 .7v56h-8.9V95.8h8.6v22c7.3-14.5 22.1-22.8 38.2-22.7zm-.5 86.7c30.9.8 46.7-34.6 32.7-59.7-12.6-25.2-52.8-25.1-65.5 0-13.5 25.3 1.8 60.5 32.8 59.7zM655.4 189.9c-37.5.9-57.9-40.5-40.6-71.7 16-30.8 65.2-30.6 81.2 0 17.3 31.2-3.1 72.5-40.6 71.7zm0-8.1c30.6.9 46.5-34.9 32.6-59.7-12.7-25.2-52.4-25.2-65.3 0-13.6 25.3 1.7 60.5 32.7 59.7zM742 116.2c2.9-6.8 7.3-12 13.4-15.6 6.1-3.7 13.5-5.5 22.2-5.5v8.8l-2.1-.2c-10.4 0-18.5 3.3-24.3 9.8-5.8 6.4-8.8 15.4-8.8 27v48.7h-8.9V95.8h8.6v20.4zM856.3 183.3c-2.3 2.1-5.1 3.8-8.6 5-3.3 1.1-6.9 1.6-10.6 1.6-8.1 0-14.4-2.2-18.8-6.6-4.4-4.5-6.6-10.8-6.6-18.8v-61h-17.2v-7.7h17.2V75.4h8.9v20.4h29.7v7.7h-29.7v60.1c0 6.1 1.4 10.7 4.3 14 3 3.1 7.3 4.7 13.1 4.7s10.7-1.7 14.5-5.2l3.8 6.2z"/><path class="st3" d="M940.6 190.1c-12.3 0-23.4-2.7-33.3-8.2-9.8-5.5-17.5-13.1-23.3-22.7-5.6-9.7-8.4-20.5-8.4-32.6s2.8-22.9 8.4-32.6c5.7-9.7 13.5-17.2 23.3-22.7 9.9-5.5 21-8.2 33.3-8.2 9.1 0 17.4 1.5 25 4.5 7.6 2.9 14.1 7.2 19.5 12.9l-5.7 5.9c-10-9.9-22.8-14.8-38.5-14.8-10.5 0-20 2.4-28.6 7.2-8.6 4.8-15.3 11.4-20.2 19.9-4.9 8.3-7.3 17.7-7.3 28.1s2.4 19.8 7.3 28.3c4.9 8.3 11.6 14.9 20.2 19.7 8.6 4.8 18.1 7.2 28.6 7.2 15.5 0 28.3-5 38.5-15l5.7 5.9c-5.4 5.7-11.9 10.1-19.7 13.1-7.5 2.6-15.8 4.1-24.8 4.1zM1046.4 95.1c11.6 0 20.4 3 26.7 8.9 6.2 5.8 9.3 14.5 9.3 25.9v59.2h-8.6v-16.6c-3 5.5-7.3 9.8-13.1 12.9-5.7 3-12.6 4.5-20.6 4.5-10.4 0-18.6-2.4-24.7-7.3-6-4.9-8.9-11.3-8.9-19.3 0-7.8 2.7-14 8.2-18.8 5.6-4.9 14.5-7.3 26.7-7.3h32v-7.5c0-8.7-2.4-15.3-7.2-19.9-4.7-4.5-11.5-6.8-20.6-6.8-6.2 0-12.2 1.1-17.9 3.2-5.6 2.1-10.4 5-14.3 8.6l-4.5-6.4c4.7-4.2 10.3-7.4 16.8-9.7 6.6-2.4 13.5-3.6 20.7-3.6zm-5 87.5c7.8 0 14.3-1.8 19.7-5.4 5.5-3.6 9.6-8.8 12.3-15.6v-17.5h-31.8c-9.2 0-15.9 1.7-20 5-4 3.3-6.1 7.9-6.1 13.8 0 6.1 2.3 10.9 6.8 14.5 4.5 3.4 10.8 5.2 19.1 5.2zM1239 95.1c24 0 37.4 15.3 37.2 39.5v54.6h-8.9v-53.8c.1-19.7-9.7-32.2-29.2-32.2-21.4-.2-34.4 15-34.2 36.3v49.7h-8.9v-53.8c.1-19.7-9.7-32.2-29.2-32.2-21.4-.2-34.4 15-34.2 36.3v49.7h-8.9V95.8h8.6v20c11.9-27.6 60.8-28.6 69.9 1.8 6.6-14.7 21.4-22.7 37.8-22.5zM1363.6 95.1c37.6-.8 57.1 41 40.1 72.1-14.8 29.3-63.1 30.8-78 .7v56h-8.9V95.8h8.6v22c7.3-14.5 22-22.8 38.2-22.7zm-.5 86.7c30.9.8 46.7-34.6 32.7-59.7-12.6-25.2-52.8-25.1-65.5 0-13.5 25.3 1.8 60.5 32.8 59.7zM1464.7 189.9c-12.8.1-28.5-4-37.4-12l4.1-7.2c12.6 11.2 40.8 15.4 54.4 6.6 7.3-4.4 9.4-16.4 3-22.2-14-11.7-40.7-5.8-53.3-20.2-7.9-8.6-6-25.4 4.3-32.6 13.8-11.1 43.5-9 58.3 1.8l-4.1 7.2c-14.3-10.9-53.1-14.6-54.4 9.1-.1 19.7 32.9 16.9 45.8 22.9 18.2 4.5 22 28.9 6.4 39.5-6.4 4.8-15.5 7.1-27.1 7.1z"/></svg>