<svg width="18" height="16" viewBox="0 0 18 16" fill="none" xmlns="http://www.w3.org/2000/svg">
<path d="M7.30456 3.21986C7.94663 1.61918 8.26767 0.818834 8.78925 0.70791C8.92639 0.678744 9.06814 0.678744 9.20528 0.70791C9.72686 0.818834 10.0479 1.61918 10.69 3.21986C11.0551 4.13014 11.2377 4.58528 11.5793 4.89485C11.6751 4.98168 11.7791 5.05901 11.8899 5.12576C12.2847 5.36374 12.7776 5.40788 13.7634 5.49617C15.4321 5.64562 16.2665 5.72034 16.5213 6.19609C16.5741 6.29462 16.61 6.4013 16.6275 6.51169C16.7119 7.04472 16.0986 7.60278 14.8718 8.7189L14.5311 9.02884C13.9575 9.55065 13.6708 9.81155 13.5049 10.1372C13.4054 10.3325 13.3387 10.5428 13.3074 10.7598C13.2553 11.1215 13.3393 11.5 13.5072 12.2569L13.5672 12.5274C13.8684 13.8849 14.019 14.5637 13.831 14.8973C13.6622 15.197 13.3511 15.3889 13.0075 15.4053C12.625 15.4236 12.086 14.9844 11.0081 14.106C10.2978 13.5273 9.94274 13.2379 9.54853 13.1249C9.18828 13.0216 8.80625 13.0216 8.44601 13.1249C8.0518 13.2379 7.69669 13.5273 6.98648 14.106C5.90851 14.9844 5.36952 15.4236 4.987 15.4053C4.6434 15.3889 4.33235 15.197 4.16349 14.8973C3.97549 14.5637 4.12609 13.8849 4.42729 12.5274L4.4873 12.2569C4.65525 11.5 4.73923 11.1215 4.68711 10.7598C4.65585 10.5428 4.58914 10.3325 4.48964 10.1372C4.32376 9.81155 4.03699 9.55065 3.46345 9.02884L3.12277 8.7189C1.89598 7.60278 1.28259 7.04472 1.36706 6.51169C1.38456 6.4013 1.42044 6.29462 1.47321 6.19609C1.72801 5.72034 2.56239 5.64562 4.23115 5.49617C5.21693 5.40788 5.70983 5.36374 6.10467 5.12576C6.21541 5.05901 6.31943 4.98168 6.41525 4.89485C6.75686 4.58528 6.93943 4.13014 7.30456 3.21986Z" stroke="#F3CC40"/>
</svg>
