<svg width="18" height="18" viewBox="0 0 18 18" fill="none" xmlns="http://www.w3.org/2000/svg">
<path d="M7.30456 4.21986C7.94663 2.61918 8.26767 1.81883 8.78925 1.70791C8.92639 1.67874 9.06814 1.67874 9.20528 1.70791C9.72686 1.81883 10.0479 2.61918 10.69 4.21986C11.0551 5.13014 11.2377 5.58528 11.5793 5.89485C11.6751 5.98168 11.7791 6.05901 11.8899 6.12576C12.2847 6.36374 12.7776 6.40788 13.7634 6.49617C15.4321 6.64562 16.2665 6.72034 16.5213 7.19609C16.5741 7.29462 16.61 7.4013 16.6275 7.51169C16.7119 8.04472 16.0986 8.60278 14.8718 9.7189L14.5311 10.0288C13.9575 10.5506 13.6708 10.8116 13.5049 11.1372C13.4054 11.3325 13.3387 11.5428 13.3074 11.7598C13.2553 12.1215 13.3393 12.5 13.5072 13.2569L13.5672 13.5274C13.8684 14.8849 14.019 15.5637 13.831 15.8973C13.6622 16.197 13.3511 16.3889 13.0075 16.4053C12.625 16.4236 12.086 15.9844 11.0081 15.106C10.2978 14.5273 9.94274 14.2379 9.54853 14.1249C9.18828 14.0216 8.80625 14.0216 8.44601 14.1249C8.0518 14.2379 7.69669 14.5273 6.98648 15.106C5.90851 15.9844 5.36952 16.4236 4.987 16.4053C4.6434 16.3889 4.33235 16.197 4.16349 15.8973C3.97549 15.5637 4.12609 14.8849 4.42729 13.5274L4.4873 13.2569C4.65525 12.5 4.73923 12.1215 4.68711 11.7598C4.65585 11.5428 4.58914 11.3325 4.48964 11.1372C4.32376 10.8116 4.03699 10.5506 3.46344 10.0288L3.12277 9.7189C1.89598 8.60278 1.28259 8.04472 1.36706 7.51169C1.38456 7.4013 1.42044 7.29462 1.47321 7.19609C1.72801 6.72034 2.56239 6.64562 4.23115 6.49617C5.21693 6.40788 5.70983 6.36374 6.10467 6.12576C6.21541 6.05901 6.31943 5.98168 6.41525 5.89485C6.75686 5.58528 6.93942 5.13014 7.30456 4.21986Z" fill="#F3CC40" stroke="#F3CC40" stroke-width="1.86038"/>
</svg>
