<svg width="6" height="11" viewBox="0 0 6 11" fill="none" xmlns="http://www.w3.org/2000/svg">
<path d="M0.34459 10.39C0.203987 10.2494 0.125 10.0587 0.125 9.85978C0.125 9.66091 0.203987 9.47018 0.34459 9.32953L4.05709 5.61703L0.34459 1.90453C0.207971 1.76308 0.132375 1.57363 0.134084 1.37698C0.135793 1.18033 0.214669 0.992221 0.353725 0.853165C0.492782 0.714108 0.680891 0.635233 0.877538 0.633524C1.07419 0.631815 1.26364 0.707411 1.40509 0.844029L5.64784 5.08678C5.78844 5.22742 5.86743 5.41816 5.86743 5.61703C5.86743 5.8159 5.78844 6.00663 5.64784 6.14728L1.40509 10.39C1.26444 10.5306 1.07371 10.6096 0.87484 10.6096C0.675967 10.6096 0.485236 10.5306 0.34459 10.39Z" fill="#959595"/>
</svg>
