<svg width="25" height="24" viewBox="0 0 25 24" fill="none" xmlns="http://www.w3.org/2000/svg">
<path fill-rule="evenodd" clip-rule="evenodd" d="M14.0389 1.79999C13.1164 1.79999 12.3849 2.56319 12.3849 3.48575C12.3849 4.40831 13.1164 5.17175 14.0389 5.17175C14.9932 5.17175 15.7247 4.40831 15.7247 3.48575C15.7247 2.56343 14.9932 1.79999 14.0389 1.79999ZM12.6076 5.04431C12.2577 5.07623 11.9713 5.26703 11.7486 5.42591C11.4623 5.64887 11.0171 6.12599 11.0171 6.12599V6.15767C10.9852 6.15767 9.23583 8.19335 8.21799 9.14759C8.12247 9.24311 8.05887 9.33839 8.02719 9.46583L7.51839 12.233C7.42287 12.551 7.67727 12.9329 7.99527 12.9962C8.31351 13.0601 8.69511 12.8057 8.72679 12.4557L9.23583 9.87911L11.2079 7.90703V13.1553L10.0945 15.9225L6.65967 20.7895C6.52604 20.985 6.46937 21.2229 6.50055 21.4577C6.53247 21.6801 6.65967 21.9029 6.85047 22.0301C7.04127 22.1892 7.29567 22.2209 7.55031 22.1892C7.77279 22.1256 7.99551 21.9984 8.12271 21.8076V21.7757L11.5897 16.8773L11.6853 16.6865L12.9894 13.4419L15.5658 16.9089L17.4743 21.3621C17.6334 21.7757 18.2058 21.9981 18.6193 21.8073C19.0329 21.6485 19.2556 21.0758 19.0965 20.6625L17.1563 16.1457L17.0608 15.9547L14.5797 12.6465V8.60687L15.5656 9.75191L15.6611 9.84743L18.2056 11.8195C18.4283 12.0103 18.8737 11.9786 19.0645 11.724C19.2553 11.4693 19.1917 11.0561 18.969 10.8336L16.4881 8.89319C15.7247 8.00255 14.7385 6.76199 14.2933 6.18959C14.0706 5.90327 13.498 5.13983 12.7665 5.04431H12.6076Z" fill="#5BBCE4"/>
</svg>
