<svg width="20" height="22" viewBox="0 0 20 22" fill="none" xmlns="http://www.w3.org/2000/svg">
<path fill-rule="evenodd" clip-rule="evenodd" d="M2.61596 10.0031H18.888C19.502 10.0031 20 10.4553 20 11.0124C20 11.5695 19.502 12.0217 18.888 12.0217H2.61596L10.808 20.2896C10.9901 20.4799 11.0909 20.7349 11.0886 20.9995C11.0864 21.2641 10.9812 21.5173 10.7958 21.7044C10.6104 21.8915 10.3596 21.9977 10.0974 22C9.83517 22.0023 9.58257 21.9005 9.39396 21.7167L0.907964 13.1541C0.411781 12.6531 0.10534 11.9924 0.0419642 11.2869C-0.0141508 11.1083 -0.0141508 10.9165 0.0419642 10.7379C0.101964 10.0556 0.391964 9.39354 0.907964 8.87074L9.39396 0.308117C9.48621 0.211722 9.59656 0.134834 9.71856 0.0819392C9.84056 0.0290445 9.97178 0.00120261 10.1046 3.81063e-05C10.2373 -0.0011264 10.369 0.02441 10.4919 0.0751569C10.6148 0.125904 10.7265 0.200845 10.8204 0.295608C10.9143 0.39037 10.9885 0.503057 11.0388 0.627092C11.0891 0.751127 11.1144 0.884027 11.1132 1.01804C11.1121 1.15205 11.0845 1.28448 11.0321 1.40762C10.9797 1.53075 10.9035 1.64212 10.808 1.73522L2.61596 10.0031Z" fill="#2F3B40"/>
</svg>
