<svg width="231" height="44" viewBox="0 0 231 44" fill="none" xmlns="http://www.w3.org/2000/svg">
<path d="M167.22 21.28C163.22 21.28 160 18.22 160 14.04V14C160 9.92 163.14 6.72 167.38 6.72C170.24 6.72 172.08 7.92 173.32 9.64L170.4 11.9C169.6 10.9 168.68 10.26 167.34 10.26C165.38 10.26 164 11.92 164 13.96V14C164 16.1 165.38 17.74 167.34 17.74C168.8 17.74 169.66 17.06 170.5 16.04L173.42 18.12C172.1 19.94 170.32 21.28 167.22 21.28Z" fill="#5BBCE4"/>
<path d="M178.369 21.24C176.309 21.24 174.729 20.06 174.729 17.9V17.86C174.729 15.62 176.429 14.46 178.969 14.46C179.969 14.46 180.949 14.66 181.569 14.88V14.7C181.569 13.58 180.869 12.94 179.409 12.94C178.269 12.94 177.389 13.16 176.429 13.54L175.649 10.86C176.869 10.36 178.169 10.02 180.029 10.02C181.969 10.02 183.289 10.48 184.149 11.34C184.969 12.14 185.309 13.26 185.309 14.78V21H181.549V19.88C180.809 20.7 179.789 21.24 178.369 21.24ZM179.729 18.86C180.829 18.86 181.609 18.16 181.609 17.08V16.58C181.229 16.42 180.689 16.3 180.129 16.3C179.029 16.3 178.389 16.84 178.389 17.64V17.68C178.389 18.42 178.949 18.86 179.729 18.86Z" fill="#5BBCE4"/>
<path d="M187.642 21V10.18H191.442V11.66C192.142 10.76 193.142 9.94 194.662 9.94C196.102 9.94 197.202 10.58 197.782 11.7C198.722 10.62 199.822 9.94 201.402 9.94C203.702 9.94 205.102 11.38 205.102 13.9V21H201.302V15.12C201.302 13.94 200.722 13.32 199.822 13.32C198.922 13.32 198.262 13.94 198.262 15.12V21H194.462V15.12C194.462 13.94 193.882 13.32 192.982 13.32C192.082 13.32 191.442 13.94 191.442 15.12V21H187.642Z" fill="#5BBCE4"/>
<path d="M207.456 24.2V10.18H211.256V11.62C211.996 10.72 212.916 9.94 214.536 9.94C217.116 9.94 219.336 12.08 219.336 15.54V15.58C219.336 19.1 217.116 21.24 214.556 21.24C212.916 21.24 211.956 20.5 211.256 19.68V24.2H207.456ZM213.376 18.06C214.616 18.06 215.596 17.06 215.596 15.6V15.56C215.596 14.14 214.616 13.12 213.376 13.12C212.156 13.12 211.176 14.14 211.176 15.56V15.6C211.176 17.04 212.156 18.06 213.376 18.06Z" fill="#5BBCE4"/>
<path d="M225.672 21.24C223.852 21.24 222.052 20.72 220.552 19.64L221.972 17.34C223.212 18.16 224.572 18.58 225.692 18.58C226.352 18.58 226.652 18.38 226.652 18V17.96C226.652 17.54 226.052 17.36 224.912 17.04C222.772 16.48 221.072 15.76 221.072 13.58V13.54C221.072 11.24 222.912 9.96 225.412 9.96C226.992 9.96 228.632 10.42 229.872 11.22L228.572 13.62C227.452 13 226.232 12.62 225.372 12.62C224.792 12.62 224.492 12.84 224.492 13.14V13.18C224.492 13.6 225.112 13.8 226.252 14.14C228.392 14.74 230.092 15.48 230.092 17.58V17.62C230.092 20 228.312 21.24 225.672 21.24Z" fill="#5BBCE4"/>
<path d="M101.385 21.24C98.9045 21.24 96.5445 20.46 94.8245 18.92L96.9845 16.34C98.3645 17.44 99.9045 18.02 101.525 18.02C102.565 18.02 103.125 17.66 103.125 17.06V17.02C103.125 16.44 102.665 16.12 100.765 15.68C97.7845 15 95.4845 14.16 95.4845 11.28V11.24C95.4845 8.64 97.5445 6.76 100.905 6.76C103.285 6.76 105.145 7.4 106.665 8.62L104.725 11.36C103.445 10.46 102.045 9.98 100.805 9.98C99.8645 9.98 99.4045 10.38 99.4045 10.88V10.92C99.4045 11.56 99.8845 11.84 101.825 12.28C105.045 12.98 107.045 14.02 107.045 16.64V16.68C107.045 19.54 104.785 21.24 101.385 21.24Z" fill="#95C032"/>
<path d="M109.111 24.2V10.18H112.911V11.62C113.651 10.72 114.571 9.94 116.191 9.94C118.771 9.94 120.991 12.08 120.991 15.54V15.58C120.991 19.1 118.771 21.24 116.211 21.24C114.571 21.24 113.611 20.5 112.911 19.68V24.2H109.111ZM115.031 18.06C116.271 18.06 117.251 17.06 117.251 15.6V15.56C117.251 14.14 116.271 13.12 115.031 13.12C113.811 13.12 112.831 14.14 112.831 15.56V15.6C112.831 17.04 113.811 18.06 115.031 18.06Z" fill="#95C032"/>
<path d="M128.547 21.26C125.087 21.26 122.587 18.72 122.587 15.64V15.6C122.587 12.52 125.107 9.94 128.587 9.94C132.047 9.94 134.547 12.48 134.547 15.56V15.6C134.547 18.68 132.027 21.26 128.547 21.26ZM128.587 18.04C129.967 18.04 130.847 16.94 130.847 15.64V15.6C130.847 14.28 129.887 13.16 128.547 13.16C127.167 13.16 126.287 14.26 126.287 15.56V15.6C126.287 16.92 127.247 18.04 128.587 18.04Z" fill="#95C032"/>
<path d="M136.552 21V10.18H140.352V12.36C140.972 10.88 141.972 9.92 143.772 10V14H143.452C141.472 14 140.352 15.14 140.352 17.64V21H136.552Z" fill="#95C032"/>
<path d="M149.807 21.22C147.527 21.22 146.167 20.22 146.167 17.64V13.24H144.887V10.18H146.167V7.44H149.967V10.18H152.487V13.24H149.967V16.9C149.967 17.66 150.307 17.98 151.007 17.98C151.507 17.98 151.987 17.84 152.447 17.62V20.6C151.767 20.98 150.867 21.22 149.807 21.22Z" fill="#95C032"/>
<path d="M43.24 21V7H50.42C52.18 7 53.42 7.44 54.24 8.26C54.8 8.82 55.14 9.56 55.14 10.52V10.56C55.14 12.18 54.22 13.14 52.98 13.68C54.68 14.24 55.76 15.2 55.76 17.1V17.14C55.76 19.54 53.8 21 50.46 21H43.24ZM47.02 12.58H49.46C50.64 12.58 51.3 12.18 51.3 11.36V11.32C51.3 10.56 50.7 10.12 49.54 10.12H47.02V12.58ZM47.02 17.88H50.02C51.2 17.88 51.88 17.42 51.88 16.6V16.56C51.88 15.8 51.28 15.3 49.98 15.3H47.02V17.88Z" fill="#F39540"/>
<path d="M63.0769 21.26C59.6769 21.26 57.2769 19 57.2769 15.64V15.6C57.2769 12.44 59.5369 9.94 62.7369 9.94C66.4769 9.94 68.1969 12.68 68.1969 15.86C68.1969 16.1 68.1969 16.38 68.1769 16.64H60.9369C61.2369 17.82 62.0969 18.42 63.2769 18.42C64.1769 18.42 64.8969 18.08 65.6769 17.32L67.7769 19.06C66.7369 20.38 65.2369 21.26 63.0769 21.26ZM60.8769 14.7H64.6369C64.4969 13.5 63.7969 12.74 62.7569 12.74C61.7569 12.74 61.0769 13.52 60.8769 14.7Z" fill="#F39540"/>
<path d="M74.5262 21.24C72.7062 21.24 70.9062 20.72 69.4062 19.64L70.8262 17.34C72.0662 18.16 73.4262 18.58 74.5462 18.58C75.2062 18.58 75.5062 18.38 75.5062 18V17.96C75.5062 17.54 74.9062 17.36 73.7662 17.04C71.6262 16.48 69.9262 15.76 69.9262 13.58V13.54C69.9262 11.24 71.7662 9.96 74.2662 9.96C75.8462 9.96 77.4862 10.42 78.7262 11.22L77.4262 13.62C76.3062 13 75.0862 12.62 74.2262 12.62C73.6462 12.62 73.3462 12.84 73.3462 13.14V13.18C73.3462 13.6 73.9662 13.8 75.1062 14.14C77.2462 14.74 78.9462 15.48 78.9462 17.58V17.62C78.9462 20 77.1662 21.24 74.5262 21.24Z" fill="#F39540"/>
<path d="M85.0044 21.22C82.7244 21.22 81.3644 20.22 81.3644 17.64V13.24H80.0844V10.18H81.3644V7.44H85.1644V10.18H87.6844V13.24H85.1644V16.9C85.1644 17.66 85.5044 17.98 86.2044 17.98C86.7044 17.98 87.1844 17.84 87.6444 17.62V20.6C86.9644 20.98 86.0644 21.22 85.0044 21.22Z" fill="#F39540"/>
<path d="M89.424 37.5438H88.74L87.672 35.1918H82.716L81.648 37.5438H81L84.912 29.0838H85.512L89.424 37.5438ZM87.408 34.6278L85.2 29.7678L82.98 34.6278H87.408Z" fill="#333333"/>
<path d="M97.92 36.2238C97.696 36.4398 97.464 36.6398 97.224 36.8238C96.992 36.9998 96.74 37.1518 96.468 37.2798C96.204 37.4078 95.916 37.5078 95.604 37.5798C95.292 37.6518 94.952 37.6878 94.584 37.6878C93.984 37.6878 93.428 37.5758 92.916 37.3518C92.404 37.1278 91.96 36.8238 91.584 36.4398C91.216 36.0478 90.928 35.5878 90.72 35.0598C90.512 34.5318 90.408 33.9678 90.408 33.3678V33.3438C90.408 32.7518 90.512 32.1918 90.72 31.6638C90.936 31.1358 91.228 30.6758 91.596 30.2838C91.972 29.8838 92.416 29.5718 92.928 29.3478C93.44 29.1158 94 28.9998 94.608 28.9998C94.984 28.9998 95.324 29.0318 95.628 29.0958C95.932 29.1598 96.212 29.2518 96.468 29.3718C96.732 29.4918 96.976 29.6358 97.2 29.8038C97.432 29.9638 97.656 30.1438 97.872 30.3438L97.428 30.7998C97.244 30.6238 97.052 30.4598 96.852 30.3078C96.652 30.1558 96.436 30.0278 96.204 29.9238C95.98 29.8118 95.732 29.7238 95.46 29.6598C95.196 29.5958 94.908 29.5638 94.596 29.5638C94.092 29.5638 93.624 29.6598 93.192 29.8518C92.76 30.0438 92.384 30.3118 92.064 30.6558C91.752 30.9918 91.504 31.3878 91.32 31.8438C91.144 32.2998 91.056 32.7918 91.056 33.3198V33.3438C91.056 33.8718 91.148 34.3678 91.332 34.8318C91.516 35.2878 91.764 35.6878 92.076 36.0318C92.396 36.3678 92.772 36.6358 93.204 36.8358C93.636 37.0278 94.104 37.1238 94.608 37.1238C95.216 37.1238 95.744 37.0118 96.192 36.7878C96.64 36.5638 97.076 36.2398 97.5 35.8158L97.92 36.2238Z" fill="#333333"/>
<path d="M105.579 29.7198H102.651V37.5438H102.027V29.7198H99.0994V29.1438H105.579V29.7198Z" fill="#333333"/>
<path d="M108.249 37.5438H107.625V29.1438H108.249V37.5438Z" fill="#333333"/>
<path d="M118.118 29.1438L114.422 37.6038H113.87L110.174 29.1438H110.87L114.158 36.8718L117.458 29.1438H118.118Z" fill="#333333"/>
<path d="M125.99 37.5438H119.954V29.1438H125.93V29.7198H120.578V33.0198H125.39V33.5958H120.578V36.9678H125.99V37.5438Z" fill="#333333"/>
<path d="M137.878 31.7358C137.878 32.1758 137.79 32.5638 137.614 32.8998C137.438 33.2358 137.198 33.5158 136.894 33.7398C136.598 33.9638 136.25 34.1318 135.85 34.2438C135.458 34.3558 135.042 34.4118 134.602 34.4118H132.334V37.5438H131.71V29.1438H134.758C135.222 29.1438 135.642 29.2038 136.018 29.3238C136.402 29.4358 136.73 29.6038 137.002 29.8278C137.282 30.0438 137.498 30.3118 137.65 30.6318C137.802 30.9438 137.878 31.3038 137.878 31.7118V31.7358ZM137.254 31.7718V31.7478C137.254 31.4118 137.19 31.1198 137.062 30.8718C136.942 30.6158 136.77 30.4038 136.546 30.2358C136.322 30.0678 136.054 29.9398 135.742 29.8518C135.43 29.7638 135.086 29.7198 134.71 29.7198H132.334V33.8358H134.638C135.03 33.8358 135.386 33.7878 135.706 33.6918C136.026 33.5958 136.298 33.4598 136.522 33.2838C136.754 33.0998 136.934 32.8798 137.062 32.6238C137.19 32.3678 137.254 32.0838 137.254 31.7718Z" fill="#333333"/>
<path d="M145.342 37.5438H139.786V29.1438H140.41V36.9678H145.342V37.5438Z" fill="#333333"/>
<path d="M154.98 37.5438H154.296L153.228 35.1918H148.272L147.204 37.5438H146.556L150.468 29.0838H151.068L154.98 37.5438ZM152.964 34.6278L150.756 29.7678L148.536 34.6278H152.964Z" fill="#333333"/>
<path d="M163.8 37.5438H163.332L157.416 30.0798V37.5438H156.816V29.1438H157.404L163.2 36.4518V29.1438H163.8V37.5438Z" fill="#333333"/>
<path d="M172.393 37.5438H166.357V29.1438H172.333V29.7198H166.981V33.0198H171.793V33.5958H166.981V36.9678H172.393V37.5438Z" fill="#333333"/>
<path d="M180.336 29.7198H177.408V37.5438H176.784V29.7198H173.856V29.1438H180.336V29.7198Z" fill="#333333"/>
<path d="M193.107 36.4278C192.723 36.7638 192.247 37.0598 191.679 37.3158C191.119 37.5638 190.495 37.6878 189.807 37.6878C189.143 37.6878 188.547 37.5758 188.019 37.3518C187.499 37.1198 187.059 36.8078 186.699 36.4158C186.339 36.0238 186.063 35.5678 185.871 35.0478C185.679 34.5198 185.583 33.9598 185.583 33.3678V33.3438C185.583 32.7758 185.679 32.2318 185.871 31.7118C186.071 31.1838 186.351 30.7198 186.711 30.3198C187.079 29.9198 187.519 29.5998 188.031 29.3598C188.543 29.1198 189.111 28.9998 189.735 28.9998C190.079 28.9998 190.391 29.0238 190.671 29.0718C190.959 29.1198 191.223 29.1918 191.463 29.2878C191.711 29.3838 191.943 29.4998 192.159 29.6358C192.383 29.7718 192.599 29.9278 192.807 30.1038L192.399 30.5718C192.071 30.2838 191.695 30.0438 191.271 29.8518C190.855 29.6598 190.331 29.5638 189.699 29.5638C189.187 29.5638 188.719 29.6638 188.295 29.8638C187.871 30.0638 187.503 30.3358 187.191 30.6798C186.887 31.0238 186.651 31.4238 186.483 31.8798C186.315 32.3358 186.231 32.8158 186.231 33.3198V33.3438C186.231 33.8878 186.311 34.3918 186.471 34.8558C186.639 35.3198 186.879 35.7198 187.191 36.0558C187.503 36.3918 187.879 36.6558 188.319 36.8478C188.767 37.0398 189.271 37.1358 189.831 37.1358C190.095 37.1358 190.355 37.1118 190.611 37.0638C190.867 37.0078 191.107 36.9358 191.331 36.8478C191.563 36.7598 191.779 36.6598 191.979 36.5478C192.179 36.4278 192.355 36.3038 192.507 36.1758V33.7638H189.699V33.1878H193.107V36.4278Z" fill="#333333"/>
<path d="M202.265 37.5438H201.473L198.797 34.0638H196.049V37.5438H195.425V29.1438H198.953C199.409 29.1438 199.821 29.2038 200.189 29.3238C200.557 29.4358 200.869 29.5998 201.125 29.8158C201.389 30.0238 201.593 30.2758 201.737 30.5718C201.881 30.8598 201.953 31.1798 201.953 31.5318V31.5558C201.953 31.9078 201.889 32.2238 201.761 32.5038C201.641 32.7758 201.469 33.0118 201.245 33.2118C201.029 33.4118 200.769 33.5758 200.465 33.7038C200.169 33.8238 199.845 33.9078 199.493 33.9558L202.265 37.5438ZM201.329 31.5798V31.5558C201.329 30.9878 201.117 30.5398 200.693 30.2118C200.277 29.8838 199.685 29.7198 198.917 29.7198H196.049V33.4998H198.881C199.233 33.4998 199.557 33.4558 199.853 33.3678C200.157 33.2798 200.417 33.1558 200.633 32.9958C200.849 32.8278 201.017 32.6278 201.137 32.3958C201.265 32.1558 201.329 31.8838 201.329 31.5798Z" fill="#333333"/>
<path d="M212.233 33.3438C212.233 33.9198 212.129 34.4718 211.921 34.9998C211.721 35.5198 211.437 35.9798 211.069 36.3798C210.701 36.7798 210.253 37.0998 209.725 37.3398C209.205 37.5718 208.629 37.6878 207.997 37.6878C207.357 37.6878 206.777 37.5718 206.257 37.3398C205.745 37.0998 205.305 36.7838 204.937 36.3918C204.569 35.9918 204.285 35.5318 204.085 35.0118C203.885 34.4918 203.785 33.9438 203.785 33.3678V33.3438C203.785 32.7678 203.885 32.2198 204.085 31.6998C204.293 31.1718 204.581 30.7078 204.949 30.3078C205.317 29.9078 205.761 29.5918 206.281 29.3598C206.801 29.1198 207.381 28.9998 208.021 28.9998C208.653 28.9998 209.229 29.1198 209.749 29.3598C210.269 29.5918 210.713 29.9078 211.081 30.3078C211.449 30.6998 211.733 31.1558 211.933 31.6758C212.133 32.1958 212.233 32.7438 212.233 33.3198C212.241 33.3278 212.241 33.3358 212.233 33.3438ZM211.585 33.3678V33.3438C211.585 32.8238 211.493 32.3358 211.309 31.8798C211.133 31.4158 210.885 31.0158 210.565 30.6798C210.253 30.3358 209.877 30.0638 209.437 29.8638C208.997 29.6638 208.517 29.5638 207.997 29.5638C207.477 29.5638 206.997 29.6638 206.557 29.8638C206.125 30.0558 205.749 30.3238 205.429 30.6678C205.117 31.0038 204.873 31.3998 204.697 31.8558C204.521 32.3118 204.433 32.7998 204.433 33.3198V33.3438C204.433 33.8638 204.521 34.3558 204.697 34.8198C204.881 35.2758 205.129 35.6758 205.441 36.0198C205.761 36.3558 206.141 36.6238 206.581 36.8238C207.021 37.0238 207.501 37.1238 208.021 37.1238C208.541 37.1238 209.017 37.0278 209.449 36.8358C209.889 36.6358 210.265 36.3678 210.577 36.0318C210.897 35.6878 211.145 35.2878 211.321 34.8318C211.497 34.3758 211.585 33.8878 211.585 33.3678Z" fill="#333333"/>
<path d="M221.168 33.9798C221.168 34.5798 221.084 35.1118 220.916 35.5758C220.748 36.0318 220.512 36.4158 220.208 36.7278C219.904 37.0398 219.54 37.2758 219.116 37.4358C218.7 37.5958 218.236 37.6758 217.724 37.6758C217.22 37.6758 216.756 37.5998 216.332 37.4478C215.916 37.2878 215.552 37.0558 215.24 36.7518C214.936 36.4398 214.7 36.0598 214.532 35.6118C214.364 35.1638 214.28 34.6438 214.28 34.0518V29.1438H214.904V33.9918C214.904 34.9918 215.152 35.7638 215.648 36.3078C216.152 36.8438 216.852 37.1118 217.748 37.1118C218.172 37.1118 218.556 37.0478 218.9 36.9198C219.244 36.7918 219.536 36.5998 219.776 36.3438C220.024 36.0878 220.212 35.7678 220.34 35.3838C220.476 34.9998 220.544 34.5558 220.544 34.0518V29.1438H221.168V33.9798Z" fill="#333333"/>
<path d="M229.757 31.7358C229.757 32.1758 229.669 32.5638 229.493 32.8998C229.317 33.2358 229.077 33.5158 228.773 33.7398C228.477 33.9638 228.129 34.1318 227.729 34.2438C227.337 34.3558 226.921 34.4118 226.481 34.4118H224.213V37.5438H223.589V29.1438H226.637C227.101 29.1438 227.521 29.2038 227.897 29.3238C228.281 29.4358 228.609 29.6038 228.881 29.8278C229.161 30.0438 229.377 30.3118 229.529 30.6318C229.681 30.9438 229.757 31.3038 229.757 31.7118V31.7358ZM229.133 31.7718V31.7478C229.133 31.4118 229.069 31.1198 228.941 30.8718C228.821 30.6158 228.649 30.4038 228.425 30.2358C228.201 30.0678 227.933 29.9398 227.621 29.8518C227.309 29.7638 226.965 29.7198 226.589 29.7198H224.213V33.8358H226.517C226.909 33.8358 227.265 33.7878 227.585 33.6918C227.905 33.5958 228.177 33.4598 228.401 33.2838C228.633 33.0998 228.813 32.8798 228.941 32.6238C229.069 32.3678 229.133 32.0838 229.133 31.7718Z" fill="#333333"/>
<g clip-path="url(#clip0_2447_542)">
<mask id="mask0_2447_542" style="mask-type:alpha" maskUnits="userSpaceOnUse" x="42" y="25" width="35" height="16">
<path d="M77 25H42V41H77V25Z" fill="#C4C4C4"/>
</mask>
<g mask="url(#mask0_2447_542)">
<mask id="mask1_2447_542" style="mask-type:alpha" maskUnits="userSpaceOnUse" x="59" y="30" width="12" height="11">
<path fill-rule="evenodd" clip-rule="evenodd" d="M59.9306 30.0285H70.946V40.9999H59.9306V30.0285Z" fill="white"/>
</mask>
<g mask="url(#mask1_2447_542)">
<path fill-rule="evenodd" clip-rule="evenodd" d="M70.0351 35.7958C69.8895 38.1892 67.8902 40.0849 65.4485 40.0849C62.9078 40.0849 60.8515 38.0389 60.8515 35.5138C60.8515 33.4857 62.1782 31.7662 64.017 31.168C64.0505 30.9455 64.0678 30.7178 64.0678 30.4856C64.0678 30.3903 64.0644 30.2967 64.0598 30.2035C61.6842 30.8158 59.9306 32.9612 59.9306 35.5138C59.9306 38.5428 62.3996 40.9998 65.4485 40.9998C68.3455 40.9998 70.7225 38.7764 70.946 35.9506C70.6343 35.9238 70.3299 35.8719 70.0351 35.7958ZM65.4487 30.9424C67.7524 30.9424 69.6627 32.6303 69.9945 34.8321C70.2976 34.9298 70.6145 34.9979 70.9424 35.0326C70.6968 32.2282 68.3302 30.0285 65.4487 30.0285C65.2872 30.0285 65.128 30.0357 64.9717 30.0488C64.9817 30.1929 64.9879 30.3384 64.9879 30.4856C64.9879 30.648 64.9796 30.809 64.9672 30.9672C65.1249 30.9507 65.2851 30.9424 65.4487 30.9424Z" fill="#00A651"/>
</g>
<mask id="mask2_2447_542" style="mask-type:alpha" maskUnits="userSpaceOnUse" x="47" y="30" width="12" height="11">
<path fill-rule="evenodd" clip-rule="evenodd" d="M47.9767 30.0287H58.9932V41H47.9767V30.0287Z" fill="white"/>
</mask>
<g mask="url(#mask2_2447_542)">
<path fill-rule="evenodd" clip-rule="evenodd" d="M58.9932 35.9505C58.7697 38.7766 56.3937 41 53.4946 41C50.4465 41 47.9767 38.543 47.9767 35.5136C47.9767 32.9614 49.7307 30.816 52.1067 30.2037C52.1109 30.2966 52.114 30.3905 52.114 30.4854C52.114 30.718 52.0963 30.9456 52.0631 31.1682C50.2247 31.7664 48.8983 33.4859 48.8983 35.5136C48.8983 38.0388 50.954 40.0851 53.4946 40.0851C55.9374 40.0851 57.9367 38.1894 58.0823 35.796C58.376 35.8717 58.6818 35.924 58.9932 35.9505ZM53.0133 30.9674C53.0265 30.8092 53.0348 30.6482 53.0348 30.4855C53.0348 30.3386 53.0285 30.1931 53.0185 30.049C53.1749 30.0359 53.334 30.0287 53.4949 30.0287C56.3767 30.0287 58.7461 32.2284 58.9917 35.0328C58.6617 34.9978 58.3438 34.93 58.0414 34.8323C57.7096 32.6305 55.7989 30.9423 53.4949 30.9423C53.3319 30.9423 53.1711 30.9509 53.0133 30.9674Z" fill="#FCB131"/>
</g>
<mask id="mask3_2447_542" style="mask-type:alpha" maskUnits="userSpaceOnUse" x="65" y="25" width="12" height="11">
<path fill-rule="evenodd" clip-rule="evenodd" d="M65.9226 25H76.9408V35.9714H65.9226V25Z" fill="white"/>
</mask>
<g mask="url(#mask3_2447_542)">
<path fill-rule="evenodd" clip-rule="evenodd" d="M76.9408 30.4857C76.9408 33.5154 74.4714 35.9714 71.4236 35.9714C68.5387 35.9714 66.1728 33.772 65.9271 30.9673C66.2572 31.0013 66.573 31.0701 66.8771 31.1682C67.2078 33.3692 69.1168 35.0575 71.4236 35.0575C73.9622 35.0575 76.0206 33.0101 76.0206 30.4857C76.0206 27.9616 73.9622 25.9143 71.4236 25.9143C68.9788 25.9143 66.9809 27.8103 66.8353 30.204C66.5395 30.1283 66.2364 30.076 65.9226 30.0488C66.1485 27.2231 68.5242 25 71.4236 25C74.4714 25 76.9408 27.4563 76.9408 30.4857Z" fill="#EE334E"/>
</g>
<mask id="mask4_2447_542" style="mask-type:alpha" maskUnits="userSpaceOnUse" x="53" y="25" width="12" height="11">
<path fill-rule="evenodd" clip-rule="evenodd" d="M53.9707 25H64.9879V35.9714H53.9707V25Z" fill="white"/>
</mask>
<g mask="url(#mask4_2447_542)">
<path fill-rule="evenodd" clip-rule="evenodd" d="M59.4697 35.0576C57.1654 35.0576 55.2547 33.3693 54.9232 31.1682C54.6199 31.0702 54.3036 31.0014 53.9736 30.9674C54.2196 33.7721 56.5855 35.9715 59.4697 35.9715C59.6317 35.9715 59.7911 35.965 59.9482 35.9509C59.9375 35.8078 59.9309 35.6616 59.9309 35.514C59.9309 35.352 59.9392 35.191 59.9527 35.0332C59.7939 35.0493 59.633 35.0576 59.4697 35.0576ZM59.4696 25C56.5705 25 54.1952 27.2231 53.9707 30.0488C54.2831 30.076 54.5855 30.1283 54.8823 30.204C55.0269 27.8103 57.0261 25.9143 59.4696 25.9143C62.0102 25.9143 64.068 27.9616 64.068 30.4857C64.068 32.5134 62.7406 34.2336 60.9015 34.8325C60.8686 35.054 60.8517 35.2821 60.8517 35.5139C60.8517 35.6092 60.8523 35.7034 60.8589 35.796C63.2342 35.184 64.9879 33.0387 64.9879 30.4857C64.9879 27.4563 62.5185 25 59.4696 25Z" fill="black"/>
</g>
<mask id="mask5_2447_542" style="mask-type:alpha" maskUnits="userSpaceOnUse" x="42" y="25" width="12" height="11">
<path fill-rule="evenodd" clip-rule="evenodd" d="M42 25H53.0339V35.9714H42V25Z" fill="white"/>
</mask>
<g mask="url(#mask5_2447_542)">
<path fill-rule="evenodd" clip-rule="evenodd" d="M53.0331 30.4857C53.0331 27.4563 50.5638 25 47.5152 25C44.4695 25 41.999 27.4563 41.999 30.4857C41.999 33.5154 44.4695 35.9714 47.5152 35.9714C47.6768 35.9714 47.8349 35.9649 47.9926 35.9511C47.9819 35.8077 47.9753 35.6615 47.9753 35.5139C47.9753 35.3519 47.984 35.1909 47.9968 35.033C47.8383 35.0492 47.6781 35.0575 47.5152 35.0575C44.9763 35.0575 42.9179 33.0101 42.9179 30.4857C42.9179 27.9616 44.9763 25.9143 47.5152 25.9143C50.0555 25.9143 52.1126 27.9616 52.1126 30.4857C52.1126 32.5138 50.7851 34.2336 48.9464 34.8325C48.9139 35.054 48.897 35.2821 48.897 35.5139C48.897 35.6092 48.8976 35.7034 48.9039 35.796C51.2795 35.184 53.0331 33.0387 53.0331 30.4857Z" fill="#0081C8"/>
</g>
</g>
</g>
<path d="M3.53055 8.06025C3.53055 7.63945 3.54797 7.22458 3.57701 6.80971C1.33557 9.76715 0 13.4714 0 17.5015C0 19.9196 0.487771 22.2251 1.35299 24.3173C3.53055 22.8 6.05653 21.7747 8.77993 21.3895C5.53391 17.9164 3.53055 13.2224 3.53055 8.06025Z" fill="#95C032"/>
<path d="M17.1416 0C14.6912 0 12.3626 0.527479 10.2547 1.47575C10.127 1.53502 10.0225 1.63578 9.9644 1.76024C8.91336 3.92349 8.37913 6.40086 8.55334 9.02048C9.02369 16.2274 14.8479 21.9941 21.9265 22.2608C27.0249 22.4504 31.531 19.8427 34.1034 15.8184C34.1615 15.7236 34.1905 15.611 34.1789 15.4984C33.2034 6.78017 25.9506 0 17.1416 0Z" fill="#F39540"/>
<path d="M24.4409 27.352C25.5732 28.6736 26.5139 30.1671 27.234 31.7851C27.2514 31.8266 27.3095 31.8385 27.3385 31.8029L28.6741 30.4398C29.0689 30.0723 29.4522 29.6812 29.8122 29.2781L29.818 29.2722C31.1304 27.8024 32.2046 26.0955 32.9653 24.2286C32.9885 24.1693 32.9189 24.11 32.8666 24.1456C30.4103 25.811 27.5533 26.9015 24.4815 27.2393C24.4293 27.2512 24.406 27.3164 24.4409 27.352Z" fill="#95C032"/>
<path d="M11.2189 26.297C8.53038 26.297 6.04505 27.1623 4.00105 28.6262C3.97201 28.6499 3.9662 28.6914 3.98943 28.7211C4.14621 28.9107 4.303 29.0945 4.46559 29.2782L4.4714 29.2841C4.83142 29.6871 5.21467 30.0783 5.60954 30.4457L17.1419 42.2044L23.3726 35.845C21.9558 30.3509 17.0548 26.297 11.2189 26.297Z" fill="#5BBCE4"/>
<path opacity="0.83" d="M17.1419 43.5439L16.5786 42.969L14.6043 40.9539C12.3106 41.1969 10.6963 41.7599 10.6963 42.4119C10.6963 43.289 13.5823 44.0002 17.1361 44.0002C20.6899 44.0002 23.5758 43.289 23.5758 42.4119C23.5758 41.754 21.9674 41.1969 19.6678 40.9539L17.6935 42.969L17.1419 43.5439Z" fill="#D8D9D8"/>
<defs>
<clipPath id="clip0_2447_542">
<rect width="35" height="16" fill="white" transform="translate(42 25)"/>
</clipPath>
</defs>
</svg>
