<?xml version="1.0" encoding="UTF-8" standalone="no"?>
<!-- Generator: Adobe Illustrator 12.0.0, SVG Export Plug-In . SVG Version: 6.00 Build 51448)  -->
<svg
   xmlns:dc="http://purl.org/dc/elements/1.1/"
   xmlns:cc="http://web.resource.org/cc/"
   xmlns:rdf="http://www.w3.org/1999/02/22-rdf-syntax-ns#"
   xmlns:svg="http://www.w3.org/2000/svg"
   xmlns="http://www.w3.org/2000/svg"
   xmlns:sodipodi="http://sodipodi.sourceforge.net/DTD/sodipodi-0.dtd"
   xmlns:inkscape="http://www.inkscape.org/namespaces/inkscape"
   version="1.0"
   id="Layer_1"
   width="233.97388"
   height="507.15344"
   viewBox="0 0 229.731 501.263"
   overflow="visible"
   enable-background="new 0 0 229.731 501.263"
   xml:space="preserve"
   sodipodi:version="0.32"
   inkscape:version="0.45"
   sodipodi:docname="Map_Portugal_-_geoloc.svg"
   sodipodi:docbase="C:\Documents and Settings\moi\Bureau"
   inkscape:output_extension="org.inkscape.output.svg.inkscape"
   sodipodi:modified="true"><metadata
   id="metadata3449"><rdf:RDF><cc:Work
       rdf:about=""><dc:format>image/svg+xml</dc:format><dc:type
         rdf:resource="http://purl.org/dc/dcmitype/StillImage" /></cc:Work></rdf:RDF></metadata><defs
   id="defs3447">
	
	

		
		
		
		
		
	
		
		
		
			
		
			
		
			
		
			
		
		
		
		
		
		
			
		
			
		
		
		
		
		
		
		
			
		
			
		
		
		
		
	
  
 
   
   
   
   
   
   
   
   
   
   
   
   
   
   
   
   
   
   
   
   
   
   
   
   
   
   
   
   
   
  <sodipodi:namedview
   inkscape:window-height="712"
   inkscape:window-width="1024"
   inkscape:pageshadow="2"
   inkscape:pageopacity="0.0"
   borderopacity="1.0"
   bordercolor="#666666"
   pagecolor="#ffffff"
   id="namedview5974"
   fill="#fa8072"
   inkscape:zoom="17.548964"
   inkscape:cx="146.08303"
   inkscape:cy="327.60442"
   inkscape:window-x="-4"
   inkscape:window-y="-4"
   inkscape:current-layer="layer1"
   showguides="true"
   inkscape:guide-bbox="true" />
  <metadata
   id="CorelCorpID_0Corel-Layer" />
   
   
   
   
  
  </defs><sodipodi:namedview
   inkscape:window-height="712"
   inkscape:window-width="1024"
   inkscape:pageshadow="2"
   inkscape:pageopacity="0.0"
   guidetolerance="10.0"
   gridtolerance="10.0"
   objecttolerance="10.0"
   borderopacity="1.0"
   bordercolor="#666666"
   pagecolor="#ffffff"
   id="base"
   width="234px"
   height="508px"
   inkscape:zoom="1"
   inkscape:cx="166.65543"
   inkscape:cy="234.24595"
   inkscape:window-x="-4"
   inkscape:window-y="-4"
   inkscape:current-layer="Layer_1" />

<path
   style="fill:#ffb647;fill-opacity:1;fill-rule:evenodd;stroke:#ffffff;stroke-width:1px;stroke-linecap:butt;stroke-linejoin:miter;stroke-opacity:1"
   d="M 202.16683,376.2236 C 199.8286,381.85155 199.75743,387.43725 198.74169,393.6738 C 196.74848,399.94294 190.39438,394.75072 185.70248,399.71073 C 175.54822,398.75708 181.22169,406.80077 177.78064,412.32403 C 176.53162,418.74359 169.1106,419.35193 167.73092,424.88907 C 168.01419,432.9898 158.63767,439.74779 163.58925,447.46824 C 167.60396,451.89389 167.50494,458.28299 168.96936,463.93479 C 167.43636,469.359 175.17676,479.16623 167.94333,480.43182 C 161.64176,480.7608 149.31351,484.13295 144.75306,488.97506 C 141.50297,494.78407 133.83024,495.27337 129.34561,497.6318 C 123.72304,497.94321 117.8733,499.37976 113.70085,493.91011 C 107.94659,489.23071 103.81632,493.56656 97.40298,492.64425 C 92.38538,487.3881 84.92861,494.39237 79.40646,489.32449 C 72.60366,483.0872 69.61692,492.15153 65.85477,492.14031 C 60.96519,493.83757 53.79631,493.94814 50.88784,498.16809 C 41.86519,503.31217 46.94767,490.45351 49.39367,486.51667 C 50.2488,480.49148 56.19419,476.7376 53.24946,469.57393 C 56.49698,463.79112 57.07195,458.6563 56.824,452.11642 C 59.1309,445.62039 50.70904,441.82114 55.92732,435.00142 C 61.18485,429.0855 51.2498,425.96247 55.1555,418.46125 C 55.42587,411.29552 44.6627,408.60356 51.23491,402.77585 C 51.03079,395.06277 56.5908,388.32693 55.81879,380.29705 C 56.140877,374.4672 54.876159,368.51642 51.854838,363.75753 C 50.800436,360.34347 44.287986,358.47025 45.432397,355.90357 C 45.823503,355.0264 48.25577,357.28115 49.394169,358.13062 C 49.966002,358.28629 51.519674,360.26075 52.235756,360.15113 C 55.308083,360.31773 59.034999,362.52536 61.34772,361.935 C 61.777142,361.82538 60.161846,360.6101 59.187522,359.62704 C 58.213198,358.64398 58.543439,353.59221 58.003897,353.08658 C 57.783117,352.87968 56.999525,352.03191 56.040004,352.45241 C 55.424118,352.72231 56.606685,354.18306 56.631238,355.36296 C 56.653221,356.41937 53.469834,357.81977 53.492035,357.53446 C 53.514235,357.24915 46.374006,352.50343 46.056435,352.4646 C 45.718974,352.42333 43.455885,356.10605 43.111096,356.16392 C 39.619999,356.74985 35.753981,361.8821 31.5273,360.71953 C 24.10758,365.82403 22.21508,359.35166 23.39844,352.62869 C 25.1503,347.07875 13.7582,336.04672 24.65464,339.18666 C 30.00588,342.08438 33.03437,344.69562 36.44056,338.38321 C 44.94728,335.97773 28.01664,334.70211 39.74423,330.50085 C 47.40774,327.22241 35.70315,320.92195 38.17172,315.82409 C 32.48699,314.61288 31.47892,325.05067 29.61027,329.45251 C 29.56836,338.22482 20.2878,335.2768 14.57497,335.39312 C 10.045889,332.76709 -0.041020686,339.34098 2.8775794,331.02502 C -1.1410207,325.40662 7.8257893,319.59846 6.6374993,313.03003 C 5.0092793,307.03959 4.5505093,300.27219 8.6572593,294.98684 C 10.351549,289.07303 13.95383,282.6318 9.7869493,276.48487 C 2.4671094,268.91708 17.01566,275.18134 16.67943,266.74407 C 22.65516,272.0721 20.24661,259.00657 25.75234,256.65212 C 32.77763,252.51102 27.93777,244.53134 31.3575,238.59629 C 31.20529,232.49151 34.80744,227.43692 35.91426,221.18664 C 40.62006,214.61487 38.17793,206.17753 42.71453,199.63296 C 45.70412,194.22281 48.32764,194.54381 39.74752,190.55063 C 40.10128,184.65838 44.1308,179.1126 44.31742,172.48019 C 45.89349,164.72514 47.61669,156.98854 48.65513,149.13787 C 48.98162,157.0168 48.66442,160.13532 51.80015,148.78842 C 53.87538,150.41466 59.90854,142.79496 61.3623,141.40243 C 60.21859,135.5891 53.13299,137.15154 58.43964,129.91828 C 54.30916,118.49417 51.75731,143.58033 51.47774,133.01031 C 54.241,125.33665 54.92457,117.42229 56.34296,109.47564 C 53.42612,104.31505 53.14994,97.769267 51.41962,91.457396 C 48.8239,83.252567 47.02409,75.06915 45.73425,66.704576 C 45.6719,61.007405 42.75576,54.975454 42.38884,49.199413 C 47.15624,42.07747 31.19169,42.516374 37.7239,34.181764 C 40.90086,28.830501 43.57159,22.357698 48.31851,18.404771 C 52.42368,13.564384 55.17204,9.7978531 61.15555,7.2726877 C 68.82264,8.1602481 76.31309,6.1371535 82.81357,2.7195898 C 82.9074,6.8351675 95.9551,9.1468631 90.03259,14.429854 C 79.33572,18.567642 86.23036,29.193708 90.23216,34.862986 C 96.82088,39.018376 98.23886,26.013422 104.2172,29.277559 C 108.1705,28.168793 111.98459,27.421365 118.43107,26.481983 C 125.00209,23.02121 128.11998,30.34653 132.14859,31.495563 C 136.95884,24.328926 139.7437,35.283209 144.05414,31.548965 C 150.55554,31.250359 158.91471,27.850405 158.42767,20.232084 C 156.70483,8.6798561 168.54852,23.452878 171.03143,17.401408 C 176.33103,24.044784 184.40942,13.581151 187.73502,16.872192 C 191.50421,24.481135 201.25876,14.323176 203.12607,19.585387 C 199.42415,24.920012 209.17504,29.923882 201.7129,36.091776 C 203.39091,43.013686 208.78958,46.552978 215.25114,44.188584 C 221.06622,45.439077 224.94265,49.025132 229.06111,53.089586 C 226.03878,57.469591 223.59175,64.259613 221.03019,69.201303 C 215.55378,69.137691 220.85252,79.143091 213.40325,80.215534 C 211.71445,87.700335 201.2628,82.325454 200.80417,89.731882 C 196.37522,94.519547 202.26547,99.353089 199.51189,104.89513 C 192.75596,106.08809 187.32458,107.69481 194.46764,113.21849 C 198.75167,118.31044 200.38499,120.74324 198.51773,127.70267 C 199.11057,135.71025 202.19589,143.77516 198.81197,151.52919 C 204.96858,153.61061 196.82663,161.60347 199.6856,167.42903 C 206.27004,170.87381 199.10312,177.75834 196.36585,180.18384 C 189.82568,180.06155 186.6024,188.34401 188.02662,192.53664 C 193.3539,194.77875 197.02644,198.72225 199.16143,204.53167 C 199.75242,210.09733 196.58564,215.69517 195.77183,220.60483 C 188.12865,223.15681 195.0437,232.10931 189.55162,236.96897 C 187.73086,239.94231 180.87373,237.58176 175.57373,238.89093 C 168.78387,242.12627 157.7468,240.67775 150.79813,238.7162 C 150.35289,244.42589 155.368,249.86087 159.9179,252.30403 C 163.08648,257.38983 173.03561,257.13794 167.72645,265.09747 C 166.14013,271.6323 177.25999,272.56422 174.6463,280.55457 C 178.64395,286.67004 182.25945,284.81617 183.2967,292.53104 C 188.7379,288.02847 196.37277,295.16802 195.87679,301.26721 C 191.68071,306.49928 191.96928,313.25279 188.53839,318.21539 C 181.66555,321.82329 175.98304,328.76442 175.51992,336.11663 C 178.33442,343.9668 167.03286,351.96351 174.10718,358.97554 C 180.19369,364.64161 183.6331,374.04453 190.51231,378.63851 C 194.3754,379.45706 198.51417,377.31206 202.16683,376.2236 z "
   id="path3162"
   sodipodi:nodetypes="cccccccccccccccccccccccsccszsszzsscccccccccccccccccccccccccccccccccccccccccccccccccccccccccccccccccccccc" /><path
   style="fill:none;fill-opacity:0.75;fill-rule:evenodd;stroke:#ffffff;stroke-width:0.98838529;stroke-linecap:butt;stroke-linejoin:miter;stroke-miterlimit:4;stroke-dasharray:none;stroke-opacity:1"
   d="M 55.58387,113.00963 C 57.725288,112.64301 59.431012,113.483 60.296377,115.21373 C 60.927404,116.47579 61.157713,118.77314 61.765773,119.98927 C 62.900309,122.25833 63.242143,120.36359 64.704563,121.826 C 65.495571,122.61701 63.355726,125.01726 63.235168,125.49949 C 62.92816,126.72753 65.919739,126.74263 64.704563,129.17298 C 63.658489,131.26513 64.285433,131.64086 65.071912,133.21382 C 65.871593,134.81318 67.623094,134.78452 68.010703,132.84647 C 68.463843,130.58077 71.01208,132.54171 71.68419,133.21382 C 73.348218,134.87784 75.882204,129.90768 77.561772,129.90768 C 80.749736,129.90768 80.525304,131.56694 82.704655,132.11178 C 85.521309,132.81593 86.696115,129.1019 87.112841,126.60154 C 87.582042,123.78633 87.478609,122.5611 88.949585,122.19336 C 89.316546,122.10162 93.653817,123.2954 94.827165,123.2954 C 98.201931,123.2954 98.163002,120.78335 96.66391,117.78516 C 95.524895,115.50714 94.908993,113.58068 95.929212,111.54024 C 97.545867,108.30693 98.608276,108.7395 101.43944,110.4382 C 104.66695,112.3747 107.01215,111.5952 107.68438,108.2341 C 108.28932,105.20937 112.90059,105.66265 113.9293,105.66265 C 115.46359,105.66265 114.59911,109.70349 116.1334,109.70349 C 119.51061,109.70349 119.64232,113.70611 121.64363,109.70349 C 122.63754,107.71569 124.76166,112.08683 125.31712,112.64229 C 127.72082,115.04598 129.63569,114.29089 127.88856,117.78516 C 126.72296,120.11638 127.55894,121.00891 130.82735,121.826 C 132.94291,122.3549 134.32863,121.18888 136.33758,122.19336 C 138.45065,123.24988 136.62306,116.96859 141.11312,121.45865 C 143.32691,123.67245 144.6771,124.0301 148.09274,124.0301 C 150.69024,124.0301 149.69912,119.52851 149.19479,118.51987 C 147.92448,115.97926 148.17505,114.68328 151.76623,115.58107 C 152.86353,115.8554 155.43972,109.68704 155.43972,108.9688 C 155.43972,106.93082 152.53326,105.8243 152.13358,103.82591 C 152.02091,103.26255 159.0248,104.5164 159.11321,104.56061 C 161.37099,105.6895 162.38198,105.38871 163.15405,103.45856 C 164.18179,100.88921 167.92755,103.46668 167.56223,104.92796 C 166.81383,107.92157 166.06153,107.4681 168.66428,110.07085 C 170.26612,111.67269 165.88119,112.86489 170.86837,114.11168 C 172.65027,114.55716 172.46914,110.38565 174.17451,109.70349 C 174.78676,109.70349 175.39901,109.70349 176.01125,109.7035 C 178.04042,109.7035 180.14805,108.00245 181.15414,107.4994 C 182.83522,106.65886 185.84383,107.82383 186.66437,108.23411 C 186.88341,108.34362 190.53098,108.75361 190.77588,108.75361"
   id="path3345"
   sodipodi:nodetypes="csssssssssssssssssssssssssssssssssssssssc" /><path
   style="fill:none;fill-opacity:0.75;fill-rule:evenodd;stroke:#ffffff;stroke-width:0.98838529;stroke-linecap:butt;stroke-linejoin:miter;stroke-miterlimit:4;stroke-dasharray:none;stroke-opacity:1"
   d="M 151.57081,238.63528 C 150.11883,237.35497 146.46875,237.53873 143.19639,238.35682 C 142.59092,238.50819 141.97242,238.60161 141.36043,238.72401 C 138.44317,239.30746 137.31847,237.62813 135.11817,242.02874 C 134.10181,244.06145 131.60325,243.83939 129.97749,247.9038 C 127.7417,253.49328 122.93976,247.84271 121.16489,246.06784 C 120.46712,245.37007 119.20653,246.31264 118.22736,246.43503 C 115.5014,246.77578 117.06943,251.2367 114.18825,252.67729 C 112.64081,253.45101 116.23976,258.03352 116.3914,258.18516 C 117.79203,259.5858 121.55791,264.14557 117.49297,265.1618 C 112.762,266.34455 109.78196,269.88901 109.78196,274.70879 C 109.78196,277.18714 104.55777,275.52667 102.80531,277.27912 C 98.419807,281.66463 97.524096,275.88855 93.992712,273.24002 C 93.687756,273.0113 89.129556,260.80461 88.117647,259.28674 C 87.733582,258.71065 87.138469,258.30756 86.648881,257.81798 C 85.279981,256.44908 78.17991,259.95711 77.1019,260.38831 C 73.654304,261.76735 72.709188,265.46643 68.656493,262.22427 C 67.087565,260.96913 59.62158,262.68039 58.007936,263.32585 C 50.984028,266.13541 59.406401,259.79454 59.476703,259.65393 C 59.70417,259.199 51.426292,255.61482 50.664105,255.61482 C 47.837493,255.61482 45.466461,258.27061 44.054656,260.38831 C 41.389926,264.38541 41.386902,265.71634 36.710824,268.83372 C 34.214171,270.49816 38.546782,274.64571 38.546782,277.64632 C 38.546782,281.25228 36.975415,283.68338 38.546782,286.82611 C 39.322228,288.377 42.50858,289.70566 44.054656,290.86521 C 45.924618,292.26769 42.953082,296.06698 42.953082,297.47467 C 42.953082,301.2187 44.743455,302.09423 40.785421,304.46905 C 36.784614,306.86953 36.343632,303.05371 36.343632,309.2248 C 36.343632,312.95719 28.245769,308.10357 31.570142,311.42794 C 33.472077,313.32988 27.213344,312.11283 26.429459,312.89671 C 24.683195,314.64298 25.115968,316.27908 22.02316,314.73268 C 19.517452,313.47982 19.613428,317.25704 20.187203,318.40459 C 22.1135,322.25718 16.843628,317.46718 16.515287,317.30301 C 15.328124,316.70943 12.621315,317.92637 11.374604,317.30301 C 8.963969,316.09769 8.5863648,313.66095 6.6011136,313.26391"
   id="path3347"
   sodipodi:nodetypes="csssssssssssssssssssssssssssssssssc" /><path
   style="fill:none;fill-opacity:0.75;fill-rule:evenodd;stroke:#ffffff;stroke-width:0.98838529;stroke-linecap:butt;stroke-linejoin:miter;stroke-opacity:1;stroke-miterlimit:4;stroke-dasharray:none"
   d="M 40.821521,322.6956 C 40.274881,322.42228 43.615706,317.11279 43.966543,315.00777 C 44.535526,311.59387 49.544117,310.28344 46.412672,308.71772 C 45.801382,308.41207 49.270957,306.01621 47.111566,302.77712 C 46.660435,302.10042 42.077886,303.68609 41.520415,303.82546"
   id="path3349" /><path
   style="fill:none;fill-opacity:0.75;fill-rule:evenodd;stroke:#ffffff;stroke-width:0.98838529;stroke-linecap:butt;stroke-linejoin:miter;stroke-opacity:1;stroke-miterlimit:4;stroke-dasharray:none"
   d="M 58.293869,353.44693 C 57.373441,352.06629 63.221483,349.76006 63.535574,349.60302 C 65.130305,348.80565 63.944295,345.5282 63.535574,344.71076 C 62.497917,342.63544 65.411008,341.27832 65.981703,340.51739 C 67.183464,338.91504 68.127278,337.65663 69.126725,336.32403 C 70.129107,334.98752 72.848797,335.68204 74.018983,335.97458 C 77.290019,336.79234 74.855546,334.04735 74.36843,332.82956 C 73.461241,330.56159 73.450382,329.17754 71.223407,328.28675 C 68.889055,327.35301 66.680596,329.70817 66.680596,325.84062 C 66.680596,323.80004 68.453594,320.06831 64.933362,320.94836 C 63.404774,321.33051 65.170421,326.42713 61.438892,322.6956 C 58.19104,319.44775 57.245528,324.70896 57.245528,327.9373 C 57.245528,330.82316 59.151824,330.86784 55.498293,331.78122 C 52.630039,332.49828 51.478196,329.77117 49.907142,328.98564 C 49.574056,328.8191 47.009753,330.73288 45.364331,330.73288 C 44.236408,330.73288 41.770862,329.63504 41.170968,329.33509"
   id="path3351" /><path
   style="fill:none;fill-opacity:0.75;fill-rule:evenodd;stroke:#ffffff;stroke-width:0.98838529;stroke-linecap:butt;stroke-linejoin:miter;stroke-miterlimit:4;stroke-dasharray:none;stroke-opacity:1"
   d="M 57.102296,456.94295 C 58.706065,456.82655 60.075785,456.98985 61.37398,457.3144 C 62.076965,457.49014 61.792822,458.70926 62.116881,459.35737 C 62.731757,460.58713 63.56097,460.65746 65.088487,460.65746 C 66.303044,460.65746 66.563201,459.63042 67.874367,460.286 C 68.537967,460.61781 69.11818,461.57297 69.545895,462.14326 C 70.391424,463.27063 71.18652,462.45259 71.403149,461.58608 C 71.773503,460.10467 72.084397,460.10028 73.817578,460.10028 C 75.281287,460.10028 75.730386,459.72883 77.346361,459.72883 C 77.386902,459.72883 79.328064,461.6172 79.946515,461.77181 C 81.161781,462.07562 81.794772,462.1455 82.546671,461.95753 C 83.675853,461.67524 84.676933,462.37263 85.332552,462.70044 C 86.433538,463.25093 86.583901,462.89534 86.818354,461.95753 C 87.074376,460.93344 88.304157,461.86216 88.304157,459.72883 C 88.304157,458.70523 88.992993,458.0573 90.161411,458.0573 C 91.872421,458.0573 91.921885,457.54851 93.133017,456.94295 C 94.000397,456.50926 94.941685,456.57149 96.104623,456.57149 C 97.651058,456.57149 99.863555,456.93492 100.19058,458.24302 C 100.50643,459.50643 100.8467,459.71667 100.37631,460.65746 C 100.07721,461.25564 102.67413,461.69622 102.97647,461.77181 C 103.64508,461.93896 103.43033,463.37107 104.46226,463.62905 C 105.33656,463.84763 105.88582,464.24798 106.50524,464.55768 C 107.28035,464.94524 107.46672,465.44809 108.3625,465.67204 C 109.44521,465.94272 110.35368,466.04349 111.51983,466.04349 C 112.3679,466.04349 113.49909,466.58792 114.49143,466.78639 C 115.53224,466.99455 116.37215,466.93155 117.27731,467.15784 C 118.55043,467.47611 119.05117,465.97339 119.32029,465.30059 C 119.86329,463.94309 120.43126,464.18623 122.10617,464.18623 C 123.29072,464.18623 122.97845,462.402 122.66334,461.77181 C 122.05483,460.55475 122.37226,460.01991 123.0348,459.35737 C 124.04102,458.35116 124.74266,458.13886 126.19213,458.42875 C 127.50067,458.69046 128.82921,458.78543 129.72092,458.42875 C 130.69621,458.03863 131.02099,457.09359 131.02099,456.01432 C 131.02099,455.0389 132.87485,454.62309 133.43542,454.34279 C 134.29873,453.91113 134.81624,453.28093 135.66413,452.85699 C 136.97639,452.20086 137.45696,453.19051 138.26428,452.11409 C 139.04927,451.06743 139.79587,450.99057 140.67871,450.81401 C 141.82237,450.58528 141.23952,449.32821 143.27886,449.32821 C 144.16914,449.32821 144.98558,447.9193 145.32184,447.47095 C 145.46813,447.27591 147.48852,447.78047 147.73628,447.84241 C 148.86148,448.12371 148.93648,447.32815 150.33642,448.02813 C 151.15086,448.43534 151.88766,448.39958 152.93658,448.39958 C 153.82944,448.39958 153.62379,446.57017 154.42238,446.17088 C 155.6786,445.54277 155.90918,445.61173 156.46537,444.49935 C 156.69064,444.0488 159.2475,444.82343 159.43697,444.8708 C 160.28778,445.0835 161.26092,445.05653 162.22285,445.05653"
   id="path3353" /></svg>