<?xml version="1.0" encoding="utf-8"?><!--Generator: Adobe Illustrator 14.0.0, SVG Export Plug-In . SVG Version: 6.00 Build 43363)--><!DOCTYPE svg PUBLIC "-//W3C//DTD SVG 1.1//EN" "http://www.w3.org/Graphics/SVG/1.1/DTD/svg11.dtd"><svg version="1.1" id="Layer_1" xmlns:svg="http://www.w3.org/2000/svg" xmlns="http://www.w3.org/2000/svg" xmlns:xlink="http://www.w3.org/1999/xlink" x="0px" y="0px" width="1000px" height="765px" viewBox="0 0 1000 765" enable-background="new 0 0 1000 765" xml:space="preserve"><g id="EC"><path fill="#ffb647" stroke="#FFFFFF" stroke-width="2" d="M766,471l1,1l2,1l1,1l1,1v2h1h-1h1l-1,1h1l-1,1h1v1h-1h1h-1v1v1h1h-1v1h1v1v1l1,1h1v1h1
		v1h1h2v1h2l-2-2h1h1l2,3v1v1l1,1h-2v1l-2,1h-1v1h-2v2l-1,3h-1l-1,1v1h1v1v-1h1l-1,1l-3,1h1l1,1l2,1v1l1-1l-1,1v1l1-1l1-1h3l1,1h2
		l1,1l1,1l2-1l1-1h3h1l3-1l1,2h2v1l1-1v1h1v1h1h1h1l1-1l1,1h1v1h1v1l1-1v1h1v-1v1h1v-1l1,1v-1h-1h1l1,1v-1h1l-1,1v1h1v-1v1h1v1v-1h1
		v1v1v-1h1v1h1v1v-1h1h1l-1,1v1l1-1v1v-1v-1h2v1h-1v1v1l2-1v1h-1v1h1h1h1v-1v1h1v1h1h2v1h1v1l-1-1v1h1h2l-1,1h1l1,1v1v1h-1v1h2l-1,1
		v1h-1l1,1h1h1l-1,2l1,1h1l-1,2v1h-1v1l-2,1v1h-1l-1,1h1h-1v1l-1,1v1h-2v1l-2,2l-1,1h-1l-1,1h1h-1v1l-1,1l-1,1h-1v1l-2,1v1l-2,1h-3
		h-1h-1l-1,1v1h-1v1l-1,2h-1l-1,1h-1l-1,1v1l-2,1h1h-1l-1,1h-2v1l-1,1h-1h-1v1l-1,1l-1-1l-2,1v1h-1v1h-1h1l-1,1l-1,1h-1v2h-1v1h-1
		l-1,1h-1h1l-1,1l-1,1l-1,1v1h-1v1h-1v1h-1v1l-2,1v1h-1v1h-1v1h-1v1h-1v1v1h-1v1h-1v1h-1v1h-1v1h-1l-1,1l-1,1h1l-1,1h-1h-1v1v1h-1
		l-1,1v1h-1v1l-1,1h-1v1v-1l-1,1h-1l-1,1v1l-1,1l-1-1v1l-1,1l-1,1v1h-1h-1v1l-1,1h-1l-1,1l-1,1h1l-1,1h-1l-1,1l-1,1h-1v1l-1,1l-1,1
		l-1,1l-1,1h-2v1h-2l-1,1l-1,1l-1,1l-1,1v1h-1h-1v1h-1h-1l-1,1l-1,1h-1v1h-1h-1l-3,1l-2,1l-1,1v2h-1v1v1h-1l-1,1h1l-2,1l-1,1h-1
		l-1,1l-1,1h-1l-1,1l-2,1v1l-1,1h-1l-2,2h-1l-2,1h-1l-1,1h-2l-1,2h-1l-1,1h-1l-1,1l-1,1l-1,1l-2,1l-3,1l-1,1l-1,1l-1,1l-2,1l-1,1h-1
		l-3,2l-1,1h-1l-3,2l-2,1l-1,1l-2,1h-2l-1,1v1h-1v1l-3,1h-1v1h-2v1h-3l-2,1h-1l-1,1l-1,1h-1l-2,1l-5,1l-1,1h-1h-1l-1,1h-1l-1,1h-1v1
		h-2l-2,1l-2,1h-2l-1,1l-3-1h-2h-2l-2,1l-1-1l-3-1l-4-1l-3-1h-3h-4h-5l-5,1h-1l-2,1l-5,3l-2,2l-2,2l-2,3v2l1,1h1h-1h1h-1h1l1,1h1
		l1,1v1l1,1h-1h-1h-1h-1v1h-1h-1h-1h-1h-2l-1-1h-3h-2h-1h-1h-1l-2-1l-3-1l-4-1l-2-1h-3h-2h-5l-2,1l-2,1l-1,1h-1l1,1l-1,1v1v1h-1
		l-1,2l-3,2v1l2,2h-1h-1v1l-3-1h-1l-2-1h-1v1l-1-1h-1l-2-1h-1l-1,1h-1h-1h-2l-2-1h-1h-1h-1l-1-1l-1-1l-2-1l-1-1h-4h-1l-3-1h-1v-1h-1
		h-1h-4l-3-1h-2l-5-1h-3h-1h-1h-1l-3-1h-2l-1-1l-1,1l-5-1v-1v-1h-1v-1v-1h1h-1l1-1h-1h1v-1l2-1l1-1l-5-1v-1h-3l-1-2h1l-3-1v1h-2l1,1
		h-2l-3-1h-1l2-2l1-2h2l4-1v-1v-1l1-1l1,1h3h2v-3l-3-2v-1h-1v-3v-1l-1-1l-4-1l-1-2l-2,1l-2-1l-2,1l-2-1v2l-3-4l-1-1h-9l-2,1h-2l-8,2
		l-6-1h-4h1l-3-1v-5l2,1v-1l1-1l3-5l3-2v-2l4-4v-2l-1-1v-1l2-1l-1-3l3-3v-1h6l1-1l-2-3l4-2h2l1,1h2l4,1l4,1l1-4h-3l1-2l-2-1l-3-2
		l1-1l1-2l-1-4l-3-2v-3l-1-2l3-2h1h1l1-3l1,1l4,1l1-2l1-1h5l4,1h4l1-1l-2-2l1-3l1-1l1-1l3-1l1-1l2,1l3,3h1l1,1l2-2h1l1-1l2-1h2l1-1
		v-1h3l1-1l1-1h1v-2l-2-1l-1,2v-1l1-1v-1h1h1l-1-1l1-2l2,1v-1h1l-1-1l3-2l-1-1h-1v-1l-2-1l-1-1v1h-2v-1l1-2h2v-2h1l-1-1l-1-2l1-2
		l4,1h1l1,1v-1l1,1l2-1l1-1v-1h1h4v-2l2,2l1-1h3v-3v-3l-1-2l1-1l1-2l-1-1l2-1l1-4l2-1l4-1l2,1v1l1-1h4l2-2l2,1v-1v-2l2-1h1h1l1,1v-1
		v-1h1l3-2l3,1l1-1h1l1-1h1h1l1-1v1h1v-1l1-1h1h-1l1-1h1l2,1v1h1l1-1l3,2l2-1v-2v-2l1-2l1,1l2-2v-2l-1-1h1h1l1-1l1-2h-1l-1-1l2-2v-1
		l1-1v-1h-1v-1l-2-1l1-1l2-1l2-3l-2,1l-1-1h-1v-1l-1-1v-1v-1v-2h-1h1v-1h-1v-2h1l3-1h2h1l1-1h1l1,1v1l-1,1h1v1h1l2-1h1l-1,1l1,1h2h2
		h1v-2l1-1h2h1l1-1h2v-1l-1-1v-1l1-1h1l1,1v1h1v-1l1-1h1l3-1h1h1l2-1l1,1l2,1v-1v-1h-1v-1l1-1h1l1,1l1,1v1h1l3,1v1l1,1v1l2-1l1,1h1
		l1-1h1h1l1-1h2l2,2v1v1h1l3,2h1h1h2h1l-1,1v1l2-1l1-1l1,1h1l1-1h1l2-1l2-1v1l2,1v1h1h1v-1h1h2h1v-1l-1-1l1-1l3-1l1,1l1-1l1-1h-1
		l-1-1h-1v-1v-1h1h1h1h1h1v1l1,1l1-1h1v-1v-1h2l1,1l1-1v-1h1v1h1v-2h1v1l1,1v-1h1v1h1v-1h1v-1v-1h-2l1-1h2h1h1l-1-1h-1h-1v-1h1v-1
		l2,1l1-1h1v-1h-1v-1h-1v1l-1-1l1-1h-1v-1h1l1,1l1-1h1h1l1-1l1,1v1v1h1v1h1v1l1-1l1,1h1v1l1,1h-1v1h2h1l-1,1h1v1v1h1v1h1h1l1,1l1,1
		v1h1v1l1,1h1l1,1h1h1h2h1h2v-1l1,1v-1h1v1l1,1v1h3l1,1h3l2-1l2,2v-1v-1v-1l-1-1l1-1h1l1-1v-1h1l-1-1l1-1v-1v-1h1h-1v-1h-1v-1h1l1-2
		h1v1l1-1l1-1l1,1v-1v-1l1-1v-1l-1-1v-1h-1v-1h-1l-1-1h1v-1h1v-1h1h1h2v-1h1v-1v1h1v-1v-1l1-2h1l1-1v-1l3,1h1h1h1l1-1h1v-1h1h1h1h1
		l1,1h1h2l1-1h1h1h1v-1v1l1-1h2h1h1h1v-1h1v-1h1h1h1v-1h1h1v-1h1h1h1v-1l1-1H766z"/></g><g id="FS"><path fill="#ffb647" stroke="#FFFFFF" stroke-width="2" d="M705,275l1,2l-1,1v1l1,1v1h2l-1,1h1l1,1l1,1v1h3v1v1v1h1h1h1v-1l-1-1v-1h1v1l1,1v1l1,1
		h1v1l1-1h-1v-1l1-1l1,1v1h1l1,1l1,1v-1h1v1l2-1l1,1l1-1v1v1l2,2l-1,1h1l1-2v-1l1,1h1v-1v-1v2h1l1,1v1h1v1l1,1v1h-1h1h1v-1v-1l1,1
		l1-1h1v-1h1l1,1v-2h-1h-1h-1l1-1l1-1h1l2,1h1h1l1,1v1h1v-1l1,1h1l-1,1h1h1v-1l1,1v1h1l1-1h1l1,2l1-1v-1h-1v-1l1,1l1-1h1h1v-1h1l1,1
		h1h1v1h1v-1h1v1l1,1h-1l1,1l-1,1h1l1,2v1h1v1l1,2v-1h1v-1h1h1h1v-1l1,1h1v1l1,1v1h1v-1v1h1h-1h1h1h-1h1v1h1h1v-1v1l1,1h-1h1h-1v1v1
		h1v-1h1h2h-1h1h-1h1h1l1,1v-1v1h1v1h1v2v1h1h1v1h-1v1l1-1v1h1v1h1v1v-1l1,1v1v1h1l1,1l1,1v1l1,1h1h1h2v-1h1v-1v-1l1-1h2l-1,1l-1,1
		h-1l2,1h-1v1l-1,1h1h1h1l1,2h1v1v1v1l-1-1l-1,1v1l-1-1v1h-1v1h-1h-1l-1,1v1h1v1h1v1v1h1h-1v1v1v1h1h-1h1v1l1,1h-1v1l-1-1v1l-1,1
		l1,1h-1v1v1l-1,1v1l-1-1v1h1l-1,1h1l1,1h-1h-1l-1,2v1l-1,2l1,1l1,2l1,2h-1l1,1v2h-2l-1,2v1l-3,1h-1l-2,1h-2v1l-1,1l-2,1v1l-1,2h-2
		l-1,1l-2,1v1l-2,1h-1h-1l-1-1l-1,2l-2,2l1,2l-1,1h-1v-1l-2,3l-3-2l-7,2l-1,1l1,1h-1l-1,1v1v1h-1l-1,1v1v1l-1,2l-1,2v-1h-1h-1l-1,1
		h-1v-1v-1v-1h1l-1-1v-1h-1l-2-1v1h-1l-1-1h-1l1-1h-1v-1v-1l-1-2l-2-1h-1v1l-1-1v1l-1,1h-1h-1h-1h-1h-1h1h-1v1l-1-1h-1h-1v1h-1v-1v1
		h-1h-1v1h-1v1h-1h-1l1,1l-1,1l-1,1v-1h-1v1l-1-1v1h-1h-1h-1v-1l-1,1v-1l-1,1h-1h-1v-1v1h-1h-1v1h-1v1v-1v1h-1v1h-1v1l-1,1l-1,1h-1
		v1v1h-1l-1,1h1v1h-1h-1h-1h-1v-1l-2-1v1h-1v1h-1h-1l1,1v1h-1h-1h-1v-1v1h-1v-1v1h-1h-1h-1l-1-1h-1l1,1v1v1h-1v-1v1v-1l-1,1l-1,1h1
		v1h-1v1v1l-2-1v1h1h-1v1h-1h1v1h-1h-1v1l1-1v1h1v1h-1h-1v1v1h-1v1h-2l1,1v1h-1h-1v1h-1l-1,1v1h-1h-1l1,1l1,1l-1,1l-1,1h-1v1l-1-1
		l-1,1v1h1h-1h-1v1v1l-1,1h-1l1,1v1h-1h-1v1v1h-1l-1,1v1v1h-1l-1-1l-1,1v1v1h-1h-1h-1v1l-1,1l-1-1l-1,1v1h-1v-1h-2l-1,1h-1l-1,1v1
		h-1l-1-1v2l-1,1v-1l-1-1h-1l1,2h-1v1l1,1l2,2h1v1h1l7,16h1l1,1h1v1l1,1h1l1,6l4-1h1v1v1h-1h-1v1h1h-1v1v1v1v1v1h1v1l-1,1h1v1h-1h-1
		v1h1l-1,1l1,1v-1h1v1h1v1h-1l-1,1l-2-1v1h-1v1h1h1l1,1h-1h-1h-2l-1,1h2v1v1h-1v1h-1v-1h-1v1l-1-1v-1h-1v2h-1v-1h-1v1l-1,1l-1-1h-2
		v1v1h-1l-1,1l-1-1v-1h-1h-1h-1h-1h-1v1v1h1l1,1h1l-1,1l-1,1l-1-1l-3,1l-1,1l1,1v1h-1h-2h-1v1h-1h-1v-1l-2-1v-1l-2,1l-2,1h-1l-1,1
		h-1l-1-1l-1,1l-2,1v-1l1-1h-1h-2h-1h-1l-3-2h-1v-1v-1l-2-2h-2l-1,1h-1h-1l-1,1h-1l-1-1l-2,1v-1l-1-1v-1l-3-1h-1v-1l-1-1l-1-1h-1
		l-1,1v1h1v1v1l-2-1l-1-1l-2,1h-1h-1l-3,1h-1l-1,1v1h-1v-1l-1-1h-1l-1,1v1l1,1v1h-2l-1,1h-1h-2l-1,1v2h-1h-2h-2l-1-1l1-1h-1l-2,1h-1
		v-1h-1l1-1v-1l-1-1h-1l-1,1h-3l-1,1h-2l-1-1l-2-2h-1l-2-1h-1h-1l-1,1h-1l-1-1v-1h-1l-1-2l-1-1l-1,1l-1-1l-1-1h-1l-1-1l1-1l-1-1h-1
		l-1-1l-1-1v-1l-2-1h-1l-1-1h1v-2l-1-1h-1h-1h-1v-1h-1l-1-1v-1h1v-1h-1l-1-1h-1l-1-1l-1-1v-1v-1l-2-1v-2h-1l-1-1v-1v-1v-1l-1-1l-2-1
		h-2h-3v-1v-1v-2v-1h-1v1h-3l-1-1l-1-1l-1-2h-1h-1l-1-1v-1h-2h-2v-1h-1l-2-3v-1l-2-1v-1v-2l19-34l14-26l-5-1l3-6l-2-1l2-3l1,1l3-9
		l-3-1l-1-2h2l1-1h2l4-10l1-1h1h1v-1l2-2l-1-1v-1l1-1l1-1v-1h1h1l1-1l1-1l2-1l1-1h1l-1-1l-1-1h2v-2h1h1h1h1l1-1l1-1l1-1l1-1h1h1l1-1
		h1l1-1h2h2l1-1l1-1h1l1,1h1v1h1h1v-1v-1v-1v-1h1h1l1-1h1l2-1h2v-1h1h1v1v1l1,1h1h1v-1h1h1l1,1v1l1-1h1v1l1,1h1v2l-1,1l2,2l1-1l1-1
		l2-1l-2-1h-1l1-1h1v-2v-2h2h1v-1v-1l1,1l1-2h1l1-1h2v-1l-1-1v-1l1-1v-1h1l1-1h1h1l1,1l1-1l-1-1l2-1h1l3,1l1-1h1l3,1v-1h-1l-1-1h-1
		l-1-1h1v-1l1-1l1-1v1h-1h1v-1v-1v-1v-1h-1v-1l-2-1v-1l-1-1v-1v-1h1l1,1l1-1v-1h1h1l1-2h1h1l2,1v-2l-1-1l1-1l1-1l1-1h1l1-1h1v1h1
		l1-1v-1l2-1l1-1h2l1-1v1v1l1-1h1l1-1h1v1h1h1v1v1l1-1v-2l-1-1l1-1l1-1v1v1l4,1l1,1h2h1l1-1h1l1,1h1l1-1h1v1l-1,2h1h1h1l-1-1l1-1h1
		v-1l1-1l1-1l1-1l1-1h2v1l2,1v1h1l1,1h1l1-2v1l1-1h1l1-2l1-1v-1l1-1l-1-1h1h1l1-1l1,1v-1v-1l1-1h1h1v1v1h1h1h1l1-1v1l2-1l1,1v1h1v1
		l1-1h-1v-1v-1h1h3l1-1h2l1-1v-1h2v-1l1-1h1H705z"/></g><g id="GT"><path fill="#ffb647" stroke="#FFFFFF" stroke-width="2" d="M750,185l2,3v2h-1l-2,3v1v-1l-2,1l-3,2h-1v4l-1,1l1,3h-1l1,1v2v1v2l1,1l2,5h-1h1l2,1v-3
		h1l2,1l-1,3h1h2v-1l1,1l2-1l-2-1v-1l1-1v1h1h1l-1-1l-1-4h-2v-1l3-3l1,2l-1,2l3-2l1,2l2,2l3-1l-1-2l1-1h1v-1h1l1,1l1-2l1,2v1l-3,1v1
		v2h1l1,1h-1l1,1l-6,1l-1,4h2l-2,2l-1,3l1,1l-1,3l-3-1v1v2v3l-1,2h-2h-2h-2v-1h-1h-2l-5-1l-2,2l-1,3l-2-1l-1,1h-1h-1l1,1l-1,1h1
		l-1,1v1l2,1v2v3l5,1l1,3l2,1l3,2l1-1l3-1h1l1,2h1l2,3l-2,1h-2v1h-1v1l-1,1v3h-5l-1-1h-1v1v-1l-1,1v2l-3-1v-1v1l-1-1h1l-2-1h-1v2v2
		v1h-1v1h-1v1l-1-1v1l1,1h-3v1h-3l-1,4h1l1,2l-4,1v1h-1v1v1v1l-1,2h-1v-1l-2,1h-1v1v-1l-1,1v1h1l-1,1v-1h-1l-1-1v-1l-1-2h-1v1l1,1v1
		h-1h-1h-1v-1v-1v-1h-3v-1l-1-1l-1-1h-1l1-1h-2v-1l-1-1v-1l1-1l-2-2h-1l-1,1v1h-2v1l-1,1h-2l-1,1h-3h-1v1v1h1l-1,1v-1h-1v-1l-1-1
		l-2,1v-1l-1,1h-1h-1h-1v-1v-1h-1h-1h-1l1-1l1-2l-2,2v-2v-2v-3l-2-2l4,1v-2v-1v-2h1v-3h-1h-3h-1v-1v-2v-1v-2h-1v-3l-3-1v-2l-1-3h1
		l1-4l-1-2h-3l1-4v-1l1,1v-2v-4v-2h1l-1-1l2-1h1h1h1l2-1l1-1l1-1h2v1v1h1l1,2l4-1v2l5-2h1v-1l1-1h2l-1,1v1h1v-1h2v-1h2l-1-1h1v-1h-1
		v-2h1h1l-2-3v-2v-1h1v-1h1l-1-2h-1l2-3l3,1h1v-2h-2l-2-1l1-2l2-1l-3-2l-1,1l-1-2l1-3h2l3,2l2-1l1-1v1l4-1v-2h2l1,2l4-1v-2l5-1v2h3
		l1-1h4l-1-3h1h3v-1h2v1l2,1l2-2v1v-1h1v-1v-1h-2l-2-3l3-1l3-1l2-1V185z"/></g><g id="KZ"><path fill="#ffb647" stroke="#FFFFFF" stroke-width="2" d="M947,284l1,1h1l1,1h2h1v-1h1h2v1h2h1h1h1h1h12l7,1h3l3-1h5h2l3,1l-1,1v3v1v1l-1,2v1
		l-1,3v1v1v1l-1,1l-1,2v1l-1,2v1l-1,2v1l-1,2l-1,1v1l-2,5v1l-2,2v2v1l-1,3l-1,4l-1,4l-1,5l-1,4v2v1l-2,9v3l-1,2l-1,3l-5,9l-1,1l1,2
		l-1,3l-3-1l-1,1v2l-3,3l-2,2l-2,2l-4,3l-1,2l-3,1l-1,2l-2,1l-1,1l-4,4l-3,1h-1l-2,1l-4,2h-1l-3,1h-1l-3,3l-4,4l-4,5l-4,4h-1v1l-2,1
		l-1,1l-2,2l-1,1l-3,3l-1,1l-2,3l-3,3v2l-3,2l-1,2l-2,2l-2,5l-2,2l-1,2v2v1v1h1v1l-5,6l-5,3v1l-2,2l-1,3l-1,2l-1,2l-1,1v1v1l-2,1v1
		l-1,1v1v1l-2,2l-1,1v1l-1,1l-1,1v1l-1,2l-1,1l-1,1v1h-1v1l-1,2l-1,1v1h-1v1l-1,1v1l-2,2l-1,1v1h-1v1l-2,1v1v1h-1v1v1h-1l-1,1v1h-1
		v1l-2,2l-1,1l-1,1v1h-1v1v1h-1v1h-1v1l-1,1l-1,1v-1h-1v-1h-1l1-2h-1h-1l-1-1h1v-1l1-1h-2v-1h1v-1v-1l-1-1h-1l1-1h-1h-2v-1h1v1v-1
		h-1v-1h-2h-1v-1h-1v-1v1h-1h-1h-1v-1h1v-1l-2,1v-1v-1h1v-1h-2v1v1v-1l-1,1v-1l1-1h-1h-1v1v-1h-1v-1h-1v1v-1v-1h-1v1v-1h-1v-1v1h-1
		v-1l1-1h-1v1l-1-1h-1h1v1l-1-1v1h-1v-1v1h-1v-1l-1,1v-1h-1v-1h-1l-1-1l-1,1h-1h-1h-1v-1h-1v-1l-1,1v-1h-2l-1-2l-3,1h-1h-3l-1,1
		l-2,1l-1-1l-1-1h-2l-1-1h-3l-1,1l-1,1v-1l1-1l-1,1v-1l-2-1l-1-1h-1l3-1l1-1h-1v1v-1h-1v-1l1-1h1l1-3v-2h2v-1h1l2-1v-1h2l-1-1v-1v-1
		l-2-3h-1h-1l2,2h-2v-1h-2h-1v-1h-1v-1h-1l-1-1v-1v-1h-1v-1h1h-1v-1v-1h1h-1h1v-1h-1l1-1h-1l1-1h-1h1h-1v-2l-1-1l-1-1l-2-1l-1-1l1-1
		h1l2-2l1,1v-1v-1h1h2l1-1l-1-1v-1h-1v-1l-2-1l1-1v-1h1h-1v-2v-1h1v-1l1-1l-1-1h1v-1v-1h1v-1l1,1v-1h1l1-1h1h1h1l1-1h-1l1-1l-1-2h2
		h1l-1-1v-1l-1-2v1l1-1l-1-1l1-1v1h1v-1h1v-1l1,1v-1h1h1v-1l1-1l1-1h-1v-1h1l1-1v-1v-1h1l-1-1l-1-1h1l-1-1h1v-1h-1l-1-1h1v-1h-1v-1
		l-2-1h-1l-1-1v-1v-1v-1h1l-1-2h-1l-1-1h-2h-1h-1l-1-1v-1h-1v-1v-1h-1l-1-1h-1v-1h-1h1h-1h-1v-1l-1-1l-1-1h-1v-1h-1h-1v-1h-1v-1h-1
		v1h-1v1h-1v-1v-1h-1l1-1h-1h-1l1-1h-1h1v-1h-1v-1h-1h1h1v-1h-1v-1v1v-1h-1v-1h-1h-1v1h-1l1-2l1-2v-1v-1l1-1h1v-1v-1l1-1h1l-1-1l1-1
		l7-2l3,2l2-3v1h1l1-1l-1-2l2-2l1-2l1,1h1h1l2-1v-1l2-1l1-1h2l1-2v-1l2-1l1-1v-1h2l2-1h1l3-1v-1l1-2h2v-2l-1-1h1l-1-2l-1-2l-1-1l1-2
		v-1l1-2h1h1l-1-1h-1l1-1h-1v-1l1,1v-1l1-1v-1v-1h1l-1-1l1-1v-1l1,1v-1h1l-1-1v-1h-1h1h-1v-1v-1v-1h1h-1v-1v-1h-1v-1h-1v-1l1-1h1h1
		v-1h1v-1l1,1v-1l1-1l1,1v-1v-1v-1h-1l-1-2h-1h-1h-1l1-1v-1h1l-2-1h1l1-1l1-1l1,1h1h1v-1h1v-1v-1h1v-1h2h1h1v-1l1-1l3,1l1,1l1,1h1
		v-1h1l2-1h1l3,3l1-1l-1-1h1h1l1-1v-1l2,1v1l1-1h2v-2v-1h1l1-1h1l2,1v-3l2,1l2-1v3v1h1h1v-1h2h1l2,1l2-1l4-2h4v1v-1v1h1h1v1h1v1l1-1
		h-1h1v1l1-1v1h1v1h1h1v-1v-1h1h1l1-1v1l1-1v1v1l1,1v1h1l1-1l2,1v-1l1,1v-1h1l1-1l1,1v-1h1l3,2h1l2-3l4-4l13,4h29v-10v-1v-1v-4v-2
		v-1l1-3v-1l1-6v-1h1l1,1l1-1h2V284z"/></g><g id="MP"><path fill="#ffb647" stroke="#FFFFFF" stroke-width="2" d="M930,118h1v-1h3l2,12l4,6v1l2,9v7l-1,7l1,13l1,9v4v3l-1,11l-1,3v1l-1,1v1v2v1h1l1,7
		l-1,2l-1,1l-3,8l3,7l-7,3l-26-17l-6,1l-3,4l-8,7l-1,4l-2,5l-7,11l-4,3l-2,4l-2,2l-1,3l-1,6v9l1,6v1h1l1-1h1l1-1h1v-1v1l1,3l4,3v1v2
		l-1,2l1,3l5,3l5,6l8,3l-5,4l-2,3h-1l-3-2h-1v1l-1-1l-1,1h-1v1l-1-1v1l-2-1l-1,1h-1v-1l-1-1v-1v-1l-1,1v-1l-1,1h-1h-1v1v1h-1h-1v-1
		h-1v-1l-1,1v-1h-1h1l-1,1v-1h-1v-1h-1h-1v-1v1v-1h-4l-4,2l-2,1l-2-1h-1h-2v1h-1h-1v-1v-3l-2,1l-2-1v3l-2-1h-1l-1,1h-1v1v2h-2l-1,1
		v-1l-2-1v1l-1,1h-1h-1l1,1l-1,1l-3-3h-1l-2,1h-1v1h-1l-1-1l-1-1l-3-1l-1,1v1h-1h-1h-2v1h-1v1v1h-1v1h-1h-1l-1-1h-2l-1,1v1v1h-1v1
		h-2h-1h-1l-1-1v-1l-1-1l-1-1h-1v-1v-1l-1-1v1v-1h-1v-1h-1v-1l-1,1v-1h1v-1h-1h-1v-1v-2h-1v-1h-1v-1v1l-1-1h-1h-1h1h-1h1h-2h-1v1h-1
		v-1v-1h1h-1h1l-1-1v-1v1h-1h-1v-1h-1h1h-1h-1h1h-1v-1v1h-1v-1l-1-1v-1h-1l-1-1v1h-1h-1h-1v1h-1v1l-1-2v-1h-1v-1l-1-2h-1l1-1l-1-1h1
		l-1-1v-1h-1v1h-1v-1h-1h-1l-1-1h-1v1h-1h-1l-1,1l-1-1v1h1v1l-1,1l-1-2h-1l-1,1h-1v-1l-1-1v1h-1h-1l1-1h-1l-1-1v1h-1v-1l-1-1h-1h-1
		l-2-1h-1l-1,1l-1,1h1h1h1v2l-1-1h-1v1h-1l-1,1l-1-1v1v1h-2h1v-1l-1-1v-1h-1v-1l-1-1h-1v-2v1v1h-1l-1-1v1l-1,2h-1l1-1l-2-2v-1v-1
		l-1,1l-1-1l-2,1v-1h-1v1l-1-1l-1-1h-1v-1h-1v-1h1l2-1v1h1l1-2v-1v-1v-1h1v-1l4-1l-1-2h-1l1-4h3v-1h3l-1-1v-1l1,1v-1h1v-1h1v-1v-2
		v-2h1l2,1h-1l1,1v-1v1l3,1v-2l1-1v1v-1h1l1,1h5v-3l1-1v-1h1v-1h2l2-1l-2-3h-1l-1-2h-1l-3,1l-1,1l-3-2l-2-1l-1-3l-5-1v-3v-2l-2-1v-1
		l1-1h-1l1-1l-1-1h1h1l1-1l2,1l1-3l2-2l5,1h2h1v1h2h2h2l1-2v-3v-2v-1l3,1l1-3l-1-1l1-3l2-2h-2l1-4l6-1l-1-1h1l-1-1h-1v-2v-1l3-1v-1
		l-1-2l-1,2l-1-1h-1v1h-1l-1,1l1,2l-3,1l-2-2l-1-2l-3,2l1-2l-1-2l-3,3v1h2l1,4l1,1h-1h-1v-1l-1,1v1l2,1l-2,1l-1-1v1h-2h-1l1-3l-2-1
		h-1v3l-2-1h-1h1l-2-5l-1-1v-2v-1v-2l-1-1h1l-1-3l1-1v-4h1l3-2l2-1v1v-1l2-3h1v-2l-2-2v-3l-2,1l-3,1h-1v-2l-1,1l-2,1l-4,1v1h-2l-2,2
		h-4h1l-1-3h-1l4-2v1h3l-1-3l8-1v-1h1l-1-1v-2l1-1l2-1l3-1l3-2h4l1,1l4-2l1,2l-3,1l1,2v1h2l1,1l1,3l3-1l3,1l1,1v1h1h1l-2,2h-3v4v3v1
		h1l1,1h1v2l2-1h3l-1,3l-1,1l-1,1l4-1l1,2l2-1v1l1-2h4h1v2h3h3l4,1v-1l4-1h2l3-1h4l2,1l1-2h2h1v1l3-1v-1l3-1l4,1v-4v-3v-5l-2-3h3v-1
		l4,2v1h2h1v-2v-3l1-1l2,1l-1-2v-1v-1v-3l1-4l6,1l1,1v-1l2,1v-2l3,1h-1v-1h3v1l1,3l3,2v-2l4-1l1,1v-2l1-1l1-1h1l1-2l1-2l-2-1v-2h2
		l3-2l-1-2l-2-2l2-3l1,2l1-4l-1-3l2-2l3,2l4,3l2-1h3v3l6-1h10l1-4l-3-4l-2,1v-4l5-1l-3-3l-3,1h-3h-2v-3l-1-5l4-2l-1-2h1v-2l-2,1
		l-1-1h1l1-1h1h1h1l1-1l1-1h1l1,1h1l1,1v2l2-1l1-1l1,1l3-1l1-1v1h1l2-1v-1v-1h1l1,1h1h1l1,1h1v-1h1h1l1,1h1v-1l1-1h1h1h1v2h1h1h1h1
		v-1v-1l2-2h1L930,118z"/></g><g id="NC"><path fill="#ffb647" stroke="#FFFFFF" stroke-width="2" d="M238,166h1v1h1h1l-1,1l2,1v1h1h1h1l1,2v-1h1l1,1h1h2v1v1h1v1l1,1h1v1h1h1v1l2,1v1v1l2,1
		l-1,1h1l1,1h-1l1,1h-1l1,1h1h1v1l-1,1h-1h1v1l1,1h1h1l-1,2l1,1h1v1h1l-1,1v1l1-1v1h1l-1,1l1,3h1h1h1v1l-1,1h1h1h1l-1,1v1h1l1-1h1v1
		l-1,1l-1-1v1v1l-1,1v1h1l2,1l1,3h-2v2h1h1v1l-1,1v1l2,1l1,1v2v1h2v1l-1,1v1h1l1-1h1v1v1l-1,1h1h1v1v1l-1,1l1,1l2,2l-1,1v1l-1,1l1,1
		v1l-1,1l1,1h1v1l-1,1l1,1h1l-1,2l-1,1h-1v1v1v1v1l-1,1v1h-2l-1,2l-1,1l-1,1l-1,1v1v1h-1l-1,2h-2v1l-1,3v1v1v2l1,1h1v2l-1,1l1,2h-1
		l-1,1l1,2h1l-1,2l1,1l-1,1h1l1,1l-1,1l1,1h1h1l-1,1l1,3l1-2h1h2l1-1l1-1h1v-1h1h1l2-2h1l1,1h2h1h1v1l2,1h2l1,1h1h1h1v1h1h1h2v-1
		l2-1h2h1l1,1h1l1-1l1-1h2h1h1h2l1,1h2v1h2l1-1l1,1l1-1h1h1l1,2l1-1h1h1h1l3-2l1-1h1v-1l1-1l-1-1v-2l-1-1v-1h1v-1h2l1-1v1h3h1h2h1
		l2-1h1l1-1h2l1-2l1-1l1-1v-1h2v-1v-1l2-1l-1-1l2-1v-1v-1h1v-1l-1-1l3-2v-1h3h1l1-1l1-1l1,1l1-1l-1-2h2h1v-1h-1v-1h1l1-1h1h1v-1l1-1
		l2,1l1,1h1h1v-1l1-1v-2v-1h1v1l1-1v-1h1h4l1,17l2,1l3,1l2-3l1-1l2-7l1-3v-4l5,1v-4h5l1-3v-3h14l4,1l-2,5l-3-1l-5-1l-1,3h3l3,2l-3,4
		l-2,4l3,4l-1,8l12,3l7,5l-2,2l-4,5l5,2l3,1l2,1l7,2l5,3l1-2h3l2,2h1l2,3l1,3l1,4l-4,1v1l-3,7l-1,1l-1,1l4,2l6,4h1h1l-2,5v2v2l-1,3
		l1,3l4,1l-1,2l-1,3l1,2l17-4l3,2l-2,3l2,1l-1,4h-1l-3,4l2,2l1-1l3,3v1l-1,2h1l4,4l2-2l-1-1l2-1h1h1l-1-1h1v-1h1h-1v-1v-1v-1l1-1h-1
		v-1h-1v-1h1v1h1v-1h1v-1v-1l2-1v1l1-1h-1l1-1l-3-2h1v-1v-1l1-1v-1v-1l-1-1v-1h1h-1l1-1v-1h4v-2h2v1v1l1,1l-1,2l1,1l11-2l3,2l-12,12
		h1v1h-1h-1l8,11l1-2h1h2l-4,10h-2l-1,1h-2l1,2l3,1l-3,9l-1-1l-2,3l2,1l-3,6l5,1l-14,26l-19,34v2v1l2,1v1l2,2l1,1v1h2h2v1l1,1h1h1
		l1,2l1,1l1,1h3v-1h1v1v1v2l3,1h2l2,1l1,1v1v1v1l1,1h1v2l2,1v1v1l1,1l1,1h1l1,1h1v1h-1v1l1,1h1v1h1h1h1l1,1v2h-1l1,1h1l2,1v1l1,1
		l1,1h1l1,1l-1,1l1,1h1l1,1l1,1l1-1l1,1l1,2h1v1l1,1h1l1-1h1h1l2,1h1l2,2l1,1h-1v2h1v1h-1h1v2v1v1l1,1v1h1l1,1l2-1l-2,3l-2,1l-1,1
		l2,1v1h1v1l-1,1v1l-2,2l1,1h1l-1,2l-1,1h-1h-1l1,1v2l-2,2l-1-1l-1,2v2v2l-2,1l-3-2l-1,1h-1v-1l-2-1h-1l-1,1h1h-1l-1,1v1h-1v-1l-1,1
		h-1h-1l-1,1h-1l-1,1l-3-1l-3,2h-1v1v1l-1-1h-1h-1l-2,1v2v1l-2-1l-2,2h-4l-1,1v-1l-2-1l-4,1l-2,1l-1,4l-2,1l1,1l-1,2l-1,1l1,2v3v3
		h-3l-1,1l-2-2v2h-4h-1v1l-1,1l-2,1l-1-1v1l-1-1h-1l-4-1l-1,2l1,1h-3l-2,1l-1-2h-1l-1-2v-1l1-1h-5l1,1l-1,2v1l-2,1v2l-2,1h-1l-2-3
		v-1h-2l3-2l-1-1h-1l-3-1h-1l-1-3h-1l-5,1l-1-1l-1,1l-1,1h-3v1h-2l-4-1l-1-1l-1,2l1,1h-4l-2,1l-3,2v3l-2,2v1l-3,3l-2,2h-1h-1v1h-1
		l-1-1h-1v-1v-2l1-1l-2-1l-4-1h-1l-3,1l-2-1l-1-2l-2,1l-2,1l-3-3l-5,1h-1h-1l-2-1l2-5h-3v-2l-4-1l-4-2l-4-2l-3-1l-2,1l-1,4l-1,2
		l-2,4v1l-3,1l1,1v4h-2l-1-2h-2v1l1,1v1v1l-2,1l1,2l1,2l-2,1l1,1l3,1l-1,1l-2,4l-1-4l-3,2l-1,6v-1l-2,1l-2,1v2l-2-1v1l-1,1h-2l-4-2
		h-1l1-1h-2l-1-1l-1,1l-1,1h-1l-2-2h-2l-2,1h-2v4l1,1l-1,1h-1h-3l-2,1l-1,2l-1-1l-3,2l-3-1v1l-1,2l-1,1l-2,1l-2,2h-1l-3,5l1,3l-3,1
		h-2h-2l-4-1l-7,1l-1,2l-2,1v2l2,3v2l-2,4l-3,1l-1,2l-4-1l-2,1h-2v-1l-2-3l-3,4h-4l-3-2h-1v-1l-1-2h-1l-2-3h-3l-2-1l-2-2l1-4l-1-1
		l-2-2l-1-2l-1-2l1-1l-2-3v-1l-1-5l3,1l2-2v-2l3-3l2,1l-1-5h-4l1-3l-2,1h-1l-1,1v1l-1,1h-1h-2v3l-2,2l-3,1l-1,2h-4l-2-1h-1l-1,2
		l-3,1l-1-2l-1,2h-1l1,2l-3,1v-1l-1-1l-2,2v2l-1,3v1v4l-1,1l-3,1l-2-3l-1-3l1-4l1-1l-1-1l-1-2h-1v-1l-1-2l-1-1l-1-4l4-3h1h-1v-1h1
		v-1l-1-1l1-1l-1-1l-1-1l1-1h1l1-1l-1-1l-1,2v-1v-1v-1h-1l-2-3l-2-1l-1,2h-1l-1-1l-1-1l-1-1l-1-2l-1,1h-1l1-3l1-4l-5,5l-1-2h-1h-1
		h-1h-1h-1l-1-1h-1l-1-1h-2v-1h1h-1v-1l1-1l1-1h1v-1h1h-1h-1v-1l1-1l1,1v-1l-1-1v-1l-1-1v-1v-1h1v-1v-2l1-1l-1-2l-1,1v-1l1-2l-1-1
		h-1l-1-1l-1,1l1-1v-1l1-1v-2l-1-1v-1l-1-2h-2l2-3l-3-2l-1-2l1-3l-1-5l-2-3v-1v-4l5-1l-4-2l-3-2l5-1v-7l-6-2l-4-3v-2l-2-4h-6l-5-8
		l-4,1l-1,5l2,5l-4-6l-4-3l2,4l-3,4v4l-6,9l-1,1l-2-1h-1l1,1h-1l-1,1l-5-4h-1h-1h-3l-1,2v6h-1h-2h-1h-2l-1,2l3,3l-2,1v1l-4,3l1,5
		l-5-1v-1v-1h-1v-1v-1h-1v-1h-1v-1v-1v-1h-1v-1l-1-1v-1h-1l-1-2l-1-1h-1v-1v-1l-1-2h-1v-1l-1-1v-1l-1-1v-1v-2l-2-2h-1v-1h-1l1-1h-1
		v-1h-1v-1l-1-1l1-1l-2-2v-1v-1h-1l-1-2h-1v-1v-1h-1h1l-1-1l-1-1v-1l-1-1v-1l-1-1l-1-1v-1v-1v-1h-1v-1v-1l-1-1v-1h-1v-1h1l-1-1v-1
		v-1h-1v-1h-1v-1v-1v-1l-1-1h1l-1-1v-1v-1h-1v-1v-1l-1-2h-1v-1v-1h-1v-1v-1v-1l-1-1v-1l-1-1h1v-1h-1l-1-3v-1v-1v-1v-1l-1-2v-1v-1
		l-2-2v-1v-1v-1h-1v-1v-1v-1v-1h-1v-1l-1-1v-1l-1-1v-1v-1l-1-1l-1-1v-1h-1v-1v-1h-1v-1v-1h-1v-1h-1l1-1v-1l-1-1l-1-2v-1v-1l-2-3h-2
		v-1l-1-1v-1h-1v-1v-1h-1v-1v-1l-2-2h-2l-1-1h-1l1-1h-1v-1l-1-1v-1v-1v-1l-1-1l1-1v-1l-1-1h-1h-1v-1h-1v-1v-1l-3-2v-2l1-1v-1h3l4-2
		h1l1-1l3-2h1v1v1h1l1-1l1-1l1-1l1-1l-1-2l3-2l-2-1v-2h-1l-1-1v-1v-1h1l1-1l1,1h1h1v-1l-2-1v-1h1h1h1v-1l-1-1v-1h1h1v1h1v-1v-1v-1
		v-1v-1v-1l1-1h2l1,1l1-1h1l1,1l1-1v-1h2h1v-1l1,1l2,1l1,1v1h2l1,1v1v1v2v1v2l1,1h1l2-1l1,1l2-2l1,1l2,1v1l1,1v1v1l2,2v1v2l-1,1
		l-1,1h-2v1l-1,1l1,1l1,1l1,2v1v1h1v-1h1l1,1v1v1v2v1l-1,1v1v1v1h1l2-1h1v-1h1h3h1h2l1,1v1v1v1h1l1,1h1l1-1l1-1h1v1h1l1-1l2,1h2h1h3
		l1,1v-1h1v1l1,1l1-1l1,1l1,1l1,1l1,1l1,1v1h1l2-1l1,1l1,1h1h1h1l1,1l2-1h2v-1h2h2h1l1,1h4h1l1-1h1l1,1h1l1-2h2h1h1l2-1h2h1l3-1h1
		l1,1h1h2h1h1l3,1h2h1h1l1,1l1,3h2l1,1l1,1h1h1h1h2l2-1l2-1v-1l1-1l2,1l1-1v-1h-1l-1-1l-1-2v-1l1-3v-1l2-1l1,1h1h1l2-1l1,1l2-1l1-1
		h1l1-1v-1l1-2v-1v-1l1-1h1v-1l1-1v-1l1-1h1h1l1-1l3,1h1l1-1l1-1h1h1l1,1h2h1l1-1v-1v-1h1l1-1h1h1h2l2-1h1V163l2,1L238,166z"/></g><g id="NP"><path fill="#ffb647" stroke="#FFFFFF" stroke-width="2" d="M803,8h1h2l1,1h3l2,1l2,1h1l2,1l2-1l2,2h1l3,1v1h2l1,1l1,1l2,2l2-1h4h1
		l1,1l1,2h1h1h4l3-1l3-1h1l3,1l1-1h2l1,1h1l1-1h1h2l2-1h3l3-1l2,1h1h2l1,1h2v1h1v-1l3,1l3,1l3-1h1h1l1,2h1h2h1l1,2l2,1h-1l14,42l2,4
		l-1,4v8v4l7,7l1,2v6l5,9l6,4v2h-3v1h-1l-1-1h-1l-2,2v1v1h-1h-1h-1h-1v-2h-1h-1h-1l-1,1v1h-1l-1-1h-1h-1v1h-1l-1-1h-1h-1l-1-1h-1v1
		v1l-2,1h-1v-1l-1,1l-3,1l-1-1l-1,1l-2,1v-2l-1-1h-1l-1-1h-1l-1,1l-1,1h-1h-1h-1l-1,1h-1l1,1l2-1v2h-1l1,2l-4,2l1,5v3h2h3l3-1l3,3
		l-5,1v4l2-1l3,4l-1,4h-10l-6,1v-3h-3l-2,1l-4-3l-3-2l-2,2l1,3l-1,4l-1-2l-2,3l2,2l1,2l-3,2h-2v2l2,1l-1,2l-1,2h-1l-1,1l-1,1v2l-1-1
		l-4,1v2l-3-2l-1-3v-1h-3v1h1l-3-1v2l-2-1v1l-1-1l-6-1l-1,4v3v1v1l1,2l-2-1l-1,1v3v2h-1h-2v-1l-4-2v1h-3l2,3v5v3v4l-4-1l-3,1v1l-3,1
		v-1h-1h-2l-1,2l-2-1h-4l-3,1h-2l-4,1v1l-4-1h-3h-3v-2h-1h-4l-1,2v-1l-2,1l-1-2l-4,1l1-1l1-1l1-3h-3l-2,1v-2h-1l-1-1h-1v-1v-3v-4h3
		l2-2h-1h-1v-1l-1-1l-3-1l-3,1l-1-3l-1-1h-2v-1l-1-2l3-1l-1-2l-4,2l-1-1h-4l-3,2l-3,1l-2,1l-1,1l1,3h-1v1l-8,1l1,3h-3v-1l-4,2h1l1,3
		h-1h3h1l2-2h2v-1l4-1l2-1l1-1v2l-2,1l2,3h2v1v1h-1v1v-1l-2,2l-2-1v-1h-2v1h-3h-1l1,3h-4l-1,1h-3v-2l-5,1v-1l-2-3l-1-2l-2-1l-2,1h-2
		l-1-4h-2v-2h2l2-1l1,1v1h2h1v-1l2-3l-6-2l-2-1v-1h-2h-3l-1-1h-1l-1-1l-1,1h-1v2l-2-1h-2l-3-1h-1h-2h-1l-1,1h-4l-3-1l-2,1v2l-2,2v1
		v1l-1,1l-1-1v-1h-2h-1l-3,1v-1l-5,1l-1-3h-3l-3,2l1-2h-2v-2l1-2l-2-1l-2,2v-2l-3-3l-4-1v-10h-3v4h-2l-10,3l-2,3l-2-2l-1,1l-4-3h-1
		h-2h-3h-4v-1v-1v1l-1-1l-1-1h1l-1-1v-1v-1v-1v-2l-1-1l1-1v-1h1h1v-1h1l1-2v-1l1-1v-1v-1l1-1h1v-1h1l1-1v-1h1h-1h1v-1h1l1-1h1v-1
		l1,1v-1h1l-1-1h1v-1h1h1l-1-1h1h1v-1h1h1h1h1v-1h1v-1h1h1v-1h1v-1v-1l1-2h-1v-1h1v-1l-1-1v-1v-1l1-1l1-1v-1l1-1v-4l1-1v-2l1-1v-1
		v-1h-1v-1h1l1-1h-1v-1v-1l1-1v-1v-1v-1v-1h1l-1-1h1h1v-1v-1v-1h1h1l-1,1h1v1h1h1l1-1h-1h1v-1l-1-1v-1h1v-1l1,1v-1v-2l1,1v-1v1h1h1
		v-1h-1v-1v-1h1v1v-1v1h1v-1h1l1,1v-1l-1-1v-1h2h1l1-1h1h1v-1h1v-1h1h-1h1h-1l1-1v-1h1h1v1h1v-1l1-1h1v1v1h1l1-1v-1h3h1h1l1-1l1-1
		v-1l1-1h-1l1-2v-1v-1h1v-1v-1h1h1h1h1l1-1h1l1,2h1h1v-1v-1h1v-1h1v-1v-1l-1-1h1v1l2-1v-1v-1l1,1l3-2l2-1l1-1l1-1l-1-1v-1h1l-1-2h1
		h1l2-2h1l1-1l1-2h-1l1-1l-1-1v-1h1h1l1-1l1-1l1-1h1l1-1l1-1l-1-1l2-2l1-1v-1h1h1l1-1h1v-2h2l1-1h1v-1h1h1h3h1h1h1h1l1,1l2-1l1-1h3
		h2h1v-1h1l1-1h1l1-1h3l3-1v-1l1-1h2h1h1l1-1l1-2l1-2v-1v-1v-2l1-1l1-1l1-1v-1v-1h1h2h2h3v-1l2-1h2h1l1,1v-1l1,1v-1h3v1h1h1l3-1l3-1
		h1l2,1h1v-1V9h2h1h1h1l1-1H803z"/></g><g id="NW"><path fill="#ffb647" stroke="#FFFFFF" stroke-width="2" d="M613,156v1v2v1v1v1l1,1h-1l1,1h1v1v1h4h3h2h1l4,3l1-1l2,2l2-3l10-3h2v-4h3v10l4,1l3,3v2
		l2-2l2,1l-1,2v2h2l-1,2l3-2h3l1,3l5-1v1l3-1h1h2v1l1,1l1-1v-1v-1l2-2v-2l2-1l3,1h4l1-1h1h2h1l3,1h2l2,1v-2h1l1-1l1,1h1l1,1h3h2v1
		l2,1l6,2l-2,3v1h-1h-2v-1l-1-1l-2,1h-2v2h2l1,4h2l2-1l2,1l1,2l2,3v3l-4,1l-1-2h-2v2l-4,1v-1l-1,1l-2,1l-3-2h-2l-1,3l1,2l1-1l3,2
		l-2,1l-1,2l2,1h2v2h-1l-3-1l-2,3h1l1,2h-1v1h-1v1v2l2,3h-1h-1v2h1v1h-1l1,1h-2v1h-2v1h-1v-1l1-1h-2l-1,1v1h-1l-5,2v-2l-4,1l-1-2h-1
		v-1v-1h-2l-1,1l-1,1l-2,1h-1h-1h-1l-2,1l1,1h-1v2v4v2l-1-1v1l-1,4h3l1,2l-1,4h-1l1,3v2l3,1v3h1v2v1v2v1h1h3h1v3h-1v2v1v2l-4-1l2,2
		v3v2v2l2-2l-1,2l-1,1h1l-1,1v1v1l-1-1l-1,1h-1h-1l1,1l-1,1v1l-1,1l-1,2h-1l-1,1v-1l-1,2h-1l-1-1h-1v-1l-2-1v-1h-2l-1,1l-1,1l-1,1
		l-1,1v1h-1l-1,1l1,1h-1h-1h-1l1-2v-1h-1l-1,1h-1l-1-1h-1l-1,1h-1h-2l-1-1l-4-1v-1v-1l-1,1l-1,1l1,1v2l-1,1v-1v-1h-1h-1v-1h-1l-1,1
		h-1l-1,1v-1v-1l-1,1h-2l-1,1l-2,1v1l-1,1h-1v-1h-1l-1,1h-1l-1,1l-1,1l-1,1h1v1v2l-2-1h-1h-1l-1,2h-1h-1v1l-1,1l-1-1h-1v1v1l1,1v1
		l2,1v1h1v1v1v1v1h-1h1v-1l-1,1l-1,1v1h-1l1,1h1l1,1h1v1l-3-1h-1l-1,1l-3-1h-1l-2,1l1,1l-1,1l-1-1h-1h-1l-1,1h-1v1l-1,1v1l1,1v1h-2
		l-1,1h-1l-1,2l-1-1v1v1h-1h-2v2v2h-1l-1,1h1l2,1l-2,1l-1,1l-1,1l-2-2l1-1v-2h-1l-1-1v-1h-1l-1,1v-1l-1-1h-1h-1v1h-1h-1l-1-1v-1v-1
		h-1h-1v1h-2l-2,1h-1l-1,1h-1h-1v1v1v1v1h-1h-1v-1h-1l-1-1h-1l-1,1l-1,1h-2h-2l-1,1h-1l-1,1h-1h-1l-1,1l-1,1l-1,1l-1,1h-1h-1h-1
		l-1,1v1h-2l1,1l1,1h-1l-3,2l-1,1l-1,1h-1h-1v1l-1,1l-1,1v1l1,1l-2,2v1h-1h-1l-1,1h-1h-1h-1l-1,2l-8-11h1h1v-1h-1l12-12l-3-2l-11,2
		l-1-1l1-2l-1-1v-1v-1h-2v2h-4v1l-1,1h1h-1v1l1,1v1v1l-1,1v1v1h-1l3,2l-1,1h1l-1,1v-1l-2,1v1v1h-1v1h-1v-1h-1v1h1v1h1l-1,1v1v1v1h1
		h-1v1h-1l1,1h-1h-1l-2,1l1,1l-2,2l-4-4h-1l1-2v-1l-3-3l-1,1l-2-2l3-4h1l1-4l-2-1l2-3l-3-2l-17,4l-1-2l1-3l1-2l-4-1l-1-3l1-3v-2v-2
		l2-5h-1h-1l-6-4l-4-2l1-1l1-1l3-7v-1l4-1l-1-4l-1-3l-2-3h-1l-2-2h-3l-1,2l-5-3l-7-2l-2-1l-3-1l-5-2l4-5l2-2l-7-5l-12-3l1-8l-3-4
		l2-4l3-4l-3-2h-3l1-3l5,1l3,1l2-5l-4-1h-14v3l-1,3h-5v4l-5-1v4l-1,3l-2,7l-1,1l-2,3l-3-1l-2-1l-1-17h-4v-1v-1l3-1l-1-1v-1v-1v-1h1
		l2,1l1-1v-2l-1-1h1v-1l1-1v-1h-2v-1h1l1-1l-1-1h2v-1h1v-1l-2-1l-1-1h2v-2v-1l2-1l1-2l1-2h-2v-1l2-1h1v-1l-2-1l1-1v-1l1-1v-1h1l-1-1
		v-1h1l2,1v-1h-1v-1h1v-2l1-1l3-2v-2h2l1-1l-1-1v-1h1l1,1v-1h1v1v1h1h1v-1h1h1h1h2v-1l1-1h1h2h1h1h1v1h1v-1l1,1h1h1v1h3h1l1-2h1v1h1
		v1h1v1v1h2v1h2h-1l1,1h1v1h1v-1h1v1v1h1v1h1l1-1l1,1h-1v1h1h1v1l1-1h1v1h1v1l1,1l1,1h1h1l-1,1v1h1h1v1h1h1l1,1v1h1v1v1h1h1h1v-1h1
		h1h1v1v1h1v-1l2,1h1l-1-1h1l1,1v-1h1h1h1v-1h1v1h1v-1h1v1h1v1h1l1,1v1h1v1h1h1l-1,1h1h1h1v1l1,1l2,1l1-1v1v-1h1h1v-1h1h1v1h1l4,1h1
		h1v1l1,1h2l2,1h1l1-1h1l2,1v-1l1,1h1h1v-1l1,1h1v-1h2h1h1v-1h1l1-1h1v-1v1l1-1h1l1-1h-1l1-1l1,1l1-1l1,1h1h1h1l-1,1h1l1,1l1-1h1v1
		h1l1-1l1,1h1h2h2h1h1h1l1-1h1l2-1l2-1l1-1h1v-1h1h1l2-2l2-1l4-9l2-6l1-5l1-2l7-16l1-4h1v-1v-1h1l-1-1v-1v-1l-1-1v1v-2l-1-1v-1v-1h1
		h3h3l3-1l10-3l12-3l1,1H613z"/></g><g id="WC"><path fill="#ffb647" stroke="#FFFFFF" stroke-width="2" d="M201,747"/><path fill="#ffb647" stroke="#FFFFFF" stroke-width="2" d="M201,746v1V746z"/><path fill="#ffb647" stroke="#FFFFFF" stroke-width="2" d="M139,694h1v1l-1,1v-1V694z"/><path fill="#ffb647" stroke="#FFFFFF" stroke-width="2" d="M122,672h1v1h-1h1L122,672z"/><path fill="#ffb647" stroke="#FFFFFF" stroke-width="2" d="M117,656h-1H117z"/><path fill="#ffb647" stroke="#FFFFFF" stroke-width="2" d="M117,656"/><path fill="#ffb647" stroke="#FFFFFF" stroke-width="2" d="M119,653"/><path fill="#ffb647" stroke="#FFFFFF" stroke-width="2" d="M118,652"/><path fill="#ffb647" stroke="#FFFFFF" stroke-width="2" d="M115,652"/><path fill="#ffb647" stroke="#FFFFFF" stroke-width="2" d="M113,650h1l-1,1V650z"/><path fill="#ffb647" stroke="#FFFFFF" stroke-width="2" d="M164,506v2v2l4,3l6,2v7l-5,1l3,2l4,2l-5,1v4v1l2,3l1,5l-1,3l1,2l3,2l-2,3h2l1,2v1l1,1v2
		l-1,1v1l-1,1l1-1l1,1h1l1,1l-1,2v1l1-1l1,2l-1,1v2v1h-1v1v1l1,1v1l1,1v1l-1-1l-1,1v1h1h1h-1v1h-1l-1,1l-1,1v1h1h-1v1h2l1,1h1l1,1h1
		h1h1h1h1l1,2l5-5l-1,4l-1,3h1l1-1l1,2l1,1l1,1l1,1h1l1-2l2,1l2,3h1v1v1v1l1-2l1,1l-1,1h-1l-1,1l1,1l1,1l-1,1l1,1v1h-1v1h1h-1l-4,3
		l1,4l1,1l1,2v1h1l1,2l1,1l-1,1l-1,4l1,3l2,3l3-1l1-1v-4v-1l1-3v-2l2-2l1,1v1l3-1l-1-2h1l1-2l1,2l3-1l1-2h1l2,1h4l1-2l3-1l2-2v-3h2
		h1l1-1v-1l1-1h1l2-1l-1,3h4l1,5l-2-1l-3,3v2l-2,2l-3-1l1,5v1l2,3l-1,1l1,2l1,2l2,2l1,1l-1,4l2,2l2,1h3l2,3h1l1,2v1h1l3,2h4l3-4l2,3
		v1h2l2-1l4,1l1-2l3-1l2-4v-2l-2-3v-2l2-1l1-2l7-1l4,1h2h2l3-1l-1-3l3-5h1l2-2l2-1l1-1l1-2v-1l3,1l3-2l1,1l1-2l2-1h3h1l1-1l-1-1v-4
		h2l2-1h2l2,2h1l1-1l1-1l1,1h2l-1,1h1l4,2h2l1-1v-1l2,1v-2l2-1l2-1v1l1-6l3-2l1,4l2-4l1-1l-3-1l-1-1l2-1l-1-2l-1-2l2-1v-1v-1l-1-1
		v-1h2l1,2h2v-4l-1-1l3-1v-1l2-4l1-2l1-4l2-1l3,1l4,2l4,2l4,1v2h3l-2,5l2,1h1h1l5-1l3,3l2-1l2-1l1,2l2,1l3-1h1l4,1l2,1l-1,1v2v1h1
		l1,1h1v-1h1h1l2-2l3-3v-1l2-2v-3l3-2l2-1h4l-1-1l1-2l1,1l4,1h2v-1h3l1-1l1-1l1,1l5-1h1l1,3h1l3,1h1l1,1l-3,2h2v1l2,3h1l2-1v-2l2-1
		v-1l1-2l-1-1h5l-1,1v1l1,2h1l1,2l2-1h3v1l1,1h-1v2h-2l-1,2v1h2v-1l1,1l2,1v1h1l1,1l-3,2l1,1h-1v1l-2-1l-1,2l1,1h-1h-1v1l-1,1v1l1-2
		l2,1v2h-1l-1,1l-1,1h-3v1l-1,1h-2l-2,1l-1,1h-1l-2,2l-1-1h-1l-3-3l-2-1l-1,1l-3,1l-1,1l-1,1l-1,3l2,2l-1,1h-4l-4-1h-5l-1,1l-1,2
		l-4-1l-1-1l-1,3h-1h-1l-3,2l1,2v3l3,2l1,4l-1,2l-1,1l3,2l2,1l-1,2h3l-1,4l-4-1l-4-1h-2l-1-1h-2l-4,2l2,3l-1,1h-6v1l-3,3l1,3l-2,1v1
		l1,1v2l-4,4v2l-3,2l-3,5l-1,1v1l-2-1v5l3,1h-1h4l6,1l8-2h2l2-1h9l1,1l3,4v-2l2,1l2-1l2,1l2-1l1,2l4,1l1,1v1v3h1v1l3,2v3h-2h-3l-1-1
		l-1,1v1v1l-4,1h-2l-1,2l-2,2h1l3,1h2l-1-1h2v-1l3,1h-1l1,2h3v1l5,1l-1,1l-2,1v1h-1h1l-1,1h1h-1v1v1h1v1h-1h-1h-1h-1h-2v1h-1h-2h-1
		h-1h-1l-2,1l-2,2v1v1v1h1h1v1l-1-1v1v-1h-1h-1h-1h-1h-1h-1h-1h-1h-1l-1-1l-1,1v-1h-1h-1h-1h-1h-1h-1h-1h-1h-1h-1l-2-1l-1,1h-1l1,1
		l-1-1h-1l-1-1h-3l-3-1l-2-1h-2l-2-1h-4l-5-1h-1h-1v1l-2,1h-1v1h-1h-1l-1,1v-1v1l-1-1v1l-1-1l-1,1v-1l-1,1l-1-1h-3h-2l-3,1l-4,1
		l-2,2v1v2h1v1h1h-1h1v-1v1v1h-1h-1h-1h-1h-1l-3,1h-2l-2,1l-1,1l-1,1v1h1l1,1h-1l-1,1l-1,1h1h-1h-1v1l-1,1h-1h-1h-1v1v-1l-1,1h-3h-1
		h-1h-1h-1h-1h-2l-3-1l-1-1h-1h-1h-1l-1,1h-2h-1l-1,1h-1v1h-1l-1,1h-1h-1v1h-1h-1l-3-1h-2v-1h-1h-1l-5-2h-6h-4h-2l-3,2l1,1v1l1,1h-1
		h1h-1v1h-1h-1l-3-1h-2h-1h-2h-1h-1h-2l-6,1l-3,1l-2,1l-1,1v2l-1,1l-3,1l-1,1l-4,1l-1,1l-1,1v1v1h-1h-3l-3,1l-2,2l-1,1l-1,1v1h1v1
		h-1h-1v1h-1h-2h-1v-1h-1l-1-1l-1-1h-1l-1-1h-1h-1h-1h-2h-1l-2,1l-2-1h-1v1h-1l-1,1v-1h1h-1h-1v-1l-1-1l-1,1v-1v-1h-1h-1v-1h-1l-1-1
		h1h-1v-1h-1h-1v-1l-1,1v-1h-1h-1l-1-2l-1-1h-1h-1h-2v1h-1h-1h-1v-1h1h1v-1h1v-1v-1h1l1-1l-1-2l-1-3l-2-1l-2-1v-1l-2,1h-1v1h-1h-1
		v-1h-1h-2h-1v-1h-1h1v-1l-1-1l-2-1l-2-1v1l-1-1l-1,1l-1-1v1h-1l-1,1l-1-1h-1h-1v1h-1h-1h-1v1l-1-1v1h-1v-1v-1h-1h1l1-1h-1v-1v-1
		l-1,1v-1h1h-1h1v-1v-1h2v-1v-1l-2-1h1l-1-1v-1h1l1-1h1v-1h-1l-2-2l-1-1l-2-1l-3-1h-5l-8,2l-2,1l-1,1h-1v1h1l-1,1v1v1v-1h1h-1h1v1
		l1,1l1,1v1l-1,1l1,1h-1v1v1v1l1,1h1h-1h-1v-1h-1l-2-1l-1-1v-1v-1h-1v-1v-1l-1-1v-1h1h-1l-1-1l-2-2h1v-1h1l1-2h-1l1-1h-1h1v-1v-1h-1
		v1h-1v-1h-1v-1h1v-1h1v-1v-1h1l1-1v-1v-1v-1h1v-1h1h1l-1,1h1v-1v1h1h-1h1v1v-1h-1h1h-1v-1l1,1h1l1-1v-1v-2v-1l-1-1v-1l-1-1v-2h-1
		v-1h1l-1-2v-1h-1h1l-2-3h-1l-1-1v-1v-1h-1h-1h-1v-1v-1v-1h1l-1-1v-1l-2-2l-2-2l-2-1l-3-2v-1h-1h1v-2l-2-2l-1-2l-3-3l-2-3h-1h-2v-1
		v-1h-1v-1h1v-1v-1l1,1v-1v1h1v1h-1h1v1l1,1v1h1h1v1v1h1l1,1h1h1v-1h-1h-1v-1v-1l-2-1l-1-1l-1-2l1-1v-1l-1-1l-1-1h-1v1v-2h-1h-1
		l-1,1h1v1h1v1v-1h-1h-1v1h-1h-1h-1l1-1h-1h1v-1l-1-1l-1,1v-1v-1h1v-1h-1h1v-1v-1l-1-1h-1l1-1l1-1v-1l-1-1h-1h1h-1v-1h-1h1h1v-1h1h1
		v-1v-1v-1h-1v-1h1l1-1h1h1l1-1h1h-1v1l3,1h-1v1l2,1h1v1l1-1h1h1h2l1-1l2-2l2-2l1-1l2-2l2-3l1-3v-4v-3v-3l-1-2v-1h1h1v-2l-1-2v-2v-1
		l-1-1v-1v-1v-1l-1-1h1l-1-1l1-1l-1-3v-1l-1-1h1h-1l-1-3l1-1v-1l-1-3l-2-2v-1v-1v-1v-1v-1l-2-2h-1l-1-2v-1l-1-1v-1h-1l-1-1l1-1h-1
		l-2-3l-2-1v-1l-2-1v-1l-1-1v-1l-2-1l-2-2l-1-2l-2-2h1h-1l1-1v-1h-1v-1l-2-1l-1-1l-1-1l-1-1l-2-2l5,1l-1-5l4-3v-1l2-1l-3-3l1-2h2h1
		h2h1v-6l1-2h3h1h1l5,4l1-1h1l-1-1h1l2,1l1-1l6-9v-4l3-4l-2-4l4,3l4,6l-2-5l1-5l4-1l5,8h6L164,506z"/></g></svg>