<svg xmlns="http://www.w3.org/2000/svg" xml:space="preserve" viewBox="179.3 0 902 800"><g fill="#FFB647" stroke="#FFF" stroke-width=".5"><path d="M825.3 367.1v.9l-1.8.7-.6 1.5-2.5.7-3.2-4-2.2-1.8-1.9-.3-2.4 1.5-2.1-1.3.6.6-.6-.4-3.4.9-2.5 4.7-1 1-2.1.9-2.8.1-1.8-1.2-1.5.6-2.9-2.8-2.2.7-11.1-.9-3.3.8-1 1.2-2.2 1-2.4-.1-1.9-1.3.1.3-1.3.1-1.9-1.5-2.2-.1-.7.9-1.5-.1-.6.7-.7-.9-.7.4-2.7-1.2-4.9 1.3-4.4-1.2-1.5 1.2-3.1.4-5.9.1-2.7-.6-1.2.7v-.6l-4 5.9-.9.9-2.8 1-1.3 2.7-4.1 1.2-4.4-1h-2.4l-3.8 2.4-2.9.4-2.9 1.8h-.9l-1.6 1.9-1.2 3.2-2.8 3.8-.9 3.7h-1l-.9-1-1.6.1-.9 1.8.7 3.5-1.3 1-.9-.1-4.9 2.4-1.5-2.1-1.8-.9-1.5.3-2.2-1.3-.7.4-2.5-3.4-2.2-1.9-4.7.1-2.8-5.2-1.5-.6-1.5-3.5-1.5-1.3-2.9-6.5-1.2-.3 1.5-.7-.4.4.6.1.1-.4-.1.6.7 1.5.1-.6.1.4 1-1.9.3-1.3-.4-.7h-1.5l-1.3-1.9-.9.3.4-.3-.7-.3.1.7-.7-.7-.6.6-1.5-.9-1.9-5.2 3.4-2.8-1.6-.9-1.9-4.6-3.2-4-9.4-6.2-4.1-1.9-2.8-2.2.9 1.5 3.2 2.7-4.4-3.8-.9-.1.6.6h-.4l-4-1.8-10.9.9-1.5 1.2-1.5-.6-.4-2.5-.7-1 .4-1.2-.9-1.9v-4l-.9-1 .7-.4-1-2.5.3-.9-.9-.6-.3-1.2-.7-.1-.4-1.6.6-.3.1-2.4 2.1-2.2 1.3-5.5 1.2-.3 3.7-3.8.7-2.8 1-1.5-.1-2.8 2.2-1h2.9l.1-1.3 1-.7 1.6 1.2 2.2-.1.9-4.1 1.3-2.5-.6-.3v-.7l1.3-1.6 3.4 1.5h2.1l-.6 3.4h1.5v.6l.9.4 1-.4 2.8.6.9-.4 1 1 .6.7.1 1.9 1-.3h.4l2.8 1.2.4-.3-.3-.9 1-.9-.4-.4 1.5-.1 1.8.4.4 1.6 1 .9.1.1.9.9 2.1.4.6.6 1.5-.1.9 1 2.7-2.2 2.7-.7 4 .1.7-2.7 1-1-.9-1 .1-.9 1.8-1.3.1-1.2 1-.9 2.1-.1.7-.6 1 .3 1.2-.9 1.6.7v1l-.4-.6-.4.3.4.7-1.8 1.2.3 2.1 1.2.3 2.8-2.8 2.1.3.3-.9 1.5-.6-.1-1.2.6-1 .1-.1V293l-1.9-3.4.6-1.9-1-1v-.9l1.5-2.5 1-.7h1.5l.1-1 2.8-1.9-.1-.4.6-1 .7.4-.3-.7.9-1.5 2.5.3-.1-.7.7-.9 1.5-.7 1.3-1.6.4.4.1-.9.3.6.1-.6.4.4v-.7l.7-.1v-.1l-.7-1.9 3.5.6 2.1-1.2 1.5.6.3 1.2 2.4.6 2.8-.1.7 3.5 6 2.1.1 1 1.5.3 1.8 1.3 1.2 1.9.3-.4.7.3.3.7.7-.3 3.5 4.1 6.6 2.9.7-.1-.4-1.6.6-1 5.3 1 8.7.6 2.4-.3 1-.9.3-1.2 1-.3.7-.3 1.6.6.4-.6 4.6 1.6 1-.6.3-2.2.6-.1 1.3.4.3 1.6 2.4.6 1.8-.4 1.9-1.8v-1l.1-.4 1.9-.6.1.1 1.8 1 5.6.9 2.8-1.9 2.5 3.5.3-2.2 1.2-.9h2.5l.9.9.7-1.2.9-.4.3.4v-.4l1.6-.7.1-.6.3.3.4-1.2 3.8 1.9 2.7-.9h.4l1.3 1.2-.1 3.8 3.5.9-.1 4.9 1.8.9.3 1-.7 2.5.3 1.6-4.3 5.2 1.2.6h.6l3.7 1.9 3.2.3 1.6 1.2 1.9 3.2 3.2 2.5 1.9-.6 1.6 1.3.9-.6 1.6.7.6-.6.7.3h.3l.3.4-.9 1.2-.6 3.4.6 2.4-.7 1.3.4 2.4.3.3 6 9.7 1.5 1v-.9l2.9.6 4.4 3.4-1.9 1-1.3 2.4-3.7 4-1.9 7.8-2.1 4 .1 2.1-.4.6H829l-1 1.9-.9.1-.6.7.1 2.1-1.6.7.3 1.6zM833.8 97.4l.4.7h2.8l2.1 2.1 2.5-.4 3.8 2.7 1 .1.7-.3.4-.4 3.7.3 1.2-1.3-.1-.7 1.8-3.2 1.3-1.3-.3-1.6h-1.6l-.6-1.8-1.3-1 .3-2.9-1-2.1 1-2.9-.3-1 2.8-3.4-.1-.9-1-.4.7-2.5 2.7-2.8-.4-2.7.9-1.8 1.5.7.9-.4h.1v-1.6l1.8-1.2-.9-.7h.9l.1-2.1h4.6V60l.6-.6 2.2-.1 1.9-2.2h.9v-.9l1.5-.1.7-1.3-.4-.7.1-2.7 1.5-1.2.1-1.9 1.3-1 2.4.1-.3 1.3 1.5.9.7-.3.9 1.3 2.2 1.6v1.3h1.3v1.3l.6.3.3-.9h.6l.1-.9.9-.9 2.5 1.8 1.3-.7 1 .3 1.5-1.9.9.1.4-.9 2.2 1.6.6-.1.1.7 2.1 1.2 1-.6 2.2 4.3 1.5.1.3 1.2 1.9.6.9-.3.3-.6 1.5.3 1-1 1.5.1 1.9-.7.6-.7 3.4 1.2.1 1.2 1.2 1 1-.6.1-1.2 1.5-1 2.5 1.8 2.2-.4 1.5.4.4-.6 2.4.4.4-.6 2.5.7.1.4.3.1.9 1.2.4 1.9 2.5.6-1 3.7.4.6-.6-.3-.6.7v.7l.7.4-1 1-.4-.4-.4.4 2.2 5.5-.9 1 1.9.7-1.2.7.9.9-2.5 7.2-.1.9.7.4-.9.7.3 1.8-1.3 3.8-.6.3V97l-.4.9-.1-.6-.7.3-.6 1.5-.7-.3-1 1.5 1.8 1-.4.1-.1 1.6.6.7-1 .4v.6h-1l-.4 1.8h-1.2l-1.2 1.2-.6 1.9-2.8.4-.1 1.3-.4-.4-2.4 3.2v1l1.3 1.6-.3 1.8 2.1.3 1-.4.7 3.1-2.1 2.8-2.2.3.4 1.8-1.3 2.9 2.1 2.2-1 1.3.9.6-.1.7.9 1.3-.3 2.2h-.6l-.1.7-1.6.1-1 3.5-1.6.4-.3 1-1.3-.4-.4.6v2.1l.7.1.4 1.5-.4.7.6-.3v.6l.6-.3 1.3 1-.7.3.9 1.8v.4l.4.3-1.6 2.7v.3l-.6 1.6 1.5 3.2-1.8 1.8-.1 1-2.1.6v.7l-.6-.4.4.9-.9.7-1.6-.4-2.7 1.9-.4-.1-.4-1.5v.3l-.7-.3h-.7l-1.6.1-1.8-.9-1.5-1.3v-.9l-2.1.1-1.3 2.2-.3 2.7-2.8 1.6-.9-1-1.9.7.4 2.8 1.8.6 1.2-.4-.3 5 .9.9.1 1.2-2.5 1-.6.7 2.4 2.8.1 1.2-2.4 1.3-1 1.8h-.9l-.4.6.7 1.6-1.8 1-2.7.9-2.1-1.2-1.3 6-1.2.6-.7 1.2.6 1.8-.6-.1-2.1 1.6-2.9-.1-1 2.7-2.2.9v2.8l1.6 2.2-2.9 1.8-1.6-1.3.4-.9-.4-1.5.3-1.2-.6-1.3-.4.4-2.2-1.2-4.3.7-.7.6-.9-.1-.3.6-.7-.4-.9-2.2 3.2-1.3.4-.7-.3-1-2.8-2.2-3.8-.1v-1.5l-1.2-.7-.6-1.6-.3-.6v-.7l-.7.7v2.7l-.6.3-.7.6-.9-.4-.7.3-.4-.3-1.9-.3.4-2.8-1.5.6-1.5-.9-1.3.7-5.9-6.3-1.2 1.8-.3-1.3.4-.9.9-.1-1-1.2-.3-.1-1.9-2.5-1-.4v-.6l.3-.4.3.3 1.6-2.8 2.1-1.2-.4-2.5.3-2.1.7-.9 2.9 1.6 2.1-1.8-.7-.9 1.2-3.8-1-2.7.7-1.2.1-1.9-.7-1.8-.6-.1-1.9-2.5.4-2.5-.4-.9-1.3-1.2-.4-.7-5.7-5.9-2.1-.7-1.9-1.8-.4.1-1.9-2.1-3.7 1.3-1-1.3-2.7-.6-1.2-5.6.7-2.4-.3-1 1.6-.9.9-4 2.7 1-.3 1.6.6.6 3.7-1.2v-.7l-.7-.1V127l-1.2-1.3.6-3.2-1.2-1.9v-1h2.8l1-1.9.3-.1h.6l.6-1.2 2.1-.1-.1-1.2 1.5-2.1-1.3-.6.1-.9-2.1-1.9 1.3-2.1V106l-1.5-2.8v-3.4l.5-2.4zM673.5 7.5l.4.9 2.1.6-.3.7.9.6.4 1.3 3.1.6-.6.6-.3-.3.1.9.4-.4-.4.7.9.1.3-.4.7.4 1.2-.9 1 .6 2.9-.3.9.4 3.5-.6.7 1.3.6-.4 3.1.3 3.2 3.4 3.7-.6 4.4 1.5 3.5-.1 2.1 1 1.5-.1.1.7.9-.3 4.7 1.8 3.1.7 4.3.1v.7l-1.2 1.3.9 2.4-.1 1.9-1 .6-.1-1-2.1-.7-1 1.8-3.8.6.4 1.2-.7 2.5-1.6-.3-1.3.6-.1-.1-.9.1-1.2-2.4-1.6-.6-2.1 1.5-1.3 2.1-1-.6-2.2.1-1 4.3h-1.5l-.3-.6-2.4 1.2-.1.3-4.6.6-.7-.9h-1l-.6.4-.3 2.1-3.5-.3-.6 1.9-5.7-.7-2.2-1.3-1.5.9L677 45l.1.9-1.8.4h-1.5l-.7-.9h-1.2l.1-.7h-1l-1.8-1.5-.7-2.5-1.9.6-2.4-1.2-.7 2.4-1.6.6-1.6-1.5h-1.5l-.6 2.1-1.5-.4-.7-1-.4.4-1.3-.3-.1-.7-1-.7-.6 1-.9.1.1.9-.7.1-.4 1.6-.6-.3-.3.6-1-.6h-.3l.1 1.3 1.5.1v1.3l-1.6.3-.6.7-.9-.4-1.3.7-2.8-.6-3.1.1-1.5.3-1.5 1.9h-.8v-.9l-2.1-.9-.7-.7.1-1.8-1.3-1.6h-1.5l-1.9-2.5v2.2h-.6l-1-1.3.6-1.2.6.3v-1.5l1-1.3 1 .7.7-.9h.9l1.6-1.8.3-1.2-1.3-1.6-1.2.3v.6l-2.2 1.3-.7-.1-.9-1.6.6-1.2-.1-.9-1.2-.3-.4-.9-.4.4-1.6-1.6-.4-1.3.4-1.9-1.6.1-1.2-1.5.1-2.2-.3-.7-.9.4-.7-.4.1-1V20.2l2.8.1.6-1.6 1.3-.9.9-1.3-.4-.6.4-1.2 1 .1-1-.9.1-.9 2.2.1.9-.9.3.3v-.7l2.2.3.6.6 1-.7 1.8.9 2.7-.6.9 1 .6-.7 1.5.1 1.9-.7.3.6.6-.1.1.6h2.2l.3.6 2.4-.1.1-1.2 1.6 1 1.3-.4 1.6.4 4-1.5.4-.9 1.3.6.4-.4.3.7.6-.3v.9l1.2-.3 1.8.7 3.8-1.8.9.9 1.5-.4.7-.9-.4-.1 1.3-.4v-1h1.3l.9-.7v-1h.9z"/><path d="m776.2 32.6-.9-2.9 1.6-.7.7.4-.7 1.5v1.5l-.7.2zM764 15.3v.6l1.5-.4.4.9.9-.1.6 1.2 2.8.6.3 1.2-1.2.3 1.2 1.5.7-.4 1.8.4 1.8-.4v1l.9-.6 2.9.7 1.3 1.8 1.6.6-.1 2.8H780l-.7.7-.6-1.3-2.2 1-.6-.6-1.2.4-.4-.4-.3 1.2-1.8.4-.6 1.3-2.1.6.3 1 .3.4.7 4.1H768l-3.2-1-1.2.1-.3-1-1.5-.6-1.3 2.1v.3l-.9 1.2-1.9.9-.4 1.2h-2.9l-1-.6.3 2.7h-1.6l-1 1.5-1.5.7-1.5 3.7.7 1.2 1.8-.1-.1.9 2.7-3.1 1.5 1.5-1.5 1.6-1.8-.7.7 1.2h-1.2l1 .4-.6.7v.3l1.6.4.3-1.9 1.2.6.9 2.4-.3 1.9-1.6.7-1.2-1-.7 1.9-.7-.3-1.9.9-.1-.6h-.7l-.3-3.4-.6.6.1.7-.7.3.1.6-.9.4.1.9-1.5.3-.7-1.6-2.1.1-1.3-1.2V53l1-.9.9.3.4-1.3-.9-.7-2.1 1.5-1-.7.1-2.9-.6-.3-.1-2.2-4.4-.9-2.2-3.4-2.5-1.5-.6 1.2-1.8-.4-1.5 1.5-1.9-.9-1.3 1-1.8-.4-2.1.3-.1-1.9h-.9v-1l-2.7-1.5-.7-1.3.6-1.8-.7-.9.4-.4.9-.1.1.1 1.3-.6 1.6.3.7-2.5-.4-1.2 3.8-.6 1-1.8 2.1.7.1 1 1-.6.1-1.9-.9-2.4 1.2-1.3v-.7l1.6.3 2.1-.6 1.5.4 1.8-.9.6.9h1.8l4.3-.7 2.5-1 1.2-1 1 .3.3-.6.4.6.6-.9 2.2.6-.6-.1 1.3-1.6 4.3-.4 1-.9 1 .1-.1.7.9.6-1.6.3-1.3 1v.6l.9.3-.1 1.3.4-.7.1.4.9-.6-.6-.6h.6l.1-.9 1-.1-1-.6h1.5l.4-.9 1.3-.1 1.8-1.3 1.3.1 2.2-.6zm-21 37.8.6.1.1 1.2-.4.3-.4-1.2.1-.4zm-2.3.3.1.3v.3l-.4.1-.3-.4v-.2h.1l.5-.1z"/><path d="m789.9 64.9.4.6-.7-.3.3-.3zm-2 .3-.3.1V65l.1-.1v-.1h.4v.2l-.2.2zm6.6-9.8 3.8-.4 3.5 1.5 1.6-.3.6 1 1.2-.7-.6 2.1-.6.7-.4-.1-.3 1 1.3 1.5 2.2-.9.1 2.1-1.2.4-.3-.6-3.2.1-.9-1.3-1.8-.1-.6.6-1.9-.3-.7-1.8-1.6-.6-1.8-1.6 1.2-2.2.3-.7.1.3v.3zm-54.1-2h.4l.1.1v.3l-.4.1-.3-.4v-.2l.2.1zm2.9-.2.3.1.1 1.2-.4.3-.4-1.2.1-.6.3.2zm-109.2-5 2.1.9v.9h.6l1.5-1.9 1.5-.3 3.1-.1 2.8.6 1.3-.7.9.4.3-.7 1.6-.3v-1.3l-1.5-.1-.1-1.3h.3l1 .6.3-.6.6.3.4-1.6.7-.1-.1-.9.9-.1.6-1 1 .7.1.4 1.3.3.4-.4.7 1 1.5.4.6-2.1h1.5l1.6 1.5 1.6-.6.7-2.4 2.4 1.2 1.9-.6.7 2.5 1.8 1.5h1l-.1.7h1.2l.7.9h1.5l1.8-.4-.1-.9 1.6-3.1 1.5-.9L682 42l5.7.7.6-1.9 3.5.3.3-2.1.6-.4h1l.7.9 4.6-.6.1-.3 2.4-1.2.3.6h1.5l1-4.3 2.2-.1 1 .6 1.3-2.1 2.1-1.5 1.6.6 1.2 2.4-.4.4.7.9-.6 1.8.7 1.3 2.7 1.5v1h.9l.1 1.9 2.1-.3 1.8.4 1.3-1 1.9.9 1.5-1.5 1.8.4.6-1.2 2.5 1.5 2.2 3.4 4.5 1 .1 2.2.6.3-.1 2.9 1 .7 2.1-1.5.9.7-.4 1.3-.9-.3-1 .9v.8l1.3 1.2 2.1-.1.7 1.6 1.5-.3-.1-.9.9-.4-.1-.6.7-.3-.1-.7.6-.6.3 3.4h.7l.1.6 1.9-.9.7.3.7-1.9 1.2 1 1.6-.7.3-1.9-.9-2.4-1.2-.6-.3 1.9-1.6-.4V51l.6-.7-1-.4h1.2l-.7-1.2 1.8.7 1.5-1.6-1.5-1.5-2.7 3.1.1-.9-1.8.1-.7-1.2 1.5-3.7 1.5-.7 1-1.5h1.6l-.3-2.7 1 .6h2.7l.4-1.2 1.9-.9.9-1.2v-.3l1.3-2.1 1.5.6.3 1 1.2-.1 3.2 1h2.9l6.6-3.5 1.3 1.5 2.2-.3.9.6-1.6 2.7 1.2.7.4-.3.3.7-.9 1.3.7.4v2.1l-1.5.4 1.3.7 3.4.1 1 1.2-.1.6 2.5 1.8-1.6 1.6-2.9.4-2.2-1 .1-.9-3.1-.9-2.4 3.7 2.8 2.9h.4l-.6-.6 1.2-1.6 1.3.7 1.5-1.9.4 1.2-2.1 3.7 1.3.9-.5 1.9 4-.4.3 1.5h1v.1l1.5 1.8 2.1-.1 1.2.7.1 1.3-.1.1.4 1 1.2.6-1 .9-.6-.4-.6.4-1.3-1-1.5.1-.9-.4-.6.7-2.7-.4.9 2.8-.6.1-1.2 1.8-1.2.6.4.4 1.5-.3.6.4-.1 1.5-.7.9 1.9 2.2-.7 1.2.3 2.9-1-1.5.1-1h-.9l-.1 1.6h.9l.9 1.3-1.9.4.3 1.2.3.1-.4.7.7 3.7-.6 1.8-1 .9 3.8 5.9 3.8-.1.9 2.7v.4l1.3 1.2 1.2-1.2 1.8-.3.6-3.5.1-.4.7-.9.9.3.6-.4 1.2 1.2-.1 1-1.9 2.8.4 1.2 1.6-.3 1.2 1 1.9-.4 1.8.6 1.3-3.1 1.3-.9v-2.4l1.2.4 1.2-.4.7-1.2 4.4-.6 1.5.7.6 2.2 1.3-.7 4.3.3v1l-1.3.7 2.1 3.2-.6.4.3 1.8 4 1 .3.3 1 1h.7l4.3-2.5v3.4l1.5 2.8v1.5l-1.3 2.1 2.1 1.9-.1.9 1.3.6-1.5 2.1.1 1.2-2.1.1-.6 1.2h-.6l-.3.1-1 1.9H828v1l1.2 1.9-.6 3.2 1.2 1.3v1.9l.7.1v.7l-3.7 1.2-.6-.6.3-1.6-2.7-1-.9 4-1.5.9.3 1-1 2.2 1.2 5.6 2.7.6 1 1.3-.4 1.8.6 1.9-.4.4-3.1-2.7-1.8 1.8-2.1-.7-1.2 1.5-1.2-.1-1.2.7-1.3-1.5-2.5 1.5-.6-.7-1.5-.3-.6-1.9-1-.3-.3-1.5-.7-.7-1.5 1.2-.9-.6.6-1.5-1.6-.3 1.2-.7.1-1.3-1.6.4-.7-1.2-2.5-.6-.3-1.2h-1.8l-.6 1-1.6-.1-1.9-.9-.1-2.4-1.5-.6-1.3.7-.4 1.2-2.9.1-1.8.7-5-1.6-1.9.6-.9 1.9-.7-.9-.7 1-1.3-.1-.4.4-2.4-.3-.7-.7.6 1.5-.1 1.8-1.6-.1-.9 1.6-1.6.7-.4.3-.1.1-.4-.1h-.4l-2.1.3-1.6 1.2-1.8 2.8-2.5 1.6-1.6 2.8-4.6 1.8-1.2 2.1-.6.1-1.6 7.4-1.9.3-1.6-.6-1 2.4-2.5 3.1-.9-.4-.6.1-2.1.3-.9.7-1.2.1-1.2.7v.9l-.6.6 1.8.4.4 1.3-.4 2.1-1.3.7-.3.7.4 3.7-1 1.5.7 1.3-4 .3-.9 1 .1 1.9-.9.4.3 1.2-1.9.3-1-1.5-.7.1.7 2.5-1.6 1.8.3 1.8-.7.4-2.5 1-1.5-.6-.3-2.2-.6-.6.3-1.2-1.6.4-.9.6-1.8-.7-.6 1.2.4 1-2.7 1.9-.1.3-1.9 1.3-.1 1.8-2.8 1.2-.4.1-.4-2.5-1.9.4-.9 1.3-.4-.1-1.6 1.9-1.2.3-1.3.1-.4-1.2-2.1-.1h-.3l-1.5.1-.9-.3-.3-.1-1.3-2.5v-2.8l1-2.4-3.4.6-1.8 2.2-1 .4h-2.1l-.3-.3-.4-.3-.6-.3-1.2-.3-.3-1.5-1.2-.1-.3-1-1.3-1.2-1.9-.1-1 .7-1-.3-.4-.6.7-1.3-1-1.9-3.4 2.1-1 2.2-2.4-.7-.4-.3-1-.7-.1-.3.1-1-3.5-.9.9-.4-.1-.7.6-.4-.4-.3.7-.3-.7-.6-.1-.1-1.5-.7.4-1-1.2.3-.6-1.2-2.9-1.5-4.7 2.8-.6.6-.3 1-1.9.1-.9 1.5h-1l-3.2 1.6-.7 1.2.3 1.5-1.2 1-3.1.3-1 1.2-1-1.5-1.5 1.6-1.2-.4h-.7l-.1.4-1.2-.3-1.3-1 .1-1.6 2.8-1.8.4-1.8-2.2-2.4-.4-2.1 2.1-3.2-.1-2.1-1.6-1 1.9-4.9-1.5-4.9.6-2.8-.4-1.9 1-.1v-.7l-.3-1.2-1.5-1-.4-2.5-2.5-2.8-.4-1.3.7-.4 2.2.6 2.1-.4 2.1-3.4-.6-1.6 2.8-2.7.3-1.5 1.6-2.1 1.9.1.4-.6.7.9 2.1-1.9.1.4.7-.1.6-.4-.4-.7 1.6-.4 1.3-2.5 1.5-.6-.6-.6.1-.9.9-.4.7.7 1.3-.4-.6-1.3 1.5-1.2-.4-.9 4.6-6.6-.6-1.2-1.2-.4-2.5-2.8-5.9-1.3-.6.9-1.6.6-2.1-1.6v-2.1l-.7-1.2 2.1-6.6-2.2-.7 1-2.5-1.6-1.8-1.3 1.3-3.1.4-2.1-.4-.9-2.4-1.2-.3-1.2 2.5h-4.6l-.6-1.2-.9-.3-.1-1.2 1-1.8-.6-1.5-1.3.1-.9-1.3 1.2-.6.6-2.1 1.5-.4.3-2.4 1.8-.9.6-1.3 1.6-.7 1.9 1 .1-.9-.1-.4 2.4-3.5.1-3.4-1.3-.4-.6-.7-1.6-.3-.9-1v-.1l1-1.2-.3-1.3.6-.7-.6-1.5-1.3.3-2.9-1.8-1.2.1-.6 1.3-2.5-.7h-1.4l.7-1.2-.3-1.3 1.2-1.6-.6-.7v-1.8l1.6-.9-1.5-2.8 1.3-1.5 1.5-.1.6-1.6 1 .7 2.8-2.5v-.7l1-1.2-1.2-2.8 1.5-.4-.3-1.3.1-.2z"/><path d="m736.4 168.3.9-.7 2.1-.3.6-.1.9.4-.6 1.2.6 2.4-2.8 1h-.7l-.7-.1-.3-1.2h-.7l-1.8-.4.6-.6 2.5-.1-.6-1.5zm29.5-25.8h.4l.4.1.1-.1.4-.3 1.6-.7.9-1.6 1.6.1.1-1.8-.6-1.5.7.7 2.4.3.4-.4 1.3.1.7-1 .7.9.9-1.9 1.9-.6 5 1.6 1.8-.7 2.8-.1.4-1.2 1.3-.7 1.5.6.1 2.4 1.9.9 1.6.1.6-1h1.8l.3 1.2 2.5.6.7 1.2 1.6-.4-.1 1.3-1.2.7 1.5.3-.6 1.5.9.6 1.5-1.2.7.7.3 1.5 1 .3.6 1.9 1.5.3.6.7 2.5-1.5 1.3 1.5 1.2-.7 1.2.1 1.2-1.5 2.1.7 1.8-1.8 3.1 2.7.4-.4-.6-1.9.4-1.8 3.7-1.2 1.9 2.1.4-.1 1.9 1.8 2.1.7 5.7 5.9.4.7 1.3 1.2.4.9-.4 2.5 1.9 2.5.7.1.7 1.8-.1 1.9-.7 1.2 1 2.7-1.2 3.8.7.9-2.1 1.8-2.9-1.6-.7.9-.4 2.1.4 2.5-2.1 1.2-1.6 2.8-.3-.3-.3.4v.6l1 .4 1.9 2.5.3.1 1 1.2-.9.1-.4.9.3 1.3 1.2-1.8 5.9 6.3 1.3-.6 1.5.9 1.5-.6-.4 2.8v1l1.8 1.3-.4.4 1.8 4 4 .4v.1l1 .3 3.4-.9.9 2.1-2.5 1.2-.3.9.6 1-.1.6-.7 5-2.4 3.5.6 2.1-.6 1-1.5.4-1-.6-1.2-.4-1.9.9-2.4 4.6-2.4 1.3.7.1.1 2.4-.6.3.3.9-.4 1-.6.1.3 1.2.9.1-.3.3h.9l-.3.9h.9l-.4.4.6-.3.1-.1.3.9h-.6l.7.3v.7l-.1.1 1-.7.1.3.1.4v-.9l1 .3-.4.4 1 .1v.6h.7l1.2 1.2.3-.4.3.1 1.3.6h.3l.9.1.3.1 1.3.6.4-.4 1.8 1-.7 5-2.9 5.3-.3 3.1 1.5 1.2 3.2 4.9 4.4-.3 1.3-.7 1.6.3.4 1.8 1 .9-.4 1.9.6 1.6-.1 2.1-1.3.6 1.9 3.8-1.9 2.1h-2.5l-3.5-2.8-.1-1.3-2.7-.9-2.1.6-.4.3-3.7 3.1-.9-1.3-.7.3-2.5 2.5-.1 3.4-1.5 1-.4 1.3.7 2.7v5.5l-4.4 3.4h-3.2l-.9-1.5v-.1l.4-.7-1-1.3-.2.7-1-.9-1 .1v.7l-1-.1.4.7-5 2.9-2.9.9-2.7-1.3-.7.6-.6 1-1.5 1.9-4 1.8-2.2 4.9-2.5 2.1-.4 2.1-3.2-.3-3.7-1.9h-.6l-1.2-.6 4.3-5.2-.3-1.6.7-2.5-.3-1-1.8-.9.1-4.9-3.5-.9.1-3.8-1.3-1.2h-.4l-2.7.9-3.8-1.9-.4 1.2-.3-.3-.1.6-1.6.7v.4l-.3-.4-.9.4-.7 1.2-.9-.9h-2.5l-1.2.9-.3 2.2-2.5-3.5-2.8 1.9-5.6-.9-1.8-1-.1-.1-1.9.6-.1.4v1l-1.9 1.8-1.8.4-2.4-.6-.3-1.6-1.3-.4-.6.1-.3 2.2-1 .6-4.6-1.6-.4.6-1.6-.6-.7.3-1 .3-.3 1.2-1 .9-2.4.3-8.7-.6-5.3-1-.6 1 .4 1.6-.7.1-6.6-2.9-3.5-4.1-.7.3.1-.7-.7-.1-.3.4-1.2-1.9-1.8-1.3-1.5-.3-.1-1-6-2.1-.7-3.5-2.8.1-2.4-.6-.3-1.2-1.5-.6 2.4-.6 2.2-6.3.7-1.2 2.7.1.6-2.8-2.9-1.3-.7.1-1.6-5 3.4 1.3 1.6-.6.1-.1.3-.9-.7-.4-.4-.1-.7-1.5 1.3-3.1h.3l1-1.8 2.8.3 3.7 1.5-2.4-2.4-.3-1.8-.7-.4-1.2-3.5 2.2-.4.1-1.9 1.5-3.1-.7-1.3-1.9 1.5-.3.1-1.2 1.2-2.2.4-.1.1-1.5 1-3.2-1.2-4.3-4.9-1.2-.3-2.9-3.5-.7-.6-1.2-1.5 1.9-2.4v-.4l.9-3.2-1.3-2.1.6-.3-.3-2.1-1.6.1-1.9 2.4-2.2-.4-.1-3.5 1-1.8-1.6-1.6-3.2.7 1.6-5.5-.1-6 1.3-.9.3.1.9.3 1.5-.1h.3l2.1.1.4 1.2 1.3-.1 1.2-.3 1.6-1.9.4.1.9-1.3 1.9-.4.4 2.5.4-.1 2.8-1.2.1-1.8 1.9-1.3.1-.3 2.7-1.9-.4-1 .6-1.2 1.8.7.9-.6 1.6-.4-.3 1.2.6.6.3 2.2 1.5.6 2.5-1 1.9.9.6-.9 3.1-1 .1-1.2 2.1-1.6.1-1.6.9.6.3 3.7h.7l.4.7.6-.4.4.7 1-.7.9-2.1 2.4-1.2 1.9 1.6v.9l1.8.1 1.2-1.2 1.9.9v.7l1.3 1.3 1.5-.1.1 1.2.7-.7.6.6h1.6l1.6 1.6 1.2-.9 1.5 2.1 1.2.3.9-.7 1.3.7.9-.6.1.7 2.2 1.2-.6 2.8-2.7 2.1-.6-.1-.6 1.6-.9.4.1.4.3.1-.1.3-.9-.4.1.7-.4.4v-1l-1 1-.9-.4-1 1.3-.3-.6-.7.1-.7.6.3.4v.1l.3.7 2.5.9 1.6-1.6.3-.1.6-1 1.5-.7.4.3 2.8-1-.4-1 .6-.1 1.2-1.2 2.8-.4.6-1.5 1.5.4.9-.4v.6l.9-.4 1.2.6.9-1v-1l1.8-.3 1.2 1.5 1.2.3.4-.4 2.5-.1.6-1.2h.1l.7-.4.3 1.3 1.6.1 1.5-.6 1.3-1.8-1.6-1.9.3-1.2.7.3-.7-1.6.3-2.1-.9-2.5-.6-.6-1.5 1.2-.9 1.6-.9-.7.6-3.4 1.6-2.1-.4-.9.9-1.9-1-1.8-1.8-.1-.1-3.8-1.3-1.3-1.3.1-.3.1h-1l.4-1.8-1.9-1.3.4-.9-.6-.7.6-.3v-.6l.3-.6-.9.9-1-.4-.3-1.6-.9-.7-.4 1.2-.7-.6-.7.3v-.5l-.9-.6 1.3-2.1-.6-.4.1-1.3v-.1l-.7-1-1.9-.3 1.8-2.8-.3-1.2 1.3-.9-.7-1.3h.7l1-4.3.7-.7-1.8-2.2.6-2.1-2.5-.6-.9-2.2-1.2-.7-1.3-.7zM188.8 790.6l.9.4.7 1.6-1.2 1.6-.4 1.8-1.2.6-.9 3.4-1.3-.4-1.6-1.9-3.8-.4-.6-.6.3-1.9.7-.7 2.2.7 1.8-.4 1.9-1.8-.1-1 2.6-1zm100.5-15.1.7.7-.3 1.5v-1.2l-.4 1.3v-.7l-.4.3.7 1.8-.3 1.8 1.9 2.2.3.9-.6 1 1 1.5-1 .4-.4 1.6.3 1.5-1.2.6-.6 1.8-4.9 1.8-.9 1.3-1.2.1-2.4-1-.6.3-4.6-3.8-1.9-3.4.4-4.7 1.5-.3 2.7-2.2.9-3.7-.4-.7 1-.1.6.6 1.2-.6 1.5 1.2 2.9-.4 2.4 1.3 1.2-.4-.1-1.3 1-1zm-74.4-1.6.6-.1.7.7h1.9l.4.9 2.7 1.2.6 1 .1 1.6-2.8 2.7-1.2.4-2.8-.1-1.9-1.5v-.7l-1.2-1 .1-2.5.9-2.1 1.9-.5zm20.6-7.2h1.5l2.1-1.2 2.8.3 2.1-1.2h1.6l3.2-3.1.7-1.8 1.2-.9 1.9-.4.6-1 4 .6 2.7-1 1 .3.4 1-.3 1.2-4.4 2.1-.7 1.5-4.4 3.4v3.2l-2.7 4.7v2.5l-4.9 5.6-1.9-.1-1.9 1.2h-2.4l-.4-1.9-1-.4V780l-1.8-1.6-2.4-4-.1-2.7-2.2-3.1-1.2-.4.3-.9 3.4-1.5 1 .7 2.2.2zm115-17.3 2.4 2.1.6 5.5-.9 4-1 1 .6 4-1.8 3.1v1.6l-.9 1.6-1 1h-1.8l-1 .9-8.3 1.9-4.6 5.5-5.7-1.5-1.3.6.6-2.1.4.4h1.6l2.9-.7 5.7-4.3.9-5.2 1.6-1.9.6-3.2 2.1-2.1 2.4-4.9-.1-1.2 1.2-2.8-.3-1.8 5.1-1.5zm3.4-.4-.1 1.2-.6.1-.3-.7 1-.6zm-164.5-4.1 2.1 1.2 1.9-.6 1.3.3 1 3.1 1 1.3-1.9 2.9.9 2.4-.4 2.5-3.2 5.3-.9-1-.6-3.1-1.8-2.5-2.2-5.9-1-1.5.1-1.2 1.5-1.9 2.2-1.3zm178.3-17 1.6.9.1 1.2-.3 1.3-1.5 1.2.7 1.9-.7 1.5v1.8l-.9 1.2-2.1 1-.4.7-1.9.1-1.9 1.3-3.7.6-2.1 3.1-.6-.9-2.8.1-.3-1.5 2.1-1.9-.1-2.8.7-2.1 2.5-2.1h1.9l2.2-1.9.7.3 1.3-.9 2.2.7.9-1 1.2-3.5 1-.9.2.6zm-1.7-2.8 1.3 1.2-1.3 1.8-1.6.3 1.6-3.3zm.1-5.7.7.6-.7.9h-.9l.3-1.2.6-.3zM988.2 73.4l-2.2-.3 1.3-1.9.1 1.5.8.7zm44.9 17.1.6 1.2 1.5.3-.3.3 1.8 1.9-.6 1.3v2.1h-.4l.9 1.8.9.3.1 1-.6.4-.3 2.2-1 .7-.1 1-1 .3-.7 1.2-1.2-.1-2.4 3.5-2.7 1.2-1.6 2.2-4.7 1.5-1 .7-.6 1.3-9.7 4.1-5.9 4-4.4 1.9-2.9 4-1.2 2.8.6-2.4-.7 1.8-.6.1v.4l.7-.1-1 1.9-1.2 1-3.7 1.2-3.5.1-2.5 1.3h-2.1l-2.9.9-.6.7.3-.6-9 1.9-4.6 2.5-3.8.3-2.2 1.3-.4.1.3-.6-1.5.6-1.5 2.4-1.8-1-3.1.6-2.7 1.2-5 5-2.8 4.3-1.6 1-.4 1.2-1.6 1 1.2 1.9 2.1.1-1.6-1.2h1.2l2.5 3.1 2.7.6-2.1 2.2-3.5 1.9-3.2 4.3-2.1.3-1-1.2.7.4v-.9l1.6 1 .4-.3-.7-.4 2.7-.4 1.3-2.4-2.1-.3-1.2.7-2.5.3.1.6-.4-.3-2.2 2.5-1 2.4-3.1-1.3.1-1.6-1.6-1.3-2.5-.3-2.4-1-.6-.9.7-2.4-.3-.1-.1-.1-.4-.4-.9.1h-.5l-.4-1.6-1.2.4-1.2-.4-.4-.9.6.4v-.7l2.1-.6.1-1 1.8-1.8-1.5-3.2.6-1.6v-.3l1.6-2.7-.4-.3v-.4l-.9-1.8.7-.3-1.3-1-.6.3v-.6l-.6.3.4-.7-.4-1.5-.7-.1v-2.1l.4-.6 1.3.4.3-1 1.6-.4 1-3.5 1.6-.1.1-.7.6.1.3-2.2-.9-1.3.1-.7-.9-.6 1-1.3-2.2-2.2 1.5-2.9-.4-1.8 2.2-.3 2.1-2.8-.7-3.2-1 .4-2.1-.3.3-1.8-1.3-1.6v-1l2.4-3.2.4.4.1-1.3 2.5-1 .6-1.9 1.2-1.2h1.2l.4-1.8h1v-.6l1-.4-.6-.7.1-1.6.4-.1-1.8-1 1-1.6.7.3.6-1.5.7-.3.1.6.4-.9V96l.6-.3 1.3-3.8-.3-1.8.9-.7-.7-.4.1-.9 2.5-7.2-.9-.7 1.2-.7-1.9-.7.9-1-2.2-5.5.4-.4.4.4 1-1-.7-.4v-.7l.6-.7.6.3-.4-.6 1-3.7-2.5-.6-.4-1.9-.9-1.2-.3-.1-.1-.4h.6l.3-.9-.7-2.2-.9-.3 1-1.2-.9-.4 1-1.2-.4-1.8 2.1-1.3 2.7 1.3 1-.1 2.1.7 2.8 2.1 1.3-.9.9 1 2.5.3 1.3-.4 1.9 1.9.1 1.5 1.5 1 2.5-1 .9.7 4.1-.3-.3.9 1.5.7v1.2l1 .7.3 1.6 1 1.2-.4.7.7.9-1.2 1.6 1.5-.1.7 1.6-1.9 1.5.9.4.3 2.1 4.1.3.4-1.3.7.4.7-1h2.4l.6-2.1 1.3.7.9-.6 1.6.7 1.6-.3 1.5.4 1.6 1.8 2.2-.1.1 1.2.7.4.3 2.2 2.1 1.9 2.8-.7.3-.9.9-.3.3-1.5 1.2-.7 1.9.4 2.2-1.2 1.5.9.9-.1 1.5 1.2 3.2.6v1l1.9 1.9 2.4.4.4-1 .9-.3 3.8 1 .1-1-.9-1.5h.7l.1-.9 1.8-.9 1.6-.3.9.7 1.9-1.5.4-1 .7.3.4-.7 1.8.6 1.2-1.5.7.9 2.9-.4 1.9 2.7 1.3-.6 2.2.1-.6.4.4.6-.7.9.6.1-.4.4.3 1 1 .4.3.9 1.3-.9.9 1.2.7-.6.7.7 1.5.3-1.5.9.4 1-.9-.1.4 1.2-.3.7h-1l.4.9-1.5-.7-.4 1-1.5-.7-.4-1-1.3.9-.9 2.4 1.4 3.5z"/><path d="m632.5 189.7 1.3 1.2 1.2.3.1-.4h.7l1.2.4 1.6-1.6 1 1.5 1-1.2 3.1-.3 1.2-1-.3-1.5.7-1.2 3.2-1.6h1l.9-1.5 1.9-.1.3-1 .6-.6 4.7-2.8 2.9 1.5.6 1.2 1.2-.3-.4 1 1.5.7.1.1.7.6-.7.3.4.3-.6.4.1.7-.9.4 3.5.9-.1 1 .1.3 1 .7.4.3 2.4.7 1-2.1 3.4-2.1 1 1.9-.7 1.3.4.6 1 .3 1-.7 1.9.1 1.3 1.2.3 1 1.2.1.3 1.5 1.2.3.6.3.4.3.3.1h2.1l1-.4 1.8-2.2 3.4-.6-1 2.4v2.8l1.3 2.5-1.3.9.1 6-1.6 5.5 3.2-.7 1.6 1.5-1 1.8.1 3.5 2.2.4 1.9-2.4 1.6-.1.3 2.1-.6.3 1.3 2.1-.9 3.2v.4l-1.9 2.4 1.2 1.5.7.6 2.9 3.5 1.2.3 4.3 4.9 3.2 1.2 1.5-.9.1-.1 2.4-.4 1.2-1.2.3-.1 1.9-1.5.9 1.3-1.5 3.1-.1 1.9-2.1.4 1.2 3.5.7.4.3 1.8 2.4 2.4-3.7-1.5-2.8-.3-1 1.8h-.3l-1.3 3.1.7 1.5.4.1.7.4-.3.9h.6l-1.6.6-3.4-1.3 1.6 5 .7-.1 2.9 1.3-.6 2.8-2.7-.1-1 .9-2.2 6.3-2.4.6-2.1 1.2-3.5-.6.7 1.9v.1l-.7.1v.7l-.4-.4-.1.6-.3-.6-.1.9-.3-.4-1.3 1.6-1.5.7-.7.9.1.7-2.5-.3-.9 1.5.3.7-.7-.4-.6 1 .1.4-2.8 1.9-.1 1.3h-1.5l-1 .7-1.5 2.5v.9l1 1-.6 1.9 1.9 3.4v2.9l-.1.1-.6.9.3 1.2-1.5.6-.3.9-2.1-.3-2.8 2.8-1.2-.3-.3-2.1 1.8-1.2-.4-.7.4-.3.4.6v-1l-1.6-.7-1.2.9-1-.3-.7.6-2.2-.3-1 .9-.1 1.2-1.8 1.3-.1.9.9 1-1 1-.7 2.7-4-.1-2.7.7-2.7 2.2-.9-1-1.5.1-.6-.6-2.1-.4-.9-.9-.1-.1-1-.9-.4-1.6-1.8-.4-1.5.1.3.4-1 .9.3.9-.4.3-3.1-1.2h-.4l-1 .3-.1-1.9-.6-.7-1-1-.9.4-2.8-.4-1 .4-.9-.4v-.6H635l.6-3.4h-2.1l-3.4-1.5-.1-.7-.9.1-.6.7-.3-.4-1.3.3-.7 1-1.5-.1-.7.7-2.2-2.9-.6-2.4-.7-.1-4.1-5.7-.3-1.5-1.5-1-.7.1 1.5-1.9-1-.1.7-3.2 2.4-4.1-1.2-.7.4-4.4 2.1-1.2 3.2-3.4 1.3-.1 1.3-1.9 1.2-.6.3-.7-.7-1.5 3.8-6-.4-1.5-1-2.1-1.8-1.2-2.9.9-1.2-.4-.4-.7.6-2.5-3.2-1.2-1-1-.3-2.1.6-1.3-2.9-2.9-.6-2.4.9-1.8.1-2.4-2.1-1.5-.6.3-.6-.4-.4-2.1-1.6-.3-1.5-2.2-1.3-.6-1.2-3.4-.6-.4 3.4.1 4.9 1.2 3.4-1.3 4.1.7.9-.6 2.4.3 2.1-.7 1.6-5.3-.4-2.1 1.3-.6 1.8-2.1.1-3.1.6-.6.1-2.4.9-1.6-3.1-5-2.4-.4-1.2-3.5.7-2.1 1.8-.6.6-1 1.6.1 1.5-.8zM550.5 86.5l.7.9-.9-.3.2-.6zm-.3-2.2.9 1.2-.6.9.3-.7-.6-1.4zm-.1-7.8-1 2.2v-1.5l.6-.9.4.2zm-3.9-4.9.6.7-.4.4-.2-1.1zm5.6-4.7.1.4.6-.1.1 1-.6.1.1 1h-.4l-.3-.4.4.1-.3-.4.4-.9-.9-.6.8-.2zm38.1-64.1.9-1.6.4.3.9-.6.4.6-.4 1.6.9 1.3-.9-.6v1.9l-.7.1.7.7h-1.3l1 .6 1.2-.7-.6-1.3 1.3-.3.4.7.7-.3-1-.9.7-.3v-.3l3.5-1.3 1.5-1.5V0l1 .9-1.5 2 .7.3.3-.9 1.5-.3.3 1.8.9.3-.3 2.1.4 1.2.3-1.5.7-.4-.1-1 1 .1V3.4l1.3-.3.4.7h1.9l-.3.9 4.9 2.1.7 2.2 1.6 1.8-.6.4.7-.3 1.8 1-.4.9h-.6l.7.3-.3.1.9-1 2.9.9 2.1-.4 2.8.3.3 1-.6.9-.1 2.7-1.3.9-.5 1.5-2.8-.1V21.3l-.1 1 .7.4.9-.4.4.6-.1 2.2 1.2 1.5 1.6-.1-.4 1.9.4 1.3 1.6 1.6.4-.4.4.9 1.2.3.1.9-.6 1.2.9 1.6.7.1 2.2-1.3V34l1.2-.3 1.3 1.6-.3 1.2-1.6 1.8h-.9l-.7.9-1-.7-1 1.3v1.5l-.6-.3-.6 1.2 1 1.3h.6v-2.2l1.9 2.5h1.5l1.3 1.6-.1 1.8.7.7-.7.4.3 1.3-1.5.4 1.2 2.8-1 1.2v.7l-2.8 2.5-1-.7-.6 1.6-1.5.1-1.3 1.5 1.5 2.8-1.6.9v1.8l.6.8-1.2 1.6.3 1.3-.7 1.2h1.4l2.5.7.6-1.3 1.2-.1 2.9 1.8 1.3-.3.6 1.5-.6.7.3 1.3-1 1.2v.1l.9 1 1.6.3.6.7 1.3.4-.1 3.4-2.4 3.5.1.4-.1.9-2.2-1-1.6.6-.6 1.3-1.8.9-.3 2.4-1.5.4-.6 2.1-1.2.6.9 1.3 1.3-.1.6 1.5-1 1.8.1 1.2-1 1.2-2.5.1-.7-1.3-1.2-.7-2.4.3-.4 2.1.6 1.2-.9 2.1-4.7 1.9-1.6.1-.4-.6-2.4 2.4-1-2.8-1.8-.4-1.3 1.6-3.4.6.4-2.1.7-.6-2.9-.1-1.6-1.3-1.5.7-.9-.3-1.3.9-1.8.1-1.8 1.5-.4-.6.3-3.2-.7-.3-.7 2.7-2.2.3-1.5 2.2-1.9.7-2.9.4-1.5-.4-.3-3.1-1.2.1-.6-2.1 2.2-3.8 1.3-1.3 1.6-.6.1-1.8-1.2-1.8-2.8.6-.6-4.7-1 1.2-.9-.3-.4.9-2.4 1-.6 1-1.3-.3-.7.7-1.6.3-.7-.6-3.1.1-.1.9-.7.4-3.5.3-1 1-.3 1.5-3.2 2.1-.4 1.6-2.7 1.2-2.1 2.5-.4-.7-.3-5.2.4-1.5-1-5.9h.9l1.2-.9.6.9.4-.1.1-1.3-1.2-.9h1.2l.3-1.6 1.5-1 .6-1.5h.9l-.6.1.4.3 3.2-3.1 1.9-.1-.6-1.2.6-1.9-.9-.6-.1 1.5-.9.6V82l-2.1.9-.1-.7-.6.1-.3.9-1.2.7-.7-.3-.4.9-.9-.7-.7.4-1-.6-.3.7-.4-.1.7-3.2 1 1.6h.6l-.1-1.9-.7-1.3h1.5l.6.6 1.3-.6 1.2-2.4 2.9-2.2-.7.4-.3-1-3.4 2.8-1.6-.7-1 .9-1.6-1.6.3-1.2-.6-1.2-1-.3-.6.6-.7-.7.3-.9h1.9l-.1-.7.9-.4.6 1.6-.6.6.1.7 1.2-.7 1 .7-.6-1.8.9-.6-.4-.7.3-1.2-.6.6-.4-1.8.9-.4-.6-.1.1-.7 1.3-.3 1.2-1.2-.4-.7.9-1.8-.6-.3-1.3.9-.7-.4.4-1-1.2-1.2v1.5l-.4-.3-.4 1 .9.7-.9.3v1l-1.2-.3.6-1.2-1.2-.1-1.5 1.8.7 1.2-1.3.1-.4.7-1 .3v1.6l-2.2 1 .4-2.2-.9-1-.7.6-.7-.6 2.1-3.2.7-4.1h.6l.9-1.6 1.3-.3 1.3-2.2.6-.3 1 1-.6-1 .1-1.2 1.3-.7h-1l-.4.7-.7-1-.1 1.8-.6.3-.3-.4-1.2 1.5-.7-.7v.3l-1.3-.1-.1-1.2-.9.9h-.9l.6 1-1.6 1.6-.4-.9h-.7l-.7-2.1-.6-.3 1.8-1.3-.1-1-.9-.1-.7-1.6.9-1.9-1.3-.3-1.3-2.5.4 2.2h-1l-.4-1.3h-.6v.7l-1.3.6-.1 1.9-.4-.6.1-1-.9-.6.1-1 1.2-1.8v-1.6l.6.3.3-.4-1.2-.3-.9-2.5.9.6.7-.3v-2.2l1.5.3.1-1.5 1.5 1.3.9-1.8 1.5-.6-1.6.3v-1.3l-.7 1.6-.9-.3-.4-1.8.6.4.7-.6.3-1.5.7.4.3-.7.6.3-.4-.4 1.9.9 1.6-.6 1.2-2.2.6.9.6-.7 1.5.1-.1.7.7-.4.4-1.2h.6l-.6-.1-1 1.3.3-.7-.6-1.6h-1l-.6-.7 1.3-1 1.2.7.1-.6h.7l-.1-1.6 1.5.6.1-.6 1 .1.3-1.5 2.2 2.2 3.1.7 4-1.8 2.1.6.9-.3.9-.7.6-1.8.7.3.9-.4.7-1.3 1.2.7.3-1.2.7 1.2-.7.3.7.4.1 1.3-.1-.6 1.5-.3.4-1.8-.7-.1.1-.9 1.8-.6.4 1.2 1.3.1.6 1-.1.7 1.6 1.3-.1-.7.4.3-.7-.9.4-.6-.4-1.6.6-.9 1.3-.1v-.4l-.9-.3-.9.4-.6-.6-1.2.6-.9-1-1.5-.4.6-.1-.3-.4 1.6-.4.1.4.4-.6 1 .6 1-.1.7-.7-.1-.6.6.3.3-1-2.8 1.3v-.6l-.7.1v-.9l-.9 1.5-1.2.4-.7-.6-.9.6-.3-.3 1.2-1.8-.3-1.2 1.3-.9-1.2-1.5.6-.4.7.7 1.3-.1 2.8-2.5.1-1.2 1.3.1v1l.6-2.1 1.2-.3.7-1.5.3 1.6.6-.3.7.6-.9-.9h.7v-.4h-.4l.6-2.5 1.2-.4 1.3.4 1.9-1.3v-.7l.9.7zM833.4 99.5l-4.3 2.5h-.7l-1-1-.3-.3-4-1-.3-1.8.6-.4-2.1-3.2 1.3-.7v-1l-4.3-.3-1.3.7-.6-2.2-1.5-.7-4.9.4-.7 1.2-1.2.4-1.2-.4v2.4l-1.3.9-1.3 3.1-1.8-.6-1.9.4-1.2-1-1.6.3-.4-1.2 1.9-2.8.1-1-1.2-1.2-.6.4-.9-.3-.7.9-.1.4-.6 3.4-1.8.3-1.2 1.2-1.3-1.2v-.4l-.9-2.7-3.8.1-3.8-5.9 1-.9.6-1.8-.7-3.7.4-.7-.3-.1-.3-1.2 1.9-.4-.9-1.3h-.9l.1-1.6h.9l-.1 1 1 1.5-.3-2.9.7-1.2-1.9-2.2.7-.9.1-1.5-.6-.4-1.5.3-.4-.4 1.2-.6 1.2-1.8.6-.1-.9-2.8 2.7.4.6-.7.9.4 1.5-.1 1.3 1 .6-.4.6.4 1-.9.6.4v1l.9-.1V66l-.9.4.1.6.7.7.1-.7.4.1.9-.9.6-2.2h1l2.4 1.5-.4 2.9-.6 1.3 1.2-.4v.9l.9.3.4 1 1.6-1 .4 1.6 1-1.2 1.5.6-.3-.6 1.2-1.3-.1 1.6 1.5.3 1.2-.6 1 .4.9.9 1.9.4.3.7.6-.1-.1-.6.3-.1 1.2.6v-.6l.4.1.3.6.3.6 1.3.3-.1.6 1.2.4v.4l1.2-.1.6.6.7-.6 1.8-.1-.3 1.2 1.5 1.6-.3 1.2.7.1 2.1-1.3.9.3 1 .6.1 1h.9l.4.7.6-.3.1 1.5 1.8.6-.1 1.9.7.1.1-.4 1.2.6.3 1 3.8.9.6 1.2h.9l-.7 1 .7 1.2-.9.6-.7.4-1.6-1-1 .7-1.6-.7-2.8 3.7-.6 1.5.3 1.5 1.8 1.5.3-.3-.2 1.6zm-45.8-34.2v-.1l.1-.1V65h.4v.3l-.1.3-.4-.3zm2.2-.1.3-.3.4.6-.7-.3zM736.4 168.3l.7 1.3-2.5.1v-.9l1.2-.7.6.2zm29.5-25.8v.9l1.2.7.9 2.2 2.5.6-.6 2.1 1.8 2.2-.7.7-1 4.3h-.7l.7 1.3-1.3.9.3 1.2-1.8 2.8 1.9.3.7 1v.1l-.1 1.3.6.4-1.3 2.1.9.6v.1l.7-.3.7.6.4-1.2.9.7.3 1.6 1 .4.9-.9-.3.6v.6l-.6.3.6.7-.4.9 1.9 1.3-.4 1.8h1l.3-.1 1.3-.1 1.3 1.3.1 3.8 1.8.1 1 1.8-.9 1.9.4.9-1.6 2.1-.6 3.4.9.7.9-1.6 1.5-1.2.6.6.9 2.5-.3 2.1.7 1.6-.7-.3-.3 1.2 1.6 1.9-1.3 1.8-1.5.6-1.6-.1-.3-1.5-.7.4h-.1l-.6 1.2-2.5.1-.4.4-1.2-.3-1.2-1.5-1.8.3v1l-.9 1-1.2-.6-.9.4v-.6l-.9.4-1.5-.4-.6 1.5-2.8.4-1.2 1.2-.6.1.4 1-2.8 1-.4-.3-1.5.7-.6 1-.3.1-1.6 1.6-2.5-.9-.3-.7v-.1l-.3-.4.7-.6.7-.1.3.6 1-1.3.9.4 1-1v1l.4-.4-.1-.7.9.4.1-.3-.3-.1-.1-.4.9-.4.6-1.6.6.1 2.7-2.1.6-2.8-2.2-1.2-.1-.7-.9.6-.9-.6-.9.7-1.2-.3-1.5-2.1-1.2.9-1.6-1.6h-1.6l-.6-.6-.7.7-.1-1.2-1.5.1-1.3-1.3v-.7l-1.9-.9-1.2 1.2-1.8-.1v-.4l-1.9-1.6-2.4 1.2-.7 2.1-1 .7-.4-.7-.6.4-.4-.7h-.7l-.3-3.7-.9-.6-.1 1.5-2.1 1.6-.1 1.2-3.1 1-.6.9-1.9-.9.7-.4-.3-1.8 1.6-1.8-.7-2.5.7-.1 1 1.5 1.9-.3-.3-1.2.9-.4-.1-1.9.9-1 4-.3-.7-1.3 1-1.5-.4-3.7.3-.7 1.3-.7.4-2.1-.4-1.3h.7l.3 1.2.7.1h.7l2.8-1-.6-2.4.6-1.2 2.5-3.1 1-2.4 1.6.6 1.9-.3 1.6-7.4.6-.1 1.2-2.1 4.6-1.8 1.6-2.8 2.5-1.6 1.8-2.8 1.6-1.2 2.1-.1zM878.4 319.4l-.3 1.8.9 3.1-1-2.8.4-2.1zm-.3-1.6-.1.9.7.7-.7-.6-.3-.9.4-.1zm-64.2-12.5.4-2.1 2.5-2.1 2.2-4.9 4-1.8 1.5-1.9.6-1 .7-.6 2.7 1.3 2.9-.9 5-2.9-.4-.7 1 .1v-.7l1-.1 1 .9.7-.6.7.7-.4.7v.1l.9 1.5h3.2l4.4-3.4v-5.5l-.7-2.7.4-1.3 1.5-1 .1-3.4 2.5-2.5.7-.3.9 1.3 3.7-3.1.4-.3 2.1-.6 2.7.9.1 1.3 3.5 2.8 1 4.3-.9 2.7.4 1.3-3.1 2.9.6.3-.3 4.3 4.3.4.9 2.2-.9 4.3-1.9 3.2.3 2.4 4.7 9 2.9 3.1 1.9 1 .9-.1.6 2.8-1.5-1.5-.7 2.1-1.6 1.5-.6 1.5 2.5 3.2 2.5 1.3.9-1.2.6 1h.6l-1.3 1.6-2.9.9-1.5 1-1-.4-1.3.3-1.6 1.2-1.8-.3-.1-.4.9-.1-1.2-.3-.4-.6.4-.4-.7-.1.1 1-.7-.1-.6.6-2.1-.6-1.5.7-.7.9.6.9-2.2-.3-.1-.9-1.3-.9-1.6-.1-.4.9-2.8-.3-2.9 2.8-2.4 1-1 3.2-1.3-.4-1.8 1.3-1.3.1-1.3 1.3-4.4-3.4-2.9-.6v.9l-1.5-1-6-9.7-.3-.3-.4-2.4.7-1.3-.6-2.4.6-3.4.9-1.2-.3-.4h-.3l-.7-.3-.6.6-1.8-.7-.9.6-1.6-1.3-1.9.6-3.2-2.5-1.9-3.2-1.7-1.3z"/><path d="m841.5 26.5 1.2.3-.3 1.3.9 1.8 1.3.1.7-1.6-.3-.4 1.9-.3 2.1 1.2h2.1l1.2 1.2v3.4l-.7.6-.6 2.8-2.4 2.2 1.3 2.4 3.4 1 .4-3.7 1-1 1.9-.3-1.6 2.7 1.9 1.5 1.9-.4 2.8 1.5.1.9 1.2-.9 1.3 1.3 2.8.4.6.9 2.1 1.2 1.5-.6.4.4 3.5.1 2.2-.9 1 1.2-.3.6.6.9-2.4-.1-1.3 1 .1 1.8-1.5 1.2-.1 2.7.4.7-.7 1.3-1.5.1v.9h-.9l-1.9 2.2-2.2.1-.6.6v2.4h-4.6l-.1 2.1h-.9l.9.7-1.8 1.2v1.6h-.1l-.9.4-1.5-.7-.9 1.8.4 2.7-2.7 2.8-.7 2.5 1 .4.1.9-2.8 3.4.3 1-1 2.9 1 2.1-.3 2.9 1.3 1 .6 1.8h1.6l.3 1.6-1.3 1.3-1.8 3.2.1.7-1.2 1.3-3.7-.3-.4.4-.7.3-1-.1-3.8-2.7-2.5.4-2.1-2.1H834l-.4-.7-.3.3-1.8-1.5-.3-1.5.6-1.5 2.8-3.7 1.6.7 1-.7 1.6 1 .7-.4.9-.6-.7-1.2.7-1h-.9l-.6-1.2-3.8-.9-.3-1-1.2-.6-.1.4-.7-.1.1-1.9-1.8-.6-.1-1.5-.6.3-.4-.7h-.9l-.1-1-1-.6-.9-.3-2.1 1.3-.7-.1.4-1.2-1.5-1.6.3-1.2-1.8.1-.7.6-.6-.6-1.2.1v-.4l-1-.4.1-.6-1.5-.3-.3-.6-.3-.6-.2.3v.6l-1.2-.6-.3.1.1.6-.6.1-.3-.7-1.9-.4-.9-.9v-1.2l1.2-.4-.1-4.4-1-.4-1.2 2.1-.4-1h-1.2l-.3-1.6.7.1 1.2-1.8 1.5-.9 1.3.3.4.7-.4.4 3.5-1 .1-.9-.1-.6-.7.3-.4-2.8.3-.9 2.2-.6-.7-2.1 1.9-2.9-.4-2.5-.3-.4h.4v-1.6l1-1.5 1.2.7 2.1-.3.9-.4.6-1.5 2.1-.4.4-.9-.6-1.8.9-.9.1-.4.3-.9L830 38l1.8-2.1-.7-.9.3-4 1.3.9.3-1.3.6 1 .4-.6.3-.1 1.9-1.2.1-1.6.4-.4.1-.1h.6l1.3-.7 1.5-.7 1.3.3zM965.6 268.4l.7 1.2.6-.1.3 1.3 1.5 1.3.6.3 1.6-1 .6 1.2-.4.9-1.9-.1-1.5-1.3-1.6-.4-2.5 2.2-.1-4 .6-.9.4.3.9-.4.3-1.8-.1 1.3zm-.6-2.6.4 1.2-.6-.6.2-.6zm4.5-16.4.9 1.2 1.9.1-.3.4.4.1-.7.1-.1.6 1.3 1.8-1.5.6-.1 1.3-1.9.3-.1 1.5-.4.1.3.4-.7-.1-1.3 1.8-.7-.3v.7l-.7-.6v.7h-.7l-.7 1.3.1 2.4-.9-.6-.6.6-1-2.1-1 .7v-.6l-.7.3v-.7l-1-.1-1 1.2-1-.7-.4-1.6.9-1.9-.9-1 .6-.9.6.4 2.5-.3-.9-1 .6-.9-.1-1.2 1.9-1.2.7-1 .7.6.4-.9 1.2.1.3-.7.6.6 1.9-1.5.4.6.4-.7.8.1zm56.9-2.3.9.3-.7.6v1h-1.5l-.1-1.8.6.9-.1-.6.9.3v-.7zm-24.9-22-1.2.7 1.3-1.3-.1.6zm35.3-19.3-.4.9-1.9 1-.9-.1-.9 1.5-.7-.6-.4.6.1 1.2.9 1 4-1.6-.6.4.3 1-.7 1-2.2.3v1.6l.7 1.3 1.2 1 3.4 1.5 2.9-1.6.7-1.5 3.4 2.4 1-.1-.3 1.3 1 .4-.9.6v2.5h-.6l-.1 1.2-1.2-.4-.6.7-.3 1.6.7.6-1 .1-.4 1.3-1.5.6.3.1-2.1 2.5-.4 3.7-.4-.6.3.4-1.2 2.4h-.7l.3.3-1.8.9-.7 1.3-1-.1-2.9 3.1-.9.1-1.5-2.4-1.2-.3.1-1.2-1.2-1.3-1.2-.1-.6.6-1.2-.7-1.9-.1-.3.6-.9-.6-.7.1-1.9-2.4.1-1.8-1-1.8 1-1.8-3.1-2.7-1.5.1.4-.3h-.4l-.4.9.7-.1-.3.4-1-.3-.6 1-2.1.4.3.6-.6.3-.4 2.5-1.3-.7-.6.3.1-1.3-.9-.7.9-.6-1.2-1-1.3.7.1-.7h-.7l-.7.9v-.7l-1 .1 1-.7-.7.1-1-1 .4-2.1 4.3-2.5 2.7-2.7h1l1.2-.9 1.3-2.1 1.8-.9.3-1 .4-.3.4.4.3-1 3.1-1.5.1-.9 2.7-.3.3-.7 3.2-1.5.6-.9 1.3.6 2.4-1.5-.1.4.9-.1v.7l1.3-.9 1 .1 1.8-1.5h.6l-.3.4 2.2.6zm38.4 5.7-5.3-3.5-3.1-1.2-2.4.9h-3.1l.4-4.1-1.5.1-.3-1.2 1.2-1.6 1.8-.3 1.2-.1.9.7.4-.9 1.8.6 2.1-.7.9.7 1.5-.9-.3-1 .7.1-.3 1.3.4.7 1.2-1-.3 1.9.6-.4-.1-1.6 1.5.3-.4 1.3.9.6.6-.6.4 2.1v-1l.4.9h2.1l-.6.1.4.6-.4.9.6.3-.1.7.6-.3.1 2.1.9.7.1.9.7.1-.7.3-.6-1-1.5-.3 1.6.7.4.9-.1 1.8-1.2 1.2-2.7-.9-1.4-.9z"/><path d="m796.3 19 1.3-.6.4 1.5 1.9 1.3 1.8-.6 1.2 1.5.7-.1.7.7.9-.4.6.9 1.6-.1 1.9 2.2 4.3 2.1 2.9.1 2.2-.9.9.4.1-.4.6 1 1.3.4 5-1.9 1.6.3v-.6l1.3-.7 1.8.1 2.7-2.4 2.4-.9.3 1.8-1 .6 1.9.4.9.7.3 1.8-1.3.7h-.6l-.1.1-.4.4V30l-1.9 1.2h-.3l-.4.6-.6-1-.3 1.3-1.3-.9-.3 4 .7.9-1.8 2.1-2.7 1.3-.1.9-.1.4-.7.9.6 1.8-.4.9-2.1.4-.6 1.3-.9.4-2.2.3-1.2-.7-1.2 1.5v1.6h-.4l.3.4.4 2.5L817 55l.7 2.1-2.2.4-.3.9.4 2.8.7-.3.1.6-.1.9-3.5 1 .4-.4-.4-.7-1.3-.3-1.5.9-1.2 1.9-.7-.1.3 1.6h1.2l.4 1 1.2-2.1 1 .4.1 4.4-1.2.4v1.2l-1-.4-1.2.6-1.5-.3.1-1.6-1.2 1.3.3.6-1.5-.6-1 1.2-.4-1.6-1.6 1-.4-1-.9-.3v-.9l-1.2.4.6-1.3.4-2.9-2.4-1.5h-1l-.6 2.2-.9.9-.4-.1-.1.7-.7-.7-.1-.6.9-.4v-1.2l-.9.1V64l-.6-.4-1.2-.6-.4-1 .1-.1-.1-1.3-1.2-.7-2.1.1-1.5-1.8v-.1h-1l-.3-1.5-4 .4.9-1.8-1.3-.9 2.1-3.7-.4-1.2-1.5 1.9-1.3-.7-1.2 1.6.6.6h-.4l-2.8-2.9 2.4-3.7 3.1.9-.1.9 2.2 1 2.9-.4 1.6-1.6-2.5-1.8.1-.6-1-1.2-3.4-.1-1.3-.7 1.5-.4v-2.1l-.7-.4.9-1.3-.3-.7-.4.3-1.2-.7 1.6-2.7-.9-.6-2.2.3-1.3-1.5-6.6 3.5-.7-4.1-.3-.4-.3-1 2.1-.6.6-1.3 1.8-.4.3-1.2.4.4 1.2-.4.6.6 2.2-1 .6 1.3.7-.7 1.3-.1.1-2.8 1-.1.4.6.3-1h.4l2.1 1.3.6-.4-.4.4.9.7.3-1.3-.9-1.3 1.3-.4 1.3-1.6h.9v-1.3l5.5.3.8-1.5zm-20.1 13.6-.9-2.9 1.6-.7.7.4-.7 1.5v1.5l-.7.2zM794 54.8l.3.3.3.1 3.7-.4 3.5 1.5 1.6-.3.6 1 1.2-.7-.6 2.1-.6.7-.4-.1-.3 1 1.3 1.5 2.2-.9.1 2.1-1.2.4-.3-.6-3.2.1-.9-1.3-1.8-.1-.6.6-1.9-.3-.7-1.8-1.6-.6-1.8-1.6 1.2-2.2-.1-.5zM849.6 196.2l1.9.3.4.3.7-.3.9.4.7-.6.7-.3v-2.7l.7-.7v.4l.3.6.6 1.6 1.2.7v1.5l3.8.1 2.8 2.2.3 1-.4.7-3.2 1.3-3.4.9-1-.3v-.1l-4-.4-1.8-4 .4-.4-1.8-1.3.2-.9zm12.5 9 .7.4.3-.6.9.1.7-.6 3.4-.1 2.2 1.3.4-.4.6 1.3-.3 1.2.4 1.5-.4.9 1.6 1.3 2.9-1.8-1.6-2.2.1-2.8 2.2-.9 1-2.8 2.9.1 2.1-1.6.6.1-.6-1.8.7-1.2 1.2-.6 1.5-6 2.1 1.2 2.7-.9 1.8-1-.7-1.6.4-.6h.9l1-1.8 2.4-1.3-.1-1.2-2.4-2.9.6-.7 2.5-1-.1-1.2-.9-.9.3-5-1.2.4-1.8-.6-.4-2.8 1.9-.7.9 1 2.8-1.6.3-2.7 1.3-2.2 2.1-.1v.9l1.5 1.3 1.8.9 1.6-.1h.7l.7.3v.1l.4 1.5.4.1 2.7-1.9 1.6.4.9-.7 1.2.4 1.2-.4.4 1.6h.1l.9-.1.4.4.1.1.3.1-.7 2.4.6.9 2.4 1 2.5.3 1.6 1.3-.1 1.6 3.1 1.3-1.5 3.4v-.4l-2.2 3.5-.4 2.2-3.4 4.3-1.6 1.2-.9 2.4-2.9 1.9-1.9 4.9-3.8 2.5-2.2 6-2.4 2.8h-.7l-4 6.5-1.2 4.1-2.1 3.1-2.4 5v3.1l-.6-.4.4.9-.7.3 1.2 5.5 3.5 7.5-.9.6.1 1.6 3.1 7.7 5.6 6 5.9 1.3-.6.1.3.4.1-.4v.6l3.1 1.6-.6.6.3 1 .7.7.6-.1.4 1.5-2.1.9-1.3 2.1-.9-.3-1.3.7-1 1.3.4.7-1.3-.6-.7.9-1.3-.3-1 .6-1.3 2.1.6.9-1.9 1.9-2.2-.6-.9 1-4.6 1.5-3.5 2.4-1.2 1.9v2.7l-1.8-.4-1.8 1.8.4-.9-.9.4-.6 2.7.4 4-.6.7h-2.8l-.9.9-1.2 3.7-.1 5-.7 1.3-1.3.4-.9 2.8-1.2.7-.4 2.5-.9.1-1.9-1-2.9-3.1-4.7-9-.3-2.4 1.9-3.2.9-4.3-.9-2.2-4.3-.4.3-4.3-.6-.3 3.1-2.9-.4-1.3.9-2.7-1-4.3h2.5l1.9-2.1-1.9-3.8 1.3-.6.1-2.1-.6-1.6.4-1.9-1-.9-.4-1.8-1.6-.3-1.3.7-4.4.3-3.2-4.9-1.5-1.2.3-3.1 2.9-5.3.7-5-1.8-1-.4.4-.7-.4-.3-.1-.9-.1-1.3-.6-.3-.1-.3.4-1.2-1.2h-.7v-.6l-1-.1.4-.4-1-.3v.9l-.1-.4-.1-.3-1 .7.1-.1v-.7l-.7-.3h.6l-.3-.9-.1.1-.6.3.4-.4h-.9l.3-.9h-.9l.3-.3-.9-.1-.3-1.2.6-.1.4-1-.1-.7.6-.3-.1-2.4-.7-.1 2.4-1.3 2.4-4.6 1.3-1.2 1.2.4 1 .6 1.5-.4.6-1-.6-2.1 2.4-3.5.7-5 .1-.6-.6-1 .3-.9 2.3-1.4z"/></g></svg>