<svg xmlns="http://www.w3.org/2000/svg" xml:space="preserve" viewBox="179.3 0 902 800"><g fill="#FFB647" stroke="#FFF" stroke-width=".5"><path d="m678.9 439.3-3.1 8.8-2.9 3.5 3.2 1.6-2.8 3.9 2.5 5.3-1.1 3.6-2.9 2.9-5.4 2.8-2.1 3.2-1.3 4.1-.5 4.3 2.3 10.5-1.2 9-2.2 2.6.2 2.6-8.9 8.5h-4.9l-1.6 1-.8 1.7.9-.4v1.2-1.5l1-.5.1 1.5 1.8-.2-.2-.7 1.1.7-3.2 2.2-.8 3.1-2.9 2.1-5.1-1.3-3.8 2.6-13.7-8.7-4.1-.6 2.1-1 .2-1 2.7.2v-1.1l.7.7 1.3-1.7 2.8.7.8-1.5-.7-6.7-1.3-5.9-3-1.8h-1.7l-.9-2.3-2.2-1.3v-1.5l2-1.9-.1-1.2-6-7-.7-3.6 2.6-2.1-.8-1.4 1-1.3 1.5-7 5 .6 3.3-5 4.5-2.7 5.4 1.9 1.3-.3 1.3 1.7 7.1.4 1.2-2.1 1.3-9.3 3.2-1.4 4.3-4.7 6.5-2.5 2.5-6.5 3.6-4.9 5.1-1.5 6.5 6.6zM790.1 443.5l3.3-1.1 1.6 2.9-1.8 4.3-2.3 2.5-3 .6-1.3 1.1-1.3 3.6-2.2.9.8.7-.6 3h-2.1l-1.2 1.2h2.5v2.6l-1.7.5-.2 1.4-1.2.8-2.6.5 1.4 2-8.2 1.7-6.6 5.8-2.1 1.1-6.8.5-1.1 1.7-2-.3-.9 2.1-3.8-2-5.6-2.4-7.5-.3-1.7-1.8-4.3 1.3-1.8-.8-1.4-3.6-3.9-.4-.7-1.9 1.3-2 .3-3.1 2.5-2.6-.1-4.5 3.2-1.9 1.4-2.6.9.9-.4 1.8 3.1-.7 1 2.5 2-1.1 4.3.9 4.6-.9 4-3.7-.7-3.3-1.3-1.8.4-1.1 7.1-2.7 1.6-2.3 1.4-.5 4.1-.3 5.8 2.9.7 1.1 2 .4 6.9 4.7 8.4-3.4.4-1.4 5.4-3.5zM434.1 388.4l3.2.6 2 4.9 2.8 1.3 3.2 3.2 1.7-4 8 .9 1-2-3-2-.2-1.1 2.4-.2 3.2 1.3.6-1.6 1.9-.3 1.2-3.1 1.4-.9 3.8 2.6 3.5-1 4.4 4.1.6 2.8 3.5 1 1.8 2.7 1.1 2.2 5.2.9.6.9-5.9 1.2.8 1.5-.5 5.5-3.4 6.2.4 1.8 2.2 2-12.2 7.9-1.2 3.7-1.3.2-1.9-2.9-2.5-2-5.5.9-3.1 3-3.7 1.7-3.1 5.3-5.9 3.7-5.4 1.3-6.8 7.5-4 1.8-3.1 3.9.2 3.5-2.1 4.3-7.7-.3-7.6-4.3-1.3-3 .3-2.8 5.2-4.8 2-3.2 4.3-.2 1.9-3.1 2.7-2.2-2.4-6.7-2.6-1.1-1.1-1.8-1.7-.2-1.4-1.5H409l-2.1-1.4 4.6-6.1 1.5-.9-1-4 3.9-3.3.6-2.6 2.1-.6 2.6-3.5 2.8-1.2 2.4-3.9-.5-7.1 3.3-2.2 2.7-.1 2.2-3.1zM928 353.1l23.5-5.7 7.3 1.2 3.1.8 2.9 3.4.5 7 2.4-.2 1.6-2.6 1.7-.4 3.3 2.6 7.1.7 3.6 2.7h6.3l4.2 1.3 3.7-.5 5.3 2.3 3.8-.5.3 3.8-2.3 2.3.7 3.3-1.1 1.7.4 3-5.4 2.2-2.4-2.3-3.6 1-3.1-.7-1.4 1.7-6.7 1.1-3 4.8-3.2 2.8-3.2-.4-4.3-2.2-5.2-5.6-5.3-.4-4.6 1.4-.2 7.9-4 3.2-3.1 5.5-2.2.7-.2 2.8-5.2 2.3-4.7-.7-.2-6.4.8-4-4.1-9.1-.5-3.4-3.4.1-1.5-4-3.5-3.6 1.5-2.8 3.4-2.6.7-1.5-2.9-3-5.3-2.8-1.9-4.3 1.2-1.2 8.4-2.7zM574.3 398.3l1.1 1 2.1-.9.8 1.1 2.4-.3 1.6 3v2.3l4.3 4.3 2.2.8 2.6-.5 1.1 1-.2 3.9-1.5 2.8.4 2.6 4.5 2.4 2.9 4.4.4 3.7 1.6 1.5-3.1 1.8-.8 5.8-3.3 4.9-2.1 1.6-4.3 1.1-3.3 3.3-25.8 6.1-2.9-3.2-1.7-3.8-4-2.9-.4-4.3-2.1-3.5 3-9.5 3.1-3.4 1.3-3.9 5.3-1.7 3.9-.1 6.7-2.6 2.6-5.6-1.3-4.2 1.7-2.6.2-3.4 1-3zM624.7 290.7l5.1.6 1.6 2.1 5.4-.9 2.7 1.4 1.4-1 .6 1.2 1.4-1 1.6 3.8 3 1.5-.3 1.7.8 1 4.3.2 1.5 1.4 5-1.2 6.8 2.8 1.6-4.9 1.2-.4 1-2.1 5.5 2 .3 1.1-1.6 1.9 4.7 1.9.5 1.8 3.3 1.8-3.2 2.9.2 2.4-1.1 2-5.6.4.3 1.3 2.7.4-2 1.7-.9 2.2-5.5 2.3-1.1 1.6-3.8-1.4.1-.9-1.6-.9-5.5.3-1.1 3.1-2.5 1.6-.2 1.7-2.4 1.7-4.7 1.1-4.7 3-2.7.5 2.4-4-2-1.5 1.3-2.8-.6-1.9 1.9-.8v-1.7l1.6-1.1.6-2-2.4-4.2-4.5-1.1.2-3.7-5.7-.4-3.9 1.1-3.8-2.9-.4-3.4 2.9-5.5-2.5-3.2 3.1-2.4-.3-2.2z"/><path d="m520.3 310.5 3.9-.3 7.3 4.3 4.8 1.2.7 1.5-.9 3.5h3.7l5.3 2.1 4.5 7.5 2.3-1.1 1.6-2.5 2.6.5 1.2 1.5 3.4-.4 6.5 1.1.8 1-2.4.5.1 1.4-2.1 2 .5.7-1.1 2.3.7 1.3-.8 4.4 1.1 1.6-2.4 2.3-6.6 2.3-2.4 6.7-1.3.4.4 3.5-3.1 5.3 5.6 4.8.7 6.9-.5 2.4 1.5.7 2.1 3.2-1.1 1.1 2.6 1.6 2.8 5 2.9 1.2 4.3 3.8.2 1.3 4 .3.7 1-1.2 2.8-.2 3.4-1.7 2.6 1.3 4.2-2.6 5.6-6.7 2.6-3.9.1-4.4-6.8-1.3-7.2.3-5.9-5.8-3.6-2.2-2.8-.8-4.9 2.9-1.6-.7-1.5-3.1 1-3.5 3.3-1.2-.8.3-3.9-.7-.7-6.2 1.7-1.2 1.8-.8 4.2-2.7 1.4-.4 3.9-3.4 2.1-4-1.9-2.3 3.4-1.3.5-2.6-.3-3.5-2.6-2.5 1.1-1-1.2-3.1 4.3-4.1-.4-1.9-1.9-3.5-6.9-1.1-.5.3-2.5 6.1-6.7-.1-1.1-2.7-1.1.8-1.5-1-1.5.7-4-1.7-.6.4-1.4-1.9-1.9-1.4-5.5-2.6-3.7 1.6-4.6 1.2-1.1-2 .3.9-1.2-.6-.6-2.2.3-1.4-1.2-1.3-1.9-.1-1.9-1.7-.8.7-1.9-2 .4.4-2.2-1.9 1.6-3.5-.8-1.4 1-1.7-1.3-2.5 1.4-.6-1 1.6-.5-1.5-.9-2.1.9-3-.9-3 .9-3.3-1.3-.7 1-3 .4-.4 1-3.1-.1-3.4-1.8-1-4.7 4.1-2.5 8.3-9.3 4.3.7 7.3-1.3 1 .7.6 2.5 6.2.8 6.2-1.3 6.1.2 2.9-2.4 2.8-.5 3.4.5 1.8 1.9 2.9-.3.9-1.9-2.4-3.4 1.2-3.8 2-1.5 7.8-2.4.1-1.3-1.5-1.8.2-1.6 1.3-1.1 3.3-.4zM470.7 481.3l3.2 3.2 8.9 2.1 2.8-.4 3.4-2.1 1.7.1 1 2.9 2.1 2.1 2.3 6.8 4.2 5.9 7.4 3.4 1.4 1.7.8 4.4 4.9 3.3-.9 5.3.5 1.8 6 6.2 3.4 10.4-2.3 6.2.8 2.2-1.8 3.4-3-.4-7.7-6.2-5.5-9.4-5.9-6.2-1.3.5-1.1-1.5-7.7-2.3-1.4-1.7-3.1-.6-4.6-3.3-6.8-2.5v-.9l-2.3-1.4-13.2-2.5-10 .5-2.5-1.9-2.7 1.4-2.3 3-.8 9 1.5 1.5-3.5 6.3.1 1.3-1.2.4-.2 1.8 2.1 3.3-2.6 1.1.9 1.8-3.3 3.4.2-3-1.8.1-3.5-2.3h-3.8l-1.5.7v1.4l-.5-.3-1 1.6-2.4-1.5-.3 1.1-2.6 1.9-2.3-.9-1.9 1.9h-1.9l-1.7 1.6 1.2-.2-2.1 1.6-.7-.4.9-.7-2.3-.3-1.8 1.3-2-1.7.8-.2-.2-1.1-2.5.5 2-.9-9-1 .2-1.8-1.1-.3-.9.1-.6 1.7-3.6-3.2 2-1.3-.1-3.4.9-.4-.5-2.3 3.1-1.7 5.1-.3 2.3-2 2.1-3.7 3.8-2.4 1.3-3.2v-6.1l2.4-4.1-.5-2.2-1.6-1.3 3.6-3.2-.7-3.7 1-1.8 4.4-3.9 3.2-1.1 6.5-5 5.7-.4 7 4.3 12.4.4 1.5-1 3.1-6.4-1.1-1.6h2.6l3.5 3 4.1-3.1 7.9-1.2zM935.8 261.8l3.2 1.3 2.5-.4-1.4 4.8 1.9 1.3.7-1.4 1.4-.2v1.2l2.8 1.5 2.2 4.1 3.1 1 1.7 2.1 3.1.8v.8l-3.4 1.9 2.7.1 1.6 4.2 4.8-1.5 4 1.5 1.1 2.8-1.1 1.3 1 1.6-.1 2 2.1.9-1.6 1.7-4.3.4-1.9 1.1-6.4-.4-3 1.3-2-1-2.3 2.5-3.6 1.9-.4 1.9-4.3 4.7-.5 3.4-3.7.2-1.3 1.4-1.7-.4-2.5-5.2-7-1.6-2.8-5.6 2.5-2.2.8-2.4-1.9-1.7-1.3-3.1 1.9-1.4.8-3.2 5.1-2.6 3.6-4.2-1.6-3.7-2-1.7.2-3v-1.8l2.4-2 .2-3.1 1-1.1 3.7-.8z"/><path d="m906.4 266.2 2.5 1.5 5.6-1.1 1.1 1.3 3.2-.1 1.9 1.4h2.9l2 1.5h2.6l-.2 3 2 1.7 1.6 3.7-3.6 4.2-5.1 2.6-.8 3.2-1.9 1.4 1.3 3.1 1.9 1.7-.8 2.4-2.5 2.2-3.3-3.1-9.1-.3-5.3 5 .5 5.5-2.6 2.5-.4 3-1.6 1.5-1.7.1-.4-3-.8-.3-7.4 3.2-5.3 3.9-1.6-.3-.6-2.2-.1-3.7 1.6-.9v-.8l-2.3-2.5-7.4-3.3 3.6-4.9.8-3.1 4.7-5.4 2.7-1.7-5.7-7.6-.2-2.8-1.3-2.3 5.7-2.3 6.1-7.5 3.5 1.7 3.2-.4-.1 1.2 3.1.7 1.5 1.5 2.5-1.5 1.9-2.5 2.1-1.1zM359.6 449.3l2.8 1.2 1.6 1.8 4.5.8-1.5 2.8-3 .3.5 5.5 1.4 2.1 4.4 2.8-2.4 3-.8 3.4-6.3 5.2-.5 4.1-.7.5-1.3.2-5.4-3.9-9-.4-.7-2.1-5.2 4.4-7.3-.6-5 .9-3-2.6-2.6.2-4.2-1.8-3 .5-2.6 2-.7 3.8-1.5.6-.9 1.8-1.1-.4-.1 1.8-1.6-.7-1.6 1-2.2-.9 1.5-2.5-.1-3.5-1.1-.8-.3-3h-1l2.1-2.2-3.9-2.2-4.9-1.5 1.1-1.6 2.7.5 5.6-2.2 1.5-4.3-1.3-1.6 1.3-2.9 3.3 1.4.8 2.3 2.8-2.2.7-4.2 3.4-2.2 2.7-.1 5.3 2.7 11.7-3.6 10.1-.9 1.9-1.5.7-1.7 3-1 3.4 1.7 1.2-2.2 4.8 2zM277.6 380.4l1.6.2-1.9 1 1.2.4.5 1.3 1.3-.5-.2.8-2.7.4-.3-2.8-.8-.3 1.3-.5zm40.6-59.4 1.3.8-.7 1.3 1.2.1.1 1.1-3.6-.9.2-1h1.1l-.4-1.4h.8zm5.5-.9 1-.1.3 1.1 3.1-.5 7.1 2-.6 1.7-4.9 3.2 2.3 1.9 7.6-2 2 3.1v2.1l-3.1 5.4 1.9 1.6.1 4.1 1.4 1.8.5 2.8 1.9 1.7v3.2l1.6 2.3 1.6 1.1 3.7.3 2 2.5 4.6 2.6 2.7-.7 1.5-1.6 1.4.3.6 5.7h1.4l.9 2.3 8.2.9.2 1.6-2.8 3 .9 6.5-6.1 7-7.2 1.3 1.6 4-3.5-.4-7.1 3.9-4.3-.8-2.8 2.4-1.8.3-4.2-6.2-4.5-3.4-1.3-3.7-1.3-1.3-4.2 2.9-3.5-3.6-6.3 1-4.6-3.7-2.5 1.5-6.5 1.6-3.1-.9-3.6 1.1-3.1 3.6-6.9 2.2-2.6 3.6-1.9-4.8-4.5-1 1.8-2.4.2 1-1 .3 1.7.9-.4-1.2 1.6-1.8 4.2-3-.3-2.1 2.3-.4.1-1.9 2.9-.4.9-3.6-1.1-1.6-1.9-.2-1.7 1.5-2.5-.7-5.4.9.3-3 2.5-3.5 4.3-1 3.3-2.4 3.8.4 3.5 1.9 2.9-.2 6.4 1.8 3.4-3.3 4.9-2.9 1-1.4.7-5.4-2.5-4.3.1-3.3-3.3-3.1 2.8-4.3 3-2.2.5-1.9-.7-1.6 3.7-1.5 1.9 1.1 3.3.1 5-3.6-2.4-1.4-1.1.9-2-2.5.1-1.1-2.5-1.2-.1-1.6 2.5-1.3zm-9-.2.8.5-1.1 1 .5.7-1.9 1 .3-2.8.8-.9.6.5zm4.3-7.4 4.2 1.8-5.5 3.2-3.2-1.2.1-2.8 4.4-1zM527.6 248.4l.6 2.1 1.5 1.1-.8 2.3 1 1.5h2.5l2.3-1.1 1.5.8-3.2 7.9-2 .4-1.1 1.9-5.6 2.4-.4 1.3 1.7 4.9-1.3 3.1-2.1-1.5-2.3 1.3-2.4-1-3.8 2.8-5.2-1.4 1.5-3.3v-2.3l-1.9-2.2v-2.9l-2.8-.4-2.4-3.9 6.2-6.6h2.2l2-1.6 1.2.6 3.5-3.4 3-.6.3-.8 3.8-.2 2.5-1.2zM886.3 423.9l5.4 3.3-.9 5.5 1.7 5.9 2 2.5-3.2 6.3-6.5 2.7-5.1 4.9-.5 2 9.4 7.2 1.2 2.2 5 1.7 2.3-.5 2.2 1.5-2.1 1.9-6 .6-4.3 3.7-6.3 3.1-11.3 1-3.3-11.2 2.1-3.1-2.9-1.3.8-2.8 4.4-6.4 2.3-6.5 2.6-2.6-2.4-1.8.3-6.7 4.3-8.2 3.6-1.2 3.1-.6 2.1-3.1zM849.3 319l-1.6 5.7.8 2.8-2.7 8 1.5 1.5h6.4l.1 2.4-1.8 2.6-7.7 4.6-5.4-.3-15.2-.5-3 1.6-3.2 3.1-3.7-3.9 4.4-5.6 2.9-7-.2-7 1.2-3.5 14.2-2.4 8.6-.9 4.4-1.2zM414 320.6l2.7 5 1 .3 1.5-1.5 1.7 2.9 2.1 1.4 2.4.5 4.1-1.4 1.9 1.1 3.3-1.5 1.7 1.8 1.9-.1 4.6 11.6-3.3 1.2-5.4 5.5-2.1 1.1-.9 1.7-2.4 1.7-1.8 3.8-6.4 1.2-3.3 4.1-1.1 3.8-6-.2-1.5-.8-3.4-2.9-1.7-5.6 3.7-3.4-2.3-2.5-.2-1.3 1.2-1.2-.7-5.9 2.4-1.6-.4-3.4 1.5-1.6.6-5.5 1.8-1.9-.3-4.2 3.1-2.2zM842.1 373.9l7.1-.6 2.9 1-.9 2.1 1.5 1.3 2.7.5 13.2-1.6 5 4.7-1.7 2.2-.1 2.9 3.8 6.6 3.5 2 .6 1.9-.7 1.5-4.5 1.9-2.6 3.1-.8 5.5.6 6.1-7.3 2.5-2.6 3.9-2.6 1.3-6-2.9-.7 2.8-1.2.7-3.8-2.5-3.4-.3-2.6 2.8-.1 2.9-.9 1-4.1.9-5-9.9 2.3-1.8 1.2-2.1 4-.2 1-.8-.6-1.9-3.7-2.7-1.2-3.3.3-2.1-.9-.8 1.9-3.4-.1-2.8 2.8-3.4v-2l-1.2-.7-3.3 1.7-4.6.8-4 2.7h-3.9l2-7.2 2.6-2.3-1.2-4.2 7.5.5 9.8-8.3z"/><path d="m947.6 399.4 3.1 2.5 1 2.4 5.1 2.3.2 1.4-2.2 3.1-5.6 3.3-4 3.7-6.4 9.6-.4 6.1-4.6 3.2v1.2l1.6 1.2.4 2.4-1.8 10-.7 1.1-2.2.9.3 1-1.4 1.2-.7-1.3-3-1-10.1-11.4-4.2-.1-3.4 2.1H907l-.9-.3-.1-1.2-4.4.8-1.6-.6-1.2-1.9h-4.3l-2-2.5-1.7-5.9.9-5.5-5.4-3.3.3-.9 3-1.5 7.8.4 7 1.6 1.1-2.7 5.8-5.2-.3-3.4 2.2-1 .8-2.9 1.4-1.6 9.9-3 10 .9 4.7.7 5.2-2.3.2-2.8 2.2-.8zM506.4 289.3l5 .7 2.1 6.8v3.4l4.7-.1 3.1 4.7-1 5.7-3.2.6-1.3 1.1-.2 1.6 1.5 1.8-.1 1.3-7.8 2.4-2 1.5-1.2 3.8 2.4 3.4-.9 1.9-2.9.3-1.8-1.9-3.4-.5-2.8.5-2.9 2.4-6.1-.2-6.2 1.3-6.2-.8-.6-2.5-1-.7-7.3 1.3-4.3-.7-8.3 9.3-4.1 2.5-2-.8-4.6 1.2-4.6-11.6.8-1.8-.3-6 6.7.2 5.6-1.2 2.3-2.2-1.8-3.5 1.5-2.4 6.5.9 4.5-.7 2.9-4.5 1.2-3.9 6.2-2.8 1-7.5 4.7-1.8h7.6l3.2 1.5 15.4-4zM420.4 463.8l4.9.5 7.4-2.7 1.3 1.7-.9 2.7.7 1.3 3.6.7 3.6-.5 5.4 2.9.7 5.1 3.2 3.3.5 3.3 1.5.4 1.1 1.6-3.1 6.4-1.5 1-12.4-.4-7-4.3-5.7.4-6.5 5-3.2 1.1-4.4 3.9-1 1.8.7 3.7-3.6 3.2-3.4-1.2-4.4 1.8-3 7.2-1.1-.3-.5 1.4-2.7-.8 1.1-2.6h-2.3l-.9-1.1 1.9-4.3-1.4-2.3.4-1.4 4.1-2.7.6-5.3 1.5-3.4 6.1-6.3-.8-1.7-4.5-2.6-.2-1.1 1.5-2.2-1.4-3.6.7-1 3.1-.9 4 1-.8-2.7.5-.8 5.9-2 2.8-3.5 7.9.3zM356.5 318l-1.2 2.9-.2-3 1.4.1zm36.1.5 4.4.9 10.3-3.2 7.2 1.9-.5 2.7-3.1 1.9.3 4.2-1.8 1.9-.6 5.5-1.5 1.6.4 3.4-2.4 1.6.7 5.9-1.2 1.2.2 1.3 2.3 2.5-3.7 3.4-5.1.3-1.7-1.6-3.6-1.3-1.5 6.2-4.3 3.8-.8 2.5-2.9 2.1-1 1.8-8.3-.2-8.2-.9-.9-2.3h-1.4l-.6-5.7-1.4-.3-1.5 1.6-2.7.7-4.6-2.6-2-2.5-3.7-.3-1.6-1.1-1.6-2.3v-3.2l-1.9-1.7-.5-2.8-1.4-1.8-.1-4.1-1.9-1.6 3.1-5.4v-2.1l-2-3.1 15.2-.3 6.2 1.9 5.3-1.8 7.5 2 3.2-.4 1.6-2.9 2.4-.3-2.9-2.9-2.3-.1-2.3 1.1.6-5.4 8.8 1.8 4.9-1.7 4.9.2zM254.3 356.6l.9 2.2-1 .7-3.8-1.9v-.8l3.9-.2zm-4.6-21 1.1 1.1-.4 3.6 1.9-.7-.7 1.6-10.4 2.1-3.1-1.8.3-1.5 4.7-3 6.6-1.4zm55.7-11.5 1.1 2.1-1.2.6.9 1.5 4.6 2.6 4.1 1.1.7 1.6-.5 1.9-3 2.2-2.8 4.3 3.3 3.1-.1 3.3 2.5 4.3-.7 5.4-1 1.5-4.9 2.9-3.4 3.3-6.4-1.8-2.9.2-3.5-1.9-3.8-.4-3.3 2.4-4.3 1-2.5 3.5-.3 3-6.8 1.5-4 1.5-.4.9-3.3-.3-1.9 1.3-.7-.6-3.6 1.1-2.7-1 1.4-6.1 1.3-1.1 1-2.6-.9-5.4 1-3.3-1.1-1.1 1.8-8.1.7-.8 2.9.4 2.1-.9 1.8-4.3 1.8-1-.2-4.2 5.1-1.5 1.7-2.9 1.4-.1 6.2-6.5 6.4-.2 2 1.3 3.3-.5 2.2-2.7 2.7-.5 2.1.9 3.3-2.1.8 1.2zm-21.3-16.4 5.9-.3 3.1 1-3.3 7.7v2.9l-9.4 4.8v1.8l-2.4 1-.4 2-1.7 2.3-3.1 1.6-3.7 3.7-2.7.9.9 3.2-3.6 3.2-4.9 2.1 4-8.1.4-2.6-2.1-2.4.8-.8-1.2-.8 4.6-2.4 5.1-4.1 6.2-3.3 3.6-.2 2.1-2.7.9.7 2.7-2-1.2-3.8-3.7.5 3.1-5.9z"/><path d="m536.2 285.6 2.9.7 2.8 4.4 4.3-.4 6.2 2.9 6-3.3 2.4 2.4 1.7.3 6.6-1.6 4.9-2.3.1 1.9-2.7 5 .1 1.6 4 4.7 7.5 2.1-.8 5.2 3.8 3.3-1.2 2.7.6 2.6-.8 1.9 1.5 1.6.3 3.6-3.3 5.6-2 2-2.9 1.1-4.5-.4-2-2.1-3.6-.7-.8-1-6.5-1.1-3.4.4-1.2-1.5-2.6-.5-1.6 2.5-2.3 1.1-4.5-7.5-5.3-2.1h-3.7l.9-3.5-.7-1.5-4.8-1.2-7.3-4.3-3.9.3 1-5.7-3.1-4.7-4.7.1v-3.4l-2.1-6.8 9.4 1.9 1.4 2.2 2.7-2.5 4.7 1.8 1-4.3-1-2.5h4.3l1.4-1.2.8.2z"/><path d="m618.5 277-.1 2.4 2.7 5.8-2.1 3.7 1.9 1.3 3.8.4v2.2l-3.1 2.4 2.5 3.2-2.9 5.5.4 3.4 3.8 2.9 3.9-1.1 5.7.4-.2 3.7 4.5 1.1 2.4 4.2-.6 2-1.6 1.1v1.7l-1.9.8.6 1.9-1.3 2.8 2 1.5-2.4 4-3.5 1.1-2.1 2.6-2.4-1.9-1.2.4 2.1 3.5-2 1.7 2 3.5-.9 1.4-10.5.8-.3-2.3-.8-.5-3.6 3.8-5.2.3-2.7 1.2-2.6-.6-1.7-1.8-1.7-.4-3.8 2.7-1.1 1.9-4.9-.6-3.6 1.1-.4-1.8.3-.9-2.7-4.3.5-2.5-1-2.5.7-2.3-3.9-1.4-1.5-2.8 2.9-1.1 2-2 3.3-5.6-.3-3.6-1.5-1.6.8-1.9-.6-2.6 1.2-2.7-3.8-3.3.8-5.2 6.4-1.6 3.2-7.5 2.4-1.2-1.4-3.5-2.2-1-2.7.4-.4-5.6 4.5-3.5.3-2.3 2.5.5.2 1.6 2.4-2.2 2-1 3.3 2 1.2 2.8 2.4 1.5 2.5.1 2.6-2.1 2.9-.1 3.6-4.4zM407.3 427l2.1 1.4h1.6l1.4 1.5 1.7.2 1.1 1.8 2.6 1.1 2.4 6.7-2.7 2.2-1.9 3.1-4.3.2-2 3.2-5.2 4.8-.3 2.8 1.3 3 7.6 4.3-2.8 3.5-5.9 2-.5.8.8 2.7-4-1-3.1.9-.7 1 1.4 3.6-1.5 2.2.2 1.1 4.5 2.6.8 1.7-6.1 6.3-1.5 3.4-.6 5.3-4.1 2.7-.4 1.4 1.4 2.3-1.9 4.3-2.2 1.5-3.7.6-2.9-1.2-1.1-3.2.1-3.7-2.9-4.1-.4-3.6-4.1.6-2.5-.9-1.8-3.6-3.2-2 .1-2.8-1.6-2.1-2.1-.3-.7-2.7.7-.5.5-4.1 6.3-5.2.8-3.4 2.4-3-4.4-2.8-1.4-2.1-.5-5.5 3-.3 1.5-2.8-4.5-.8-1.6-1.8-2.8-1.2 4.5-2.7 1.4-3.4 2.4-2 13.8.1 1.4 3.4.5-2.5 1.2-.3-.3-1.4 3.4-3.9 11.5 2.5 1.3-1.7-.4-5.8 6.9-4.4zM871.5 415.3l2.2 1.7 2.7-1.2-.4 3 1.1 4.3 2 1.6 1.8-.4.3 3-3.6 1.2-4.3 8.2-.3 6.7 2.4 1.8-2.6 2.6-2.3 6.5-4.4 6.4-.8 2.8 2.9 1.3-2.1 3.1-1 2.3-3.7 1-8.3-2.4-.6 2.5.9 3.3-.7 1.4-8.7-2.2-.6 1.9-6.6 2.6-2-.2-4.7-2.8-5.6 2.6-2.4-.1-2.9-3.5-.5-10.1-1.7-4.3-3.5.9-2.5 2.7-2.8-3.1-5.7-1-3.3-3.8-8.3-3.3 2.3-2.5 1.8-4.3-1.6-2.9-3.3 1.1-1.5-.9 1.3-1.3.5-3.6 6.6-2.1 1.8 1.1 2.2-.5 2.6 2.8 1.9.5 1.4-4 5.2.4 5.3-2.5 3.1 1.4 1.6-4.5 1.7-1.2h8.9l3.6-.8 4.1-.9.9-1 .1-2.9 2.6-2.8 3.4.3 3.8 2.5 1.2-.7.7-2.8 6 2.9 2.6-1.3 2.6-3.9 7.2-2.6zM469.2 288l1.7 5.8 2.5.5 2.2-.7-1 7.5-6.2 2.8-1.2 3.9-2.9 4.5-4.5.7-6.5-.9 1.4-2.8-3.8-1.9-.3-1.1.5-2 1.9-1.8-1.4-2.1-2.5.2-.5-1 1.4-2.1 2.6-.5 2.9-2.3 2-2.8-1.6-1.4 13.3-2.5zM291.4 239.9l-.3 9.3 1.5 3.1-1.5 3.4.4 2.8-2.4 3.3 1 .9 1.7-1.8 1.1 1.1-2.2 2.8.4 1.5-2.2 3.9 1.1 4.3-1.2 2.4 1.3 1.1.8 4.8-2.4 4.1-4.1 4-4.3.7-.9 1 2 1.9-1.1 8.2 3.9 5.1-3 6-4.4.4-3.1 2.4-3.2-1.3-1.8.9-1.5-.5-3 .9h-6.5l-3.2-1.9-1.3-5.6 3.8-.8.8-2.7 3-2.5-.4-1.3.7-.1v-1.2l1 .4.5-1.8 1.2 1.1-.2-2 2.9-.7-1.4-2.2 1.7-1.9-1.6-1.1-.6-1.7.9-1.9-1.2-.2 1.4-1.7-1.2-1.7.7-.6v-3.7l3.2.1 4.8-4.7 2.7.8 1.9-1.4-1.5-14.2-2.6-.7-1.7-1.7.3-.8-4.9-1.6-2-2.1 1.5-4.4 7.1-.3 1.7-2.7-.8-2.9 2.6-2.9 5.3 1.2 1.5-1.7 2.2 1.1 1.1-1.2 4-.8z"/><path d="M821.3 395.6h3.9l4-2.7 4.6-.8 3.3-1.7 1.2.7v2l-2.8 3.4.1 2.8-1.9 3.4.9.8-.3 2.1 1.2 3.3 3.7 2.7.6 1.9-1 .8-4 .2-1.2 2.1-2.3 1.8 5 9.9-3.6.8h-8.9l-1.7 1.2-1.6 4.5-3.1-1.4-5.3 2.5-5.2-.4-1.4 4-1.9-.5-2.6-2.8-2.2.5-1.8-1.1-6.6 2.1-1.8-2.6-6 1.3-3-2-2.9-4.2-5.6 1-9.5-3-3-2.8-.4-4.7 2.3-3.1 2-1 .2-2.5 1.5.2 1.1-.9 3.7 1.1.9-.7-2.4-7.8 1-1-.2-2 3.3-3.5 1.5.9 1.2-.8 1.4 1.3.3 1.7-1.9 3.3.6 1.4 4 1.3 4.3-2.2 12.2 2.1 1.9 2 2.8 1 .7 1.7 1.7-.8 2.2 1.1.9-.3.9-2.4 5.9-.1 3.5-1 1.7.7.7-3 1.9-2 1.3-4.9-1.6-2.4 1.6-2.5z"/><path d="m774.3 344.2 9.3.9 3.1 2.5 6.9 1.8-.1 2.3 2.9.3 6.5 3.1 8.5-.8 6.2-3.7 3.2-3.1 3-1.6 15.2.5-3.1 2.7-.4 3.3 6.1-.2 1 1.2 5.5 2.1.8 2.7-1.5 2.5.1 1.4 6.1 3.1.5 1.1-1.1 3.3 2.6 2.8-.7 1.2-2.7.8-2.9-1-7.1.6-3-3-5.9-1.1-4.9 1.8-1.7-1.2-7.7-1.9-1.8.7-1.6 5.3-1.7 1.1-8.7-1.2-6 1.8-7.4-1.1-8.3 3.9-4.7 3.8-.3 1.6 1 3-2.2 1.5-3.1.7-.8 1.1 1.2 1.1-1.3 2.4.9 5.3-1.2.8-1.5-.9-3.8-4-3.2.1-2.6-1.6-3 1.7-2.5-2 3-5.9-3.1-5.2 2.8-.7.6-1.8-2.9-1.7-1.3-3.5 1.9-3.8-.8-5.1 1.7-5.3 4.5-3.3-4.1-3.4-.1-2.2 2.5-2.2 4.7.5 3.2-2.8 4.2-.5 1.1-2.6z"/><path d="m872.3 304 7.4 3.3 2.3 2.5v.8l-1.6.9.1 3.7.6 2.2 1.6.3 5.3-3.9 7.4-3.2.8.3.4 3 1.7-.1 1.6-1.5.4-3 2.6-2.5-.5-5.5 5.3-5 9.1.3 3.3 3.1 2.8 5.6 7 1.6 2.5 5.2 1.7.4.1 1.4-4.2 3.4-2.2 3.3-1.1 3.9 1.1 2.1-.9 1.5-1.7.9-3.8-.4-7.2 1.7-2.1 2.5.3 1.5 5 3.9.5 1.3 2.8.3 2.8 2.2 1.1 3.4 4.7 2.1.7 2.2-2 3.1-8.6 2.9-1.2 1.2 1.9 4.3 5.3 2.8 2.9 3-.7 1.5-3.4 2.6-1.5 2.8-6.6 5-1 4.6-4.9 1.2-.1 2.2-4.1 2.8-7.5 2-7 .2-1-4.8-6.9-4.8-7.9-.2-2.5-.9-5-4.7-13.2 1.6-2.7-.5-1.5-1.3.9-2.1 2.7-.8.7-1.2-2.6-2.8 1.1-3.3-.5-1.1-6.1-3.1-.1-1.4 1.5-2.5-.8-2.7-5.5-2.1-1-1.2-6.1.2.4-3.3 3.1-2.7 5.4.3 7.7-4.6 1.8-2.6-.1-2.4h-6.4l-1.5-1.5 2.7-8-.8-2.8 1.6-5.7 10.7-5 7.6-7.2 5.1-2.7zM449.7 340.2l1 4.7 3.4 1.8 3.1.1.4-1 3-.4.7-1 3.3 1.3 3-.9 3 .9 2.1-.9 1.5.9-1.6.5.6 1 2.5-1.4 1.7 1.3 1.4-1 3.5.8 1.9-1.6-.4 2.2 2-.4-.7 1.9 1.7.8.1 1.9 1.3 1.9 1.4 1.2 2.2-.3.6.6-.9 1.2 2-.3-1.2 1.1-1.6 4.6 2.6 3.7 1.4 5.5 1.9 1.9-.4 1.4 1.7.6-.7 4 1 1.5-.8 1.5 2.7 1.1.1 1.1-6.1 6.7-.3 2.5-.8.9-2.5.2-1.8 2.6-7.6 1-1.8-2.7-3.5-1-.6-2.8-4.4-4.1-3.5 1-3.8-2.6-1.4.9-1.2 3.1-1.9.3-.6 1.6-3.2-1.3-2.4.2.2 1.1 3 2-1 2-8-.9-1.7 4-3.2-3.2-2.8-1.3-2-4.9-3.2-.6-2.4-.4-.2-2.9-2.1-1.7.9-2-.7-3.6 1.1-1.9-.9-4.3-4.5-2.4-2.8-2.6 1.3-1.5-.6-.8-4.4 1-2.4-.6 1.1-3.8 3.3-4.1 6.4-1.2 1.8-3.8 2.4-1.7.9-1.7 2.1-1.1 5.4-5.5 3.3-1.2 4.6-1.2 2 .5zM726 477.6l1.8.8 4.3-1.3 1.7 1.8 7.5.3 5.6 2.4-.9 1-1.1-.7-2.6.3-4.1 4.7.5.9-1.1.5-.9 2.7 1.7 2.2-1.6-.3-.3 1 1.8 3.4-.6 3.6 2.2 1.4 2.5-.6-.5 3.5 1.6 1.2-.1 1.9 1.7 2.3-.8 2.4-3.5.7-6.5 3.5h-5.1l-4 2.4-1.5-3.1-1.9-.9-3.9.4-1.5-.6-.9-3.8-1.1-1.1-7.3-1.8-1.2-4.1-1.9-.4-1.5.4-2.5 3.4-4 1.9-2.2 5.1-5.2-1.7-2.3-3.4-4.5-1.4-1.6-3.1 9.1-10.9 2.5-.4.6-1.7 2.4-.9 3.6-3.8 2.7 1.3 3.1 3.4 2.9.3 4.7-6 9.8-1.1-.2-2.3 2.4-.2 2.2-5.5zM791.5 290.5l-.1 17.2-5 2.1-3.3-.3-4.2 2.5-4.9 8 9.3 4.1 1.6 2-.6 6.5-1.8 2.6-1.3-.5-1.1.8.5 3.9 3 3.8.1 1.9-9.3-.9-5.7-.3-2.7-1.3-1.3-3.7-2.5 1.8-.9-1-1.7.9-3.2-2.1-4.2-.8-2.2-3.9-.2-6.5.9-3.9-4.5-1.9.3-3.6-1.4-2.4.9-1.8-2.4-1.4-1.6-3.9 2.1-1.7-.6-2.4 3-4.4 1-3.3 3.8 1.3 3.7-.3 3.1 1.9 1.4-.8 1.5.7 4.2-.4 3.8-3 2.5 1.4 1.2-.2 4-3.2 2.4-.1 2.5-1.7 3.5.6 6.4-2.3z"/><path d="m791.5 307.7 2.6 1.4 5.9 1.3 2.3 2.6 1.6.3.5 1.9 2.7-.2 2.5 2.3 4.3-.2 2.1-2.3.4-3.9 2.2-.2.6 1.6-.8 3.2 4.5 1.8.9 1.9 3.2-1.4-.6-1.1-2.8-1.3V314l3-.4 2.2 1.6-.5 1.9 2.2 1.6 2.4-.6 3.5 3-14.2 2.4-1.2 3.5.2 7-2.9 7-4.4 5.6 3.7 3.9-6.2 3.7-8.5.8-6.5-3.1-2.9-.3.1-2.3-6.9-1.8-3.1-2.5-.1-1.9-3-3.8-.5-3.9 1.1-.8 1.3.5 1.8-2.6.6-6.5-1.6-2-9.3-4.1 4.9-8 4.2-2.5 3.3.3 5.2-2zM967.4 464.8l4.7 1 7.5-2.2 5.7.5 5.1-1.3 2.7 1.4 1.2 2.5 5.5.5 2-1.5 3.7.3 1.9-1 4.2-.5 2.7 2.6.3 1.4-2.4 3 1.9 2.1-1.4 7.9 2.2 1 .9 2.2 2.6.5.7 1.9 2.6 1.7.5 1.8-2.3 2.2 1.1 4.3-1.1-1.3h-3.5l-1.5-1.1-6.8 6-5 1.6.7 1-1.5 1.2-.4 1.7-2.8-1.6-1-3-1.8-2 1.7-3.2 2.1-.3-.3-4.1-1.6-1.9-4.2-2.1-4.1.3-.3-.6-1 1.6-1.5.3-1.6 3.5-2.7.1-.8 1.5-1-1.8-4.7-.4-2 .8-3.1-2.1-2.4.8-6.6-4.3-.2-7.5-1.9-3.7 5.9-6.6 1.4-5.1zM663.6 502.8l3.8-.8 6.6 3.1 3.1-.5 3.1.7 1.6 3.1 4.5 1.4 2.3 3.4.4 1.6-2.5 2.8.6 1.9-2.1 2.6.6 3.6-1.9 5.1.9 3.2.9 1.5.7-.1v3.5l.3-.7 1.9.1-.1 2 1.6.2-.6 1.1.6 1.3-1.3.9-1.6-.5-.2 1.2-4.8-1.3-1.5 2.2-3.5-1 .7 1.2-1.3 1.3 1 4.3-.6 3.7-1.6 1-1.9-1.1-.1 3-1.6-.5-2.3.8-1.8 7-1.6-2.7-4.7-1 .2-2.9-3.7.5 2.6-4.3-3.4-7.2-4.8-7.2v-1.2l3-2.5 2.2-3.7 2.8-1.4 2.6-3.2 6.2-3.1.9-2.4-.9-5.2.5-2.2-3.6-5-4.4-2.5-.2-2.6 2.4-2.5zM612.6 480.8l.7 3.6 6 7 .1 1.2-2 1.9v1.5l2.2 1.3.9 2.3h1.7l3 1.8 1.3 5.9.7 6.7-.8 1.5-2.8-.7-1.3 1.7-.7-.7v1.1l-2.7-.2-.2 1-2.1 1-1.6-2.5-4.3-2h-4.5l-3.7 2.1-5.4 5.3-6.5 4.4-4.1 5.6-3.6 2.8-.2 4.6-1.2 1.3H580l-1.9 3.2-1.1-2.7-2.8-1.5-1.1 2-1 .1-.8 2.2-4.1 2.9-.6 2-1.5-3.1-2.3.9-1.3 2.5-3.9-1.6-2.8 1.5-1.9-1.3-2.3 1.2-6-.4-2.8 3.4-1.2-1.2-4.2-.5-3.1 1.5-2.9 2.8-5.6-1.4-4.3-2.8 1.8-3.4-.8-2.2 2.3-6.2-3.4-10.4 4.6.1 8.7 3.3 5.3.9 5.6-1.9 3.9-3.6-2.7-3.2-3.1-1.9-2.1-3.4.5-4.4-1.5-3.2 2.9-1.2 1.9 1.7 3.1-3 6.4-1.4 3.2.2 2.7-1.2 3.3 1.9 7-4.1 7.8-1.1 7.8-2.8 1.5-1.3-.2-3 6.7-2 7.5-4-1.5-2.7 1-2.1 3.3-.1 8.6-3.5zM974.8 341.5l2.5 2.4 2.2-.1 5.7 3.2 11.6-.4 3.5-.9 5.9 2.6 5.4 5.1v1l1.7 1.5.1 1.8 4.1 1.7-.3 1.1 2.4 1.5.1 1.4 2.2 1.7-.1 1.3.8.3-.5 1.3-3.8-4.5-2-.2-2.1-3.5-5.8 5.4-3.8.5-5.3-2.3-3.7.5-4.2-1.3H985l-3.6-2.7-7.1-.7-3.3-2.6-1.7.4-1.6 2.6-2.4.2-.5-7-2.9-3.4-3.1-.8 4.2-6.9 4.5.8 7.3-1zM420.4 463.8l2.1-4.3-.2-3.5 3.1-3.9 4-1.8 6.8-7.5 5.4-1.3 5.9-3.7 3.1-5.3 3.7-1.7 3.1-3 5.5-.9 2.5 2 1.9 2.9 1.3-.2.9 3 2.6 3.3 5.1 4.3 3 1.1 1 2.8-.3 4.1-3 2.2-.5 2.7-3.2 2.4-.4 3.1 1.9 4.5v1.9l-.3.8-3.3 1.2-1 1.7 1.1 5.7-1.3 5.2-8.1 1.1-4.1 3.1-3.5-3h-2.6l-1.5-.4-.5-3.3-3.2-3.3-.7-5.1-5.4-2.9-3.6.5-3.6-.7-.7-1.3.9-2.7-1.3-1.7-7.4 2.7-5.2-.8zM385.8 282.1l13 3.2 1-.6 9.3 2.2h3.9l.1 2.6-2.3 3.9-1.6.5-4.2-.9-2.3 3.8-3.8-1-3.1.6-6.9 8.7-1-.7-2.5.6 1.2-2.5-5.8-2.6-1.4-2.1-3.6-2-.6-2.3 1.9-1.5.6-3 1.1-.8-.9-1.4.7-1.9 3.2-2.5 4-.3zm-44.9-18.6 3.9 4.1 14.3 7.6 2.6.5 10.9 5 5.2.2 1.4.8v1.5l-3 3 1.4 1.8-3.6 6.4-5.5 1.7-.7 1-2.9-1.3-5.8 1.1-1-.7-.3-2.4h-.9l-1 1.8-5-3.1-7.6-2-6.5 1.1-3.1 1.8-.9-2 .2-2.8 1.7-3.5v-2.4l2.4-4 3.1-15.5.7.3zM280.6 425l1.1.7.5 3.6-1.9-1.1.3-3.2zm28.5-43.8.8 4.6 2.2 2.2-.6 4.1 3 8-.6 3.2-1.5 1.5-4.5 1.9-2-.6-5.2 2.7.3 1.3-2.2 3.1 3.9 5.3.2 5 1.9 1.3 4.4-.3 1.8 1 1.1 2.3 2.9-.3 1.5 2.3 1.6-.3 1.5 1.5 2.8.3 2 4 2.7.1.8 1.3 1.1-1.5-.4-3 1.9-.4 1.4 1.2 4-.9 4 1.8 1.1 1.5 3.7.6 2.9 2.6 5.2 1.8-.4 3.6 2.4 2.9-1.2 2.2-3.4-1.7-3 1-.7 1.7-1.9 1.5-10.1.9-11.7 3.6-5.3-2.7-2.7.1-3.4 2.2-.7 4.2-2.8 2.2-.8-2.3-3.3-1.4.3-2.3-1.3-2.1-4.5-.4-6.2-4.5-3.1.5-1.7 1.7-1.7-6.5-2.4-.9 1-1.3-1.3-1.2-5.1 1.1-.4 3.2-.7-.1.4 1.5-.9.4-1-2-.4 1.3-1.2-.6-.6-2.8-5.1-2.1.1-1.9-1.1 1.7-1.2.1-2-2-2.4-.3.1-1.2 1.6.2.3-1.7.9.1-.8-2.5 3.6 3.1.5-2.3.7 1.5 3.3-2.8-1.3-2.7 1.6 1.4 1.1-1.4-3.3-2.6-1.8 1.6.8-2.4-2.1-4-.3-3.6.3-1 2.3-1.1 4.3 1.5 2 4.7 2.3 1.5.6 3.3-2.2-.1.7 1-.9 1.4 1.4.5 2.4 5.5 1.2-.4-1.1-3.9 1.2-1.9h1.2l1.2 3.3 1.5.6 9.1-3 2.6.9 2.3-2.3h1.1l-.5-1.3-1.9.9-1.4-.9-5.2 1.6-2.7-3.4v-1.6l-2.2-1.2.7-1-3.7-2.1.4-1.3-1.3-.3.8-1.2-1-1.5.4-2.2 3.7-1 .3 1 .8-.5 1.6 1 .5-1.7 1.3.1-1.9-3.1.9.4 1.2-1 .2 1.6 1-.1-.2-2.1 3.8-1.2-1-1.3.8-1-.6-1.3-1.3 1.5-2.4-1.5-3.6 1.1-2.7-1.8-.1-4.2 3.6-2.3-2-3.4-2.9-1.3 2.6-3.6 6.9-2.2 3.1-3.6 3.6-1.1 3.1.9 6.7-1.7zM693.9 424.6l9.4-2 6.8 1.3 4.4-.4 1.1.9-2 3.1v1.9l5.7 3.2 3.3-.3 4.3 3.4 3.7.7-.6 4.5 3.3.5.1 2.3-2 3.2-4.7 4.1.6 3.2 1.5.9-1.4 2.6-3.2 1.9.1 4.5-2.5 2.6-.3 3.1-1.3 2 .7 1.9 3.9.4 1.4 3.6-2.2 5.6-2.4.2.2 2.3-9.8 1.1-4.7 6-2.9-.3-3.1-3.4-2.7-1.3-3.6 3.8-2.4.9-.6 1.7-2.5.4.4-2.6-1.6-3.2 1.2-2.6-.4-1-6.8-.1-5.4 1.7-.8-.8-3.6.1-1.7-14.8 1.1-2.3 2.9-2.9 1.2-3.6-2.5-5.4 2.8-3.9-3.2-1.7 2.9-3.5 3.1-8.8 11.5-4.9 1.6-6.8 1.7-3zM533 263v1.2l1.3.9 2.7-1.3 1.2 1 1.3-.7 1.5.5-.2 2.9 1.9 1.1.5 2.1-.2 2.9-1.2 2.1-2.7.4-2.4 2.4-1 2.9.7 4.1-.9-.2-1.4 1.2h-4.3l1 2.5-1 4.3-4.7-1.8-2.7 2.5-1.4-2.2-9.4-1.9-5-.7-1.7-4.7 1.7-5.7 2-1.8 5.2 1.4 3.8-2.8 2.4 1 2.3-1.3 2.1 1.5 1.3-3.1-1.7-4.9.4-1.3 5.6-2.4 1.1-1.9 1.9-.2z"/><path d="m514.9 514.7 9-1.6 4.2-1.9 2.6-2.7 1.3-4.7-.8-1.4-4-2.3-1-5.5 1.4-1.8 2.9.1 2.1-6.2 4-3.5 2.3-3.4 4.3-2.3 3.8-.4 4.5 3.3 9.1-3.1.7 10.2 6.8 9.4 2.4 6.5-7 4.1-3.3-1.9-2.7 1.2-3.2-.2-6.4 1.4-3.1 3-1.9-1.7-2.9 1.2 1.5 3.2-.5 4.4 2.1 3.4 3.1 1.9 2.7 3.2-3.9 3.6-5.6 1.9-5.3-.9-8.7-3.3-4.6-.1-6-6.1-.5-1.8.6-5.2zM971.2 294.9l4.5 3.1.1 4.7 2.8 6.1-.1 3.5-1.1.7-2 4.9-1 .3.3 1.6-.9-.3.3 1-3.1 1.3-.4 1 3 2.9-1.2 4.1 2.1 3.9 1.6.7.1 1.7-1.2.1 2.5 3.3-2.2.5-.4 1.4-7.2 1.1-4.5-.8-4.2 6.9-7.3-1.2-23.5 5.7 2-3.1-.7-2.2-4.7-2.1-1.1-3.4-2.8-2.2-2.8-.3-.5-1.3-5-3.9-.3-1.5 2.1-2.5 7.2-1.7 3.8.4 1.7-.9.9-1.5-1.1-2.1 1.1-3.9 2.2-3.3 4.2-3.4-.1-1.4 1.3-1.4 3.7-.2.5-3.4 4.3-4.7.4-1.9 3.6-1.9 2.3-2.5 2 1 3-1.3 6.4.4 1.9-1.1 4.3-.4 1.6-1.7 1.6 1.2zM554.2 239.2l16.4 2.3 11.1-.4 7.6 1.7v1.6l1.8 1.6.6 2.7-1.2 2.9 4.9.2 1.6 3.4 4.8 1 2.4 1.9-1.4 5.5-3.5 3 .9 2.9-2.9 5.9 1 2.7-2.4 2.2-.2-1.6-2.5-.5-.3 2.3-4.5 3.5.4 5.6 2.7-.4 2.2 1 1.4 3.5-2.4 1.2-3.2 7.5-6.4 1.6-7.5-2.1-4-4.7-.1-1.6 2.7-5-.1-1.9-4.9 2.3-6.6 1.6-1.7-.3-2.4-2.4-6 3.3-6.2-2.9-4.3.4-2.8-4.4-2.9-.7-.7-4.1 1-2.9 2.4-2.4 2.7-.4 1.2-2.1.2-2.9-.5-2.1-1.9-1.1.2-2.9-1.5-.5-1.3.7-1.2-1-2.7 1.3-1.3-.9v-1.2l3.2-8.1-1.5-.8-2.3 1.1h-2.5l-1-1.5.8-2.3-1.5-1.1-.6-2.1 6.3-1 16.9-7.8 3.5-.3zM653.9 385.9l7.1 3.1 1 2.6 1.9 1.1 1.8 2.7 4.1.1 6.5-1.7 9 .6 5.8-.9 4.1 1.7 2.6 2.2 2 5.3-3.1 2.9-2 3.7-.6 4.9-3.6 3.2 3.4 7.1-1.9 3-1.6 6.8-11.5 4.9-6.4-6.4-5.1 1.5-3.6 4.9-2.5 6.5-6.5 2.4-4.3 4.7-3.2 1.4-1.3 9.3-1.2 2.1-7.1-.4-1.3-1.7-1.3.3-5.4-1.9 1.8-5.7-.3-9.7-2.4-1.7-5.6-.5-1.2-4.6-3.3-2.4-2-3.1 1-2.8 4.9-2.2 4.6-6.6-3.8-9-3.3-1.8 2.9-6.9.6-4.3 4.1-1.7.3 3.5.8.6 5.2-2 5.7-4.1-1.4-3.6 1.1-1.7 10.2-1.4 2-1 2.3-3.3zM693.8 514.9l2.2-5.1 4-1.9 2.6-3.2 1.5-.4 1.9.4 1.2 4.1 7.3 1.8 1.1 1.1.9 3.8 1.5.6 3.9-.4 1.9.9 1.5 3.1-2.8 1.4-.8 2-7.9-1.9-2.7-.2-2.2 1-.8-1.1-1.4.2-1 1.9-2.6-1.6-.2-1 1.4-1.7-.4-.8-1.7-.2-.4-1-2.7-1.1-5.3-.7zM555.8 380l-1.5-.7.5-2.4-.7-6.9-5.6-4.8 3.1-5.3-.4-3.5 1.3-.4 2.4-6.7 6.6-2.3 2.4-2.3-1.1-1.6.8-4.4-.7-1.3 1.1-2.3-.5-.7 2.1-2-.1-1.4 2.4-.5 3.6.7 2 2.1 4.5.4 1.5 2.8 3.9 1.4-.7 2.3 1 2.5-.5 2.5 2.7 4.3-.3.9-3.4 1.3 1.7 2.1.7 4.4-1 1.3-3 .1-1.9 4.7-8.6 7.9-3.2 1.2-6.3 4.9-4.8 1.7zM303 234.6l1.8.1 1.8 2.1 1.2.1 1.1 2.8 3.2 2.5h1.7l2.1 3 .6-1.8 1.6-.2.3-1 2 .2 1.1-1.2 5.6 1.6-.7-2.1 1.3-.9.2.6.2-.8 2.1 1.8 2.7-1 2 .5 1.2 5.3-2.4-.2-.6 3.2 2.5 5.6 2.4 3-.7.7.5 1.4 1.8 2.2-1.6-.1-.4 1.3-8.3 4.9-3.5.4-6.3 2.3-2.1 1.8-1.6 6.3-2.8 2.9-3.1 1.1-4.8-3.7-1.1-3-1.7-1.3-6.9 1-3-.6-2.2 2.1-1.3-1.1 1.2-2.4-1.1-4.3 2.2-3.9-.4-1.5 2.2-2.8-1.1-1.1-1.7 1.8-1-.9 2.4-3.3-.4-2.8 1.5-3.4-1.5-3.1.3-9.3.6-1.9 1.8-1v-1.4l1.8-.6 5.5 1.8v-1.2l1.8-.5z"/><path d="M584.6 358.2h3l1.7 3.8 7.3 3.8 1.7 3.2 5 .9.7 1-2.2 2.8 4.2 2.2 1.6 2.8-4.7 5.2 1.2 2.3 4.9.5-5.8 7.4-.1 2.6 1.8 1.9-3.4.1-3.1 3-3 7.5-1.4-.1-2.7-2.6.3 2.5-2.6.5-2.2-.8-4.3-4.3v-2.3l-1.6-3-2.4.3-.8-1.1-2.1.9-1.1-1-.7-1-4-.3-.2-1.3-4.3-3.8-2.9-1.2-2.8-5-2.6-1.6 1.1-1.1-2.1-3.2 4.9-1.7 6.3-4.9 3.2-1.2 8.6-7.9 1.9-4.7 3-.1.7-1zM427.8 283.7l3.1 1.3-1.5 1.1-2.7 4.8.5 1.5-.6 1.4 2.9 6.3-1.4 2.5-3.1 1.2.8 5.3-3.2 1.4-2.2 5.3-5.9 2.3-7.2-1.9-10.3 3.2-4.4-.9.8-1.7-.1-5.8 2.4-2.5 2.1 2.9 10.1-2.3 4.4.8 1-1.5-1-1-5.4 1.1-2.2-1.7-4.7-.6-1.8.9-3.3-.7-4.2 1.5-1.4-.4-.3-2.4 6.9-8.7 3.1-.6 3.8 1 2.3-3.8 4.1.9 1.6-.5 2.3-3.9-.1-2.6 9.8-.2 1.8-.8.2-1.4 1.5-1.2 1.5.4zM493.8 393l1.1.5 3.5 6.9 1.9 1.9 4.1.4 3.1-4.3 1 1.2 2.5-1.1 3.5 2.6 2.6.3 1.3-.5 2.3-3.4 4 1.9 3.4-2.1.4-3.9 2.7-1.4.8-4.4 1.2-1.8 6.2-1.7.7.7-.3 3.9 1.2.8 3.5-3.3 3.1-1 .7 1.5-2.9 1.6.8 4.9 2.2 2.8 5.8 3.6-.3 5.9 1.3 7.2 4.4 6.8-5.3 1.7-1.3 3.9-3.1 3.4-3 9.5 2.1 3.5.4 4.3 4 2.9 1.7 3.8 2.9 3.2 25.8-6.1 3.3 5.5 3.8 2.1 5.3 7.8 1.3 3.6-.3 1.9-4 4.9 3 1.4-1 3.2 3.7.8 2.4 3.4-1.1 2.1 1.5 2.7-7.5 4-6.7 2.1.2 3-1.5 1.3-7.8 2.8-7.8 1.1-2.4-6.5-6.8-9.4-.7-10.2-9.1 3.1-4.5-3.3-3.8.4-4.3 2.3-2.3 3.4-4 3.5-2.1 6.2-2.9-.1-1.4 1.8 1 5.5 4 2.3.8 1.4-1.3 4.7-2.6 2.7-4.2 1.9-9 1.6-4.9-3.3-.8-4.4-1.4-1.7-7.4-3.4-4.2-5.9-2.3-6.8-2.1-2.1-1-2.9-1.7-.1-3.4 2.1-2.8.4-8.9-2.1-3.2-3.2 1.3-5.2-1.1-5.7 1-1.7 3.3-1.2.3-.8v-1.9l-1.9-4.5.4-3.1 3.2-2.4.5-2.7 3-2.2.3-4.1-1-2.8-3-1.1-5.1-4.3-2.6-3.3-.9-3 1.2-3.7 12.2-7.9-2.2-2-.4-1.8 3.4-6.2.5-5.5-.8-1.5 5.9-1.2-.6-.9-5.2-.9-1.1-2.2 7.6-1 1.8-2.6 2.5-.2.4-.6zM374.4 368.9l8.3.2 1-1.8 2.9-2.1.8-2.5 4.3-3.8 1.5-6.2 3.6 1.3 1.7 1.6 5.1-.3 1.7 5.6 3.4 2.9 1.5.8 6 .2 2.4.6 4.4-1 .6.8-1.3 1.5 2.8 2.6 4.5 2.4.9 4.3-1.1 1.9.7 3.6-.9 2 2.1 1.7.2 2.9 2.4.4-1.7 3.3-2.7.1-3.3 2.2.5 7.1-2.4 3.9-2.8 1.2-2.6 3.5-2.1.6-2.4-.9-1.9-3.8-9.3-1.1-4.2.4-8.5 2.9-3.6 3.4-4.1-1.5-4.9.5-4.6-3.4-1.5-3.8 1.2-1.6-.1-2.3-8.5-1.6-2.2-1.8-1.5-3.3-1.6-4 7.2-1.3 6.1-7-.9-6.5 2.9-3v-1.8zM756.3 393.6l2.5 2 3-1.7 2.6 1.6 3.2-.1 3.8 4-3.3 3.5.2 2-1 1 2.4 7.8-.9.7-3.7-1.1-1.1.9-1.5-.2-.2 2.5-2 1-2.3 3.1.4 4.7 3 2.8 9.5 3 5.6-1 2.9 4.2 3 2 6-1.3 1.8 2.6-.5 3.6-1.3 1.3 1.5.9-5.1 3.5-.4 1.4-8.4 3.4-6.9-4.7-2-.4-.7-1.1-5.8-2.9-4.1.3-1.4.5-1.6 2.3-7.1 2.7-.4 1.1 1.3 1.8.7 3.3-4 3.7-4.6.9-4.3-.9-2 1.1-1-2.5-3.1.7.4-1.8-.9-.9-1.5-.9-.6-3.2 4.7-4.1 2-3.2-.1-2.3-3.3-.5.6-4.5-3.7-.7-4.3-3.4-3.3.3-5.7-3.2v-1.9l2-3.1 2.4-2.1 1.4-4.9 6.3-3.3-4-5.1 2.4-4.2-2.2-4.2.4-.9 11.8 1.9 1.1-1.5-1.5-2.9 1.2-1.4 5.7 1.2 9.6-.1 3.9-2.7 2.5-.4z"/><path d="m309.1 381.2 2.5-1.5 4.6 3.7 6.3-1 3.5 3.6 4.2-2.9 1.3 1.3 1.3 3.7 4.5 3.4 4.2 6.2 1.8-.3 2.8-2.4 4.3.8 7.1-3.9 3.5.4 1.5 3.3 2.2 1.8 8.5 1.6.1 2.3-1.2 1.6 1.5 3.8 4.6 3.4-2.5 5.4-3.5 2-2.6.2-1 1.3-1.9 11.9-2.7 4.5 4.2 5.7-2.4 2-1.4 3.4-4.5 2.7-4.9-2.1-2.4-2.9.4-3.6-5.2-1.8-2.9-2.6-3.7-.6-1.1-1.5-4-1.8-4 .9-1.4-1.2-1.9.4.4 3-1.1 1.5-.8-1.3-2.7-.1-2-4-2.8-.3-1.5-1.5-1.6.3-1.5-2.3-2.9.3-1.1-2.3-1.8-1-4.4.3-1.9-1.4-.2-5-3.9-5.4 2.2-3.1-.3-1.3 5.2-2.7 2 .6 4.5-1.9 1.5-1.5.6-3.2-3-8 .6-4.1-2.2-2.2-1-4.6zM866.1 467.9l3.3 11.2 11.3-1 6.3-3.1 4.3-3.7 6-.6 2.1-1.9.5 3.1 2.7 3.1-1.7 1.6-.5 1.9-2.8 1-6 .4-.8 1.5-1.3 10.5.5 1.1 1.9-.7 1.1 3.5-.4 2.7-5.8 1.9h-9.6l-2.1.9-2.1-1.7-10.4-1.9-3 1.2-2.8-1-9.5 5-5.1.8-2.1 2.5-5.2 2.8-.6-2.3-2.2-1.6-.7-4.5-2.2-3.4-.2-1.7-1.6.2-1.7-1.7-.4-3.3-2.6-6.2-.2-2.7 1.2-1.6-1.7-2.7 2.4.1 5.6-2.6 4.7 2.8 2 .2 6.6-2.6.6-1.9 8.7 2.2.7-1.4-.9-3.3.6-2.5 8.3 2.4 3.7-1 1.1-2zM309.7 483.3l.7-3.8 2.6-2 3-.5 4.2 1.8 2.6-.2 3 2.6 5-.9 7.3.6 5.3-4.2.7 2.1 9 .4 5.4 3.9 1.3-.2.7 2.7 2.1.3 1.6 2.1-.1 2.8 3.2 2 1.8 3.6 2.5.9 4.1-.6.4 3.6 2.9 4.1-.1 3.7 1.1 3.2 2.9 1.2 3.7-.6 2.3-1.5.9 1.1h2.3l-1.2 2.6 2.7.8.5-1.4 1.1.3 3-7.2 4.4-1.8 3.4 1.2 1.6 1.3.5 2.2-2.4 4.1v6.1l-1.3 3.2-3.8 2.4-2.1 3.7-2.3 2-5.1.3-3.1 1.7.5 2.3-.9.4.1 3.4-2 1.3-1.8-1.8-2.4-.6-1-.9.4-.9-1.9-.5 1.3-1.4-.2-2.4-1-.7 1-1.2v-2.2l-1.4-.4-.2-.9-1.5.5v.9l-1.6-.3 1.4-.9-.2-2.9 1.4.3.1-1.6 1 .6-.5.7 1.1-.3.3-1.1-1-1.5-1.7-.3-1.4-1.7-1 .3-2.7-2.3-1.3 2.9-1.4.2.2 1.3-.7.4.7 1.3.4-.6 1.1.4-2.5 2.6-.9-1.9 1.1-.6-1.4-1.1-1 .4.5-1-.8-.9-2.5-.9-2.2.7-.9-1.6-1.2 1 .3-1.3-.7-.3 1.1-1-.8-.5.7-.7-1.8-1.9-1.5-.7-.6 2.3-.7-.7-.7.4v-1.5l-1.6.3-.2-3.2-3.1 1.6.3.8 1.6-.1-1 2.4-3.6-1.5v1h-1.6l-.4-1 1.9-.4-1.8-1.3-1.3 2.3 2.8 3.8-2.1-.1-1.3 2.1-2.5.3-2.4 4.7-1.3-.2-2 1.6-.4-.8-1.2 1.4-.8-2.7 4 .1 1.4-2-1.1-.7-1.2.3.7-1.2-1.2-.8-.7 1.1-2.4-.5 3.6-2.2 1.7-.3.2 1.1 1.1-.9-1.8-1.3 1.9-2.4-2 .1-.8 1.6-4.5.5-.9.9-8.3-1-1.7 1.9-.5 3.2-4.1-1.1-4 1.6-4.7-1.6v-1.2l2.4-.2.4-1.9 7.3-.7 1.3-2.4 2.5 1.3 4.8-1.4 9.3.6.5-2h-2.2l.8-.4-1-.5 2.3-1-.2-1.2-1.4-.5 1.2-.2-.9-.8 3-.8 2.6.8.1 1-.2-2.1 1.8-.2.4-2.2 1.4.5-.1-.8 3.5-1.3-.2-1.1-9.1.9.6.9-.7.2-.4-.9-4.6-.2-1.3.8-2.2-.6-5.4 2-3-.7-1.9 1.2-2.6-.6-.4 1-1.9-.9-1.5.3-2.4-2.6-.4.9-.7-.6-.8 1.6.2-1.5-2.1.7-1.1 3-1.6-.4-1.5-4.9 2.8-2.7h-1.6l-.1-.9.8-.6 1.6 1.2.5-2.2.9 1.5.8-1.3 1 .6-.1 1.3 1.7-.4 1.7 2.4 2.7-2.4 1.8-.4-1.5-.9-.4-2 1.5-1 .7.6-.5 1.1.6-.2-.6-1.7 1.6-3.3-2.3.1-1.4 2.6-1-.5 1.1-1-.6-1.1-2.2 1.5 1.7-3.6-1-1.2-1.2 2.2-2.2-1-.2-1.7 2-1.3-.9-2.3zM922.8 374.2l3.5 3.6 1.5 4 3.4-.1.5 3.4 4.1 9.1-.8 4 .2 6.4-10-.9-9.9 3-1.4 1.6-.8 2.9-2.2 1 .3 3.4-5.8 5.2-1.1 2.7-7-1.6-7.8-.4-3 1.5-.3.9-2.1 2.8-3.1.6-.3-3-1.8.4-2-1.6-1.1-4.3.4-3-2.7 1.2-2.2-1.7-.6-6.1.8-5.5 2.6-3.1 4.5-1.9.7-1.5-.6-1.9-3.5-2-3.8-6.6.1-2.9 1.7-2.2 2.5.9 7.9.2 6.9 4.8 1 4.8 7-.2 7.5-2 4.1-2.8.1-2.2 4.9-1.2 1-4.6 6.7-5.1zM607.4 378.6l.6 1.6 3.2 1.4 5.3.8 3.7 3 .7 2.3-.7 2.1 1.7 3.6-.1 3.4 1.9 3.5-.6 4.3-2.9 6.9 3.3 1.8 3.8 9-4.6 6.6-4.9 2.2-1 2.8-5.3-.3-3.4 2.5-1.8.1-3.9-1.8-1.8-3.4-1.6-1.5-.4-3.7-2.9-4.4-4.5-2.4-.4-2.6 1.5-2.8.2-3.9-1.1-1-.3-2.5 2.7 2.6 1.4.1 3-7.5 3.1-3 3.4-.1-1.8-1.9.1-2.6 5.8-7.4-4.9-.5-1.2-2.3 4.7-5z"/><path d="m600.5 431.2 1.8 3.4 3.9 1.8 1.8-.1 3.4-2.5 5.3.3 2 3.1 3.3 2.4 1.2 4.6 5.6.5 2.4 1.7.3 9.7-1.8 5.7-4.5 2.7-3.3 5-5-.6-1.5 7-1 1.3.8 1.4-2.6 2.1-8.2 3.4-3.3.1-2.4-3.4-3.7-.8 1-3.2-3-1.4 4-4.9.3-1.9-1.3-3.6-5.3-7.8-3.8-2.1-3.3-5.5 3.3-3.3 4.3-1.1 2.1-1.6 3.3-4.9.8-5.8 3.1-1.7zM710.5 286.7h3.8l.2 1.2 4.1 1.1 5.8 4.4 2.8-1.4 3-4.8.8 1.1 3.5-.1-.4 3 1.2 1.9 2.5.8.4 1.4 9 1.3-1 3.3-3 4.4.6 2.4-2.1 1.7 1.6 3.9 2.4 1.4-.9 1.8 1.4 2.4-.3 3.6-1.9 1.6-3 .3-.6 2.1-3.7 3.4-2-1.3-1.6 1.4-4.2-.8.9-2-2.6-1.5 1.9-2.9-.4-.9-4.8-1.4-6.2.1-6.7-6.1-1.7-.6-.3-1.1-2.4-1-4 1.3-2.2-1.6-2.3.1-.8-1-.1-2.7-4.8-1.6-.3-1.4-1.9-1.2.3-1.4 4.8-2.7 1.2-1.9 3.9-.2 1.3-1 1.8-2.1-.6-2.4 1.7-1.6 3.1.1 1.6-2.6 1.2-.2zM671.8 468.9l-1.1 2.3 1.7 14.8 3.6-.1.8.8 5.4-1.7 6.8.1.4 1-1.2 2.6 1.6 3.2-.4 2.6-9.1 10.9-3.1-.7-3.1.5-6.6-3.1-3.8.8 1.2-9-2.3-10.5.5-4.3 1.3-4.1 2.1-3.2 5.3-2.9zM876.9 276.2l1.3 2.3.2 2.8 5.7 7.6-2.7 1.7-4.7 5.4-.8 3.1-3.6 4.9-4.7 2.9-7.6 7.1-10.7 5-4.3 1.1-1.5-4.2 2.7-4.8-3.2-4.9 1-4.4-2.1-2-.3-2.9-3.5-1.2 2.7-2.6 4.7-.9 1.7.8 7.1-3.1 3.7-4.1 3-1.2 2.4.3 5-2.1 8.5-6.6zM441.2 287.5l5.4 2.3 9 .7 1.6 1.4-2 2.8-2.9 2.3-2.6.5-1.4 2.1.5 1 2.5-.2 1.4 2.1-1.9 1.8-.5 2 .3 1.1 3.8 1.9-1.4 2.8-1.5 2.4 1.8 3.5-2.3 2.2-5.6 1.2-6.7-.2.3 6-.8 1.8-1.9.1-1.7-1.8-3.3 1.5-1.9-1.1-4.1 1.4-2.4-.5-2.1-1.4-1.7-2.9-1.5 1.5-1-.3-2.7-5 .5-2.7 5.9-2.3 2.2-5.3 3.2-1.4-.8-5.3 3.1-1.2 1.4-2.5-2.9-6.3.6-1.3-.5-1.6 2.7-4.8 1.5-1.1 10.4 2.8z"/><path d="m660.2 254.6 4 3.2 1.9 2.8.9 9.1 4.2 5.5 4.1 2.3.3 1.7 1.9 1.7 2.7.4 3.6-1.7 4.4-6.2 1 1.1 7.8 1.5 5.2 3 1.3 1.5.4 3.9 5.5 2.3-1.6 2.6-3.1-.1-1.7 1.6.6 2.4-1.8 2.1-1.3 1-3.9.2-1.2 1.9-4.8 2.6-.3 1.4-1.9-1.5-2.5.1-3.4 1.4-1.6-.3-2.7 1.6-4.7-1.9 1.6-1.9-.3-1.1-5.5-2-1 2.1-1.2.4-1.6 4.9-6.9-2.8-5 1.2-1.5-1.4-4.3-.2-.8-1 .3-1.7-3-1.5-1.6-3.8-1.4 1-.6-1.2-1.4 1-2.7-1.4-5.4.9-1.6-2.1-5.1-.6-3.8-.4-1.9-1.3 2.1-3.7-2.7-5.8.1-2.4 6.9-3.8.9 3.5 2.1 1.4.1 2 4.8 1.9 2-.6 1.2-1.9-.6-3.7 1.7-.4 3.3 1.4-.7-6.8-4-2-1.3-4.2 1.9-3.9 1.8-1.5 3.4 1.8 4.3-.1 14.1-5.5zM790.9 452.1l8.3 3.3 3.3 3.8 5.7 1 2.8 3.1 2.5-2.7 3.5-.9 1.7 4.3.5 10.1 2.9 3.5 1.7 2.7-1.2 1.6.2 2.7 2.6 6.2.4 3.3 1.7 1.7 1.6-.2.2 1.7 2.2 3.4.7 4.5 2.2 1.6.6 2.3-2.1 1.7-4.8 1.1-1.3 1.5-8.7 3.6-24.9 4.5-7.7-2.1-11.6.1-7.7-7-6.8-3-5.8-1.1-8.4 3.3-.4 1.4.8-2.4-1.7-2.3.1-1.9-1.6-1.2.5-3.5-2.5.6-2.2-1.4.6-3.6-1.8-3.4.3-1 1.6.3-1.7-2.2.9-2.7 1.1-.5-.5-.9 4.1-4.7 2.6-.3 1.1.7.9-1 3.8 2 .9-2.1 2 .3 1.1-1.7 6.8-.5 2.1-1.1 6.6-5.8 8.2-1.7-1.4-2 2.6-.5 1.2-.8.2-1.4 1.7-.5v-2.6h-2.5l1.2-1.2h2.1l.6-3-.8-.7 2.2-.9 1.3-3.6 1.3-1.1 2.3-.7zM894.5 441h4.3l1.2 1.9 1.7.6 4.4-.8.1 1.2.9.3h1.6l3.4-2.1 4.2.1 10.1 11.4 3 1 .7 1.3 1.4-1.2-.3-1 2.2-.9.7-1.1 2.9 3.7 1.8.9 1.9 4.9 1.7 1.3.2 7.5-5.3-1.9-4.8-.3-4.5-2.5-1.7.6-6.8 6.2-2.5 1h-3.3l-1.7-1.3-2.9 1.3-3.1-1.2-3.4.3-3.5-3.5-2.2-1.5-2.3.5-5-1.7-1.2-2.2-9.4-7.2.5-2 5.1-4.9 6.5-2.7 3.4-6z"/><path d="m618.7 235 2.3.1 1.5 1.8-.3 1 1.5.8 4.5-.8.7 1.4-2.5-.5-2 3-.2 2.6 1.6 3.5 3 2.9v1.8l2.9 3 6.5 2.7-1.8 1.5-1.9 3.9 1.3 4.2 4.3 2.1.7 6.8-3.3-1.4-1.7.4.6 3.7-1.2 1.9-2 .6-4.8-1.9-.1-2-2.1-1.4-.9-3.4-6.9 3.8-3.3 4.4-2.9.1-2.6 2.1-2.5-.1-2.4-1.5-1.2-2.8-3.3-2-2 1-1-2.7 2.9-5.9-.9-2.9 3.5-3 1.4-5.5-2.4-1.9-4.8-1-1.6-3.4-4.9-.2 1.2-2.9-.6-2.7-1.8-1.6V243l4.6.2 5.6-1.7 2.2 1.5 9.8-.1 5-3.9 1.8-2.9-.2-1.2.7.1zM942.4 462.8l4.6 1.4 3.3 2.6 9.4 1.6 2.3-.5 2.8-3.1 2.6.1-1.3 5.2-5.9 6.6 1.9 3.7.2 7.5-.9-.1-.9 1.3-2.8-2.2-4.9-1.5-3.8 1-2.7 2.1-5-1.6-.4-1.3-1.4-.6-2.7 3.5-1.6.1.3 1.1-3.2 3.6-1.4 3.6-4.5.4-4.8 1.9-1.4-4.1.9-2.5-2.4-2.5-3.2.1.8-1.6-.6-.3-7.2 7-9.9 2.8-6.2.7.4-2.7-1.1-3.5-1.9.7-.5-1.1 1.3-10.5.8-1.5 6-.4 2.8-1 .5-1.9 1.7-1.6-2.7-3.1-.5-3.1 3.5 3.5 3.4-.3 3.1 1.2 2.9-1.3 1.7 1.3h3.3l2.5-1 6.8-6.2 1.7-.6 4.5 2.5 4.8.3 5.3 1.9-.3-7.6zM745.9 321.3l4.5 1.9-.9 3.9.2 6.5 2.2 3.9 4.2.8 3.2 2.1 1.7-.9.9 1 2.5-1.8 1.3 3.7 2.7 1.3 5.7.3-1.2 2.6-4.2.5-3.2 2.8-4.7-.5-2.5 2.2.1 2.2 4.1 3.4-4.5 3.3-1.7 5.3.8 5.1-1.9 3.8 1.3 3.5 2.9 1.7-.6 1.8-2.8.7 3.1 5.2-3 5.9-2.5.5-3.9 2.7-9.6.1-5.7-1.2-1.2 1.4 1.5 2.9-1.1 1.5-11.8-1.9-.4.9 2.2 4.2-2.4 4.2 4 5.1-6.3 3.3-1.4 4.9-2.4 2.1-1.1-.9-4.4.4-6.8-1.3-9.4 2-3.4-7.1 3.6-3.2.6-4.9 2-3.7 3.1-2.9-2-5.3-2.6-2.2-4.1-1.7-5.8.9-9-.6-6.5 1.7-4.1-.1-1.8-2.7-1.9-1.1-1-2.6-7.1-3.1 3.5-4.9.8-6.7 3.2-1.2 2.5 1.2 2-.3 4.2-4.3-.8-5.4-3.5-4.1.6-4.6-2.9-1.5-.2-3.1 2.7 2.1 1.5.2.8-2.8 1.9-1 13 .3 4.5-1.6 1.4-2 .7-5.6 1.6-.6 1.6-3.1 1.9-1 9.3-.2 1.9 1.3 6-.5 1.9 1.1h2.5l1.3 1.3 1.8-.1.4-2.3 5.4-2.2-.6-1.3 2.7-2.1 1.8-2.9 4.2.8 1.6-1.4 2 1.3 3.7-3.4.6-2.1 3-.3 2-1.5zM290 277.9l2.2-2.1 3 .6 6.9-1 1.7 1.3 1.1 3 4.8 3.7 3.1-1.1 2.8-2.9 1.6-6.3 2.1-1.8 6.3-2.3 3.5-.4 8.3-4.9.4-1.3 1.6.1.5.6-3.1 15.5-2.4 4v2.4l-1.7 3.5-.2 2.8.9 1.9-1.5 3.3-3.3-.1-5-2.7-9.9 2.2-1.8 3.4-.6 3.6-4.6 4.3-1.7 3.8-4.9 3.6-5.5 1.6-2.1 2.3-2.7.7v-2.9l3.3-7.7-3.1-1-5.9.3-3.9-5.1 1.1-8.2-2-1.9.9-1 4.3-.7 4.1-4 2.4-4.1-1-5z"/><path d="m678.1 303.7 2.7-1.6 1.6.3 3.4-1.4 2.5-.1 1.9 1.5 1.9 1.2.3 1.4 4.8 1.6.1 2.7.8 1 2.3-.1 2.2 1.6 4-1.3 2.4 1 .3 1.1 1.7.6 6.7 6.1 6.2-.1 4.8 1.4.4.9-1.9 2.9 2.6 1.5-.9 2-1.8 2.9-2.7 2.1.6 1.3-5.4 2.2-.4 2.3-1.8.1-1.3-1.3h-2.5l-1.9-1.1-6 .5-1.9-1.3-9.3.2-1.9 1-1.6 3.2-1.6.6-.7 5.6-1.4 2-4.5 1.6-13-.3-1.9 1-.8 2.8-1.5-.2-2.7-2.1-1.5-1.5-.8-6.3-7.5-.3-4.4.9-1.5-1-4.5-.6-.1-3.1-2.7-2.2-.5-3.1 4.7-3 4.7-1.1 2.4-1.7.2-1.7 2.5-1.6 1.1-3.1 5.5-.3 1.6.9-.1.9 3.8 1.4 1.1-1.6 5.4-2.5.9-2.2 2-1.7-2.7-.4-.3-1.3 5.6-.4 1.1-2-.2-2.4 3.2-2.9-3.3-1.8-.5-1.6zM802 289.1l2.2.6 3.4 3.6 3.1 1.5 3-.8 4.4 1.4 1.8 1.7 6.8-.2 3.4 2.4 4.5-.8 3.5-2.6 3.5 1.2.3 2.9 2.1 2-1 4.4 3.2 4.9-2.7 4.8 1.5 4.2-8.6.9-3.5-3-2.4.6-2.2-1.6.5-1.9-2.2-1.6-3 .4v1.4l2.8 1.3.6 1.1-3.2 1.4-.9-1.9-4.5-1.8.8-3.2-.6-1.6-2.2.2-.4 3.9-2.1 2.3-4.3.2-2.5-2.3-2.7.2-.5-1.9-1.6-.3-2.3-2.6-5.9-1.3-2.6-1.4.1-17.2 4.1 1.4 5.7-3.2.6.3zM774.2 399.5l-.9-5.3 1.3-2.4-1.2-1.1.8-1.1 3.1-.7 2.2-1.5-1-3 .3-1.6 4.7-3.8 8.3-3.9 7.4 1.1 6-1.8 8.7 1.2 1.7-1.1 1.6-5.3 1.8-.7 7.7 1.9 1.7 1.2 4.9-1.8 5.9 1.1 3 3-9.9 8.6-7.5-.5 1.2 4.2-2.6 2.3-2 7.2-1.9 2.3 1.6 2.4-1.3 4.9-1.9 2-.7 3-1.7-.7-3.5 1-5.9.1-.9 2.4-.9.3-2.2-1.1-1.7.8-.7-1.7-2.8-1-1.9-2-12.2-2.1-4.3 2.2-4-1.3-.6-1.4 1.9-3.3-.3-1.7-1.3-1.3zM378.2 410.1l4.9-.5 4.1 1.5 3.6-3.4 8.5-2.9 4.2-.4 9.3 1.1 1.9 3.8 2.4.9-.6 2.6-3.9 3.3 1 4-1.5.9-4.6 6.1-6.9 4.7.4 5.8-1.3 1.7-11.5-2.5-3.4 3.9.3 1.4-1.2.3-.5 2.5-1.4-3.4-13.8-.1-4.2-5.7 2.7-4.5 1.9-11.9 1-1.3 2.6-.2 3.5-2 2.5-5.7zM990.5 381.8l1.7 1.9.2 1.9.9.4-.8 1.7.5 2.6 2.8 1.5 1.9 2.3.4 2-1.3 1.2.8 2.7-1.7 1.5 1.1 2.2-.4.8 1.2.9-.3 1.4 1.4 2 2.2.6.6 1.6-2.2 4.9.9 1.9-.4 1.5 2.1 1.7-.5 4.5.7 2.3-.9 2 .7 1.9-.7.8.7 1.1 1.6-.1.8.9 2.8-1.4.6 1.4 2 .9-.6 1.9-3.9 2.8-.4 5.4-1.7.7.7 1.5-1.6.2-.8 3.1-2.7 4 .4 1.1-1.2 2.8 1.8 1.1 2.2-.5 2.9.7.2 2.2 1.2 1.2 1-.5v1.9l-1.9 1-3.7-.3-2 1.5-5.5-.5-1.2-2.5-2.7-1.4-5.1 1.3-5.7-.5-7.5 2.2-4.7-1-2.6-.1-2.8 3.1-2.3.5-9.4-1.6-3.3-2.6-4.6-1.4-1.7-1.3-1.9-4.9-1.8-.9-2.9-3.7 1.8-10-.4-2.4-1.6-1.2V437l4.6-3.2.4-6.1 6.4-9.6 4-3.7 5.6-3.3 2.2-3.1-.2-1.4-5.1-2.3-1-2.4-3.1-2.5 3.1-5.5 4-3.2.2-7.9 4.6-1.4 5.3.4 5.2 5.6 4.3 2.2 3.2.4 3.2-2.8 3-4.8 6.7-1.1v.5zM392.1 311.3l1.2-.3.1 5.8-.8 1.7-4.8-.1-4.9 1.7-8.8-1.8-.6 5.4-7.8-3.2v-1l8.7-5.8 11.6-.8 2.8-.8 1.4-1.5 1.9.7z"/><path d="m639.3 333.8.5 3.1 2.7 2.2.1 3.1 4.5.6 1.5 1 4.4-.9 7.5.3.8 6.3 1.5 1.5.2 3.1 3.4 1.4-.6 4.6 3.5 4.1.8 5.4-4.2 4.3-2 .3-2.5-1.2-3.2 1.2-.8 6.7-3.5 4.9-2.1 3-2 1-10.2 1.4-1.1 1.7 1.4 3.6-5.7 4.1-5.2 2-.8-.6-.3-3.5-4.1 1.7-1.9-3.5.1-3.4-1.7-3.6.7-2.1-.7-2.3-3.7-3-5.3-.8-3.2-1.4-.6-1.6-1.6-2.8-4.2-2.2 2.2-2.8-.7-1-5-.9-1.7-3.2-7.3-3.8-1.7-3.8h-3l-.7-4.4-1.7-2.1 3.4-1.3.4 1.8 3.6-1.1 4.9.6 1.1-1.9 3.8-2.7 1.7.4 1.7 1.8 2.6.6 2.7-1.2 5.2-.3 3.6-3.8.8.5.3 2.3 10.5-.8.9-1.4-2-3.5 2-1.7-2.1-3.5 1.2-.4 2.4 1.9 2.1-2.6 3.5-1.1 2.9-.3zM502.9 262.1l2.4 3.9 2.8.4v2.9l1.9 2.2v2.3l-1.5 3.3-2 1.8-1.7 5.7 1.7 4.7-15.4 4-3.2-1.5h-7.6l-4.7 1.8-2.2.7-2.5-.5-1.7-5.8 4.1-4.9.5-3.5-1.2-.9.3-1.2 8.8-3.4 10.5-7.1 5.5-2.2 1.8-1.7 3.4-1z"/></g></svg>