<svg width="24" height="24" viewBox="0 0 24 24" fill="none" xmlns="http://www.w3.org/2000/svg">
<path d="M9.38591 1.09839C8.71421 1.09839 2.84876 7.65216 0 10.9291L9.38591 4.18546L9.11603 5.89383L10.5554 4.99469L11.7549 8.47139L15.2933 4.8748L19.5515 6.91287C18.5919 5.41429 16.5108 2.41714 15.8631 2.41714C15.0534 2.41714 14.0639 4.18546 13.3742 4.18546C12.6845 4.18546 10.2255 1.09839 9.38591 1.09839Z" fill="#5BBCE4"/>
<path d="M19.6263 8.41799C19.4245 8.23241 19.151 8.12817 18.8658 8.12817C18.5807 8.12817 18.3072 8.23241 18.1054 8.41799L14.0457 12.1546C13.8439 12.3405 13.7305 12.5927 13.7305 12.8556C13.7305 13.1185 13.8439 13.3706 14.0457 13.5565C14.2476 13.7424 14.5214 13.8468 14.8069 13.8468C15.0924 13.8468 15.3662 13.7424 15.568 13.5565L17.7898 11.5111V19.9885C17.7898 20.2513 17.9031 20.5033 18.1049 20.6892C18.3067 20.875 18.5804 20.9794 18.8658 20.9794C19.1512 20.9794 19.4249 20.875 19.6267 20.6892C19.8285 20.5033 19.9419 20.2513 19.9419 19.9885V11.5111L22.1629 13.5565C22.2629 13.6486 22.3815 13.7216 22.5121 13.7714C22.6427 13.8212 22.7827 13.8468 22.9241 13.8468C23.0654 13.8468 23.2054 13.8212 23.336 13.7714C23.4666 13.7216 23.5853 13.6486 23.6852 13.5565C23.7852 13.4645 23.8645 13.3552 23.9186 13.2349C23.9726 13.1146 24.0005 12.9857 24.0005 12.8556C24.0005 12.7254 23.9726 12.5965 23.9186 12.4762C23.8645 12.3559 23.7852 12.2467 23.6852 12.1546L19.6263 8.41799Z" fill="#5BBCE4"/>
</svg>
