<svg xmlns="http://www.w3.org/2000/svg" xml:space="preserve" viewBox="2.7 0 24 24"><path fill="none" stroke="#D07100" stroke-width="1.45" d="M6.4 4.8h16.9c1.3 0 2.4 1.1 2.4 2.4v13.3c0 1.3-1.1 2.4-2.4 2.4H6.4c-1.3 0-2.4-1.1-2.4-2.4V7.2c0-1.4 1.1-2.4 2.4-2.4z"/><path fill="none" stroke="#D07100" stroke-linecap="round" stroke-width="1.45" d="M8.8 1.1v3.6m12.1-3.6v3.6"/><path fill="#D07100" d="M13.1 12h3.6c.3 0 .6.3.6.6v1.2c0 .3-.3.6-.6.6h-3.6c-.3 0-.6-.3-.6-.6v-1.2c0-.3.2-.6.6-.6zM13.1 16.8h3.6c.3 0 .6.3.6.6v1.2c0 .3-.3.6-.6.6h-3.6c-.3 0-.6-.3-.6-.6v-1.2c0-.3.2-.6.6-.6z"/><path fill="#D07100" d="M13.1 12h3.6c.3 0 .6.3.6.6v1.2c0 .3-.3.6-.6.6h-3.6c-.3 0-.6-.3-.6-.6v-1.2c0-.3.2-.6.6-.6zM13.1 16.8h3.6c.3 0 .6.3.6.6v1.2c0 .3-.3.6-.6.6h-3.6c-.3 0-.6-.3-.6-.6v-1.2c0-.3.2-.6.6-.6z"/></svg>