<svg xmlns="http://www.w3.org/2000/svg" viewBox="0 0 142 150"><path fill="#FFFFFF" d="M128.3 84.2c-3.7 30.2-25.2 32.1-29.2 33.4-1.7.6-17.4 4.6-37.2 3.2l-21.4 23.7v-27.4h-.2c-28.8-8.2-27.8-38.9-27.5-55 .3-16.1 3.3-29.3 12.1-38.2C40.6 9.4 73.1 11.6 73.1 11.6c27.4.1 40.6 8.6 43.6 11.4 10.2 8.9 15.3 30.1 11.6 61.2m-4.1-68.7C120.6 12.1 106 1.3 73.6 1.1c0 0-38.2-2.4-56.9 15.1C6.4 26.9 2.7 42.4 2.3 61.7c-.4 19.3-.9 55.4 33.2 65.2v14.9s-.2 6.1 3.7 7.3c4.7 1.5 7.5-3.1 12-8.1 2.5-2.7 5.9-6.7 8.4-9.8 23.3 2 41.2-2.6 43.2-3.3 4.7-1.6 31.3-5 35.6-41.2 4.4-37-2.2-60.6-14.2-71.2"/><path fill="#FFFFFF" d="M103.5 88.7S99.1 85 97 83.4c-2-1.5-5.2-3.5-7-4.6-3.2-1.8-6.5-.7-7.8 1.1l-2.8 3.6c-1.4 1.8-3.7 1.5-4.2 1.4-4.1-1-8.6-3.6-13.1-8-4.6-4.4-7.3-9-8.3-13.8l-.1-.3c-.3-2 .1-2.9.9-4.2l.2-.1c1.9-1.8 5.4-3.9 5.9-6 1.4-3.5-4.6-11-5.5-12.3 0 0-4.4-5.8-5.9-6.9-1.7-1.4-4.3-2.2-6.9-.6l-.1.1c-7.5 5.1-10.2 8-9.5 12.4l.4 1.8C37 59 44.4 71.8 55.4 83.2c10.9 11.3 22.6 18 34.2 22.7 3 1 6.1.1 9.3-2.6h.1c2.5-2.3 4.4-4.7 5.8-7.4v-.1c1.2-2.7.8-5.3-1.3-7.1M85.5 62.4c-.5 0-.8-.4-.9-.8-.2-3.1-1-5.5-2.5-7.1-1.5-1.6-3.7-2.5-6.7-2.6-.5 0-.8-.4-.8-.9s.4-.9.9-.8c3.4.2 6 1.3 7.8 3.2 1.8 1.9 2.8 4.7 3 8.2 0 .4-.3.8-.8.8"/><path fill="#FFFFFF" d="M94 65.3c-.5 0-.9-.4-.9-.9.1-6-1.6-11-5.2-15-1.8-2-3.9-3.6-6.4-4.7-2.5-1.1-5.4-1.8-8.6-2-.5 0-.8-.5-.8-.9 0-.5.4-.9.9-.8 6.9.5 12.4 3 16.2 7.3 3.9 4.3 5.8 9.8 5.6 16.3.1.4-.3.7-.8.7"/><path fill="#FFFFFF" d="M102.8 68.8c-.5 0-.9-.4-.9-.9 0-5.3-.8-10.1-2.4-14.2C98 49.6 95.7 46 92.7 43c-3-3-6.5-5.3-10.2-6.8-3.8-1.5-8-2.3-12.5-2.4-.5 0-.9-.4-.9-.9s.4-.9.9-.9c9.5.1 17.5 3.3 23.9 9.7 3.2 3.2 5.6 7 7.3 11.4 1.6 4.3 2.4 9.3 2.5 14.8 0 .5-.4.9-.9.9z"/></svg>