<svg xmlns="http://www.w3.org/2000/svg" style="display: none">
    <symbol id="arrow-equipment" viewBox="0 0 20 20" fill="none">
        <path d="M5.60226 18.6038C5.34857 18.35 5.20605 18.0059 5.20605 17.6471C5.20605 17.2882 5.34857 16.9441 5.60226 16.6903L12.3008 9.99183L5.60226 3.29334C5.35576 3.03811 5.21936 2.69629 5.22244 2.34147C5.22553 1.98666 5.36785 1.64725 5.61875 1.39635C5.86965 1.14545 6.20905 1.00314 6.56387 1.00005C6.91868 0.996969 7.26051 1.13337 7.51573 1.37987L15.171 9.0351C15.4246 9.28886 15.5672 9.633 15.5672 9.99183C15.5672 10.3507 15.4246 10.6948 15.171 10.9486L7.51573 18.6038C7.26196 18.8575 6.91782 19 6.559 19C6.20017 19 5.85603 18.8575 5.60226 18.6038Z" fill="currentColor"/>
    </symbol>
</svg>
