<svg width="11" height="18" viewBox="0 0 11 18" fill="none" xmlns="http://www.w3.org/2000/svg">
<path d="M0.602385 17.6038C0.348693 17.35 0.206177 17.0059 0.206177 16.6471C0.206177 16.2882 0.348693 15.9441 0.602385 15.6903L7.30088 8.99183L0.602384 2.29334C0.355882 2.03811 0.219483 1.69629 0.222567 1.34147C0.22565 0.98666 0.367968 0.647251 0.618868 0.396351C0.869768 0.145452 1.20917 0.00313564 1.56399 5.14391e-05C1.9188 -0.00303085 2.26063 0.133367 2.51585 0.379869L10.1711 8.0351C10.4248 8.28886 10.5673 8.633 10.5673 8.99183C10.5673 9.35066 10.4248 9.6948 10.1711 9.94856L2.51585 17.6038C2.26208 17.8575 1.91795 18 1.55912 18C1.20029 18 0.856153 17.8575 0.602385 17.6038Z" fill="#2F3B40"/>
</svg>
