<svg width="22" height="18" viewBox="0 0 22 18" fill="none" xmlns="http://www.w3.org/2000/svg">
<path d="M11.9463 17.4824C11.6964 17.2324 11.5559 16.8934 11.5559 16.5399C11.5559 16.1864 11.6964 15.8474 11.9463 15.5974L17.2148 10.3289L1.57897 10.3383C1.22402 10.3383 0.883609 10.1973 0.632623 9.94634C0.381637 9.69536 0.240635 9.35495 0.240635 9C0.240635 8.64505 0.381637 8.30464 0.632623 8.05366C0.883609 7.80267 1.22402 7.66167 1.57897 7.66167L17.2148 7.67109L11.9463 2.40259C11.6964 2.15262 11.5559 1.8136 11.5559 1.4601C11.5559 1.1066 11.6964 0.767575 11.9463 0.517611C12.1963 0.267648 12.5353 0.127219 12.8888 0.127219C13.2423 0.127219 13.5813 0.267648 13.8313 0.517611L21.3712 8.05751C21.6212 8.30748 21.7616 8.6465 21.7616 9C21.7616 9.3535 21.6212 9.69252 21.3712 9.94249L13.8313 17.4824C13.5813 17.7324 13.2423 17.8728 12.8888 17.8728C12.5353 17.8728 12.1963 17.7324 11.9463 17.4824Z" fill="#5BBCE4"/>
</svg>
