<svg width="12" height="12" viewBox="0 0 12 12" fill="none" xmlns="http://www.w3.org/2000/svg">
<path d="M1.0506 1.04999C1.23813 0.862517 1.49243 0.757202 1.7576 0.757202C2.02276 0.757202 2.27707 0.862517 2.4646 1.04999L6.0006 4.58599L9.5366 1.04999C9.7252 0.86783 9.9778 0.767036 10.24 0.769315C10.5022 0.771593 10.753 0.876762 10.9384 1.06217C11.1238 1.24758 11.229 1.49839 11.2313 1.76059C11.2336 2.02278 11.1328 2.27539 10.9506 2.46399L7.4146 5.99999L10.9506 9.53599C11.1328 9.72459 11.2336 9.97719 11.2313 10.2394C11.229 10.5016 11.1238 10.7524 10.9384 10.9378C10.753 11.1232 10.5022 11.2284 10.24 11.2307C9.9778 11.2329 9.7252 11.1321 9.5366 10.95L6.0006 7.41399L2.4646 10.95C2.276 11.1321 2.02339 11.2329 1.7612 11.2307C1.499 11.2284 1.24819 11.1232 1.06278 10.9378C0.877372 10.7524 0.772203 10.5016 0.769925 10.2394C0.767646 9.97719 0.868441 9.72459 1.0506 9.53599L4.5866 5.99999L1.0506 2.46399C0.863128 2.27646 0.757812 2.02215 0.757812 1.75699C0.757812 1.49182 0.863128 1.23752 1.0506 1.04999Z" fill="#CCCCCC"/>
</svg>
